<svg width="64" height="64" viewBox="0 0 64 64" fill="none"
    xmlns="http://www.w3.org/2000/svg">
    <rect width="64" height="64" rx="8" fill="#FBAF1D"/>
    <g clip-path="url(#clip0_1265_172017)">
        <path d="M49.845 26.4465H47.9035C47.241 26.4465 46.735 26.1029 46.4908 25.5117L43.459 17.214C43.171 16.4258 42.4313 16.0017 41.5982 15.9002H41.5981H41.5982C39.3574 15.6262 36.4444 14.8983 35.3846 14.8983C34.0792 14.8983 33.2758 15.3 31.3678 15.3C29.4598 15.3 28.4555 12.8898 27.7526 12.1869C27.0496 11.4839 23.6354 12.9902 21.6269 12.9902C19.6185 12.9902 17.4093 14.2957 17.4093 16.0028C17.4093 17.7099 15.5013 18.8146 13.3925 20.9234C11.2836 23.0322 14.0452 28.1034 15.6017 29.6599C17.1582 31.2163 19.2168 31.5678 21.6269 30.5636C24.0369 29.5594 24.8905 30.0113 26.0453 31.1661C27.2002 32.321 27.2503 33.9779 28.6562 35.3838C30.0622 36.7896 29.3592 42.0115 29.3592 44.3211C29.3592 46.6308 31.2672 49.5429 32.7735 51.0493C34.2799 52.5556 34.4806 52.0535 36.7903 51.0493C39.1 50.045 40.9075 45.2249 43.0164 43.1161C45.1252 41.0073 44.7235 37.8943 44.7235 36.0867C44.7235 34.2792 48.6399 30.7645 50.6482 28.7561C52.6568 26.7477 49.845 26.4465 49.845 26.4465Z" fill="white"/>
        <path d="M17.9011 28.7006C16.2838 27.0832 13.0454 21.4639 15.5792 18.9609H15.5126C14.8849 19.5349 14.1521 20.1638 13.3926 20.9234C11.2838 23.0322 14.0453 28.1034 15.6018 29.6599C17.1583 31.2164 19.2169 31.5679 21.627 30.5636C21.8968 30.4512 22.1463 30.358 22.3797 30.281C20.6435 30.4768 19.1303 29.9297 17.9011 28.7006Z" fill="white"/>
        <path d="M31.3266 44.1438C31.3266 41.7566 32.0295 36.3594 30.6236 34.9063C29.2177 33.4532 29.1675 31.7407 28.0127 30.547C26.8578 29.3534 26.0042 28.8863 23.5942 29.9243C23.4852 29.9712 23.377 30.0143 23.2694 30.0556C24.5173 29.8543 25.2013 30.3219 26.0456 31.1661C27.2004 32.321 27.2506 33.9779 28.6565 35.3838C30.0624 36.7897 29.3595 42.0115 29.3595 44.3212C29.3595 46.6309 31.2674 49.543 32.7737 51.0493C33.8963 52.172 34.2943 52.1787 35.3801 51.6937C33.7924 50.4373 31.3266 46.8187 31.3266 44.1438Z" fill="white"/>
        <path d="M50.0961 40.1538C50.8367 40.4977 51.0501 41.3087 50.5479 42.4635C50.0458 43.6184 51.8785 45.7523 50.0961 47.5347C48.3136 49.3171 47.8366 48.5891 46.7822 47.5347C45.7279 46.4803 45.6023 45.7523 46.1797 45.1748C46.7572 44.5974 46.7069 42.5388 47.435 41.8108C48.1629 41.0826 48.6902 39.5011 50.0961 40.1538Z" fill="white"/>
        <path d="M48.7944 47.5347C47.7401 46.4803 47.6145 45.7523 48.1919 45.1748C48.7694 44.5974 48.7191 42.5388 49.4472 41.8108C49.8105 41.4474 50.1239 40.8715 50.5215 40.4667C50.409 40.3388 50.2673 40.2333 50.0961 40.1538C48.6902 39.5011 48.163 41.0827 47.435 41.8108C46.7069 42.5388 46.7572 44.5974 46.1797 45.1748C45.6023 45.7523 45.7279 46.4803 46.7822 47.5347C47.6871 48.4395 48.1675 49.1024 49.4118 48.1463C49.2201 47.9718 49.0205 47.7609 48.7944 47.5347Z" fill="white"/>
    </g>
    <defs>
        <clipPath id="clip0_1265_172017">
            <rect width="40" height="40" fill="white" transform="translate(12 12)"/>
        </clipPath>
    </defs>
</svg>
