<svg width="64" height="64" viewBox="0 0 64 64" fill="none"
    xmlns="http://www.w3.org/2000/svg">
    <rect width="64" height="64" rx="8" fill="#050C72"/>
    <path d="M15.5509 24.7971L17.8462 24.1562C17.9476 24.1278 18.0406 24.0752 18.1171 24.0027L19.4724 22.7187C19.561 22.6347 19.6715 22.5776 19.7912 22.5539C19.9109 22.5302 20.0348 22.5408 20.1487 22.5846L20.7265 22.8068C20.8061 22.8375 20.891 22.8521 20.9763 22.8498C21.0616 22.8475 21.1456 22.8283 21.2234 22.7934L21.8946 22.4918C21.9732 22.4565 22.0579 22.4373 22.144 22.4353C22.2301 22.4333 22.3157 22.4484 22.3958 22.4799C22.4759 22.5114 22.5489 22.5586 22.6105 22.6187C22.6721 22.6788 22.7211 22.7506 22.7546 22.8299L23.054 23.538C23.1505 23.7666 23.1768 24.0186 23.1296 24.2621L22.6131 26.9309C22.5865 27.0679 22.5908 27.2092 22.6258 27.3444C22.6608 27.4795 22.7255 27.6052 22.8153 27.7121L23.6084 28.6574C23.9574 29.0737 24.1919 29.5738 24.2887 30.1084L24.614 31.9012C24.6387 32.0374 24.7064 32.1621 24.8073 32.2569C24.9082 32.3517 25.0368 32.4116 25.1743 32.4277L25.4168 32.4562C25.756 32.4962 26.0727 32.6461 26.3187 32.883L28.2287 34.7243C28.4145 34.9033 28.6512 35.0204 28.9062 35.0596L31.0524 35.3927C31.1623 35.4102 31.2657 35.4558 31.3528 35.525C31.4399 35.5942 31.5076 35.6847 31.5495 35.7877C31.5913 35.8908 31.6059 36.0029 31.5918 36.1132C31.5776 36.2235 31.5352 36.3283 31.4687 36.4174L30.9199 37.1537C30.8615 37.2324 30.8216 37.3233 30.8034 37.4196L30.7018 37.9546C30.6415 38.2751 30.7088 38.6065 30.8893 38.878L32.2018 40.8571C32.2942 40.9964 32.437 41.0946 32.6003 41.1309L32.9215 41.2024C33.0137 41.2229 33.1003 41.2633 33.1751 41.3208C33.25 41.3784 33.3113 41.4516 33.3548 41.5354C33.3983 41.6193 33.4229 41.7116 33.4269 41.8059C33.4309 41.9003 33.4141 41.9943 33.3778 42.0815L33.0699 42.8205C33.0289 42.9191 33.0128 43.0262 33.0233 43.1325C33.0338 43.2387 33.0704 43.3407 33.1299 43.4293L33.4062 43.8437C33.4834 43.9586 33.5216 44.0953 33.5152 44.2336C33.5089 44.3718 33.4583 44.5044 33.3709 44.6118L32.8362 45.268C32.729 45.3996 32.6778 45.568 32.6938 45.7369C32.7098 45.9059 32.7916 46.0617 32.9215 46.1709C32.9938 46.2315 33.0519 46.3072 33.0917 46.3926C33.1315 46.4781 33.1522 46.5712 33.1521 46.6655V48.793C33.152 48.9755 33.2052 49.1541 33.3051 49.3068C33.4051 49.4595 33.5474 49.5797 33.7146 49.6527L33.9593 49.759C34.1016 49.8209 34.2614 49.8295 34.4095 49.7832C34.5576 49.737 34.6841 49.639 34.7659 49.5071L35.5878 48.1821C35.7758 47.8791 35.8546 47.5208 35.8109 47.1668L35.6396 45.7799C35.625 45.662 35.6433 45.5423 35.6924 45.4341C35.7414 45.3258 35.8194 45.2332 35.9178 45.1665L37.5034 44.089C37.7163 43.9444 37.8793 43.7375 37.9703 43.4968L38.3371 42.5249C38.5087 42.0711 38.8086 41.6769 39.2003 41.3905L40.5625 40.3943C40.7609 40.2492 40.9222 40.0594 41.0335 39.8403C41.1448 39.6211 41.2027 39.3788 41.2028 39.133V38.9546C41.2029 38.828 41.2402 38.7043 41.31 38.5988C41.3799 38.4932 41.4792 38.4105 41.5956 38.3609L42.7168 37.8834C42.8725 37.817 42.9959 37.6921 43.0606 37.5357C43.1252 37.3793 43.1259 37.2037 43.0625 37.0468L42.9481 36.7637C42.8298 36.4711 42.6397 36.2132 42.3952 36.0137C42.1508 35.8142 41.8599 35.6796 41.5496 35.6224L39.9003 35.3187C39.8091 35.3019 39.7227 35.2657 39.6468 35.2126C39.5709 35.1595 39.5073 35.0907 39.4603 35.0109L39.1303 34.4484C39.0373 34.2904 38.9107 34.1547 38.7595 34.0511C38.6083 33.9475 38.4362 33.8784 38.2553 33.8487L32.849 32.9649C32.723 32.9443 32.5937 32.9615 32.4774 33.0143L31.8431 33.3027C31.7098 33.3632 31.5599 33.3767 31.418 33.3409C31.2761 33.3052 31.1505 33.2223 31.0618 33.1059L30.2643 32.0593C30.178 31.9459 30.0566 31.8643 29.919 31.8271L29.2353 31.6421C29.1372 31.6156 29.0468 31.5663 28.9713 31.4983C28.8959 31.4303 28.8375 31.3454 28.801 31.2507C28.7644 31.1559 28.7508 31.0538 28.7611 30.9527C28.7714 30.8517 28.8054 30.7545 28.8603 30.669L29.5553 29.5874C29.6029 29.5133 29.6653 29.4497 29.7385 29.4005C29.8117 29.3514 29.8941 29.3177 29.9808 29.3016C30.0675 29.2855 30.1565 29.2873 30.2425 29.3069C30.3284 29.3265 30.4094 29.3635 30.4806 29.4155L31.8059 30.3843C31.9285 30.4741 32.0789 30.5177 32.2306 30.5074L32.5674 30.4852C32.7292 30.4744 32.881 30.4032 32.9928 30.2857C33.1045 30.1682 33.168 30.013 33.1706 29.8509L33.1918 28.5312C33.1972 28.2096 33.3015 27.8976 33.4906 27.6374L34.7203 25.9465C34.7798 25.8645 34.8579 25.7977 34.948 25.7515C35.0382 25.7053 35.138 25.681 35.2393 25.6805L36.3081 25.6743C36.5951 25.6727 36.8791 25.6147 37.1437 25.5034L38.3271 25.0059C38.6185 24.8833 38.8527 24.6548 38.9824 24.3665C39.1121 24.0782 39.1278 23.7515 39.0262 23.4521L38.429 21.6915C38.2953 21.2976 38.0345 20.9593 37.6874 20.7299L35.9293 19.5709C35.7864 19.4766 35.6257 19.4128 35.4572 19.3832C35.2886 19.3537 35.1157 19.359 34.9493 19.399L34.5312 19.4999C34.3761 19.537 34.2402 19.6302 34.1498 19.7615C34.0593 19.8929 34.0206 20.053 34.0412 20.2112L34.1212 20.8296C34.1379 20.9582 34.1155 21.0889 34.0569 21.2046C33.9984 21.3203 33.9063 21.4157 33.7928 21.4784L33.6034 21.583C33.5107 21.6342 33.4068 21.6617 33.3009 21.6633C33.1951 21.6649 33.0904 21.6404 32.9962 21.5921L31.7168 20.9359C31.5049 20.827 31.3284 20.6599 31.2083 20.4542C31.0882 20.2485 31.0293 20.0127 31.0387 19.7746L31.044 19.638C31.0514 19.4491 31.1016 19.2642 31.1908 19.0974C31.28 18.9307 31.4059 18.7863 31.559 18.6752L33.6415 17.1643C33.7965 17.0517 33.9207 16.9018 34.0027 16.7286C34.0846 16.5554 34.1216 16.3643 34.1103 16.173C34.0959 15.9283 33.9862 15.699 33.8048 15.5342C33.6234 15.3693 33.3846 15.2821 33.1396 15.2912L30.0849 15.4043C29.8223 15.414 29.5705 15.5115 29.3697 15.6812C29.169 15.8508 29.0309 16.0829 28.9774 16.3402C28.9591 16.4286 28.9225 16.5121 28.8699 16.5854C28.8173 16.6587 28.75 16.7202 28.6722 16.7659C28.5944 16.8116 28.508 16.8405 28.4183 16.8508C28.3287 16.8611 28.2379 16.8525 28.1518 16.8255L27.4571 16.6068C27.0986 16.4946 26.7211 16.4553 26.3471 16.4912L24.0609 16.7099C23.7261 16.7422 23.4061 16.8639 23.1345 17.0623C22.8629 17.2607 22.6496 17.5286 22.5171 17.8377L22.3631 18.1971C22.3044 18.3339 22.2003 18.4462 22.0684 18.5151C21.9364 18.584 21.7848 18.6052 21.639 18.5752L20.1771 18.2743C19.7852 18.1936 19.3773 18.2663 19.0374 18.4774L16.5409 20.028C16.3602 20.1403 16.2111 20.2967 16.1077 20.4827C16.0044 20.6686 15.9502 20.8778 15.9503 21.0905V21.863C15.9502 21.973 15.9222 22.0811 15.8687 22.1772C15.8152 22.2733 15.7381 22.3542 15.6446 22.4121L14.7474 22.9687C14.5541 23.0885 14.411 23.2745 14.3446 23.4921C14.2783 23.7096 14.2933 23.9439 14.3868 24.1512L14.4443 24.2784C14.5363 24.4829 14.6984 24.6476 14.9015 24.7428C15.1045 24.838 15.3349 24.8573 15.5509 24.7971Z" fill="white"/>
    <path d="M38.4375 14.4427L38.1875 14.6521C38.0639 14.7553 37.9645 14.8843 37.8963 15.0301C37.828 15.1759 37.7926 15.3349 37.7925 15.4959V16.3124C37.7925 16.4986 37.8398 16.6818 37.9299 16.8447C38.0201 17.0076 38.1501 17.145 38.3078 17.244L39.5556 18.0252C39.7493 18.1465 39.9003 18.3252 39.9875 18.5365L40.8025 20.508C40.8916 20.723 41.007 20.926 41.1462 21.1124L42.6575 23.1437C42.7833 23.3127 42.9499 23.4472 43.1417 23.5346C43.3334 23.6221 43.5442 23.6596 43.7543 23.6437L43.8559 23.6362C43.9888 23.6261 44.1181 23.5879 44.235 23.524C44.352 23.46 44.454 23.3719 44.5342 23.2654C44.6144 23.159 44.671 23.0366 44.7002 22.9066C44.7293 22.7765 44.7304 22.6417 44.7034 22.5112L44.4384 21.2299C44.385 20.9723 44.4258 20.7041 44.5534 20.474L45.5031 18.7612C45.6056 18.5763 45.6696 18.3725 45.6911 18.1621C45.7126 17.9518 45.6911 17.7392 45.6281 17.5374L45.334 16.5968C45.2726 16.4 45.157 16.2245 45.0006 16.0902C44.8442 15.9559 44.6532 15.8684 44.4493 15.8374L42.9518 15.6105C42.8661 15.5977 42.7822 15.5749 42.7018 15.5424L39.5544 14.268C39.3698 14.1933 39.1685 14.1701 38.9718 14.2009C38.7751 14.2317 38.5904 14.3152 38.4375 14.4427Z" fill="white"/>
</svg>
