<svg width="64" height="64" viewBox="0 0 64 64" fill="none"
    xmlns="http://www.w3.org/2000/svg">
    <rect width="64" height="64" rx="8" fill="#EB5757"/>
    <path d="M16.6581 24.098L16.3994 24.8609C16.2602 25.2707 16.0451 25.6506 15.7653 25.9809L15.5906 26.1865C15.4386 26.3654 15.3287 26.5763 15.2692 26.8035C15.2097 27.0307 15.2021 27.2684 15.2469 27.499L15.5078 28.8355C15.5338 28.9682 15.6047 29.0879 15.7085 29.1746L16.306 29.6727C16.3807 29.7345 16.4389 29.8139 16.4755 29.9037C16.5121 29.9935 16.5259 30.091 16.5156 30.1874L16.375 31.4687C16.3514 31.6841 16.3728 31.9021 16.4378 32.1088C16.5028 32.3155 16.6101 32.5065 16.7528 32.6696L17.0053 32.9584C17.1387 33.111 17.3179 33.2163 17.5162 33.2585C17.7145 33.3007 17.9211 33.2775 18.105 33.1924L19.71 32.4518C19.7889 32.4154 19.8748 32.397 19.9616 32.3977C20.0484 32.3985 20.134 32.4185 20.2122 32.4562C20.2904 32.494 20.3592 32.5486 20.4138 32.6161C20.4684 32.6837 20.5073 32.7624 20.5278 32.8468L20.6691 33.4274C20.691 33.5173 20.7338 33.6008 20.7941 33.6711C20.8543 33.7413 20.9303 33.7964 21.0158 33.8317C21.1014 33.8671 21.194 33.8818 21.2863 33.8747C21.3786 33.8675 21.4679 33.8387 21.5469 33.7905L23.2656 32.7421C23.3868 32.6685 23.4897 32.5685 23.5666 32.4494C23.6435 32.3304 23.6924 32.1954 23.7096 32.0547C23.7269 31.9141 23.712 31.7713 23.6661 31.6372C23.6202 31.5031 23.5445 31.3812 23.4447 31.2805L22.3885 30.2124C22.2638 30.086 22.1058 29.9976 21.9329 29.9575C21.7599 29.9174 21.5792 29.9272 21.4116 29.9859L21.1616 30.073C21.0484 30.1125 20.9258 30.1165 20.8103 30.0844C20.6948 30.0522 20.5919 29.9856 20.5153 29.8934L19.8869 29.1368C19.8264 29.064 19.7843 28.9777 19.7643 28.8853C19.7442 28.7928 19.7467 28.6968 19.7716 28.6055L19.9553 27.928C20.0077 27.7341 20.121 27.5621 20.2786 27.4374C20.4361 27.3128 20.6295 27.242 20.8303 27.2355L21.6741 27.2068C21.742 27.2045 21.8097 27.2141 21.8744 27.2349L23.9881 27.9159C24.0779 27.9448 24.1593 27.9949 24.2257 28.0619C24.292 28.1289 24.3413 28.2108 24.3694 28.3008L24.565 28.929C24.87 29.9077 25.4106 30.7967 26.1394 31.5177L26.605 31.978C26.6607 32.0331 26.7268 32.0765 26.7994 32.1056C26.8721 32.1348 26.9499 32.1491 27.0281 32.1477L27.3331 32.1427C27.4701 32.1402 27.6059 32.1677 27.731 32.2234C27.8561 32.279 27.9676 32.3613 28.0575 32.4646C28.1474 32.5679 28.2136 32.6897 28.2514 32.8213C28.2892 32.9529 28.2977 33.0912 28.2763 33.2265L28.1691 33.9102C28.1149 34.2562 28.1095 34.608 28.1528 34.9555L28.4297 37.1777C28.4422 37.2792 28.481 37.3756 28.5422 37.4574L29.3506 38.538C29.41 38.6174 29.4884 38.6804 29.5786 38.7214C29.6689 38.7623 29.768 38.7798 29.8668 38.7722C29.9656 38.7646 30.0608 38.7321 30.1437 38.6779C30.2266 38.6236 30.2945 38.5493 30.341 38.4618L31.25 36.7537C31.2903 36.6778 31.3136 36.594 31.3181 36.5083C31.3225 36.4225 31.3082 36.3367 31.276 36.2571L30.8522 35.2105C30.7958 35.0708 30.7951 34.9148 30.8503 34.7746C30.9054 34.6343 31.0123 34.5206 31.1488 34.4568L32.4081 33.869C32.5268 33.8139 32.6236 33.7207 32.6831 33.6043L33.1541 32.6846C33.2519 32.4931 33.4126 32.3411 33.6091 32.254C33.8057 32.1669 34.0262 32.15 34.2338 32.2062L35.3163 32.4977C35.4409 32.5316 35.5509 32.6055 35.6293 32.7082C35.7077 32.8108 35.7501 32.9364 35.75 33.0655V34.2868C35.7501 34.4249 35.7987 34.5586 35.8875 34.6645C35.9762 34.7704 36.0993 34.8416 36.2353 34.8659L37.1681 35.0318C37.3129 35.0575 37.4427 35.1364 37.5322 35.2531C37.6216 35.3697 37.6641 35.5157 37.6513 35.6621L37.5678 36.6108C37.5406 36.9231 37.6313 37.2342 37.8222 37.4827L38.6253 38.529C38.6594 38.5731 38.6995 38.6122 38.7444 38.6452L39.6416 39.3015C39.7293 39.3657 39.833 39.4043 39.9413 39.4132C40.0496 39.422 40.1583 39.4006 40.2552 39.3515C40.3521 39.3023 40.4335 39.2273 40.4903 39.1346C40.5472 39.042 40.5772 38.9355 40.5772 38.8268V38.3374C40.5773 38.0869 40.5022 37.8422 40.3616 37.6349L39.7991 36.8037C39.7186 36.6849 39.6844 36.5408 39.7027 36.3985C39.7211 36.2563 39.7908 36.1256 39.8988 36.0312L40.0756 35.8749C40.1614 35.7997 40.2672 35.7511 40.3801 35.7351C40.4931 35.719 40.6082 35.7361 40.7116 35.7843C40.8386 35.8436 40.9826 35.8556 41.1176 35.8182C41.2527 35.7807 41.3699 35.6962 41.4481 35.5799L42.0147 34.7387C42.0739 34.6503 42.1081 34.5476 42.1136 34.4414C42.1191 34.3352 42.0957 34.2295 42.046 34.1355L41.7681 33.6093C41.6887 33.4585 41.5792 33.3256 41.4464 33.2187C41.3137 33.1119 41.1605 33.0332 40.9963 32.9877L40.6394 32.8884C40.5141 32.8535 40.4038 32.7781 40.3259 32.674C40.248 32.5698 40.2068 32.4428 40.2088 32.3127L40.2288 31.0315C40.23 30.9524 40.2471 30.8743 40.2792 30.802C40.3113 30.7297 40.3576 30.6646 40.4154 30.6106C40.4733 30.5566 40.5414 30.5149 40.6158 30.4878C40.6901 30.4608 40.7691 30.4491 40.8481 30.4534L42.5003 30.5415C42.7038 30.5528 42.9069 30.5142 43.0921 30.4291C43.2772 30.344 43.4387 30.2149 43.5625 30.053L44.3791 28.9865C44.5919 28.7084 44.735 28.3834 44.7963 28.0387L44.9797 27.0055C45.0328 26.7076 44.9983 26.4007 44.8803 26.1221L44.3988 24.9843C44.3099 24.7735 44.1471 24.6025 43.9409 24.5035C43.7347 24.4044 43.4995 24.3841 43.2794 24.4465L42.9266 24.5459C42.8498 24.5676 42.7694 24.5734 42.6903 24.563C42.6112 24.5527 42.535 24.5263 42.4664 24.4855C42.3979 24.4448 42.3383 24.3905 42.2913 24.326C42.2444 24.2614 42.2111 24.188 42.1935 24.1102L41.9547 23.0624C41.9325 22.9656 41.9352 22.8647 41.9625 22.7692C41.9898 22.6736 42.0409 22.5866 42.111 22.5162L42.6825 21.9446C42.7739 21.8535 42.8927 21.795 43.0206 21.7781C43.1485 21.7612 43.2784 21.7867 43.3903 21.8509L44.4672 22.4662C44.5329 22.5037 44.6053 22.5282 44.6803 22.5384L45.4656 22.6446C45.5549 22.6566 45.6458 22.648 45.7312 22.6194C45.8167 22.5908 45.8944 22.5429 45.9584 22.4795C46.0224 22.4161 46.071 22.3388 46.1004 22.2537C46.1299 22.1685 46.1393 22.0777 46.1281 21.9884L45.9013 20.1737C45.89 20.0831 45.8577 19.9964 45.807 19.9204C45.7564 19.8445 45.6887 19.7814 45.6094 19.7362L44.4935 19.0984C44.3678 19.0265 44.273 18.911 44.2272 18.7737L43.9116 17.8271C43.8251 17.5671 43.6719 17.3344 43.4671 17.1524C43.2624 16.9703 43.0133 16.8453 42.745 16.7899L40.6366 16.3524C40.5529 16.3351 40.4665 16.3362 40.3834 16.3557C40.3002 16.3751 40.2223 16.4124 40.155 16.465C40.0877 16.5176 40.0326 16.5843 39.9937 16.6603C39.9547 16.7363 39.9328 16.8199 39.9294 16.9052L39.8756 18.2755C39.8705 18.4163 39.8151 18.5506 39.7194 18.654L38.25 20.2262C38.1721 20.3098 38.0714 20.3688 37.9604 20.3961C37.8494 20.4234 37.7329 20.4178 37.625 20.3799L36.5156 19.9912C36.135 19.8578 35.7301 19.8078 35.3285 19.8445C34.9268 19.8813 34.5377 20.0038 34.1875 20.204L33.1078 20.8212C33.014 20.8747 32.9072 20.9014 32.7991 20.8983C32.6911 20.8952 32.586 20.8625 32.4953 20.8037L31.4541 20.1268C31.3124 20.0346 31.1535 19.972 30.987 19.943C30.8205 19.9139 30.6499 19.9189 30.4853 19.9577L30.0166 20.0684C29.872 20.1023 29.72 20.0804 29.5909 20.0069C29.4619 19.9334 29.3655 19.8138 29.321 19.6721L29.0985 18.9643C29.0664 18.8624 29.0072 18.7712 28.9272 18.7004C28.8472 18.6296 28.7494 18.5819 28.6444 18.5624L26.0244 18.0771C25.8324 18.0414 25.634 18.0665 25.457 18.1489C25.2799 18.2314 25.1331 18.3671 25.0369 18.5371L24.5938 19.3202C24.5357 19.4224 24.5097 19.5396 24.5191 19.6568L24.5503 20.0727C24.5573 20.1611 24.5442 20.2499 24.512 20.3325C24.4798 20.4152 24.4293 20.4894 24.3644 20.5498C24.2994 20.6102 24.2217 20.6551 24.1369 20.6812C24.0522 20.7073 23.9627 20.7139 23.875 20.7005L23.3697 20.6227C23.2927 20.6109 23.2141 20.6145 23.1385 20.6333C23.0628 20.652 22.9917 20.6857 22.9292 20.7322C22.8667 20.7787 22.814 20.8372 22.7743 20.9042C22.7346 20.9713 22.7086 21.0456 22.6978 21.1227L22.5313 22.3002C22.5101 22.4518 22.5487 22.6056 22.6388 22.7293L22.9513 23.1568C23.0158 23.2451 23.0544 23.3497 23.0628 23.4588C23.0712 23.5679 23.049 23.6771 22.9988 23.7743L22.4675 24.7996C22.4258 24.8804 22.3659 24.9504 22.2925 25.0041C22.2192 25.0578 22.1344 25.0938 22.0448 25.1092C21.9551 25.1246 21.8632 25.119 21.7761 25.0929C21.689 25.0668 21.6092 25.0208 21.5428 24.9587L20.6606 24.1318C20.5877 24.0633 20.5334 23.9774 20.5029 23.8822C20.4724 23.7869 20.4667 23.6855 20.4863 23.5874L20.62 22.9187C20.6353 22.8422 20.6352 22.7635 20.6198 22.687C20.6044 22.6106 20.574 22.5379 20.5303 22.4734L19.4303 20.8484C19.3608 20.7458 19.2607 20.6678 19.1443 20.6255C19.0278 20.5832 18.901 20.5787 18.7819 20.6127L17.9247 20.8577C17.7891 20.8967 17.644 20.8856 17.516 20.8265L16.2716 20.2499C16.0233 20.1352 15.7493 20.0875 15.4768 20.1116C15.2044 20.1357 14.943 20.2308 14.7188 20.3874L14.5891 20.478C14.3983 20.6115 14.2639 20.811 14.2119 21.0379C14.16 21.2649 14.1941 21.503 14.3078 21.7062L14.7722 22.5362C14.8334 22.6464 14.9283 22.7341 15.0431 22.7862L16.3438 23.373C16.4768 23.4333 16.5828 23.5409 16.6409 23.6749C16.699 23.8089 16.7051 23.9597 16.6581 24.098Z" fill="white"/>
    <path d="M43.2062 39.2188L43.17 39.2269C42.9998 39.2653 42.8478 39.3605 42.739 39.4968C42.6303 39.6331 42.5712 39.8025 42.5715 39.9769V40.3347C42.5715 40.4356 42.5932 40.5353 42.6353 40.627C42.6774 40.7187 42.7388 40.8002 42.8153 40.866L43.4431 41.4063C43.5492 41.4977 43.6745 41.5642 43.8097 41.6009C43.9449 41.6375 44.0866 41.6434 44.2243 41.6181L44.5131 41.565C44.7036 41.5302 44.8787 41.4372 45.0142 41.2988C45.1498 41.1604 45.2391 40.9834 45.27 40.7922L45.4609 39.6172C45.4876 39.4532 45.5717 39.3041 45.6981 39.1963L46.1928 38.7747C46.3159 38.6693 46.3987 38.5246 46.4271 38.3651C46.4556 38.2056 46.428 38.0412 46.349 37.8997L46.1928 37.621C46.128 37.505 46.0975 37.373 46.1047 37.2403L46.155 36.321C46.161 36.2122 46.1415 36.1036 46.0982 36.0037C46.0549 35.9037 45.9889 35.8153 45.9054 35.7453C45.8219 35.6754 45.7233 35.6259 45.6173 35.6007C45.5114 35.5755 45.401 35.5754 45.295 35.6003L45.144 35.636C45.0291 35.663 44.9229 35.7186 44.8352 35.7977C44.7475 35.8767 44.6812 35.9766 44.6425 36.0882L43.7128 38.7666C43.6735 38.8787 43.6065 38.979 43.5179 39.0581C43.4293 39.1371 43.322 39.1924 43.2062 39.2188Z" fill="white"/>
    <path d="M39.1923 43.6248L39.291 43.2389C39.3369 43.0598 39.3101 42.8698 39.2163 42.7105L38.7735 41.9558C38.6907 41.8146 38.5725 41.6975 38.4304 41.6162C38.2884 41.5349 38.1275 41.4922 37.9638 41.4923H37.5435C37.3989 41.4924 37.2579 41.4476 37.1398 41.3642L35.4957 40.2055C35.4165 40.1495 35.3266 40.1107 35.2316 40.0914L34.8338 40.0105C34.7074 39.9848 34.5764 39.9944 34.4552 40.0384C34.334 40.0824 34.2273 40.159 34.1468 40.2597C34.0663 40.3605 34.0152 40.4815 33.999 40.6094C33.9829 40.7374 34.0024 40.8673 34.0554 40.9848L34.4376 41.8364C34.6733 42.3596 35.0482 42.808 35.5213 43.1326L37.0898 44.208C37.2064 44.288 37.3445 44.3308 37.486 44.3308H38.2819C38.4906 44.3312 38.6934 44.262 38.8583 44.1341C39.0232 44.0062 39.1407 43.827 39.1923 43.6248Z" fill="white"/>
    <path d="M48.3281 44.4836L48.9065 44.3961C49.0175 44.3793 49.122 44.3328 49.2088 44.2617C49.2957 44.1906 49.3617 44.0973 49.4001 43.9918C49.4385 43.8863 49.4477 43.7724 49.4268 43.6621C49.406 43.5518 49.3558 43.4491 49.2815 43.3649L49.1909 43.2618C49.083 43.1392 49.0212 42.9828 49.0163 42.8196C49.0114 42.6563 49.0637 42.4965 49.164 42.3677L49.664 41.7271C49.7683 41.5934 49.8205 41.4263 49.811 41.257C49.8015 41.0877 49.7308 40.9276 49.6122 40.8065L49.3706 40.5593C49.2866 40.4735 49.182 40.4108 49.0669 40.377C48.9517 40.3432 48.8298 40.3396 48.7128 40.3665L48.0303 40.5227C47.9212 40.5478 47.8197 40.5987 47.7343 40.671C47.6489 40.7434 47.582 40.8352 47.5394 40.9386L46.9422 42.3886C46.85 42.6128 46.8248 42.8589 46.8697 43.0971C46.9147 43.3353 47.0278 43.5553 47.1953 43.7305L47.7169 44.2755C47.7946 44.3567 47.8907 44.4179 47.9971 44.4542C48.1035 44.4904 48.217 44.5005 48.3281 44.4836Z" fill="white"/>
    <path d="M40.9406 44.9884L41.3437 44.9374C41.4755 44.9207 41.6094 44.9321 41.7365 44.9708C41.8635 45.0096 41.9809 45.0749 42.0809 45.1624L42.21 45.2753C42.3378 45.3871 42.5018 45.4487 42.6715 45.4487H42.9737C43.0821 45.4487 43.189 45.4236 43.286 45.3754C43.383 45.3271 43.4675 45.257 43.5328 45.1706L43.8634 44.7331C43.9493 44.6192 44.0679 44.5342 44.2034 44.4895C44.3389 44.4449 44.4847 44.4426 44.6215 44.4831L45.3475 44.6981C45.5152 44.7477 45.6583 44.8583 45.7487 45.0081L46.174 45.7134C46.2978 45.918 46.3387 46.1621 46.2884 46.3959C46.2381 46.6296 46.1004 46.8353 45.9034 46.9709L45.3044 47.3843C45.121 47.5108 44.9128 47.5967 44.6936 47.6362C44.4745 47.6758 44.2494 47.6681 44.0334 47.6137L41.5209 46.9803L40.5209 46.6799C40.4176 46.6489 40.3228 46.5944 40.244 46.5208C40.1651 46.4471 40.1044 46.3562 40.0664 46.2552C40.0284 46.1542 40.0143 46.0458 40.0251 45.9384C40.0359 45.831 40.0714 45.7276 40.1287 45.6362L40.2644 45.4203C40.3381 45.3027 40.437 45.203 40.5539 45.1283C40.6709 45.0536 40.803 45.0058 40.9406 44.9884Z" fill="white"/>
</svg>
