<svg width="64" height="64" viewBox="0 0 64 64" fill="none"
    xmlns="http://www.w3.org/2000/svg">
    <rect width="64" height="64" rx="8" fill="#00B159"/>
    <path d="M42.7489 46.3693C42.1338 46.4775 41.4306 46.6593 41.169 47.2264C40.9854 47.6242 41.1095 48.1404 41.4538 48.4114C41.8369 48.7129 42.3942 48.6984 42.7918 48.9805C43.2772 49.325 43.4557 50.0602 44.0254 50.2329C44.2807 50.3103 44.5554 50.2496 44.8134 50.1819C45.3592 50.0385 45.8969 49.8642 46.4231 49.6601C46.5883 49.5961 46.763 49.5204 46.8569 49.3701C47.326 48.6199 46.8821 46.7241 46.0491 46.3453C45.2777 45.9945 43.5361 46.2309 42.7489 46.3693Z" fill="white"/>
    <path d="M46.8566 49.3699C46.7631 49.5205 46.5884 49.5961 46.4233 49.6598C46.0408 49.808 45.6526 49.9408 45.2605 50.056C45.3458 50.0044 45.4216 49.9408 45.4747 49.8563C46.0094 48.9995 45.5029 46.8357 44.5519 46.4032C44.3473 46.3098 44.0832 46.2535 43.7869 46.2228C44.5922 46.1383 45.5351 46.1118 46.0489 46.3453C46.8823 46.7238 47.3261 48.6202 46.8566 49.3699Z" fill="white"/>
    <path d="M29.9538 15.7559L28.6538 16.0857C28.348 16.1633 28.1028 16.3912 28.0031 16.6904L27.6289 17.813C27.5029 18.1912 27.149 18.4462 26.7504 18.4462C26.5204 18.4462 26.2986 18.3605 26.1283 18.2059L25.4424 17.5837C25.0848 17.2592 24.5379 17.264 24.186 17.5948L20.9815 20.607C20.5533 21.0095 20.1735 21.4606 19.8497 21.9512L19.6045 22.3227C18.864 23.4448 17.8376 24.3491 16.6312 24.9424L13.8918 26.2897C13.1801 26.6397 12.6139 27.2284 12.2918 27.953C11.8979 28.8395 11.903 29.8522 12.3058 30.7345L15.2959 37.2841C15.4804 37.6884 15.4873 38.1514 15.3149 38.5609L15.2548 38.7036C15.004 39.2991 15.1389 39.9873 15.5958 40.4442C16.1315 40.9799 16.9708 41.063 17.6012 40.6428L19.8168 39.1658C20.036 39.0197 20.2879 38.9304 20.5501 38.9058L22.8658 38.6887C23.0397 38.6723 23.2055 38.6072 23.344 38.5007L25.3879 36.9284C25.4975 36.8441 25.6246 36.7854 25.7598 36.7566L29.5698 35.946C29.8031 35.8964 30.0465 35.9387 30.2494 36.0641L34.5582 38.7277C34.8631 38.9162 35.2493 38.9118 35.5497 38.7165C36.2184 38.2819 37.1158 38.6402 37.3013 39.4158L37.8243 41.6027C37.9015 41.9258 38.1143 42.1999 38.4081 42.3549L39.1426 42.7426C40.5494 43.4851 42.1442 43.7953 43.7267 43.6344C45.6743 43.4363 47.4367 42.3928 48.5469 40.7804L50.6121 37.781C50.6768 37.687 50.7236 37.582 50.75 37.471L51.9252 32.5499C52.1009 31.8141 51.9637 31.0385 51.5464 30.4076L48.5918 25.9414C48.3275 25.5419 48.0237 25.1699 47.685 24.8313L46.5345 23.6808C45.9213 23.0676 45.5417 22.2593 45.4613 21.3958L45.2559 19.1879C45.2289 18.897 45.0661 18.6359 44.8168 18.4836L43.8411 17.8874C43.6433 17.7666 43.4916 17.5829 43.4104 17.3658L42.6703 15.3896C42.5185 14.9842 42.1311 14.7156 41.6982 14.7156C41.1574 14.7156 40.7072 15.1309 40.6636 15.6698L40.4725 18.0283C40.4651 18.12 40.444 18.2102 40.41 18.2956L39.9351 19.49C39.5824 20.377 38.502 20.7136 37.7079 20.1838L35.725 18.8607C35.1225 18.4587 34.8932 17.6837 35.1798 17.0186L35.6593 15.9062C35.7538 15.687 35.7967 15.449 35.7847 15.2106C35.7427 14.3816 35.0584 13.731 34.2283 13.731H32.5198C31.9092 13.731 31.3548 14.0877 31.1017 14.6434L30.9887 14.8914C30.7927 15.3216 30.412 15.6396 29.9538 15.7559Z" fill="white"/>
    <path d="M51.9249 32.55L50.75 37.471C50.7234 37.5822 50.6767 37.6868 50.6123 37.7811L48.5468 40.7808C47.9912 41.5868 47.2737 42.2512 46.4506 42.7375C45.6277 43.2255 44.7008 43.5356 43.7264 43.6347C43.443 43.6636 43.1587 43.6773 42.876 43.6758C43.5404 43.5204 44.1741 43.2643 44.7548 42.9204C45.577 42.4332 46.2952 41.7697 46.8509 40.9627L48.9156 37.9639C48.98 37.8697 49.0267 37.765 49.0534 37.6538L50.2291 32.7327C50.4046 31.9967 50.2677 31.2212 49.8498 30.5899L46.8952 26.1238C46.6311 25.7243 46.3275 25.3523 45.9885 25.0141L44.8386 23.8633C44.225 23.2505 43.8457 22.442 43.7652 21.5779L43.5598 19.3707C43.5324 19.0792 43.3698 18.8182 43.1209 18.6661L42.1448 18.0703C41.9467 17.9495 41.7954 17.7659 41.714 17.5485L40.9739 15.5723C40.9304 15.4547 40.8668 15.3493 40.7863 15.2582C40.841 15.1576 40.9111 15.0674 40.9948 14.9909C41.1801 14.8193 41.4281 14.7155 41.6978 14.7155C42.1311 14.7155 42.5184 14.9845 42.6706 15.3895L43.4107 17.3657C43.492 17.5831 43.6434 17.7667 43.8416 17.8875L44.8167 18.4834C45.0663 18.6364 45.2291 18.8973 45.2556 19.188L45.4609 21.3961C45.5415 22.2593 45.9216 23.0679 46.5344 23.6806L47.6852 24.8314C48.0234 25.1704 48.3277 25.5416 48.5919 25.9418L51.5464 30.4079C51.9636 31.0385 52.1005 31.814 51.9249 32.55Z" fill="white"/>
</svg>
