<svg width="64" height="64" viewBox="0 0 64 64" fill="none"
    xmlns="http://www.w3.org/2000/svg">
    <rect width="64" height="64" rx="8" fill="#2C3ACF"/>
    <path d="M18.6313 40.859L17.0938 40.4284C16.7711 40.3379 16.4275 40.3566 16.1166 40.4818C15.8057 40.6069 15.545 40.8314 15.375 41.1203L14.4813 42.6419C14.2502 43.0344 14.1513 43.4908 14.1993 43.9438C14.2473 44.3968 14.4396 44.8224 14.7478 45.1578L15.23 45.6831C15.3631 45.8279 15.5449 45.9186 15.7407 45.9378L18.5247 46.2106C18.7236 46.2302 18.9225 46.1744 19.0822 46.0544L21.8125 44.0062C21.9533 43.9005 22.0553 43.7512 22.1025 43.5815L22.33 42.7669C22.3597 42.6606 22.411 42.5617 22.4808 42.4762C22.5505 42.3908 22.6372 42.3207 22.7353 42.2704C22.8335 42.2201 22.941 42.1907 23.0511 42.1839C23.1612 42.1772 23.2715 42.1933 23.375 42.2312L24.5032 42.6447C24.6974 42.7156 24.9115 42.7086 25.1007 42.625C25.2034 42.5798 25.3146 42.5567 25.4268 42.5574C25.5391 42.558 25.65 42.5822 25.7522 42.6285C25.8545 42.6748 25.9459 42.7422 26.0204 42.8262C26.0949 42.9101 26.1509 43.0089 26.1847 43.1159L26.61 44.4625C26.6433 44.568 26.6981 44.6655 26.771 44.7487C26.8439 44.8319 26.9332 44.8991 27.0335 44.9459L28.0647 45.4272C28.2515 45.5145 28.4649 45.5263 28.6602 45.4599C28.8555 45.3936 29.0176 45.2543 29.1125 45.0712L29.916 43.5228C29.9649 43.4284 30.0322 43.3448 30.1139 43.2768C30.1955 43.2087 30.29 43.1577 30.3916 43.1265C30.4932 43.0954 30.6001 43.0849 30.7058 43.0956C30.8116 43.1063 30.9142 43.1379 31.0075 43.1887L31.695 43.5637C31.8612 43.6538 31.99 43.7998 32.0587 43.9758C32.1273 44.1519 32.1314 44.3466 32.07 44.5253L32.0257 44.6547C31.9159 44.9735 31.8837 45.3139 31.9315 45.6478C31.9794 45.9816 32.106 46.2992 32.301 46.5744L32.9847 47.5397C33.0504 47.6325 33.1352 47.7102 33.2333 47.7676C33.3314 47.8251 33.4407 47.8609 33.5538 47.8727C33.6668 47.8845 33.7811 47.8721 33.889 47.8362C33.9969 47.8004 34.0959 47.7419 34.1794 47.6647L35.6553 46.3C35.7909 46.1753 35.8792 46.0076 35.9053 45.8253L36.1678 43.9697C36.1887 43.8226 36.2501 43.6842 36.3452 43.57C36.4403 43.4558 36.5653 43.3705 36.7063 43.3234L37.2603 43.139C37.4194 43.0859 37.5577 42.9842 37.6558 42.8481C37.7538 42.7121 37.8066 42.5486 37.8066 42.3809V39.7097C37.8066 39.461 37.9054 39.2226 38.0812 39.0468C38.257 38.8709 38.4954 38.7722 38.7441 38.7722H41.3228C41.4325 38.7722 41.541 38.7948 41.6416 38.8386C41.7422 38.8823 41.8327 38.9463 41.9075 39.0265L43.1182 40.3253C43.2064 40.4201 43.3163 40.492 43.4386 40.5348C43.5608 40.5776 43.6916 40.59 43.8197 40.5709L49.1303 39.7844C49.3077 39.7581 49.4711 39.673 49.5943 39.5426C49.7174 39.4122 49.7931 39.2442 49.8091 39.0656C49.8355 38.7761 49.7713 38.4856 49.6254 38.2342C49.4794 37.9828 49.2589 37.783 48.9944 37.6625L46.75 36.6403C46.6468 36.5932 46.5548 36.5247 46.4801 36.4393C46.4054 36.3539 46.3497 36.2536 46.3168 36.145C46.2839 36.0364 46.2745 35.922 46.2892 35.8095C46.3039 35.697 46.3425 35.5889 46.4022 35.4925L47.2844 34.0684C47.482 33.7494 47.5943 33.3849 47.6103 33.0099C47.6263 32.635 47.5456 32.2622 47.376 31.9275L46.6153 30.4275C46.55 30.2985 46.5209 30.1542 46.531 30.01C46.5412 29.8657 46.5903 29.727 46.6732 29.6084L48.0969 27.5712C48.1686 27.4685 48.2151 27.3503 48.2326 27.2263C48.2502 27.1023 48.2384 26.9759 48.1981 26.8573C48.1579 26.7386 48.0903 26.6312 48.0008 26.5435C47.9114 26.4558 47.8025 26.3904 47.6832 26.3525L45.4625 25.6487C45.3007 25.5975 45.1593 25.496 45.059 25.359C44.9587 25.222 44.9047 25.0566 44.9047 24.8869V24.2219C44.9048 24.0864 44.8704 23.9531 44.8048 23.8346C44.7392 23.7161 44.6445 23.6162 44.5297 23.5444L44.0675 23.2553C43.935 23.1729 43.8296 23.0533 43.7644 22.9115L42.2419 19.5834C42.1979 19.4872 42.1734 19.3832 42.1697 19.2775L42.1244 17.9162C42.1099 17.4818 41.9406 17.0669 41.647 16.7464C41.3534 16.4259 40.9549 16.2209 40.5235 16.1684L40.2003 16.129C40.0147 16.1065 39.8271 16.1498 39.6701 16.2513C39.5131 16.3528 39.3966 16.5062 39.341 16.6847L37.4316 22.8119C37.3084 23.2054 37.1086 23.5708 36.8438 23.8869L35.8822 25.0344C35.7815 25.1541 35.6478 25.2416 35.4978 25.2861C35.3477 25.3306 35.1879 25.3301 35.0382 25.2846C34.8885 25.2391 34.7554 25.1507 34.6554 25.0302C34.5555 24.9098 34.4931 24.7627 34.476 24.6072L34.1747 21.8237C34.1434 21.5345 34.0319 21.2598 33.853 21.0306C33.674 20.8013 33.4345 20.6265 33.1616 20.5259L32.6444 20.3353C32.2849 20.203 31.8887 20.2114 31.5352 20.3589C31.1817 20.5064 30.897 20.782 30.7382 21.1306L28.5822 25.8615C28.5374 25.96 28.4731 26.0483 28.3932 26.1212L26.6678 27.6925C26.3321 27.9984 26.0692 28.3758 25.8986 28.7967C25.7279 29.2177 25.6539 29.6716 25.6819 30.125L25.74 31.0625C25.7469 31.1739 25.7771 31.2825 25.8285 31.3816C25.88 31.4806 25.9516 31.5677 26.0387 31.6374C26.1259 31.7071 26.2267 31.7577 26.3346 31.7861C26.4425 31.8145 26.5552 31.82 26.6653 31.8022L29.2903 31.3772C29.4243 31.3555 29.5506 31.3001 29.6572 31.2161C29.7638 31.1321 29.8473 31.0224 29.8997 30.8972L31.1903 27.8184C31.2463 27.6849 31.3325 27.5662 31.442 27.4716C31.5516 27.377 31.6816 27.309 31.8218 27.273C31.962 27.237 32.1086 27.234 32.2502 27.2641C32.3918 27.2943 32.5245 27.3568 32.6378 27.4469L32.9938 27.7281C33.101 27.8132 33.1846 27.9244 33.2365 28.0511C33.2883 28.1778 33.3068 28.3157 33.29 28.4515L32.9485 31.23C32.9241 31.4272 32.8272 31.6084 32.6766 31.7381L29.2003 34.7309C29.0882 34.8276 28.9513 34.8911 28.805 34.9144L25.0938 35.5072C24.2094 35.6485 23.3672 35.9837 22.6275 36.4887L20.6053 37.869C20.395 38.013 20.2162 38.1983 20.0799 38.4136C19.9436 38.629 19.8526 38.8699 19.8125 39.1215L19.6375 40.2153C19.6198 40.3267 19.5787 40.4331 19.5168 40.5275C19.455 40.6219 19.3739 40.7022 19.2789 40.763C19.1838 40.8238 19.077 40.8638 18.9654 40.8804C18.8537 40.8969 18.7399 40.8897 18.6313 40.859Z" fill="white"/>
    <path d="M18.6116 29.4927L19.5966 27.872C19.7258 27.6599 19.917 27.4926 20.1443 27.3925C20.3716 27.2924 20.6242 27.2644 20.8679 27.3124L21.9335 27.5208C22.2328 27.5797 22.499 27.749 22.6792 27.9951C22.8595 28.2412 22.9405 28.5461 22.9063 28.8492L22.6147 31.4061C22.5875 31.6453 22.5106 31.8761 22.3891 32.0839C22.2676 32.2917 22.1041 32.4719 21.9091 32.613L19.0225 34.7008C18.8197 34.8475 18.5874 34.9486 18.3417 34.9968C18.096 35.0451 17.8427 35.0395 17.5994 34.9805L17.1797 34.8789C16.9034 34.8119 16.6594 34.6501 16.4901 34.4217C16.3208 34.1933 16.237 33.9128 16.2532 33.6289L16.3575 31.8255C16.3777 31.4771 16.5026 31.1429 16.7159 30.8667C16.9292 30.5906 17.2209 30.3852 17.5529 30.2777L17.6654 30.2414C18.0603 30.1133 18.3961 29.8476 18.6116 29.4927Z" fill="white"/>
</svg>
