<svg width="1920" height="506" viewBox="0 0 1920 506" fill="none" xmlns="http://www.w3.org/2000/svg">
<g opacity="0.5">
<path d="M59.299 171.9C92.049 179.797 125 159.65 132.898 126.899C140.795 94.1484 120.648 61.1968 87.8983 53.2994C55.1483 45.4021 22.1969 65.5496 14.2995 98.3003C6.40197 131.051 26.5489 164.003 59.299 171.9Z" fill="#E3EBFC" fill-opacity="0.08"/>
<path d="M30.5349 122.139C30.3244 122.088 30.1199 121.992 29.9396 121.849C29.2634 121.318 29.1453 120.339 29.6769 119.663L59.1214 82.1723C59.653 81.496 60.6318 81.3779 61.308 81.9095C61.9843 82.4412 62.1024 83.4199 61.5707 84.0962L32.1262 121.587C31.7378 122.081 31.1103 122.277 30.5349 122.139Z" fill="white"/>
<path d="M69.1059 131.44C68.5319 131.301 68.0615 130.84 67.9411 130.223L58.8185 83.4326C58.6535 82.5883 59.2051 81.7695 60.0489 81.606C60.8932 81.441 61.712 81.9926 61.8755 82.8365L70.9981 129.627C71.1631 130.471 70.6115 131.29 69.7676 131.454C69.5405 131.498 69.3164 131.491 69.1059 131.44Z" fill="white"/>
<path d="M69.1027 131.439C68.8922 131.388 68.6878 131.292 68.5075 131.15C67.8313 130.618 67.7131 129.639 68.2448 128.963L97.6908 91.4729C98.2225 90.7967 99.2012 90.6786 99.8775 91.2102C100.554 91.7418 100.672 92.7206 100.14 93.3968L70.6941 130.887C70.3053 131.383 69.6782 131.578 69.1027 131.439Z" fill="white"/>
<path d="M107.674 140.74C107.1 140.602 106.629 140.14 106.509 139.523L97.3863 92.7329C97.2214 91.8886 97.773 91.0698 98.6168 90.9063C99.461 90.7413 100.28 91.2929 100.443 92.1368L109.566 138.927C109.731 139.771 109.179 140.59 108.335 140.754C108.108 140.798 107.884 140.791 107.674 140.74Z" fill="white"/>
<path d="M28.9955 128.114C32.1913 128.884 35.3878 126.997 36.135 123.898C36.8823 120.799 34.8973 117.662 31.7015 116.892C28.5057 116.121 25.3093 118.008 24.562 121.107C23.8148 124.206 25.7997 127.343 28.9955 128.114Z" fill="white"/>
<path d="M67.6127 137.426C70.8085 138.196 74.005 136.309 74.7522 133.21C75.4995 130.111 73.5145 126.974 70.3187 126.204C67.1229 125.433 63.9265 127.32 63.1792 130.419C62.4319 133.518 64.4169 136.655 67.6127 137.426Z" fill="white"/>
<path d="M106.229 146.738C109.425 147.508 112.621 145.621 113.368 142.522C114.116 139.423 112.131 136.286 108.935 135.516C105.739 134.745 102.543 136.632 101.795 139.731C101.048 142.83 103.033 145.967 106.229 146.738Z" fill="white"/>
</g>
<g opacity="0.5">
<path d="M87.2199 266.525C104.127 263.594 115.456 247.511 112.525 230.604C109.593 213.697 93.5108 202.367 76.6037 205.298C59.6966 208.23 48.3672 224.313 51.2988 241.22C54.2304 258.127 70.3128 269.457 87.2199 266.525Z" fill="#E3EBFC" fill-opacity="0.08"/>
<path d="M63.709 249.081C63.6003 249.1 63.4854 249.097 63.3722 249.066C62.9486 248.955 62.6954 248.521 62.8072 248.097L68.9898 224.616C69.1015 224.193 69.5352 223.94 69.9588 224.051C70.3825 224.163 70.6356 224.597 70.5239 225.02L64.3412 248.501C64.2597 248.811 64.0061 249.03 63.709 249.081Z" fill="white"/>
<path d="M83.622 245.628C83.3257 245.679 83.0125 245.559 82.8314 245.294L69.1039 225.266C68.8561 224.905 68.9483 224.41 69.3097 224.163C69.671 223.915 70.1654 224.008 70.4125 224.369L84.14 244.398C84.3878 244.759 84.2956 245.253 83.9342 245.5C83.837 245.567 83.7307 245.609 83.622 245.628Z" fill="white"/>
<path d="M83.6206 245.628C83.5119 245.647 83.397 245.643 83.2838 245.613C82.8602 245.501 82.607 245.068 82.7188 244.644L88.9022 221.163C89.0139 220.739 89.4476 220.486 89.8712 220.598C90.2949 220.71 90.548 221.144 90.4363 221.567L84.2529 245.048C84.1714 245.359 83.9177 245.577 83.6206 245.628Z" fill="white"/>
<path d="M103.532 242.176C103.236 242.227 102.923 242.106 102.742 241.842L89.0141 221.814C88.7662 221.452 88.8585 220.958 89.2199 220.711C89.5812 220.463 90.0755 220.555 90.3226 220.917L104.05 240.945C104.298 241.307 104.206 241.801 103.844 242.048C103.747 242.115 103.641 242.157 103.532 242.176Z" fill="white"/>
<path d="M64.1998 252.184C65.8496 251.898 66.9622 250.37 66.6848 248.77C66.4074 247.17 64.8451 246.105 63.1953 246.391C61.5454 246.677 60.4329 248.206 60.7103 249.806C60.9876 251.406 62.5499 252.471 64.1998 252.184Z" fill="white"/>
<path d="M84.1334 248.728C85.7832 248.442 86.8958 246.914 86.6184 245.314C86.341 243.714 84.7787 242.649 83.1289 242.935C81.479 243.221 80.3665 244.75 80.6438 246.35C80.9212 247.95 82.4835 249.014 84.1334 248.728Z" fill="white"/>
<path d="M104.071 245.271C105.721 244.985 106.833 243.456 106.556 241.857C106.279 240.257 104.716 239.192 103.066 239.478C101.417 239.764 100.304 241.293 100.581 242.892C100.859 244.492 102.421 245.557 104.071 245.271Z" fill="white"/>
</g>
<g opacity="0.5">
<path d="M1817.9 465.523C1900.03 443.381 1948.66 358.849 1926.52 276.716C1904.38 194.582 1819.84 145.95 1737.71 168.092C1655.58 190.234 1606.95 274.766 1629.09 356.899C1651.23 439.032 1735.77 487.665 1817.9 465.523Z" fill="#E3EBFC" fill-opacity="0.08"/>
<path d="M1693.93 390.071C1693.4 390.213 1692.83 390.249 1692.26 390.15C1690.12 389.791 1688.67 387.765 1689.03 385.623L1708.9 266.905C1709.26 264.763 1711.28 263.316 1713.42 263.676C1715.56 264.035 1717.01 266.061 1716.65 268.203L1696.78 386.921C1696.52 388.487 1695.37 389.682 1693.93 390.071Z" fill="white"/>
<path d="M1790.66 363.993C1789.22 364.382 1787.62 363.929 1786.6 362.707L1709.75 270.064C1708.36 268.393 1708.59 265.911 1710.27 264.527C1711.94 263.14 1714.42 263.371 1715.8 265.043L1792.65 357.686C1794.04 359.357 1793.81 361.839 1792.14 363.223C1791.69 363.597 1791.18 363.851 1790.66 363.993Z" fill="white"/>
<path d="M1790.65 363.996C1790.12 364.138 1789.55 364.173 1788.98 364.075C1786.84 363.716 1785.39 361.69 1785.75 359.548L1805.62 240.829C1805.98 238.687 1808.01 237.24 1810.15 237.6C1812.29 237.959 1813.74 239.985 1813.38 242.127L1793.51 360.846C1793.24 362.416 1792.09 363.607 1790.65 363.996Z" fill="white"/>
<path d="M1887.38 337.918C1885.94 338.306 1884.34 337.854 1883.32 336.632L1806.47 243.989C1805.08 242.318 1805.31 239.836 1806.99 238.452C1808.66 237.064 1811.14 237.295 1812.52 238.968L1889.37 331.611C1890.76 333.282 1890.53 335.764 1888.86 337.148C1888.41 337.521 1887.9 337.776 1887.38 337.918Z" fill="white"/>
<path d="M1697.75 405.174C1705.76 403.014 1710.56 394.962 1708.47 387.191C1706.37 379.419 1698.17 374.871 1690.16 377.032C1682.15 379.192 1677.35 387.244 1679.44 395.015C1681.54 402.787 1689.73 407.335 1697.75 405.174Z" fill="white"/>
<path d="M1794.59 379.066C1802.61 376.905 1807.41 368.854 1805.31 361.082C1803.22 353.311 1795.02 348.763 1787.01 350.923C1778.99 353.084 1774.19 361.135 1776.29 368.907C1778.38 376.678 1786.58 381.227 1794.59 379.066Z" fill="white"/>
<path d="M1891.43 352.958C1899.45 350.797 1904.25 342.745 1902.15 334.974C1900.06 327.203 1891.86 322.654 1883.85 324.815C1875.83 326.975 1871.03 335.027 1873.13 342.798C1875.22 350.57 1883.42 355.118 1891.43 352.958Z" fill="white"/>
</g>
<g opacity="0.5">
<path d="M1866.3 132.9C1899.05 140.797 1932 120.65 1939.9 87.8991C1947.8 55.1484 1927.65 22.1968 1894.9 14.2994C1862.15 6.40206 1829.2 26.5496 1821.3 59.3003C1813.4 92.0509 1833.55 125.003 1866.3 132.9Z" fill="#E3EBFC" fill-opacity="0.08"/>
<path d="M1837.54 83.1387C1837.33 83.0879 1837.12 82.9922 1836.94 82.8493C1836.26 82.3177 1836.15 81.3389 1836.68 80.6627L1866.12 43.1723C1866.65 42.496 1867.63 42.3779 1868.31 42.9095C1868.99 43.4412 1869.1 44.4199 1868.57 45.0962L1839.13 82.5866C1838.74 83.081 1838.11 83.2775 1837.54 83.1387Z" fill="white"/>
<path d="M1876.11 92.4398C1875.53 92.3014 1875.06 91.8402 1874.94 91.2231L1865.82 44.4326C1865.65 43.5883 1866.21 42.7695 1867.05 42.606C1867.89 42.441 1868.71 42.9926 1868.88 43.8365L1878 90.627C1878.16 91.4712 1877.61 92.2901 1876.77 92.4535C1876.54 92.4981 1876.32 92.4906 1876.11 92.4398Z" fill="white"/>
<path d="M1876.1 92.439C1875.89 92.3882 1875.69 92.2925 1875.51 92.1496C1874.83 91.618 1874.71 90.6392 1875.25 89.963L1904.69 52.4729C1905.22 51.7967 1906.2 51.6786 1906.88 52.2102C1907.56 52.7418 1907.67 53.7206 1907.14 54.3968L1877.7 91.8869C1877.31 92.3828 1876.68 92.5778 1876.1 92.439Z" fill="white"/>
<path d="M1914.67 101.74C1914.1 101.602 1913.63 101.14 1913.51 100.523L1904.39 53.7329C1904.22 52.8886 1904.77 52.0698 1905.62 51.9063C1906.46 51.7413 1907.28 52.2929 1907.44 53.1368L1916.57 99.9273C1916.73 100.771 1916.18 101.59 1915.34 101.754C1915.11 101.798 1914.89 101.791 1914.67 101.74Z" fill="white"/>
<path d="M1836 89.1136C1839.19 89.8842 1842.39 87.9968 1843.14 84.898C1843.88 81.7992 1841.9 78.6623 1838.7 77.8917C1835.51 77.1211 1832.31 79.0084 1831.56 82.1073C1830.82 85.2061 1832.8 88.343 1836 89.1136Z" fill="white"/>
<path d="M1874.61 98.4256C1877.81 99.1962 1881 97.3089 1881.75 94.21C1882.5 91.1112 1880.51 87.9743 1877.32 87.2037C1874.12 86.4331 1870.93 88.3205 1870.18 91.4193C1869.43 94.5181 1871.42 97.655 1874.61 98.4256Z" fill="white"/>
<path d="M1913.23 107.738C1916.43 108.508 1919.62 106.621 1920.37 103.522C1921.12 100.423 1919.13 97.2864 1915.94 96.5157C1912.74 95.7451 1909.54 97.6325 1908.8 100.731C1908.05 103.83 1910.03 106.967 1913.23 107.738Z" fill="white"/>
</g>
<g opacity="0.5">
<path d="M1741.23 138.535C1758.14 135.603 1769.47 119.521 1766.53 102.614C1763.6 85.7061 1747.52 74.3765 1730.61 77.308C1713.71 80.2395 1702.38 96.3221 1705.31 113.229C1708.24 130.137 1724.32 141.467 1741.23 138.535Z" fill="#E3EBFC" fill-opacity="0.08"/>
<path d="M1717.72 121.091C1717.61 121.11 1717.5 121.106 1717.38 121.076C1716.96 120.964 1716.71 120.53 1716.82 120.107L1723 96.6259C1723.11 96.2023 1723.54 95.9491 1723.97 96.0609C1724.39 96.1726 1724.65 96.6063 1724.53 97.03L1718.35 120.511C1718.27 120.82 1718.02 121.039 1717.72 121.091Z" fill="white"/>
<path d="M1737.63 117.637C1737.34 117.689 1737.02 117.568 1736.84 117.304L1723.11 97.2754C1722.87 96.9141 1722.96 96.4197 1723.32 96.1727C1723.68 95.9248 1724.18 96.017 1724.42 96.3785L1738.15 116.407C1738.4 116.768 1738.31 117.263 1737.94 117.51C1737.85 117.577 1737.74 117.618 1737.63 117.637Z" fill="white"/>
<path d="M1737.63 117.638C1737.52 117.656 1737.41 117.653 1737.29 117.623C1736.87 117.511 1736.62 117.077 1736.73 116.654L1742.91 93.1727C1743.02 92.749 1743.46 92.4958 1743.88 92.6076C1744.3 92.7194 1744.56 93.153 1744.45 93.5767L1738.26 117.058C1738.18 117.368 1737.93 117.586 1737.63 117.638Z" fill="white"/>
<path d="M1757.54 114.185C1757.25 114.236 1756.93 114.116 1756.75 113.852L1743.02 93.8232C1742.78 93.4619 1742.87 92.9676 1743.23 92.7205C1743.59 92.4726 1744.09 92.5649 1744.33 92.9263L1758.06 112.955C1758.31 113.316 1758.22 113.811 1757.85 114.058C1757.76 114.124 1757.65 114.166 1757.54 114.185Z" fill="white"/>
<path d="M1718.21 124.194C1719.86 123.908 1720.97 122.379 1720.69 120.779C1720.42 119.18 1718.85 118.115 1717.2 118.401C1715.55 118.687 1714.44 120.216 1714.72 121.815C1715 123.415 1716.56 124.48 1718.21 124.194Z" fill="white"/>
<path d="M1738.14 120.738C1739.79 120.452 1740.91 118.923 1740.63 117.323C1740.35 115.724 1738.79 114.659 1737.14 114.945C1735.49 115.231 1734.38 116.76 1734.65 118.359C1734.93 119.959 1736.49 121.024 1738.14 120.738Z" fill="white"/>
<path d="M1758.08 117.281C1759.73 116.995 1760.84 115.466 1760.57 113.866C1760.29 112.266 1758.73 111.201 1757.08 111.487C1755.43 111.773 1754.31 113.302 1754.59 114.902C1754.87 116.502 1756.43 117.567 1758.08 117.281Z" fill="white"/>
</g>
</svg>
