<svg width="1920" height="268" viewBox="0 0 1920 268" fill="none"
    xmlns="http://www.w3.org/2000/svg">
    <g clip-path="url(#clip0_1170_780085)">
        <rect width="1920" height="268" fill="#434C88"/>
        <path d="M1692.83 36.4518L1450.24 -97.4556L1434.42 -151.608L1204.92 -278.294L1206.27 -280.733L1436.88 -153.436L1452.35 -99.1834L1694.05 34.2344L1692.83 36.4518Z" fill="#37417D" fill-opacity="0.5"/>
        <path d="M1690.77 39.6558C1693.21 41.0023 1696.31 40.1082 1697.65 37.669C1699 35.2299 1698.11 32.1326 1695.67 30.7862C1693.23 29.4397 1690.13 30.3338 1688.78 32.773C1687.44 35.2121 1688.33 38.3094 1690.77 39.6558Z" fill="#37417D" fill-opacity="0.5"/>
        <path d="M1734.9 38.8472L1489.21 -96.7739L1490.56 -99.213L1735.14 35.796L1814.51 13.0702L1986.36 107.931L1985.02 110.371L1814.06 15.999L1734.9 38.8472Z" fill="#37417D" fill-opacity="0.5"/>
        <path d="M1750.02 96.3722L1579.94 2.49014L1581.16 0.27272L1750.13 93.5428L1839.61 67.7144L2021.21 167.961L2037.51 224.401L2230.42 330.89L2229.08 333.329L2035.05 226.228L2018.76 169.788L1839.37 70.7656L1750.02 96.3722Z" fill="#37417D" fill-opacity="0.5"/>
        <path d="M1578.33 5.93879C1575.89 4.59238 1574.99 1.49509 1576.34 -0.944072C1577.69 -3.38323 1580.78 -4.27729 1583.22 -2.93087C1585.66 -1.58445 1586.56 1.51284 1585.21 3.95199C1584.08 6.51355 1580.77 7.28521 1578.33 5.93879Z" fill="#37417D" fill-opacity="0.5"/>
        <path d="M899.636 97.0867L876.192 15.8689L727.847 -66.0179L729.193 -68.457L878.425 13.9193L902.045 96.3913L899.636 97.0867Z" fill="#37417D" fill-opacity="0.5"/>
        <path d="M895.751 97.8359C896.546 100.589 899.429 102.18 902.182 101.386C904.935 100.591 906.526 97.7082 905.732 94.9551C904.937 92.2019 902.054 90.6107 899.301 91.4054C896.548 92.2002 894.957 95.0828 895.751 97.8359Z" fill="#37417D" fill-opacity="0.5"/>
        <path d="M1161.35 217.83L923.421 86.493L909.414 37.9688L911.946 37.0516L925.655 84.5434L1162.7 215.391L1161.35 217.83Z" fill="#37417D" fill-opacity="0.5"/>
        <path d="M905.851 39.1836C905.056 36.4304 906.647 33.5478 909.4 32.7531C912.153 31.9584 915.036 33.5496 915.831 36.3027C916.625 39.0559 915.034 41.9385 912.281 42.7332C909.528 43.528 906.645 41.9367 905.851 39.1836Z" fill="#37417D" fill-opacity="0.5"/>
        <path d="M1159.29 221.033C1161.73 222.379 1164.83 221.485 1166.18 219.046C1167.52 216.607 1166.63 213.51 1164.19 212.163C1161.75 210.817 1158.65 211.711 1157.31 214.15C1155.96 216.589 1156.85 219.687 1159.29 221.033Z" fill="#37417D" fill-opacity="0.5"/>
        <path d="M1636.02 523.534L1391 388.28L1367.95 308.439L1256.41 246.871L1193.44 265.05L1121.59 225.392L1122.94 222.953L1193.67 261.999L1256.87 243.942L1370.18 306.489L1393.23 386.331L1637.37 521.095L1636.02 523.534Z" fill="#37417D" fill-opacity="0.5"/>
        <path d="M1119.98 228.84C1122.43 230.192 1125.51 229.303 1126.86 226.854C1128.21 224.404 1127.32 221.323 1124.87 219.971C1122.42 218.619 1119.34 219.508 1117.99 221.958C1116.64 224.407 1117.53 227.488 1119.98 228.84Z" fill="#37417D" fill-opacity="0.5"/>
        <path d="M908.719 -0.603719L746.182 -90.3241L747.529 -92.7633L908.957 -3.65486L1026.31 -37.5298L1196.39 56.3523L1280.58 32.2357L1281.27 34.6447L1195.93 59.281L1026.07 -34.4786L908.719 -0.603719Z" fill="#37417D" fill-opacity="0.5"/>
        <path d="M1282.02 38.5294C1284.78 37.7347 1286.37 34.852 1285.57 32.0989C1284.78 29.3457 1281.89 27.7545 1279.14 28.5492C1276.39 29.344 1274.8 32.2266 1275.59 34.9797C1276.39 37.7329 1279.27 39.3241 1282.02 38.5294Z" fill="#37417D" fill-opacity="0.5"/>
        <path d="M1708.71 556.425L1691.92 498.265L1402.99 338.775L1385.88 280.149L1210.26 183.206L1180.56 80.3076L1021.13 -7.69919L952.986 11.9701L952.191 9.21699L1021.24 -10.5286L1182.89 78.7022L1212.49 181.257L1388.34 278.321L1405.22 336.826L1694.37 496.438L1710.67 552.877L1797.73 527.744L2006.62 643.046L2005.27 645.486L1797.5 530.795L1708.71 556.425Z" fill="#37417D" fill-opacity="0.5"/>
        <path d="M954.201 15.5341C951.448 16.3288 948.565 14.7375 947.771 11.9844C946.976 9.23126 948.567 6.34859 951.32 5.55387C954.073 4.75915 956.956 6.35038 957.751 9.10352C958.545 11.8567 956.954 14.7393 954.201 15.5341Z" fill="#37417D" fill-opacity="0.5"/>
        <path d="M1157.18 167.213L1147.05 132.11L996.039 48.7544L961.625 58.6884L961.052 56.0577L996.277 45.7032L1149.5 130.283L1159.93 166.418L1157.18 167.213Z" fill="#37417D" fill-opacity="0.5"/>
        <path d="M959.123 61.6475C961.573 62.9995 964.654 62.11 966.006 59.6607C967.358 57.2114 966.469 54.1299 964.02 52.7779C961.57 51.4259 958.489 52.3154 957.137 54.7647C955.785 57.214 956.674 60.2955 959.123 61.6475Z" fill="#37417D" fill-opacity="0.5"/>
        <path d="M1153.51 168.083C1154.31 170.837 1157.19 172.428 1159.94 171.633C1162.7 170.838 1164.29 167.956 1163.49 165.203C1162.7 162.449 1159.82 160.858 1157.06 161.653C1154.31 162.448 1152.72 165.33 1153.51 168.083Z" fill="#37417D" fill-opacity="0.5"/>
        <path d="M1756.55 139.037L1449.44 -30.4891L1418.27 -139.116L1190.76 -264.7L1152.56 -253.673L906.874 -389.294L908.221 -391.734L1152.8 -256.725L1191 -267.751L1420.73 -140.943L1451.9 -32.3163L1757.01 136.108L1845.58 110.356L1846.37 113.109L1756.55 139.037Z" fill="#37417D" fill-opacity="0.5"/>
        <path d="M1847.25 116.773C1850 115.978 1851.59 113.095 1850.8 110.342C1850 107.589 1847.12 105.998 1844.36 106.793C1841.61 107.587 1840.02 110.47 1840.82 113.223C1841.61 115.976 1844.49 117.568 1847.25 116.773Z" fill="#37417D" fill-opacity="0.5"/>
        <path d="M1338.93 13.5284L1063.75 -138.372L1034.96 -238.74L1037.37 -239.435L1066.2 -140.199L1339.39 10.5996L1421.64 -13.1426L1422.21 -10.5119L1338.93 13.5284Z" fill="#37417D" fill-opacity="0.5"/>
        <path d="M1343.22 -11.0114L1084.44 -153.854L1058.89 -241.733L893.694 -332.922L895.04 -335.361L1061.35 -243.56L1086.68 -155.804L1343.68 -13.9401L1412.85 -33.9074L1772.07 164.383L1890.33 130.432L1991.67 186.37L1990.45 188.587L1890 133.139L1771.83 167.434L1412.61 -30.8563L1343.22 -11.0114Z" fill="#37417D" fill-opacity="0.5"/>
        <path d="M1456.78 279.07L1233.26 155.689L1211.01 78.6008L1213.76 77.8061L1235.72 153.862L1457.24 276.141L1584.57 239.385L1759.3 335.838L1757.96 338.277L1584.33 242.436L1456.78 279.07Z" fill="#37417D" fill-opacity="0.5"/>
        <path d="M1207.45 79.8159C1206.65 77.0628 1208.24 74.1801 1211 73.3854C1213.75 72.5907 1216.63 74.1819 1217.43 76.9351C1218.22 79.6882 1216.63 82.5708 1213.88 83.3656C1211.12 84.1603 1208.24 82.5691 1207.45 79.8159Z" fill="#37417D" fill-opacity="0.5"/>
        <path d="M1189.78 15.3846L1189.08 12.9756L1254.82 -5.99831L1059.24 -113.957L1060.59 -116.396L1261.93 -5.25503L1189.78 15.3846Z" fill="#37417D" fill-opacity="0.5"/>
        <path d="M1188.34 9.09098C1185.58 9.8857 1183.99 12.7683 1184.79 15.5215C1185.58 18.2746 1188.46 19.8659 1191.22 19.0712C1193.97 18.2764 1195.56 15.3938 1194.77 12.6406C1193.97 9.8875 1191.09 8.29626 1188.34 9.09098Z" fill="#37417D" fill-opacity="0.5"/>
        <path d="M1462.43 248.919L1263.08 138.88L1246.49 81.4076L1350.65 51.5293L1282.35 13.8296L1225.22 30.32L1224.3 27.7886L1282.81 10.9008L1357.76 52.2726L1249.82 83.2436L1265.32 136.93L1462.67 245.867L1589.31 209.31L1590.11 212.063L1462.43 248.919Z" fill="#37417D" fill-opacity="0.5"/>
        <path d="M1222.38 33.3782C1224.82 34.7303 1227.91 33.8407 1229.26 31.3914C1230.61 28.9422 1229.72 25.8606 1227.27 24.5086C1224.82 23.1566 1221.74 24.0461 1220.39 26.4954C1219.04 28.9447 1219.93 32.0262 1222.38 33.3782Z" fill="#37417D" fill-opacity="0.5"/>
        <path d="M1590.98 215.726C1593.73 214.932 1595.32 212.049 1594.53 209.296C1593.73 206.543 1590.85 204.952 1588.09 205.746C1585.34 206.541 1583.75 209.424 1584.55 212.177C1585.34 214.93 1588.22 216.521 1590.98 215.726Z" fill="#37417D" fill-opacity="0.5"/>
        <path d="M930.909 -27.7008L763.272 -120.236L764.619 -122.676L931.368 -30.6296L1017.4 -55.4646L1017.98 -52.8338L930.909 -27.7008Z" fill="#37417D" fill-opacity="0.5"/>
        <path d="M1381.61 31.592L1380.7 29.0606L1432.66 14.0603L1777.69 204.517L1828.97 189.716L1829.89 192.247L1777.45 207.568L1432.2 16.989L1381.61 31.592Z" fill="#37417D" fill-opacity="0.5"/>
        <path d="M1378.99 34.7723C1381.44 36.1243 1384.52 35.2348 1385.87 32.7855C1387.22 30.3362 1386.33 27.2546 1383.89 25.9026C1381.44 24.5506 1378.35 25.4401 1377 27.8894C1375.65 30.3387 1376.54 33.4203 1378.99 34.7723Z" fill="#37417D" fill-opacity="0.5"/>
        <path d="M1830.63 196.132C1833.39 195.337 1834.98 192.454 1834.18 189.701C1833.39 186.948 1830.51 185.357 1827.75 186.152C1825 186.946 1823.41 189.829 1824.2 192.582C1825 195.335 1827.88 196.926 1830.63 196.132Z" fill="#37417D" fill-opacity="0.5"/>
        <path d="M1505.58 177.557L1327.08 79.0233L1416.9 53.0955L1417.47 55.7263L1334.19 79.7666L1505.82 174.505L1570.17 155.929L1727.61 242.834L1726.26 245.273L1569.94 158.98L1505.58 177.557Z" fill="#37417D" fill-opacity="0.5"/>
        <path d="M1414.5 59.0062C1416.95 60.3582 1420.04 59.4687 1421.39 57.0194C1422.74 54.5701 1421.85 51.4885 1419.4 50.1365C1416.95 48.7845 1413.87 49.674 1412.52 52.1233C1411.17 54.5726 1412.06 57.6542 1414.5 59.0062Z" fill="#37417D" fill-opacity="0.5"/>
        <path d="M1724.21 248.477C1726.64 249.823 1729.74 248.929 1731.09 246.49C1732.43 244.051 1731.54 240.953 1729.1 239.607C1726.66 238.26 1723.56 239.155 1722.22 241.594C1720.65 243.91 1721.77 247.13 1724.21 248.477Z" fill="#37417D" fill-opacity="0.5"/>
        <path d="M1473.88 218.21L1295.6 119.799L1288.55 95.3651L1291.18 94.7921L1297.93 118.194L1474 215.381L1552.46 192.731L1553.03 195.362L1473.88 218.21Z" fill="#37417D" fill-opacity="0.5"/>
        <path d="M1285.08 96.9243C1284.29 94.1712 1285.88 91.2885 1288.63 90.4938C1291.39 89.6991 1294.27 91.2903 1295.06 94.0435C1295.86 96.7966 1294.27 99.6793 1291.51 100.474C1288.54 101.146 1285.66 99.5551 1285.08 96.9243Z" fill="#37417D" fill-opacity="0.5"/>
        <path d="M1553.91 199.025C1556.66 198.23 1558.25 195.348 1557.46 192.594C1556.66 189.841 1553.78 188.25 1551.02 189.045C1548.27 189.84 1546.68 192.722 1547.48 195.475C1548.27 198.229 1551.15 199.82 1553.91 199.025Z" fill="#37417D" fill-opacity="0.5"/>
        <path d="M1505.5 140.483L1402.17 83.4435L1463.31 65.9827L1464.23 68.5141L1409.51 84.3092L1505.96 137.554L1559.31 122.156L1788.59 248.719L1944.83 203.619L2016.01 242.91L2014.66 245.349L1944.59 206.67L1788.13 251.648L1558.85 125.085L1505.5 140.483Z" fill="#37417D" fill-opacity="0.5"/>
        <path d="M1461.04 71.6722C1463.48 73.0242 1466.57 72.1347 1467.92 69.6854C1469.27 67.2361 1468.38 64.1545 1465.93 62.8025C1463.48 61.4505 1460.4 62.34 1459.05 64.7893C1457.7 67.2386 1458.59 70.3202 1461.04 71.6722Z" fill="#37417D" fill-opacity="0.5"/>
        <path d="M1759.06 525.487L1711.16 499.048L1702.32 468.419L1426.03 315.907L1417.09 284.934L1373.85 261.065L1375.19 258.626L1419.54 283.107L1428.26 313.957L1704.55 466.47L1713.61 497.221L1759.29 522.435L1805.63 509.246L1946.21 586.849L1944.87 589.288L1805.17 512.175L1759.06 525.487Z" fill="#37417D" fill-opacity="0.5"/>
        <path d="M1372.23 264.514C1369.79 263.168 1368.9 260.071 1370.25 257.632C1371.59 255.192 1374.69 254.298 1377.13 255.645C1379.57 256.991 1380.46 260.089 1379.12 262.528C1377.77 264.967 1374.67 265.861 1372.23 264.514Z" fill="#37417D" fill-opacity="0.5"/>
        <path d="M1572.56 372.78L1474.77 318.801L1554.61 295.754L1737.11 396.49L1735.76 398.929L1554.15 298.682L1481.88 319.544L1573.91 370.34L1572.56 372.78Z" fill="#37417D" fill-opacity="0.5"/>
        <path d="M1953.32 532.044L1808.3 451.993L1787.86 380.534L1586.08 269.148L1523.32 287.45L1522.53 284.697L1586.54 266.22L1790.1 378.584L1810.76 450.166L1953.56 528.993L2040.97 503.76L2136.77 556.638L2135.42 559.077L2040.74 506.812L1953.32 532.044Z" fill="#37417D" fill-opacity="0.5"/>
        <path d="M1800.05 320.72L1633.74 228.919L1635.09 226.48L1800.29 317.669L1913.51 284.986L1995.56 330.275L1994.21 332.714L1913.27 288.037L1800.05 320.72Z" fill="#37417D" fill-opacity="0.5"/>
        <path d="M1632.13 232.368C1629.69 231.021 1628.8 227.924 1630.14 225.485C1631.49 223.045 1634.59 222.151 1637.03 223.498C1639.46 224.844 1640.36 227.942 1639.01 230.381C1637.67 232.82 1634.57 233.714 1632.13 232.368Z" fill="#37417D" fill-opacity="0.5"/>
        <path d="M1826.83 270.117L1826.03 267.364L1937.19 235.277L2043.85 294.152L2064.01 364.014L2246.51 464.75L2245.16 467.189L2061.56 365.841L2041.61 296.102L1936.95 238.328L1826.83 270.117Z" fill="#37417D" fill-opacity="0.5"/>
        <path d="M1828.04 273.681C1825.29 274.476 1822.41 272.885 1821.61 270.132C1820.82 267.378 1822.41 264.496 1825.16 263.701C1827.91 262.906 1830.8 264.498 1831.59 267.251C1832.39 270.004 1830.79 272.887 1828.04 273.681Z" fill="#37417D" fill-opacity="0.5"/>
        <path d="M227.185 -64.2813L-18.5047 -199.902L-17.1582 -202.341L227.423 -67.3324L306.798 -90.0582L478.647 4.80307L477.301 7.24223L306.338 -87.1295L227.185 -64.2813Z" fill="#37417D" fill-opacity="0.5"/>
        <path d="M475.243 10.4461C477.683 11.7925 480.78 10.8985 482.126 8.45932C483.473 6.02016 482.579 2.92287 480.139 1.57645C477.7 0.230033 474.603 1.12409 473.257 3.56325C471.91 6.00241 472.804 9.0997 475.243 10.4461Z" fill="#37417D" fill-opacity="0.5"/>
        <path d="M242.299 -6.75619L72.2228 -100.638L73.4468 -102.856L242.414 -9.58562L331.891 -35.414L513.498 64.8329L529.789 121.272L722.705 227.762L721.358 230.201L527.334 123.1L511.043 66.6601L331.654 -32.3629L242.299 -6.75619Z" fill="#37417D" fill-opacity="0.5"/>
        <path d="M719.301 233.405C721.74 234.751 724.837 233.857 726.184 231.418C727.53 228.979 726.636 225.882 724.197 224.535C721.758 223.189 718.66 224.083 717.314 226.522C716.09 228.739 716.862 232.058 719.301 233.405Z" fill="#37417D" fill-opacity="0.5"/>
        <path d="M128.304 420.406L-116.721 285.152L-139.768 205.31L-251.304 143.742L-314.282 161.922L-386.127 122.263L-384.78 119.824L-314.045 158.87L-250.845 140.814L-137.535 203.361L-114.488 283.202L129.65 417.966L128.304 420.406Z" fill="#37417D" fill-opacity="0.5"/>
        <path d="M200.991 453.297L184.202 395.136L-104.727 235.647L-121.837 177.02L-297.456 80.078L-327.159 -22.8208L-486.591 -110.828L-554.731 -91.1583L-555.526 -93.9114L-486.476 -113.657L-324.826 -24.4262L-295.223 78.1285L-119.381 175.193L-102.494 233.697L186.658 393.309L202.949 449.749L290.018 424.616L498.898 539.918L497.552 542.357L289.78 427.667L200.991 453.297Z" fill="#37417D" fill-opacity="0.5"/>
        <path d="M248.836 35.909L-58.2765 -133.617L-89.4462 -242.244L-316.953 -367.828L-355.153 -356.802L-600.843 -492.423L-599.496 -494.862L-354.915 -359.853L-316.716 -370.879L-86.9911 -244.071L-55.8214 -135.444L249.295 32.9803L337.862 7.22814L338.657 9.98128L248.836 35.909Z" fill="#37417D" fill-opacity="0.5"/>
        <path d="M339.528 13.6444C342.282 12.8497 343.873 9.96701 343.078 7.21387C342.283 4.46072 339.401 2.86951 336.648 3.66423C333.894 4.45895 332.303 7.34159 333.098 10.0947C333.893 12.8479 336.775 14.4391 339.528 13.6444Z" fill="#37417D" fill-opacity="0.5"/>
        <path d="M-164.5 -114.14L-423.272 -256.983L-448.826 -344.861L-614.023 -436.051L-612.677 -438.49L-446.371 -346.689L-421.039 -258.932L-164.04 -117.069L-94.8676 -137.036L264.354 61.2548L382.617 27.3036L483.953 83.2412L482.729 85.4586L382.28 30.0106L264.116 64.306L-95.1053 -133.985L-164.5 -114.14Z" fill="#37417D" fill-opacity="0.5"/>
        <path d="M480.671 88.6622C483.121 90.0142 486.202 89.1247 487.554 86.6754C488.906 84.2261 488.017 81.1445 485.567 79.7925C483.118 78.4405 480.037 79.33 478.685 81.7793C477.333 84.2286 478.222 87.3102 480.671 88.6622Z" fill="#37417D" fill-opacity="0.5"/>
        <path d="M-50.9395 175.941L-274.455 52.5605L-296.707 -24.5276L-293.954 -25.3223L-272 50.7333L-50.48 173.013L76.853 136.257L251.585 232.709L250.239 235.148L76.6153 139.308L-50.9395 175.941Z" fill="#37417D" fill-opacity="0.5"/>
        <path d="M248.181 238.352C250.62 239.699 253.717 238.804 255.064 236.365C256.41 233.926 255.516 230.829 253.077 229.482C250.638 228.136 247.54 229.03 246.194 231.469C244.97 233.687 245.742 237.006 248.181 238.352Z" fill="#37417D" fill-opacity="0.5"/>
        <path d="M-45.2891 145.79L-244.635 35.7511L-261.225 -21.7208L-157.072 -51.5991L-225.368 -89.2988L-282.496 -72.8084L-283.413 -75.3398L-224.909 -92.2276L-149.96 -50.8558L-257.899 -19.8848L-242.402 33.8015L-45.0514 142.739L81.5934 106.182L82.388 108.935L-45.2891 145.79Z" fill="#37417D" fill-opacity="0.5"/>
        <path d="M83.2586 112.598C86.0118 111.803 87.603 108.921 86.8083 106.167C86.0136 103.414 83.1309 101.823 80.3778 102.618C77.6246 103.413 76.0334 106.295 76.8281 109.048C77.6228 111.801 80.5055 113.393 83.2586 112.598Z" fill="#37417D" fill-opacity="0.5"/>
        <path d="M-126.105 -71.5364L-127.022 -74.0678L-75.0564 -89.0682L269.974 101.389L321.251 86.5872L322.168 89.1186L269.736 104.44L-75.5158 -86.1394L-126.105 -71.5364Z" fill="#37417D" fill-opacity="0.5"/>
        <path d="M322.917 93.0033C325.67 92.2085 327.261 89.3259 326.467 86.5728C325.672 83.8196 322.789 82.2284 320.036 83.0231C317.283 83.8178 315.692 86.7005 316.487 89.4536C317.281 92.2068 320.164 93.798 322.917 93.0033Z" fill="#37417D" fill-opacity="0.5"/>
        <path d="M-2.13716 74.4282L-180.639 -24.1052L-90.8178 -50.0329L-90.2448 -47.4021L-173.528 -23.3619L-1.89944 71.377L62.4554 52.8005L219.892 139.706L218.546 142.145L62.2177 55.8516L-2.13716 74.4282Z" fill="#37417D" fill-opacity="0.5"/>
        <path d="M216.488 145.348C218.927 146.695 222.024 145.8 223.371 143.361C224.717 140.922 223.823 137.825 221.384 136.478C218.945 135.132 215.848 136.026 214.501 138.465C212.933 140.782 214.049 144.002 216.488 145.348Z" fill="#37417D" fill-opacity="0.5"/>
        <path d="M-33.8354 115.082L-212.116 16.6708L-219.169 -7.76333L-216.538 -8.3363L-209.783 15.0654L-33.7201 112.252L44.7446 89.6028L45.3175 92.2336L-33.8354 115.082Z" fill="#37417D" fill-opacity="0.5"/>
        <path d="M46.1886 95.8966C48.9417 95.1019 50.5329 92.2192 49.7382 89.4661C48.9435 86.7129 46.0609 85.1217 43.3077 85.9164C40.5546 86.7111 38.9633 89.5938 39.7581 92.3469C40.5528 95.1001 43.4354 96.6913 46.1886 95.8966Z" fill="#37417D" fill-opacity="0.5"/>
        <path d="M-2.21295 37.3542L-105.545 -19.6849L-44.4094 -37.1457L-43.4923 -34.6143L-98.2111 -18.8193L-1.75348 34.4255L51.5887 19.0278L280.87 145.591L437.111 100.491L508.29 139.782L506.943 142.221L436.873 103.542L280.41 148.52L51.1293 21.9565L-2.21295 37.3542Z" fill="#37417D" fill-opacity="0.5"/>
        <path d="M504.886 145.425C507.325 146.771 510.422 145.877 511.769 143.438C513.115 140.999 512.221 137.901 509.782 136.555C507.343 135.209 504.245 136.103 502.899 138.542C501.331 140.859 502.225 143.956 504.886 145.425Z" fill="#37417D" fill-opacity="0.5"/>
        <path d="M251.339 422.358L203.443 395.919L194.601 365.291L-81.6889 212.778L-90.6295 181.805L-133.869 157.937L-132.523 155.498L-88.1744 179.978L-79.4555 210.829L196.835 363.341L205.898 394.092L251.576 419.307L297.913 406.118L438.498 483.721L437.151 486.16L297.454 409.047L251.339 422.358Z" fill="#37417D" fill-opacity="0.5"/>
        <path d="M64.8418 269.651L-32.9463 215.672L46.895 192.625L229.388 293.362L228.042 295.801L46.4356 195.554L-25.8345 216.415L66.1883 267.212L64.8418 269.651Z" fill="#37417D" fill-opacity="0.5"/>
        <path d="M67.8023 263.764C70.2414 265.11 71.1355 268.207 69.7891 270.647C68.4426 273.086 65.3454 273.98 62.9062 272.633C60.467 271.287 59.573 268.19 60.9194 265.751C62.2658 263.311 65.3631 262.417 67.8023 263.764Z" fill="#37417D" fill-opacity="0.5"/>
        <path d="M445.605 428.916L300.586 348.865L280.145 277.405L78.3603 166.02L15.6039 184.322L14.8091 181.568L78.8198 163.091L282.379 275.456L303.041 347.038L445.843 425.864L533.255 400.632L629.048 453.51L627.701 455.949L533.018 403.683L445.605 428.916Z" fill="#37417D" fill-opacity="0.5"/>
        <path d="M12.8811 187.158C15.3303 188.51 18.4119 187.621 19.7639 185.171C21.1159 182.722 20.2264 179.64 17.7771 178.288C15.3278 176.936 12.2463 177.826 10.8943 180.275C9.54224 182.724 10.4318 185.806 12.8811 187.158Z" fill="#37417D" fill-opacity="0.5"/>
        <path d="M292.333 217.592L126.026 125.79L127.373 123.351L292.57 214.54L405.793 181.858L487.838 227.146L486.491 229.585L405.556 184.909L292.333 217.592Z" fill="#37417D" fill-opacity="0.5"/>
        <path d="M124.412 129.239C121.973 127.893 121.079 124.795 122.425 122.356C123.772 119.917 126.869 119.023 129.308 120.369C131.747 121.716 132.641 124.813 131.295 127.252C129.949 129.691 126.851 130.586 124.412 129.239Z" fill="#37417D" fill-opacity="0.5"/>
        <path d="M484.434 232.789C486.873 234.136 489.97 233.242 491.316 230.803C492.663 228.363 491.769 225.266 489.33 223.92C486.89 222.573 483.793 223.467 482.447 225.907C480.879 228.223 481.773 231.321 484.434 232.789Z" fill="#37417D" fill-opacity="0.5"/>
        <path d="M319.108 166.989L318.314 164.236L429.472 132.149L536.13 191.024L556.296 260.885L738.789 361.622L737.443 364.061L553.841 262.712L533.896 192.974L429.234 135.2L319.108 166.989Z" fill="#37417D" fill-opacity="0.5"/>
        <path d="M320.323 170.553C317.57 171.348 314.688 169.756 313.893 167.003C313.098 164.25 314.689 161.367 317.442 160.573C320.196 159.778 323.078 161.369 323.873 164.122C324.668 166.875 323.076 169.758 320.323 170.553Z" fill="#37417D" fill-opacity="0.5"/>
        <path d="M469.598 485.556L243.421 360.706L236.246 336.494L72.6005 246.161L73.9469 243.722L238.701 334.666L245.655 358.756L470.057 482.627L527.185 466.137L653.8 536.028L652.453 538.467L526.948 469.188L469.598 485.556Z" fill="#37417D" fill-opacity="0.5"/>
        <path d="M70.9863 249.609C68.5471 248.263 67.6531 245.166 68.9995 242.727C70.3459 240.287 73.4432 239.393 75.8823 240.74C78.3215 242.086 79.2156 245.183 77.8691 247.623C76.5227 250.062 73.4254 250.956 70.9863 249.609Z" fill="#37417D" fill-opacity="0.5"/>
        <path d="M634.294 347.047L509.01 277.89L495.102 229.71L400.64 177.567L401.987 175.127L497.336 227.76L511.343 276.284L635.518 344.829L634.294 347.047Z" fill="#37417D" fill-opacity="0.5"/>
        <path d="M399.026 181.015C396.587 179.669 395.693 176.572 397.039 174.132C398.385 171.693 401.483 170.799 403.922 172.146C406.361 173.492 407.255 176.589 405.909 179.028C404.562 181.468 401.465 182.362 399.026 181.015Z" fill="#37417D" fill-opacity="0.5"/>
        <path d="M438.801 387.26L325.934 324.958L304.599 250.401L395.675 224.298L396.37 226.707L307.925 252.237L328.389 323.13L439.26 384.331L543.658 354.01L740.565 462.702L739.218 465.141L543.42 357.061L438.801 387.26Z" fill="#37417D" fill-opacity="0.5"/>
        <path d="M394.238 220.611C396.991 219.816 399.874 221.407 400.668 224.161C401.463 226.914 399.872 229.796 397.119 230.591C394.366 231.386 391.483 229.795 390.688 227.042C389.894 224.288 391.485 221.406 394.238 220.611Z" fill="#37417D" fill-opacity="0.5"/>
        <path d="M374.113 283.275L373.318 280.522L429.635 264.452L615.011 366.78L613.665 369.219L429.176 267.381L374.113 283.275Z" fill="#37417D" fill-opacity="0.5"/>
    </g>
    <defs>
        <clipPath id="clip0_1170_780085">
            <rect width="1920" height="268" fill="white"/>
        </clipPath>
    </defs>
</svg>
