<svg width="64" height="66" viewBox="0 0 64 66" fill="none"
  xmlns="http://www.w3.org/2000/svg">
  <rect width="64" height="66" rx="8" fill="#FBAF1D"/>
  <path d="M48.6667 35.3333C50.5047 35.3333 52 33.838 52 32C52 30.162 50.5047 28.6667 48.6667 28.6667C47.9887 28.6667 47.3587 28.8727 46.8313 29.222L41.276 23.6667L46.8313 18.1113C47.3587 18.4607 47.9887 18.6667 48.6667 18.6667C50.5047 18.6667 52 17.1713 52 15.3333C52 13.4953 50.5047 12 48.6667 12C46.8287 12 45.3333 13.4953 45.3333 15.3333C45.3333 16.0113 45.5393 16.6413 45.8887 17.1687L40.3333 22.724L34.778 17.1687C35.1273 16.6413 35.3333 16.0113 35.3333 15.3333C35.3333 13.4953 33.838 12 32 12C30.162 12 28.6667 13.4953 28.6667 15.3333C28.6667 16.0113 28.8727 16.6413 29.222 17.1687L23.6667 22.724L18.1113 17.1687C18.4607 16.6413 18.6667 16.0113 18.6667 15.3333C18.6667 13.4953 17.1713 12 15.3333 12C13.4953 12 12 13.4953 12 15.3333C12 17.1713 13.4953 18.6667 15.3333 18.6667C15.4153 18.6667 15.492 18.6487 15.572 18.6427L19.5673 26.8233L17.1687 29.222C16.6413 28.8727 16.0113 28.6667 15.3333 28.6667C13.4953 28.6667 12 30.162 12 32C12 33.838 13.4953 35.3333 15.3333 35.3333C16.9427 35.3333 18.2893 34.186 18.5993 32.6667H22.4213L25.0367 38.0213L17.1687 45.8887C16.6413 45.5393 16.0113 45.3333 15.3333 45.3333C13.4953 45.3333 12 46.8287 12 48.6667C12 50.5047 13.4953 52 15.3333 52C17.1713 52 18.6667 50.5047 18.6667 48.6667C18.6667 48.5847 18.6487 48.508 18.6427 48.428L27.9087 43.9027L29.2927 46.7367C28.902 47.2827 28.6667 47.946 28.6667 48.6667C28.6667 50.5047 30.162 52 32 52C33.838 52 35.3333 50.5047 35.3333 48.6667C35.3333 47.0573 34.186 45.7107 32.6667 45.4007V41.5787L38.0213 38.9633L45.8887 46.8307C45.5393 47.3587 45.3333 47.9887 45.3333 48.6667C45.3333 50.5047 46.8287 52 48.6667 52C50.5047 52 52 50.5047 52 48.6667C52 46.8287 50.5047 45.3333 48.6667 45.3333C48.366 45.3333 48.0807 45.386 47.8033 45.4607L43.1007 36.4827L46.7367 34.7067C47.2827 35.098 47.946 35.3333 48.6667 35.3333ZM48.6667 13.3333C49.7693 13.3333 50.6667 14.2307 50.6667 15.3333C50.6667 16.436 49.7693 17.3333 48.6667 17.3333C47.564 17.3333 46.6667 16.436 46.6667 15.3333C46.6667 14.2307 47.564 13.3333 48.6667 13.3333ZM15.3333 34C14.2307 34 13.3333 33.1027 13.3333 32C13.3333 30.8973 14.2307 30 15.3333 30C16.436 30 17.3333 30.8973 17.3333 32C17.3333 33.1027 16.436 34 15.3333 34ZM15.3333 50.6667C14.2307 50.6667 13.3333 49.7693 13.3333 48.6667C13.3333 47.564 14.2307 46.6667 15.3333 46.6667C16.436 46.6667 17.3333 47.564 17.3333 48.6667C17.3333 49.7693 16.436 50.6667 15.3333 50.6667ZM48.6667 46.6667C49.7693 46.6667 50.6667 47.564 50.6667 48.6667C50.6667 49.7693 49.7693 50.6667 48.6667 50.6667C47.564 50.6667 46.6667 49.7693 46.6667 48.6667C46.6667 47.564 47.564 46.6667 48.6667 46.6667ZM39.3907 23.6667L37.42 25.6373L33.5567 18.2627C33.65 18.2127 33.7473 18.1693 33.8353 18.1113L39.3907 23.6667ZM37.08 27.8627L38.898 31.3333H33.6093L37.08 27.8627ZM32.6667 30.3907V19.4367L36.432 26.6253L32.6667 30.3907ZM30.1647 18.1113C30.514 18.3433 30.9087 18.5127 31.3333 18.5993V30.3907L24.6093 23.6667L30.1647 18.1113ZM15.3333 17.3333C14.2307 17.3333 13.3333 16.436 13.3333 15.3333C13.3333 14.2307 14.2307 13.3333 15.3333 13.3333C16.436 13.3333 17.3333 14.2307 17.3333 15.3333C17.3333 16.436 16.436 17.3333 15.3333 17.3333ZM16.874 18.2713C16.9727 18.2193 17.0753 18.1727 17.1687 18.1113L22.724 23.6667L20.564 25.8267L16.874 18.2713ZM18.5993 31.3333C18.5127 30.9087 18.3433 30.514 18.1113 30.1647L20.186 28.09L21.77 31.3333H18.5993ZM21.1827 27.0933L23.6667 24.6093L30.3907 31.3333H23.2533L21.1827 27.0933ZM23.9047 32.6667H30.3907L26.0327 37.0247L23.9047 32.6667ZM18.2713 47.126C18.2193 47.0273 18.1727 46.9247 18.1113 46.8313L25.6547 39.288L27.3233 42.7047L18.2713 47.126ZM26.6513 38.2913L31.3333 33.6093V40.7467L28.5213 42.12L26.6513 38.2913ZM29.1067 43.318L31.3333 42.23V45.4007C30.968 45.4753 30.632 45.6207 30.3207 45.804L29.1067 43.318ZM34 48.6667C34 49.7693 33.1027 50.6667 32 50.6667C30.8973 50.6667 30 49.7693 30 48.6667C30 47.564 30.8973 46.6667 32 46.6667C33.1027 46.6667 34 47.564 34 48.6667ZM32 17.3333C30.8973 17.3333 30 16.436 30 15.3333C30 14.2307 30.8973 13.3333 32 13.3333C33.1027 13.3333 34 14.2307 34 15.3333C34 16.436 33.1027 17.3333 32 17.3333ZM32.6667 40.0953V33.6093L37.0247 37.9673L32.6667 40.0953ZM33.6093 32.6667H39.5967L41.2833 35.8873L38.2907 37.3487L33.6093 32.6667ZM46.1827 45.24L39.288 38.3453L41.9027 37.0687L46.1827 45.24ZM42.4827 35.302L41.102 32.6667H45.4013C45.476 33.032 45.6213 33.368 45.8047 33.6793L42.4827 35.302ZM45.4007 31.3333H40.4033L38.068 26.8747L40.3333 24.6093L45.8887 30.1647C45.6567 30.514 45.4873 30.9087 45.4007 31.3333ZM48.6667 30C49.7693 30 50.6667 30.8973 50.6667 32C50.6667 33.1027 49.7693 34 48.6667 34C47.564 34 46.6667 33.1027 46.6667 32C46.6667 30.8973 47.564 30 48.6667 30Z" fill="white"/>
</svg>
