<svg width="64" height="66" viewBox="0 0 64 66" fill="none"
  xmlns="http://www.w3.org/2000/svg">
  <rect width="64" height="66" rx="8" fill="#2C3ACF"/>
  <path d="M32.7153 23.5469H20.4338C20.1102 23.5469 19.8478 23.8092 19.8478 24.1328C19.8478 24.4564 20.1102 24.7188 20.4338 24.7188H32.7154C33.039 24.7188 33.3013 24.4564 33.3013 24.1328C33.3013 23.8092 33.039 23.5469 32.7153 23.5469V23.5469ZM44.0426 20.6952C40.8654 20.6952 38.2806 23.28 38.2806 26.4571C38.2806 29.6342 40.8654 32.2189 44.0426 32.2189C47.2196 32.2189 49.8044 29.6341 49.8044 26.4571C49.8044 23.28 47.2196 20.6952 44.0426 20.6952V20.6952ZM44.0426 31.0471C41.5116 31.0471 39.4525 28.988 39.4525 26.4572C39.4525 23.9262 41.5116 21.8672 44.0426 21.8672C46.5735 21.8672 48.6325 23.9262 48.6325 26.4572C48.6325 28.988 46.5734 31.0471 44.0426 31.0471ZM44.0426 17.4996C43.7314 17.4996 43.4218 17.5163 43.1148 17.548V15.9297C43.1148 14.3142 41.8006 13 40.1852 13H18.6367C17.0213 13 15.707 14.3142 15.707 15.9297V27.0718C14.1953 27.1861 13 28.4517 13 29.9922V38.733C13 39.0566 13.2623 39.3189 13.5859 39.3189C13.9095 39.3189 14.1719 39.0566 14.1719 38.733V29.9922C14.1719 29.0229 14.9604 28.2344 15.9297 28.2344H27.3625C28.0268 28.2344 28.6037 28.6846 28.7652 29.3287L29.1675 30.9396C29.459 32.1067 30.503 32.9219 31.7063 32.9219H37.8488C37.8555 32.9284 37.8621 32.935 37.8689 32.9415L36.814 34.7679C36.1313 34.6504 35.4163 34.9578 35.0502 35.5917L30.3865 43.6696C29.4987 45.2073 30.0274 47.1806 31.5651 48.0684C32.312 48.4997 33.1829 48.6114 34.0086 48.3902C34.8395 48.1675 35.5338 47.6347 35.9638 46.8898L40.6276 38.8118C40.984 38.2017 40.9076 37.4055 40.4596 36.8716L41.5116 35.0498C42.2823 35.2772 43.0962 35.4027 43.9374 35.4126V50.0703C43.9374 51.0396 43.1488 51.8281 42.1796 51.8281H15.9296C14.9604 51.8281 14.1719 51.0396 14.1719 50.0703V41.4961C14.1719 41.1725 13.9095 40.9102 13.5859 40.9102C13.2623 40.9102 13 41.1725 13 41.4961V50.0703C13 51.6858 14.3142 53 15.9297 53H42.1797C43.7952 53 45.1094 51.6858 45.1094 50.0703V35.3508C49.5474 34.8216 53 31.0353 53 26.4571C53 21.518 48.9816 17.4996 44.0426 17.4996V17.4996ZM39.6129 38.226L34.9491 46.304C34.6756 46.7778 34.2339 47.1167 33.7054 47.2583C33.1769 47.4 32.6249 47.3272 32.1511 47.0537C31.173 46.4889 30.8366 45.2338 31.4014 44.2557L36.0652 36.1778C36.2152 35.9176 36.5398 35.8435 36.7922 35.986L39.4141 37.4998C39.4158 37.5008 39.4172 37.502 39.4188 37.5029C39.4195 37.5033 39.4203 37.5036 39.4211 37.504C39.6691 37.6466 39.7579 37.9779 39.6129 38.226V38.226ZM39.4974 36.1947L37.8819 35.262L38.7824 33.7028C39.2838 34.0678 39.8241 34.3822 40.3962 34.6382L39.4974 36.1947ZM44.0426 34.2427C43.1253 34.2427 42.2448 34.0828 41.4269 33.7902C41.4266 33.7901 41.4263 33.7899 41.4259 33.7898C38.4163 32.7127 36.2569 29.8325 36.2569 26.4572C36.2569 26.1568 36.2743 25.854 36.3084 25.5572C36.3456 25.2357 36.115 24.9451 35.7935 24.9079C35.4722 24.8705 35.1813 25.1013 35.1443 25.4228C35.1049 25.764 35.0849 26.112 35.0849 26.4571C35.0849 28.4356 35.73 30.2661 36.8205 31.75H31.7063C31.0418 31.75 30.4654 31.3 30.3045 30.6557L29.902 29.0443C29.6095 27.8774 28.5652 27.0625 27.3625 27.0625H16.8789V15.9297C16.8789 14.9604 17.6674 14.1719 18.6367 14.1719H40.1852C41.1544 14.1719 41.943 14.9604 41.943 15.9297V17.7499C40.9765 17.983 40.0518 18.3758 39.206 18.9203C37.8013 19.8247 36.6784 21.0973 35.9585 22.6004C35.8187 22.8923 35.942 23.2422 36.2339 23.382C36.5255 23.5216 36.8756 23.3985 37.0155 23.1066C38.3056 20.4124 41.0639 18.6716 44.0426 18.6716C48.3355 18.6716 51.8281 22.1642 51.8281 26.4572C51.8281 30.7502 48.3355 34.2427 44.0426 34.2427V34.2427ZM33.8872 20.0312H20.4338C20.1102 20.0312 19.8478 20.2936 19.8478 20.6172C19.8478 20.9408 20.1102 21.2031 20.4338 21.2031H33.8873C34.2109 21.2031 34.4732 20.9408 34.4732 20.6172C34.4732 20.2936 34.2109 20.0312 33.8872 20.0312ZM37.9887 17.1016C37.9887 16.778 37.7265 16.5156 37.4028 16.5156H20.4338C20.1102 16.5156 19.8478 16.778 19.8478 17.1016C19.8478 17.4252 20.1102 17.6875 20.4338 17.6875H37.4029C37.7265 17.6875 37.9887 17.4252 37.9887 17.1016Z" fill="white"/>
</svg>
