<svg width="1920" height="599" viewBox="0 0 1920 599" fill="none" xmlns="http://www.w3.org/2000/svg">
  <path d="M1920 -81H0V577.271L80 583.605L80.0016 583.605C160.002 589.939 320.001 602.608 480 596.274C600 591.523 720 576.083 840.001 560.643C880 555.496 920 550.35 960 545.599C1120 526.596 1280 513.927 1440 520.262C1600 526.596 1760 551.933 1840 564.602L1920 577.271V-81Z" fill="#EFF0F9" fill-opacity="1"/>
  <path fill-rule="evenodd" clip-rule="evenodd" d="M1920 -81H0V28V471.164L384 547.866C512 573.433 640 599 768 599C877.714 599 987.429 580.216 1097.14 561.432C1115.43 558.301 1133.71 555.171 1152 552.127C1280 530.821 1408 513.776 1536 509.515C1664 505.254 1792 513.776 1856 518.037L1920 522.299V28V-81Z" fill="#E2E4F4" fill-opacity="0.36"/>
</svg>
