<svg width="64" height="64" viewBox="0 0 64 64" fill="none" xmlns="http://www.w3.org/2000/svg">
<rect width="64" height="64" rx="32" fill="#1232A6"/>
<path d="M22.5933 31.8498C22.5506 32.6226 22.8047 33.3815 23.2998 33.9596C23.7948 34.5377 24.4903 34.8879 25.2334 34.933H25.3866C25.9339 34.9324 26.469 34.7651 26.9259 34.4519C27.3829 34.1386 27.7416 33.693 27.9579 33.1702C28.1741 32.6474 28.2384 32.0701 28.1429 31.5097C28.0473 30.9493 27.7961 30.4302 27.4201 30.0166C27.0442 29.6029 26.56 29.3128 26.0273 29.1821C25.4947 29.0513 24.9369 29.0856 24.4227 29.2807C23.9086 29.4759 23.4607 29.8233 23.1342 30.2801C22.8077 30.7369 22.617 31.2831 22.5856 31.8513L22.5933 31.8498Z" fill="white"/>
<path d="M12.1425 31.1114C11.9638 31.101 11.7862 31.1459 11.632 31.2405C11.4779 31.335 11.3542 31.475 11.2765 31.6426C11.1989 31.8103 11.1707 31.9981 11.1957 32.1824C11.2206 32.3667 11.2975 32.5391 11.4167 32.678C11.5359 32.8168 11.6919 32.9158 11.8652 32.9624C12.0384 33.009 12.221 33.0012 12.39 32.9399C12.559 32.8786 12.7066 32.7666 12.8144 32.618C12.9222 32.4694 12.9852 32.291 12.9954 32.1052C13.0025 31.9816 12.986 31.8578 12.9469 31.7409C12.9078 31.624 12.8468 31.5163 12.7676 31.424C12.6883 31.3316 12.5923 31.2565 12.485 31.2028C12.3777 31.1492 12.2613 31.1181 12.1425 31.1114Z" fill="white"/>
<path d="M22.4152 14.934C22.5743 14.849 22.7057 14.7169 22.7928 14.5545C22.8799 14.392 22.9189 14.2063 22.9048 14.0209C22.8907 13.8354 22.8241 13.6585 22.7135 13.5123C22.6029 13.3661 22.4532 13.2572 22.2832 13.1993C22.1132 13.1414 21.9305 13.1371 21.7582 13.1869C21.5858 13.2367 21.4315 13.3385 21.3146 13.4793C21.1978 13.6202 21.1236 13.7938 21.1014 13.9784C21.0792 14.163 21.1101 14.3503 21.19 14.5167C21.2438 14.6281 21.3182 14.7273 21.409 14.8086C21.4998 14.89 21.6052 14.9518 21.719 14.9906C21.8329 15.0294 21.9531 15.0444 22.0725 15.0346C22.192 15.0249 22.3085 14.9907 22.4152 14.934Z" fill="white"/>
<path d="M25.2589 20.0915C25.506 19.9618 25.7107 19.7589 25.8469 19.5083C25.9832 19.2578 26.0449 18.9708 26.0244 18.6838C26.0038 18.3967 25.9019 18.1224 25.7315 17.8956C25.561 17.6688 25.3298 17.4996 25.0669 17.4095C24.8041 17.3193 24.5214 17.3122 24.2547 17.3891C23.9879 17.466 23.7491 17.6234 23.5684 17.8414C23.3876 18.0594 23.2731 18.3283 23.2393 18.614C23.2055 18.8997 23.2539 19.1894 23.3784 19.4465C23.4611 19.6173 23.5753 19.7695 23.7146 19.8944C23.8539 20.0192 24.0155 20.1143 24.1901 20.1742C24.3648 20.2341 24.549 20.2577 24.7324 20.2435C24.9158 20.2293 25.0947 20.1776 25.2589 20.0915Z" fill="white"/>
<path d="M15.6892 23.6393C15.8798 23.7696 16.1034 23.8383 16.3315 23.8365C16.5596 23.8347 16.7821 23.7626 16.9708 23.6293C17.1595 23.4959 17.306 23.3074 17.3916 23.0875C17.4773 22.8676 17.4983 22.6262 17.452 22.3939C17.4057 22.1616 17.2941 21.9488 17.1315 21.7824C16.9688 21.616 16.7624 21.5035 16.5383 21.4592C16.3142 21.4149 16.0824 21.4407 15.8724 21.5333C15.6624 21.626 15.4835 21.7814 15.3585 21.9798C15.1909 22.2455 15.1317 22.5696 15.1937 22.8807C15.2557 23.1919 15.4339 23.4647 15.6892 23.6393Z" fill="white"/>
<path d="M17.3935 30.5817C17.1172 30.5655 16.8424 30.6349 16.604 30.781C16.3656 30.9271 16.1741 31.1435 16.0539 31.4028C15.9337 31.662 15.8901 31.9525 15.9286 32.2376C15.9671 32.5226 16.086 32.7894 16.2703 33.0041C16.4545 33.2189 16.6959 33.3721 16.9638 33.4442C17.2317 33.5164 17.5142 33.5043 17.7756 33.4095C18.0369 33.3147 18.2654 33.1415 18.432 32.9117C18.5987 32.682 18.6962 32.4059 18.7121 32.1186C18.733 31.733 18.6058 31.3546 18.3586 31.0664C18.1114 30.7782 17.7643 30.6039 17.3935 30.5817Z" fill="white"/>
<path d="M15.8424 40.3672C15.6388 40.4741 15.4704 40.6414 15.3583 40.848C15.2462 41.0545 15.1955 41.2909 15.2126 41.5274C15.2297 41.7638 15.3138 41.9897 15.4543 42.1765C15.5949 42.3632 15.7855 42.5025 16.0021 42.5766C16.2187 42.6507 16.4515 42.6564 16.6712 42.5929C16.8909 42.5294 17.0876 42.3996 17.2364 42.2199C17.3852 42.0402 17.4794 41.8186 17.5071 41.5833C17.5348 41.3479 17.4948 41.1092 17.3921 40.8975C17.3239 40.7568 17.2297 40.6315 17.1149 40.5287C17 40.4259 16.8669 40.3476 16.7229 40.2983C16.579 40.2491 16.4271 40.2298 16.2761 40.2416C16.125 40.2534 15.9776 40.2961 15.8424 40.3672Z" fill="white"/>
<path d="M21.2836 27.5723C21.5561 27.7581 21.8755 27.8556 22.2014 27.8526C22.5273 27.8496 22.845 27.7462 23.1143 27.5554C23.3837 27.3647 23.5926 27.0951 23.7146 26.7809C23.8367 26.4666 23.8664 26.1218 23.8 25.79C23.7336 25.4582 23.5741 25.1543 23.3417 24.9168C23.1093 24.6793 22.8143 24.5187 22.4941 24.4555C22.174 24.3923 21.843 24.4292 21.543 24.5616C21.243 24.694 20.9875 24.916 20.8088 25.1994C20.6899 25.3875 20.6079 25.5982 20.5674 25.8194C20.5269 26.0405 20.5288 26.2678 20.5729 26.4883C20.617 26.7087 20.7025 26.9179 20.8244 27.1039C20.9464 27.2899 21.1024 27.4491 21.2836 27.5723Z" fill="white"/>
<path d="M38.5453 19.9771C38.7774 20.1346 39.0492 20.2169 39.3262 20.2138C39.6033 20.2106 39.8732 20.1221 40.1019 19.9594C40.3306 19.7968 40.5078 19.5672 40.6111 19.2998C40.7144 19.0325 40.7391 18.7392 40.6822 18.4572C40.6253 18.1752 40.4892 17.9171 40.2913 17.7155C40.0933 17.5139 39.8423 17.3778 39.57 17.3245C39.2977 17.2713 39.0163 17.3031 38.7614 17.4161C38.5065 17.5291 38.2896 17.7181 38.138 17.9593C38.037 18.1195 37.9675 18.2989 37.9333 18.4871C37.8992 18.6753 37.9011 18.8687 37.9389 19.0562C37.9768 19.2436 38.0498 19.4215 38.1539 19.5795C38.2579 19.7376 38.391 19.8727 38.5453 19.9771Z" fill="white"/>
<path d="M41.4179 14.8363C41.5679 14.9386 41.7437 14.9922 41.923 14.9906C42.1024 14.9889 42.2772 14.9319 42.4254 14.8269C42.5737 14.7218 42.6886 14.5734 42.7557 14.4005C42.8228 14.2275 42.839 14.0377 42.8023 13.8551C42.7657 13.6725 42.6778 13.5053 42.5497 13.3747C42.4217 13.2441 42.2593 13.1559 42.083 13.1213C41.9068 13.0867 41.7246 13.1073 41.5596 13.1804C41.3946 13.2535 41.2541 13.3758 41.156 13.532C41.0246 13.7411 40.9783 13.9959 41.0274 14.2405C41.0765 14.4851 41.217 14.6993 41.4179 14.8363Z" fill="white"/>
<path d="M38.7661 29.0745C38.3986 29.0526 38.0305 29.1061 37.6829 29.2321C37.3353 29.358 37.0149 29.554 36.7401 29.8087C36.1851 30.3232 35.8493 31.0459 35.8067 31.8178C35.764 32.5897 36.018 33.3476 36.5127 33.9247C37.0074 34.5019 37.7023 34.8511 38.4445 34.8954C38.4981 34.8954 38.5532 34.8954 38.6068 34.8954C39.1475 34.8952 39.6766 34.7322 40.1303 34.4263C40.5839 34.1203 40.9428 33.6844 41.1636 33.1711C41.3844 32.6579 41.4577 32.0891 41.3747 31.5335C41.2917 30.9778 41.0558 30.459 40.6957 30.0396C40.4518 29.7536 40.1555 29.521 39.8242 29.3553C39.4929 29.1896 39.1332 29.0941 38.7661 29.0745Z" fill="white"/>
<path d="M26.1792 27.3704C26.4119 27.8537 26.7697 28.26 27.2123 28.5433C27.6549 28.8266 28.1648 28.9758 28.6846 28.9741C29.1638 28.9742 29.635 28.8466 30.0533 28.6035C30.4716 28.3603 30.823 28.0098 31.0739 27.5852C31.3249 27.1607 31.467 26.6763 31.4868 26.1784C31.5066 25.6805 31.4033 25.1856 31.1869 24.741C30.9526 24.2598 30.5942 23.856 30.1517 23.5747C29.7092 23.2934 29.2001 23.1458 28.6815 23.1484C28.2038 23.1493 27.7342 23.277 27.3173 23.5196C26.9004 23.7621 26.55 24.1115 26.2993 24.5344C26.0487 24.9573 25.9061 25.4398 25.885 25.9362C25.864 26.4325 25.9653 26.9262 26.1792 27.3704Z" fill="white"/>
<path d="M48.1547 23.6343C48.3582 23.5275 48.5267 23.3603 48.6389 23.1539C48.7512 22.9475 48.802 22.7111 48.7851 22.4747C48.7682 22.2382 48.6842 22.0123 48.5439 21.8254C48.4035 21.6386 48.2131 21.4992 47.9965 21.4249C47.78 21.3506 47.5472 21.3447 47.3275 21.4079C47.1077 21.4712 46.911 21.6008 46.762 21.7803C46.6131 21.9598 46.5187 22.1813 46.4907 22.4166C46.4627 22.6519 46.5025 22.8905 46.6049 23.1024C46.7427 23.3865 46.9833 23.6021 47.2739 23.7019C47.5645 23.8016 47.8813 23.7773 48.1547 23.6343Z" fill="white"/>
<path d="M41.0474 24.564C40.7563 24.7165 40.5153 24.9553 40.3547 25.2502C40.1941 25.5451 40.1213 25.883 40.1453 26.221C40.1693 26.559 40.2892 26.882 40.4898 27.1491C40.6904 27.4162 40.9626 27.6155 41.2721 27.7218C41.5815 27.828 41.9144 27.8364 42.2284 27.746C42.5425 27.6555 42.8237 27.4702 43.0366 27.2135C43.2494 26.9568 43.3842 26.6403 43.424 26.3039C43.4639 25.9675 43.4069 25.6264 43.2603 25.3237C43.1631 25.1226 43.0287 24.9433 42.8649 24.7963C42.701 24.6492 42.5109 24.5372 42.3053 24.4666C42.0998 24.3961 41.8829 24.3684 41.667 24.3851C41.4512 24.4018 41.2406 24.4626 41.0474 24.564Z" fill="white"/>
<path d="M31.8929 14.3965C32.1207 14.41 32.3471 14.3529 32.5437 14.2325C32.7403 14.1122 32.8981 13.9339 32.9971 13.7202C33.0962 13.5065 33.1322 13.2671 33.1004 13.0322C33.0686 12.7973 32.9706 12.5774 32.8186 12.4005C32.6667 12.2235 32.4677 12.0974 32.2469 12.0381C32.026 11.9788 31.7932 11.9889 31.5779 12.0672C31.3625 12.1455 31.1744 12.2885 31.0372 12.478C30.9 12.6675 30.82 12.8951 30.8072 13.132C30.79 13.4494 30.8948 13.7609 31.0984 13.998C31.302 14.2351 31.5878 14.3784 31.8929 14.3965Z" fill="white"/>
<path d="M31.8804 21.9441C32.2057 21.9631 32.5291 21.8813 32.8097 21.7092C33.0904 21.5371 33.3156 21.2823 33.4571 20.9771C33.5985 20.6718 33.6498 20.3298 33.6044 19.9943C33.5589 19.6588 33.4189 19.3448 33.2019 19.092C32.985 18.8393 32.7008 18.659 32.3854 18.5742C32.07 18.4893 31.7375 18.5036 31.4299 18.6152C31.1222 18.7268 30.8533 18.9307 30.6571 19.2012C30.4609 19.4717 30.3463 19.7967 30.3276 20.1349C30.3029 20.5889 30.4526 21.0346 30.7438 21.3738C31.035 21.7131 31.4438 21.9182 31.8804 21.9441Z" fill="white"/>
<path d="M22.9526 39.436C23.2436 39.2834 23.4846 39.0445 23.6451 38.7494C23.8055 38.4544 23.8782 38.1165 23.854 37.7785C23.8298 37.4405 23.7097 37.1175 23.509 36.8505C23.3083 36.5834 23.0359 36.3843 22.7263 36.2782C22.4168 36.1722 22.0839 36.164 21.7699 36.2547C21.4558 36.3454 21.1747 36.5309 20.962 36.7878C20.7494 37.0446 20.6148 37.3613 20.5752 37.6978C20.5356 38.0342 20.5929 38.3753 20.7397 38.6779C20.9366 39.0835 21.2803 39.3913 21.6952 39.5334C22.1102 39.6756 22.5625 39.6405 22.9526 39.436Z" fill="white"/>
<path d="M32.9453 24.4441C32.6035 24.9865 32.4455 25.6319 32.4961 26.2782C32.5468 26.9245 32.8033 27.5348 33.225 28.0125C33.6467 28.4901 34.2095 28.8079 34.8244 28.9155C35.4393 29.0231 36.0711 28.9143 36.6199 28.6065C37.1687 28.2986 37.603 27.8092 37.8543 27.2157C38.1055 26.6222 38.1592 25.9585 38.0069 25.3297C37.8546 24.7009 37.5051 24.1428 37.0135 23.7439C36.5219 23.3449 35.9165 23.1278 35.2929 23.127C34.8273 23.1267 34.3688 23.2469 33.959 23.4768C33.5491 23.7068 33.2008 24.0392 32.9453 24.4441Z" fill="white"/>
<path d="M37.818 36.6324C37.5935 36.1693 37.2542 35.777 36.8352 35.4958C36.4162 35.2146 35.9327 35.0548 35.4345 35.0328C34.9363 35.0109 34.4415 35.1275 34.0011 35.3708C33.5607 35.6141 33.1907 35.9751 32.9293 36.4167C32.6678 36.8583 32.5244 37.3644 32.5139 37.8829C32.5033 38.4013 32.6259 38.9133 32.8691 39.3661C33.1123 39.8188 33.4673 40.1958 33.8973 40.4583C34.3274 40.7207 34.817 40.8591 35.3157 40.8591C35.7543 40.856 36.1863 40.7469 36.5776 40.5406C37.2393 40.1922 37.7414 39.5854 37.9739 38.8529C38.2064 38.1204 38.1503 37.322 37.818 36.6324Z" fill="white"/>
<path d="M42.7156 36.4293C42.4431 36.2434 42.1238 36.1456 41.7979 36.1483C41.472 36.1511 41.1542 36.2543 40.8847 36.4448C40.6152 36.6354 40.4061 36.9048 40.2839 37.219C40.1616 37.5332 40.1317 37.878 40.1978 38.2099C40.264 38.5417 40.4233 38.8457 40.6557 39.0834C40.888 39.3211 41.1828 39.4818 41.503 39.5452C41.8231 39.6087 42.1542 39.5719 42.4542 39.4397C42.7543 39.3074 43.0099 39.0856 43.1888 38.8023C43.4278 38.4221 43.5122 37.9589 43.4235 37.5142C43.3348 37.0694 43.0803 36.6793 42.7156 36.4293Z" fill="white"/>
<path d="M48.0811 32.0494C48.0967 31.762 48.03 31.4763 47.8895 31.2283C47.749 30.9804 47.5409 30.7813 47.2916 30.6563C47.0423 30.5312 46.763 30.4859 46.4889 30.5259C46.2148 30.566 45.9583 30.6896 45.7518 30.8813C45.5453 31.0729 45.398 31.3239 45.3286 31.6025C45.2592 31.8812 45.2709 32.1749 45.362 32.4467C45.4531 32.7185 45.6197 32.9561 45.8406 33.1294C46.0616 33.3028 46.327 33.4041 46.6033 33.4206C46.9741 33.4424 47.338 33.3102 47.6151 33.0531C47.8922 32.796 48.0598 32.435 48.0811 32.0494Z" fill="white"/>
<path d="M51.9587 31.0142C51.7797 31.0035 51.6016 31.0482 51.4471 31.1427C51.2925 31.2372 51.1684 31.3773 51.0903 31.5452C51.0123 31.7131 50.9839 31.9013 51.0087 32.086C51.0336 32.2706 51.1105 32.4435 51.2298 32.5827C51.3491 32.7219 51.5054 32.8212 51.679 32.8681C51.8525 32.9149 52.0355 32.9071 52.2049 32.8458C52.3742 32.7844 52.5222 32.6722 52.6302 32.5234C52.7382 32.3745 52.8014 32.1957 52.8117 32.0096C52.8251 31.76 52.7428 31.5152 52.5829 31.3286C52.423 31.142 52.1986 31.029 51.9587 31.0142Z" fill="white"/>
<path d="M48.3076 40.3619C48.1169 40.2319 47.8933 40.1637 47.6653 40.1659C47.4373 40.1681 47.215 40.2405 47.0265 40.374C46.8381 40.5075 46.6919 40.6961 46.6065 40.916C46.5212 41.1359 46.5004 41.3772 46.5468 41.6093C46.5933 41.8415 46.7049 42.0541 46.8675 42.2204C47.0301 42.3866 47.2365 42.4989 47.4605 42.5432C47.6845 42.5875 47.9162 42.5617 48.1261 42.4691C48.336 42.3765 48.5148 42.2212 48.6399 42.0229C48.723 41.8912 48.7804 41.7437 48.8087 41.5889C48.8369 41.4341 48.8356 41.2751 48.8048 41.1208C48.7739 40.9665 48.7141 40.8201 48.6288 40.6899C48.5435 40.5597 48.4344 40.4482 48.3076 40.3619Z" fill="white"/>
<path d="M22.5807 49.1639C22.4308 49.0616 22.2551 49.0078 22.0758 49.0093C21.8965 49.0109 21.7217 49.0677 21.5734 49.1725C21.4252 49.2774 21.3102 49.4256 21.2429 49.5984C21.1757 49.7713 21.1592 49.9609 21.1956 50.1435C21.232 50.3261 21.3196 50.4933 21.4474 50.6241C21.5752 50.7549 21.7374 50.8433 21.9135 50.8783C22.0896 50.9132 22.2717 50.893 22.4368 50.8203C22.6019 50.7476 22.7426 50.6256 22.841 50.4698C22.9064 50.3663 22.9515 50.2504 22.9738 50.1287C22.9961 50.007 22.9952 49.882 22.971 49.7607C22.9468 49.6395 22.8999 49.5243 22.8329 49.4219C22.7659 49.3195 22.6802 49.2318 22.5807 49.1639Z" fill="white"/>
<path d="M41.5817 49.0656C41.4215 49.1496 41.2889 49.281 41.2006 49.4433C41.1124 49.6056 41.0723 49.7915 41.0856 49.9775C41.0989 50.1635 41.165 50.3412 41.2754 50.4881C41.3858 50.635 41.5356 50.7446 41.706 50.803C41.8763 50.8614 42.0594 50.8659 42.2322 50.816C42.405 50.7661 42.5597 50.6641 42.6767 50.5228C42.7937 50.3815 42.8678 50.2073 42.8896 50.0222C42.9114 49.8371 42.8799 49.6494 42.7991 49.4829C42.7457 49.3722 42.6717 49.2736 42.5816 49.1927C42.4914 49.1118 42.3868 49.0502 42.2737 49.0115C42.1606 48.9727 42.0412 48.9575 41.9225 48.9668C41.8037 48.9761 41.6879 49.0097 41.5817 49.0656Z" fill="white"/>
<path d="M31.0523 39.5515C31.3941 39.0091 31.5522 38.3636 31.5015 37.7172C31.4508 37.0709 31.1942 36.4605 30.7724 35.9829C30.3506 35.5052 29.7876 35.1875 29.1727 35.08C28.5577 34.9726 27.9258 35.0815 27.377 35.3895C26.8283 35.6976 26.394 36.1872 26.143 36.7809C25.8919 37.3745 25.8384 38.0383 25.991 38.6671C26.1435 39.2959 26.4934 39.8539 26.9852 40.2526C27.477 40.6514 28.0826 40.8681 28.7062 40.8686C29.1719 40.8703 29.6306 40.7506 30.0404 40.5205C30.4502 40.2905 30.7981 39.9574 31.0523 39.5515Z" fill="white"/>
<path d="M25.452 44.0257C25.2204 43.8682 24.9491 43.7855 24.6723 43.7883C24.3956 43.7911 24.1258 43.8791 23.8971 44.0413C23.6685 44.2034 23.4912 44.4325 23.3877 44.6994C23.2841 44.9664 23.259 45.2592 23.3155 45.541C23.372 45.8228 23.5076 46.0808 23.7051 46.2825C23.9026 46.4841 24.1531 46.6204 24.425 46.674C24.697 46.7276 24.9781 46.6962 25.2328 46.5837C25.4876 46.4712 25.7046 46.2827 25.8563 46.0419C26.0596 45.7188 26.1312 45.3249 26.0554 44.9468C25.9796 44.5688 25.7626 44.2375 25.452 44.0257Z" fill="white"/>
<path d="M31.9859 49.6035C31.7582 49.59 31.5318 49.6471 31.3353 49.7674C31.1388 49.8877 30.981 50.0659 30.8819 50.2795C30.7828 50.4931 30.7468 50.7324 30.7784 50.9673C30.8101 51.2022 30.908 51.422 31.0598 51.599C31.2116 51.776 31.4104 51.9022 31.6312 51.9617C31.8519 52.0212 32.0847 52.0112 32.3 51.9332C32.5153 51.8551 32.7036 51.7124 32.8409 51.5231C32.9783 51.3338 33.0586 51.1064 33.0717 50.8696C33.0804 50.7123 33.0592 50.5548 33.0093 50.406C32.9594 50.2573 32.8819 50.1202 32.781 50.0026C32.6802 49.885 32.5581 49.7893 32.4216 49.7208C32.2852 49.6523 32.1371 49.6124 31.9859 49.6035Z" fill="white"/>
<path d="M31.9988 42.0585C31.6732 42.038 31.3491 42.1183 31.0674 42.2895C30.7858 42.4606 30.5594 42.7148 30.4168 43.0199C30.2742 43.325 30.2219 43.6673 30.2665 44.0033C30.3111 44.3393 30.4506 44.654 30.6673 44.9075C30.884 45.1611 31.1682 45.342 31.4839 45.4274C31.7996 45.5128 32.1325 45.4989 32.4406 45.3874C32.7486 45.2759 33.0179 45.0718 33.2143 44.8009C33.4107 44.5301 33.5255 44.2048 33.544 43.8661C33.5691 43.4134 33.4205 42.9689 33.1308 42.63C32.8411 42.2911 32.434 42.0856 31.9988 42.0585Z" fill="white"/>
<path d="M38.738 43.9091C38.4908 44.0395 38.2863 44.2434 38.1504 44.4948C38.0146 44.7462 37.9536 45.0338 37.975 45.3213C37.9965 45.6088 38.0995 45.8832 38.271 46.1098C38.4424 46.3364 38.6747 46.505 38.9384 46.5942C39.2021 46.6835 39.4853 46.6894 39.7521 46.6112C40.019 46.5329 40.2576 46.3741 40.4376 46.1548C40.6177 45.9356 40.7312 45.6656 40.7636 45.3793C40.7961 45.0929 40.7462 44.8029 40.6201 44.5461C40.5369 44.3756 40.4222 44.2239 40.2825 44.0996C40.1428 43.9752 39.9809 43.8808 39.8061 43.8216C39.6313 43.7625 39.447 43.7397 39.2637 43.7547C39.0804 43.7697 38.9018 43.8222 38.738 43.9091Z" fill="white"/>
</svg>
