<svg width="64" height="64" viewBox="0 0 64 64" fill="none" xmlns="http://www.w3.org/2000/svg">
<g clip-path="url(#clip0)">
<rect width="64" height="64" rx="32" fill="#0AC18E"/>
<path d="M32 64C49.6731 64 64 49.6731 64 32C64 14.3269 49.6731 0 32 0C14.3269 0 0 14.3269 0 32C0 49.6731 14.3269 64 32 64Z" fill="#0AC18E"/>
<path d="M47.7245 32.3443L47.7028 32.3127V32.3021C47.6919 32.2705 47.681 32.2389 47.6702 32.1967V32.1861C47.2898 30.9521 46.5399 29.8657 45.5183 29.0535C45.4856 29.0324 45.453 29.0008 45.4204 28.9797L45.377 28.948L45.3444 28.9269L45.3335 28.9164L45.3009 28.8953L45.29 28.8847L45.2574 28.8636L45.2465 28.8531L45.2031 28.8426L45.1922 28.832L45.1596 28.8109L45.1487 28.8004L45.1161 28.7793L45.1053 28.7687L45.0835 28.7371L45.0618 28.7265L45.0292 28.7054L45.0074 28.6949L44.9748 28.6738L44.9531 28.6632L44.9205 28.6421L44.8988 28.6316L44.8662 28.6105L44.8444 28.6L44.8118 28.5789L44.7901 28.5683L44.7575 28.5472L44.7357 28.5367L44.7031 28.5156L44.6814 28.505L44.6488 28.4839L44.6271 28.4734L44.5944 28.4523L44.5727 28.4417L44.5292 28.4207L44.5075 28.4101L44.464 28.389L44.4423 28.3785L44.3988 28.3574L44.3771 28.3468L44.3336 28.3257L44.3119 28.3152L44.2684 28.2941L44.2467 28.2835L44.2032 28.2624L44.1815 28.2519L44.138 28.2308L44.1054 28.2202C44.0836 28.2097 44.0619 28.1992 44.0402 28.1886C43.1164 27.7245 42.1165 27.4186 41.0949 27.2815C41.3883 26.9756 41.6491 26.6592 41.8882 26.3217L41.9209 26.269L41.9426 26.2373L41.9643 26.2057L41.9752 26.1846L41.9969 26.1529L42.0078 26.1318L42.0295 26.1002L42.0404 26.0791L42.0621 26.0475L42.073 26.0264L42.0947 25.9947L42.1056 25.9736L42.1273 25.942L42.1382 25.9209L42.16 25.8892L42.1708 25.8787L42.1926 25.8471L42.2034 25.8365L42.2252 25.8049L42.236 25.7943L42.2578 25.7627L42.2686 25.7521L42.2904 25.7205L42.3012 25.7099L42.323 25.6783L42.3338 25.6677L42.3556 25.6361L42.3665 25.6256L42.3882 25.5939L42.3991 25.5834L42.4099 25.5517L42.4208 25.5412L42.4317 25.5095L42.4425 25.499L42.4534 25.4673L42.4643 25.4568L42.4751 25.4251L42.486 25.4146L42.4969 25.383L42.5077 25.3724L42.5186 25.3408L42.5295 25.3302L42.5403 25.2986L42.5512 25.288L42.5621 25.2564L42.5729 25.2458L42.5838 25.2142L42.6056 25.172C42.6164 25.1404 42.6273 25.1087 42.649 25.0771C43.0946 24.0223 43.1924 22.8621 42.9425 21.7441V21.7335C42.9316 21.7019 42.9316 21.6702 42.9207 21.6386V21.628L42.9099 21.6069C42.899 21.5647 42.8881 21.5226 42.8773 21.4698C42.8664 21.4276 42.8555 21.3854 42.8447 21.3432L42.8229 21.3116V21.3011C42.8121 21.2694 42.8012 21.2378 42.7903 21.2061C42.4534 20.1092 41.7904 19.1388 40.8775 18.4216C40.8558 18.4005 40.8232 18.3794 40.8014 18.3583L40.7688 18.3267L40.7362 18.3056L40.7253 18.295L40.7036 18.2739L40.6927 18.2634L40.671 18.2423L40.6601 18.2317L40.6275 18.2106L40.6167 18.2001L40.5841 18.179L40.5732 18.1684L40.5406 18.1473L40.5297 18.1368L40.4971 18.1157L40.4862 18.1052L40.4536 18.0841L40.4428 18.0735L40.4102 18.0524L40.3993 18.0419L40.3667 18.0208L40.3558 18.0102L40.3232 17.9891L40.3123 17.9786L40.2797 17.9575L40.2689 17.9469L40.2363 17.9258L40.2254 17.9153L40.1928 17.8942L40.1819 17.8837L40.1493 17.8626L40.1385 17.852L40.1059 17.8309L40.095 17.8204L40.0624 17.7993L40.0406 17.7887L40.008 17.7676L39.9863 17.7571L39.9537 17.736L39.932 17.7254L39.8994 17.7043L39.8776 17.6938L39.8341 17.6727L39.8124 17.6622L39.7689 17.6411L39.7472 17.6305L39.7037 17.6094L39.6711 17.5989L39.6059 17.5672C37.8452 16.6812 35.6064 16.407 33.3566 16.9766L32.7045 17.0293L31.2265 11.4286L27.7921 12.2829L29.2702 17.8626L26.5205 18.5481L25.0424 12.9896L21.608 13.8439L23.0861 19.4236L16 21.1956L16.9455 24.7501L19.8039 24.0434C20.7494 23.8114 21.7167 24.3598 21.9558 25.2775L25.9119 40.2339C26.0749 40.8457 25.6945 41.468 25.0641 41.6262L22.5644 42.2485L22.7166 46.478L29.7919 44.7166L31.2917 50.2857L34.726 49.4314L33.248 43.8517L35.9976 43.1661L37.4757 48.7458L40.9101 47.8914L39.4211 42.2907C40.008 42.143 40.508 42.0164 40.8449 41.9321C43.3881 41.2992 45.4313 39.8542 46.6812 38.0506L46.7246 37.9873L46.7464 37.9556L46.7681 37.9134L46.779 37.8923L46.8007 37.8502L46.8116 37.8291L46.8333 37.7869L46.8442 37.7658L46.8659 37.7236L46.8768 37.7025L46.8985 37.6603L46.9094 37.6392L46.9311 37.597L46.942 37.5759L46.9637 37.5337L46.9746 37.5126L46.9963 37.4704L47.0072 37.4493L47.0289 37.4177L47.0398 37.3966L47.0615 37.365L47.0724 37.3439L47.0942 37.3122L47.105 37.2911L47.1268 37.2595L47.1376 37.2384L47.1594 37.2068L47.1702 37.1857L47.192 37.154L47.2028 37.1329L47.2246 37.1013L47.2354 37.0907L47.2572 37.0591L47.268 37.0485L47.2898 37.0169L47.3007 37.0063L47.3224 36.9747L47.3333 36.9642L47.355 36.9325L47.3659 36.922L47.3876 36.8903L47.3985 36.8798L47.4093 36.8481L47.4202 36.8376L47.4311 36.8059L47.4419 36.7954L47.4528 36.7638L47.4745 36.7216C47.4854 36.6899 47.5071 36.6477 47.518 36.6161C48.018 35.4242 48.1266 34.1163 47.8549 32.8612C47.8441 32.8295 47.8441 32.7979 47.8332 32.7557V32.7451L47.8223 32.7346C47.8115 32.6819 47.8006 32.6397 47.7789 32.5869C47.7245 32.4393 47.7245 32.3971 47.7245 32.3443ZM27.5421 22.3453C28.129 22.1976 30.5526 21.6069 31.346 21.4065C32.6176 21.0901 33.8675 21.2167 34.8456 21.6702L34.8782 21.6808L34.8891 21.6913L34.9108 21.7019H34.9217L34.9434 21.7124H34.9543L34.976 21.723H34.9869L35.0086 21.7335H35.0195L35.0412 21.7441H35.0521L35.0738 21.7546H35.0847L35.1064 21.7651H35.1173L35.139 21.7757H35.1499L35.1716 21.7862H35.1825L35.2043 21.7968H35.2151L35.2369 21.8073H35.2477L35.2695 21.8179H35.2803L35.2912 21.8284H35.3021L35.3129 21.839H35.3238L35.3347 21.8495H35.3455L35.3564 21.8601H35.3673L35.3781 21.8706L35.389 21.8812L35.3999 21.8917H35.4108L35.4216 21.9023H35.4325L35.4434 21.9128H35.4542L35.4651 21.9234H35.476L35.4868 21.9339H35.4977L35.5086 21.9445L35.5303 21.955C35.5412 21.9656 35.5629 21.9761 35.5738 21.9866C36.0737 22.3558 36.4432 22.8621 36.628 23.4422V23.4528C36.628 23.4633 36.6389 23.4844 36.6389 23.5055L36.6497 23.5266C36.6606 23.5477 36.6606 23.5688 36.6715 23.6004C36.6823 23.6215 36.6823 23.6532 36.6823 23.6743L36.6932 23.6953C36.6932 23.7164 36.7041 23.727 36.7041 23.7481V23.7586C36.8345 24.3493 36.7693 24.9716 36.5084 25.5306L36.4867 25.5834L36.4758 25.6045L36.465 25.615V25.6256L36.4541 25.6361V25.6466L36.4432 25.6572V25.6677L36.4324 25.6783V25.6888L36.4215 25.6994V25.7099L36.4106 25.7205V25.731L36.3998 25.7416V25.7521L36.3889 25.7627V25.7732L36.378 25.7838V25.7943L36.3672 25.8049V25.8154L36.3563 25.826V25.8365L36.3454 25.8576V25.8681L36.3346 25.8892V25.8998L36.3237 25.9209V25.9314L36.3128 25.9525V25.9631L36.302 25.9842V25.9947L36.2911 26.0158V26.0264L36.2802 26.0475V26.058L36.2693 26.0791V26.0896L36.2585 26.1107V26.1213L36.2476 26.1424V26.1529L36.2367 26.174V26.1846L36.2259 26.2057L36.215 26.2162L36.1933 26.2479C35.5629 27.1022 34.5304 27.7983 33.2588 28.1148C32.4546 28.3152 30.0418 28.9269 29.4549 29.0746L27.5421 22.3453ZM40.9644 33.8104L40.9753 33.8315C40.9753 33.8526 40.9862 33.8632 40.9862 33.8843C41.1166 34.5382 41.0297 35.2238 40.7145 35.8145L40.6819 35.8672L40.671 35.8883L40.6601 35.9094V35.92L40.6493 35.9305V35.941L40.6384 35.9516V35.9621L40.6275 35.9832V35.9938L40.6167 36.0149V36.0254L40.6058 36.0465V36.0571L40.5949 36.0782V36.0887L40.5841 36.1098V36.1204L40.5732 36.1415V36.152L40.5623 36.1731V36.1836L40.5514 36.2047V36.2153L40.5406 36.2364V36.2469L40.5297 36.268V36.2786L40.5188 36.2997V36.3102L40.508 36.3313V36.3419L40.4971 36.3629V36.3735L40.4862 36.3946L40.4754 36.4051L40.4645 36.4262L40.4536 36.4368L40.4319 36.4579L40.421 36.4684L40.3993 36.4895L40.3884 36.5001L40.3667 36.5212L40.3558 36.5317L40.3341 36.5528L40.3232 36.5634L40.3015 36.5844L40.2906 36.595L40.2689 36.6266C39.4972 37.5759 38.2691 38.3564 36.7584 38.7361C35.8129 38.9787 32.9436 39.696 32.2481 39.8753L30.3027 32.5131C30.9982 32.3338 33.8675 31.6376 34.813 31.4056C36.3128 31.0364 37.7909 31.1419 38.9321 31.606L38.9647 31.6166L38.9864 31.6271L39.019 31.6377H39.0299L39.0516 31.6482H39.0625L39.0842 31.6587H39.0951L39.1168 31.6693H39.1277L39.1494 31.6798H39.1603L39.182 31.6904H39.1929L39.2146 31.7009H39.2255L39.2473 31.7115H39.2581L39.2799 31.722H39.2907L39.3125 31.7326H39.3233L39.3451 31.7431H39.3559L39.3777 31.7537H39.3885L39.4103 31.7642H39.4211L39.4429 31.7748H39.4538L39.4755 31.7853H39.4864L39.5081 31.7959H39.519L39.5407 31.8064H39.5516L39.5733 31.817H39.5842L39.6059 31.8275H39.6168L39.6385 31.8381H39.6494L39.6711 31.8486H39.682L39.6929 31.8591H39.7037L39.7255 31.8697L39.7472 31.8802C39.7689 31.8908 39.7798 31.9013 39.8015 31.9119C40.3667 32.2916 40.7906 32.8401 41.0079 33.4729L41.0188 33.4835C41.0297 33.5046 41.0297 33.5151 41.0405 33.5362L41.0514 33.5573C41.0623 33.5784 41.0623 33.61 41.0731 33.6311C40.9644 33.7472 40.9644 33.7788 40.9644 33.8104Z" fill="white"/>
</g>
<defs>
<clipPath id="clip0">
<rect width="64" height="64" rx="32" fill="white"/>
</clipPath>
</defs>
</svg>
