<svg width="64" height="64" viewBox="0 0 64 64" fill="none" xmlns="http://www.w3.org/2000/svg">
<rect width="64" height="64" rx="32" fill="#F04086"/>
<path d="M46.9148 33.3949C45.6565 32.0121 43.843 31.1479 41.4745 30.8022V30.7518C43.5487 30.417 45.1784 29.5666 46.2866 28.2065C47.4108 26.856 48.0216 25.1516 48.0111 23.3944C48.0111 20.4728 47.0689 18.4875 45.1221 16.926C43.1754 15.3644 40.2508 14.8518 36.2891 14.8518H21.3225V28.7784H12.7295V34.112H36.1854C38.0314 34.112 39.4181 34.2423 40.3337 34.9802C41.2493 35.718 41.7175 36.6721 41.7175 38.0825C41.7175 39.493 41.2553 40.696 40.3337 41.4516C39.4122 42.2072 38.0255 42.705 36.1854 42.705H28.1406V38.5566H21.3254V48.0386H36.778C40.7071 48.0386 43.7117 47.0133 45.7947 45.4192C47.8778 43.825 48.8556 41.4694 48.8556 38.5803C48.8819 36.6696 48.1892 34.8188 46.9148 33.3949ZM35.3291 28.7665H28.1406V20.1735H35.3291C39.024 20.1735 40.8701 21.6165 40.8701 24.47C40.8701 27.3235 39.024 28.7665 35.3291 28.7665Z" fill="white"/>
</svg>
