<svg width="64" height="64" viewBox="0 0 64 64" fill="none" xmlns="http://www.w3.org/2000/svg">
<rect width="64" height="64" rx="32" fill="#F3BA2F"/>
<path d="M24.332 28.8475L32.0036 21.1789L39.6784 28.8537L44.1397 24.3892L32.0036 12.25L19.8675 24.3861L24.332 28.8475Z" fill="white"/>
<path d="M12.2505 32.0007L16.7133 27.5379L21.1762 32.0007L16.7133 36.4635L12.2505 32.0007Z" fill="white"/>
<path d="M24.3319 35.1526L32.0036 42.8242L39.6783 35.1494L44.1428 39.6077L44.1397 39.6108L32.0036 51.75L19.8674 39.617L19.8612 39.6108L24.3319 35.1526Z" fill="white"/>
<path d="M42.8239 32.0018L47.2867 27.539L51.7495 32.0018L47.2867 36.4647L42.8239 32.0018Z" fill="white"/>
<path d="M36.5306 31.9986L32.0037 27.4686L28.6562 30.8162L28.2693 31.1999L27.4769 31.9923L27.4706 31.9986L27.4769 32.0079L32.0037 36.5317L36.5306 32.0017L36.5337 31.9986H36.5306Z" fill="white"/>
</svg>
