<svg width="64" height="64" viewBox="0 0 64 64" fill="none" xmlns="http://www.w3.org/2000/svg">
<rect width="64" height="64" rx="32" fill="white"/>
<path d="M32 64C49.6731 64 64 49.6731 64 32C64 14.3269 49.6731 0 32 0C14.3269 0 0 14.3269 0 32C0 49.6731 14.3269 64 32 64Z" fill="#E0B545"/>
<path d="M46.8038 36.3635L46.791 36.3273L46.7937 36.3171C46.7914 36.2837 46.7891 36.2503 46.7895 36.2068L46.7923 36.1966C46.7442 34.9061 46.301 33.6626 45.5244 32.6137C45.4984 32.5849 45.4751 32.5459 45.4491 32.5171L45.4153 32.4753L45.3892 32.4465L45.3815 32.4335L45.3554 32.4047L45.3477 32.3917L45.3216 32.3629L45.3139 32.3498L45.2746 32.3284L45.2668 32.3154L45.2408 32.2866L45.233 32.2736L45.207 32.2448L45.1992 32.2318L45.1864 32.1956L45.1682 32.1798L45.1421 32.151L45.1239 32.1351L45.0978 32.1063L45.0796 32.0905L45.0535 32.0617L45.0353 32.0459L45.0092 32.0171L44.991 32.0013L44.9649 31.9724L44.9467 31.9566L44.9206 31.9278L44.9024 31.912L44.8763 31.8832L44.8581 31.8674L44.832 31.8386L44.8138 31.8227L44.7877 31.7939L44.4041 31.4618L44.3754 31.4432C44.3571 31.4274 44.3388 31.4116 44.3206 31.3958C43.5484 30.7084 42.6617 30.1541 41.7104 29.7573C42.073 29.5378 42.4069 29.2996 42.7252 29.0355L42.7703 28.993L42.8287 28.9431L42.8446 28.9256L42.8738 28.9006L42.8898 28.8831L42.919 28.8581L42.9349 28.8406L42.9641 28.8156L42.9801 28.7981L43.0093 28.7731L43.0252 28.7556L43.0544 28.7306L43.0704 28.7131L43.0995 28.6881L43.1128 28.6807L43.142 28.6558L43.1552 28.6484L43.1844 28.6235L43.1976 28.6161L43.2268 28.5912L43.24 28.5838L43.2692 28.5589L43.2824 28.5515L43.3116 28.5265L43.3248 28.5192L43.354 28.4942L43.3673 28.4869L43.3964 28.4619L43.4097 28.4545L43.4284 28.4268L43.4416 28.4194L43.4603 28.3917L43.4735 28.3843L43.4922 28.3565L43.5054 28.3492L43.5241 28.3214L43.5373 28.314L43.556 28.2863L43.5692 28.2789L43.5879 28.2512L43.6012 28.2438L43.6198 28.216L43.6331 28.2087L43.6518 28.1809L43.665 28.1735L43.6837 28.1458L43.7156 28.1106C43.7343 28.0829 43.753 28.0551 43.7822 28.0302C44.4856 27.1267 44.8803 26.0313 44.9282 24.8867L44.931 24.8765C44.9287 24.8431 44.9369 24.8126 44.9346 24.7792L44.9373 24.769L44.9322 24.7458C44.9327 24.7023 44.9331 24.6587 44.9362 24.6049C44.9367 24.5614 44.9371 24.5178 44.9375 24.4742L44.9247 24.438L44.9274 24.4279C44.9251 24.3945 44.9228 24.3611 44.9205 24.3277C44.879 23.181 44.4898 22.0721 43.7936 21.143C43.778 21.117 43.752 21.0882 43.7365 21.0622L43.7131 21.0232L43.6871 20.9943L43.6327 20.9033L43.6067 20.8745L43.5989 20.8615L43.5729 20.8327L43.5651 20.8197L43.5391 20.7909L43.5313 20.7779L43.5053 20.7491L43.4975 20.7361L43.4715 20.7073L43.4637 20.6943L43.4377 20.6654L43.4299 20.6524L43.4039 20.6236L43.3961 20.6106L43.3701 20.5818L43.3623 20.5688L43.3363 20.54L43.3285 20.527L43.3025 20.4982L43.2947 20.4852L43.2687 20.4564L43.2609 20.4434L43.2349 20.4145L43.2271 20.4015L43.2011 20.3727L43.1933 20.3597L43.1673 20.3309L43.149 20.3151L43.123 20.2863L43.1047 20.2705L43.0787 20.2417L43.0604 20.2258L43.0344 20.197L42.87 20.0547L42.8412 20.0361L42.7864 19.9886C41.3151 18.6771 39.2235 17.8328 36.903 17.8007L36.2594 17.6828L36.2813 11.8904L32.7428 11.8267L32.7264 17.5988L29.893 17.5494L29.9039 11.7977L26.3655 11.734L26.3491 17.5061L19.0458 17.3837L19.0391 21.0618L21.983 21.119C22.9564 21.1396 23.7487 21.9197 23.7422 22.868L23.6924 38.3387C23.6916 38.9718 23.1631 39.4744 22.5132 39.4641L19.9376 39.4182L18.9899 43.5431L26.28 43.6728L26.2873 49.4404L29.8258 49.504L29.8422 43.7319L32.6756 43.7814L32.6592 49.5535L36.1977 49.6171L36.2091 43.8218C36.8142 43.8311 37.3298 43.8382 37.6771 43.8439C40.2974 43.8909 42.645 43.0239 44.3191 41.6052L44.4067 41.5304L44.7897 41.1089L44.8188 41.0839L44.8348 41.0664L44.864 41.0414L44.8799 41.0239L44.9091 40.9989L44.9251 40.9814L44.9543 40.9564L44.9702 40.9389L44.9994 40.9139L45.0154 40.8964L45.0446 40.8714L45.0605 40.8539L45.0897 40.8289L45.1029 40.8216L45.1321 40.7966L45.1453 40.7892L45.1745 40.7643L45.1878 40.7569L45.2169 40.732L45.2302 40.7246L45.2594 40.6997L45.2726 40.6923L45.3018 40.6674L45.315 40.66L45.3337 40.6322L45.3469 40.6249L45.3656 40.5971L45.3788 40.5897L45.3975 40.562L45.4294 40.5269C45.4481 40.4991 45.48 40.464 45.4987 40.4362C46.2901 39.4144 46.7336 38.1792 46.796 36.8964C46.7937 36.8631 46.8019 36.8325 46.8023 36.7889L46.805 36.7787L46.7973 36.7657C46.8004 36.712 46.8008 36.6684 46.7935 36.6119C46.7792 36.4552 46.7901 36.4144 46.8038 36.3635ZM29.897 21.4815C30.5022 21.4908 32.9961 21.5475 33.8143 21.5593C35.1244 21.5828 36.299 22.0285 37.1264 22.7198L37.1551 22.7384L37.1629 22.7514L37.1812 22.7672L37.1917 22.77L37.2099 22.7858L37.2204 22.7886L37.2387 22.8045L37.2492 22.8073L37.2675 22.8231L37.278 22.8259L37.2962 22.8417L37.3067 22.8445L37.325 22.8603L37.3355 22.8632L37.3538 22.879L37.3643 22.8818L37.3825 22.8976L37.393 22.9004L37.4113 22.9162L37.4218 22.919L37.4401 22.9348L37.4506 22.9377L37.4688 22.9535L37.4793 22.9563L37.4976 22.9721L37.5081 22.9749L37.5158 22.9879L37.5263 22.9907L37.5341 23.0037L37.5446 23.0065L37.5524 23.0195L37.5629 23.0224L37.5706 23.0354L37.5811 23.0382L37.6044 23.0772L37.6149 23.08L37.6227 23.093L37.6332 23.0958L37.641 23.1088L37.6515 23.1116L37.6592 23.1246L37.6697 23.1274L37.6775 23.1404L37.688 23.1432L37.6958 23.1562L37.714 23.1721C37.7218 23.1851 37.7401 23.2009 37.7478 23.2139C38.1352 23.6999 38.3611 24.2845 38.3894 24.8927L38.3867 24.9029C38.384 24.9131 38.389 24.9363 38.3835 24.9566L38.3886 24.9798C38.3936 25.003 38.3882 25.0234 38.3905 25.0568C38.3955 25.08 38.3873 25.1105 38.3819 25.1309L38.3869 25.1541C38.3814 25.1745 38.3892 25.1875 38.3837 25.2078L38.381 25.218C38.3541 25.8223 38.1301 26.4065 37.7334 26.879L37.6988 26.9243L37.6828 26.9419L37.6696 26.9493L37.6669 26.9594L37.6536 26.9668L37.6509 26.977L37.6377 26.9844L37.6349 26.9946L37.6217 27.0019L37.619 27.0121L37.6058 27.0195L37.603 27.0297L37.5898 27.0371L37.5871 27.0473L37.5738 27.0546L37.5711 27.0648L37.5579 27.0722L37.5552 27.0824L37.5419 27.0898L37.5392 27.0999L37.526 27.1073L37.5232 27.1175L37.51 27.1249L37.5073 27.1351L37.4913 27.1526L37.4886 27.1628L37.4726 27.1804L37.4699 27.1906L37.4539 27.2081L37.4512 27.2183L37.4353 27.2359L37.4325 27.2461L37.4166 27.2636L37.4138 27.2738L37.3979 27.2914L37.3952 27.3016L37.3792 27.3191L37.3765 27.3293L37.3605 27.3469L37.3578 27.3571L37.3418 27.3747L37.3391 27.3848L37.3231 27.4024L37.3204 27.4126L37.3045 27.4302L37.3017 27.4403L37.2858 27.4579L37.2725 27.4653L37.2433 27.4902C36.4133 28.1523 35.2359 28.5575 33.9257 28.534C33.097 28.5195 30.6081 28.4859 30.003 28.4766L29.897 21.4815ZM39.8946 36.03L39.8996 36.0532C39.8942 36.0736 39.902 36.0866 39.8965 36.1069C39.8532 36.7724 39.5918 37.4121 39.1345 37.901L39.0893 37.9435L39.0574 37.9787L39.0547 37.9889L39.0415 37.9962L39.0387 38.0064L39.0255 38.0138L39.0228 38.024L39.0068 38.0415L39.0041 38.0517L38.9881 38.0693L38.9854 38.0795L38.9694 38.097L38.9667 38.1072L38.9508 38.1248L38.948 38.135L38.9321 38.1525L38.9293 38.1627L38.9134 38.1803L38.9106 38.1905L38.8947 38.2081L38.892 38.2182L38.876 38.2358L38.8733 38.246L38.8573 38.2636L38.8546 38.2737L38.8386 38.2913L38.8359 38.3015L38.8199 38.3191L38.8172 38.3292L38.8012 38.3468L38.7985 38.357L38.7826 38.3746L38.7798 38.3848L38.7639 38.4023L38.7506 38.4097L38.7347 38.4273L38.523 38.5453L38.4939 38.5702C37.5028 39.2874 36.1145 39.7235 34.557 39.6992C33.5809 39.6889 30.6238 39.639 29.9056 39.6322L29.9319 32.0174C30.6502 32.0242 33.6018 32.0944 34.5752 32.115C36.1194 32.1466 37.5199 32.631 38.502 33.3747L38.5308 33.3933L38.5491 33.4091L38.5778 33.4277L38.5883 33.4305L38.6066 33.4463L38.6171 33.4492L38.6354 33.465L38.6459 33.4678L38.6641 33.4836L38.6746 33.4864L38.6929 33.5022L38.7034 33.505L38.7217 33.5209L38.7322 33.5237L38.7504 33.5395L38.7609 33.5423L38.7792 33.5581L38.7897 33.5609L38.8079 33.5767L38.8184 33.5795L38.8367 33.5954L38.8472 33.5982L38.8655 33.614L38.876 33.6168L38.8942 33.6326L38.9047 33.6354L38.923 33.6512L38.9335 33.6541L38.9518 33.6699L38.9623 33.6727L38.9805 33.6885L38.991 33.6913L39.0093 33.7071L39.0198 33.7099L39.0381 33.7257L39.0486 33.7286L39.0668 33.7444L39.0773 33.7472L39.0956 33.763L39.1061 33.7658L39.1243 33.7816L39.1348 33.7844L39.1531 33.8003L39.1636 33.8031L39.1714 33.8161L39.1819 33.8189L39.2184 33.8505C39.2367 33.8663 39.2444 33.8793 39.2627 33.8951C39.7103 34.4082 39.9778 35.0477 40.024 35.7152L40.0317 35.7282C40.0368 35.7514 40.034 35.7616 40.0391 35.7848L40.0441 35.808C40.0491 35.8312 40.041 35.8617 40.046 35.8849C39.911 35.9689 39.9028 35.9994 39.8946 36.03Z" fill="white"/>
</svg>
