<svg width="64" height="64" viewBox="0 0 64 64" fill="none" xmlns="http://www.w3.org/2000/svg">
<g clip-path="url(#clip0)">
<rect width="64" height="64" rx="32" fill="#F7931A"/>
<path d="M63.0411 39.7442C58.7697 56.8858 41.4028 67.3187 24.2561 63.0408C7.10938 58.7629 -3.31875 41.4047 0.959451 24.2615C5.23765 7.11834 22.5959 -3.31939 39.7387 0.959129C56.8816 5.23765 67.3193 22.5968 63.0411 39.7442Z" fill="#F7931A"/>
<path d="M46.1127 27.4408C46.7489 23.1825 43.5065 20.8931 39.0725 19.366L40.5125 13.5979L37.0001 12.723L35.5972 18.3394C34.6749 18.1097 33.7271 17.8914 32.785 17.6777L34.193 12.0241L30.6841 11.1492L29.2482 16.9151L22.1658 15.1608L21.2314 18.9116C21.2314 18.9116 23.8369 19.5087 23.7818 19.5459C25.2039 19.9011 25.4619 20.8419 25.4184 21.5882L21.4778 37.3902C21.3037 37.8222 20.8627 38.4699 19.8688 38.2222C19.904 38.2734 17.3164 37.5822 17.3164 37.5822L15.573 41.6076L22.6452 43.3932L21.1917 49.2286L24.699 50.1035L26.139 44.3309C27.099 44.5907 28.0271 44.8307 28.9365 45.0566L27.5023 50.8024L31.014 51.6773L32.4675 45.8531C38.4558 46.986 42.959 46.529 44.8518 41.117C46.3789 36.7569 44.777 34.2416 41.6262 32.6006C43.9206 32.0694 45.6487 30.5609 46.1098 27.443L46.1127 27.4408ZM38.0869 38.692C36.9988 43.0521 29.6594 40.6959 27.2779 40.1039L29.2063 32.3741C31.5865 32.968 39.219 34.1443 38.0881 38.6914L38.0869 38.692ZM39.1762 27.379C38.1861 31.3472 32.0749 29.3311 30.0914 28.8364L31.8374 21.8237C33.8215 22.3191 40.206 23.2413 39.1736 27.3787" fill="white"/>
</g>
<defs>
<clipPath id="clip0">
<rect width="64" height="64" rx="32" fill="white"/>
</clipPath>
</defs>
</svg>
