<svg width="64" height="64" viewBox="0 0 64 64" fill="none" xmlns="http://www.w3.org/2000/svg">
<rect width="64" height="64" rx="32" fill="white"/>
<path d="M30.3055 0H33.6399C37.1183 0.2304 40.5775 0.9248 43.8095 2.2304C51.8095 5.376 58.4111 11.9008 61.6335 19.8752C66.0687 30.4928 64.1647 43.4432 56.7599 52.2784C51.7487 58.4288 44.3791 62.6176 36.5135 63.6832C29.1311 64.736 21.3839 63.1456 15.0672 59.1552C10.1968 56.1216 6.16478 51.7568 3.55359 46.6432C0.203192 40.2208 -0.814406 32.6304 0.657591 25.5456C2.23199 17.6928 6.91998 10.528 13.4576 5.9104C18.3536 2.368 24.2895 0.3744 30.3055 0ZM28.3215 1.4496C18.5872 2.5664 9.63997 8.6976 4.99998 17.3184C1.86079 23.0496 0.606391 29.808 1.55359 36.2816C2.62559 44.0768 6.86558 51.3696 13.0736 56.1952C17.8 59.9232 23.6463 62.2112 29.6495 62.6592C36.4495 63.2 43.4127 61.3856 49.0575 57.5552C55.9791 52.9728 60.8911 45.4784 62.3023 37.296C63.1151 32.4736 62.8399 27.4496 61.3487 22.7872C59.2207 16.0064 54.6607 10.0128 48.6767 6.1728C42.7279 2.2688 35.3839 0.576 28.3215 1.4496Z" fill="#00206B"/>
<path d="M29.0928 14.0512C34.6576 13.12 40.6256 14.944 44.6288 18.9376C48.1808 22.2912 50.2543 27.1648 50.152 32.0512C50.2224 36.912 48.1392 41.7472 44.6032 45.072C40.7536 48.8991 35.0928 50.7263 29.7264 50.0191C24.6704 49.4111 19.9376 46.5376 17.064 42.3296C13.8832 37.824 13.0064 31.8272 14.6576 26.576C16.5904 20.112 22.4272 15.0592 29.0928 14.0512ZM30.2032 15.1584C30.2064 16.7488 30.2096 18.3392 30.2064 19.9296C31 19.9296 31.7936 19.9296 32.5872 19.9328C32.5904 18.3008 32.5936 16.6688 32.5872 15.04C31.7936 15.0656 30.9968 15.104 30.2032 15.1584ZM35.9279 20.0064C38.0176 20.288 40.264 20.608 41.9312 22.0192C44.4752 24.304 44.1455 29.1008 41.0319 30.7584C42.8976 31.1936 44.7439 32.4384 45.2048 34.3968C45.8032 36.9664 45.3264 40.0512 43.2624 41.8624C41.2176 43.5456 38.4496 43.7664 35.9216 44.0064C35.9344 45.4944 35.928 46.9823 35.9248 48.4735C41.2464 47.1712 45.8384 43.2096 47.7904 38.0832C49.6432 33.3536 49.2048 27.7888 46.5904 23.4336C44.28 19.504 40.3504 16.6176 35.9376 15.5104C35.9248 17.008 35.9248 18.5056 35.9279 20.0064ZM20.0464 19.9424C22.3504 20.0544 24.6576 20.0288 26.9648 20.0256C26.9648 18.6208 26.968 17.2192 26.9584 15.8144C24.376 16.6528 22.0752 18.1568 20.0464 19.9424ZM19.7712 20.128C19.16 20.88 18.0272 22.3008 17.3552 23.5584C14.6448 28.176 14.3376 34.1024 16.6 38.96C18.552 43.3152 22.424 46.7039 26.9584 48.1631C26.9648 46.7616 26.9616 45.36 26.9616 43.9616C24.648 43.9392 22.328 44.0224 20.0176 43.8976C20.0432 42.608 20.3472 41.3472 20.7856 40.1312C21.9184 40.1088 23.0992 40.3072 24.1936 39.936C24.8336 39.3984 24.6512 38.5088 24.6864 37.7728C24.6512 33.5648 24.7024 29.3568 24.664 25.152C24.7056 24.4736 24.28 23.7408 23.576 23.6064C22.4144 23.3728 21.2176 23.4656 20.0432 23.456C19.9056 22.5088 19.8896 21.552 19.8768 20.5952C19.8768 20.5952 19.8928 20.2944 19.7904 20.0992L19.7712 20.128ZM30.3024 23.744V29.9456C32.3728 29.9072 34.6704 30.1376 36.4816 28.9344C37.9856 27.9488 37.8896 25.456 36.3376 24.5696C34.5232 23.4976 32.312 23.8016 30.3024 23.744ZM30.3024 33.2832V40.1632C32.8592 39.9584 35.7264 40.3872 37.9504 38.8448C39.5408 37.7888 39.3488 35.1744 37.7104 34.2592C35.4832 32.928 32.776 33.3504 30.3024 33.2832ZM30.2096 44.0544C30.2096 45.6448 30.2064 47.2383 30.2032 48.8287C31.032 48.8831 31.8576 48.9151 32.6864 48.9407C32.6928 47.312 32.6896 45.6831 32.6896 44.0544H30.2096Z" fill="#00206B"/>
<path d="M28.5072 3.1104C34.1136 2.5088 39.9184 3.3632 44.9552 5.94881C51.4352 9.12642 56.616 14.8384 59.1696 21.5872C61.7744 28.3457 61.7168 36.0769 59.0192 42.8033C54.9168 53.4049 44.0848 61.0273 32.68 61.0433C25.9824 61.2865 19.2432 59.0337 13.9984 54.8673C8.40478 50.5185 4.53598 44.0193 3.34238 37.0337C2.12318 30.1153 3.48958 22.7648 7.18878 16.784C11.7104 9.28322 19.8096 4.0992 28.5072 3.1104ZM27.5312 12.4992C22.9744 13.5264 18.808 16.2176 16.0144 19.9648C12.9296 24.0224 11.5152 29.2993 12.1456 34.3521C12.7376 39.7601 15.6912 44.8609 20.0848 48.0641C24.1968 51.1553 29.5408 52.5121 34.6288 51.8145C40.9168 51.0465 46.6992 47.0433 49.6336 41.4273C51.832 37.4209 52.4336 32.6593 51.6272 28.1889C50.6 22.768 47.2144 17.8432 42.504 14.9696C38.0944 12.224 32.5904 11.344 27.5312 12.4992Z" fill="#EBA809"/>
</svg>
