<svg width="64" height="64" viewBox="0 0 64 64" fill="none" xmlns="http://www.w3.org/2000/svg">
<rect width="64" height="64" rx="32" fill="#008CE7"/>
<path d="M38.1317 15.934H23.7232L22.5282 22.6102L35.5337 22.6256C41.94 22.6256 43.8288 24.9538 43.7748 28.8084C43.744 30.7819 42.8883 34.1277 42.5182 35.2147C41.5314 38.1057 39.5039 41.3975 31.9026 41.3898L19.2595 41.3821L18.0685 48.066H32.4461C37.5188 48.066 39.6697 47.4724 41.9593 46.4239C47.0243 44.0726 50.0386 39.077 51.2489 32.555C53.0413 22.8414 50.8056 15.934 38.1317 15.934Z" fill="white"/>
<path d="M17.5057 28.6462C13.7282 28.6462 13.1885 31.1055 12.8339 32.5934C12.3637 34.5361 12.2095 35.3301 12.2095 35.3301H26.9649C30.7424 35.3301 31.2821 32.8709 31.6367 31.383C32.1069 29.4403 32.2611 28.6462 32.2611 28.6462H17.5057Z" fill="white"/>
</svg>
