<svg width="64" height="64" viewBox="0 0 64 64" fill="none" xmlns="http://www.w3.org/2000/svg">
<rect width="64" height="64" rx="32" fill="#0066CC"/>
<path d="M31.9999 61.2789C48.1702 61.2789 61.2788 48.1703 61.2788 32C61.2788 15.8297 48.1702 2.72113 31.9999 2.72113C15.8297 2.72113 2.72107 15.8297 2.72107 32C2.72107 48.1703 15.8297 61.2789 31.9999 61.2789Z" fill="#0066CC"/>
<path d="M15.5933 24.3968H36.2686C36.2686 24.3968 43.4049 24.3301 38.4695 33.534C38.4695 33.534 34.868 40.737 25.9309 40.6036L30.7463 28.3051C30.8044 28.1593 30.8264 28.0016 30.8104 27.8454C30.7944 27.6893 30.7409 27.5393 30.6544 27.4083C30.5679 27.2773 30.4511 27.1691 30.3138 27.093C30.1765 27.0169 30.0228 26.9751 29.8659 26.9712L23.5299 26.8645L15.5266 46.3393C15.5266 46.3393 18.1944 46.6061 19.6617 46.4727L18.8613 48.4735H22.6362C22.7409 48.4743 22.8433 48.4427 22.9293 48.383C23.0152 48.3233 23.0806 48.2384 23.1164 48.1401L23.7967 46.3393L25.3974 46.2059L24.4637 48.4735H28.1452C28.2807 48.4745 28.4133 48.4342 28.5252 48.3579C28.6372 48.2816 28.7234 48.1731 28.7721 48.0467L29.7992 45.4056C29.7992 45.4056 41.0039 43.5381 46.0727 34.4677C46.0727 34.4677 52.8755 23.93 44.8722 20.1951C43.3124 19.4799 41.6445 19.0291 39.9368 18.8612L40.8705 16.5536C40.8988 16.4851 40.91 16.4107 40.9029 16.337C40.8959 16.2632 40.8708 16.1923 40.83 16.1304C40.7892 16.0686 40.7339 16.0176 40.6689 15.9821C40.6038 15.9466 40.5311 15.9275 40.457 15.9266H37.0022L35.9351 18.7278H34.4678L35.2949 16.5536C35.3203 16.4839 35.3288 16.4093 35.3196 16.3357C35.3105 16.2622 35.284 16.1919 35.2422 16.1306C35.2005 16.0693 35.1448 16.0189 35.0798 15.9834C35.0147 15.948 34.9421 15.9285 34.868 15.9266H31.3999L30.3328 18.7278H19.555C19.2653 18.7268 18.9808 18.8045 18.7318 18.9525C18.4828 19.1005 18.2786 19.3133 18.141 19.5682L15.5933 24.3968Z" fill="white"/>
</svg>
