<svg width="64" height="64" viewBox="0 0 64 64" fill="none" xmlns="http://www.w3.org/2000/svg">
<rect width="64" height="64" rx="32" fill="#BA9F33"/>
<mask id="mask0" style="mask-type:alpha" maskUnits="userSpaceOnUse" x="0" y="0" width="64" height="64">
<circle cx="32" cy="32" r="32" fill="#C4C4C4"/>
</mask>
<g mask="url(#mask0)">
<path d="M26.2649 49.3757L25.1772 47.3169L25.8099 44.742L30.3214 42.9995L28.4014 39.0595L29.3503 35.0807L31.1316 31.5181L36.6365 30.6524L40.6819 26.7956L49.4165 27.456L51.1312 36.7954L47.8294 48.5544L45.9482 54.6419L38.3235 54.9305L34.783 52.4777L30.6377 50.7463L26.2649 49.3757Z" fill="#E2CC85"/>
<path d="M39.6385 49.3091C39.6385 49.3091 38.5842 49.7919 36.7862 49.6809C36.2646 48.9817 32.6187 48.6542 32.6187 48.6542C32.6187 48.6542 32.1637 48.5155 31.359 48.8485C30.5488 49.1759 29.783 49.137 29.0672 49.3146C28.3513 49.4922 27.641 48.5599 27.0916 48.3657C26.5423 48.1604 25.8153 47.6665 25.8153 47.6665L24.2782 47.5166L21.1928 46.2126L16.2928 41.3292L14.9609 43.4157L14.5503 45.9961L16.0319 49.0538L20.0219 52.6886L27.8019 54.6641L32.4134 53.3046L38.1902 50.8629L39.6385 49.3091Z" fill="#F1D789"/>
<path d="M11.9976 32.0508L12.9853 29.0597L14.1618 27.1286L17.9519 26.8123L16.8143 30.1308L13.6457 35.7688L14.9609 40.802L12.6302 41.9674L11.9143 40.8686L11.3372 38.3492L11.2983 35.5191L11.9976 32.0508Z" fill="#F4ECB4"/>
<path d="M16.2484 49.1037L15.5214 48.0882C15.5214 48.0882 15.3272 47.6054 15.4382 47.1837C15.5492 46.7564 15.5325 46.7286 15.477 46.5677C15.4215 46.4068 14.9554 45.8519 14.9831 45.3746C15.0109 44.8918 14.9443 44.7309 15.2995 44.348C15.6713 43.9762 15.5603 43.3325 15.5603 43.3325L16.0431 43.6321L16.154 43.4657C16.154 43.4657 16.3316 43.6044 16.3316 43.8208C16.3705 43.5212 16.2095 42.1338 16.5758 41.8175C16.9476 41.5012 17.5913 43.2992 17.5913 43.2992L17.1918 40.691L16.1651 38.0163L14.3394 35.5746L14.2285 32.8832V32.6501C14.2285 32.6501 13.3905 33.9375 13.1574 34.9531C12.991 35.6523 13.3905 36.5013 13.3073 37.5057C13.2407 38.5046 13.1574 38.4269 13.4016 38.8209C13.6458 39.2149 14.2395 40.0307 14.0065 40.6189C13.8012 41.1239 13.102 40.7687 13.102 40.7687C13.102 40.7687 12.9632 41.1794 12.7745 41.3292C12.708 41.085 12.6358 40.9296 12.5026 40.7798C12.4915 40.8741 12.4638 41.0018 12.4638 41.0018C12.4638 41.0018 12.3417 40.6189 12.2196 40.1361C12.0531 39.4924 11.8756 38.6433 11.7146 38.1883C11.648 38.4491 11.4816 39.2427 11.4816 39.2427L11.5759 40.4635L12.0309 42.1394L12.4693 43.2381L12.8966 44.5811L13.2684 45.4856L13.5681 46.1737L13.8289 47.722L15.0886 49.0538L15.76 49.3534L16.2484 49.1037Z" fill="#F3E19D"/>
<path d="M12.658 29.6091C12.658 29.6091 11.7535 31.1463 11.4927 32.6945C11.2318 34.2427 10.9988 35.8798 11.1653 37.9885C11.3317 40.1139 11.648 41.4179 11.9033 42.3502C12.3417 43.8985 13.4793 46.0516 13.4793 46.0516L13.5181 45.9683C13.5181 45.9683 13.2185 45.419 13.0631 44.8307C12.9133 44.2425 12.8578 43.5433 12.719 43.227C12.597 42.9107 12.3916 42.6388 12.2918 42.2503C12.1974 41.8785 12.1808 41.2903 11.8922 40.8519C11.7701 40.6743 11.6203 40.2082 11.5759 39.7421C11.5204 39.0429 11.6036 38.2604 11.5371 37.6167C11.415 36.5457 11.3317 35.8187 11.4427 35.2583C11.5537 34.6978 12.1308 33.1051 12.486 31.8399C12.719 31.0297 12.5803 30.3472 13.0076 29.6424C13.4349 28.9432 13.6957 28.3272 13.7901 27.8999C13.901 27.5115 12.658 29.6091 12.658 29.6091Z" fill="#F2E8B0"/>
<path d="M16.9475 28.9932C16.9475 28.9932 16.4813 29.1319 16.2593 29.3761C16.0374 29.6091 15.943 29.8033 15.6434 30.1973C15.3437 30.5969 15.3271 30.9132 15.0829 31.4071C14.8387 31.8899 14.3004 32.6168 14.2339 32.8776C14.1673 33.1385 14.0563 34.3593 13.9175 34.9364C13.7955 35.5135 14.0563 36.2239 14.0563 36.2239L14.3726 36.1573C14.3726 36.1573 14.3726 36.5679 14.6889 36.8454C15.0052 37.1173 15.0607 35.9242 15.0607 35.9242L16.2427 31.9343L18.024 30.7245L18.2182 29.7479L16.9475 28.9932Z" fill="#F5EEC0"/>
<path d="M17.8132 30.8022C17.8132 30.8022 16.9753 30.8577 16.5646 31.1574C16.3982 31.2794 16.3316 31.3793 16.154 31.5292C15.8266 31.8011 15.4936 32.0508 15.3327 32.406C15.1551 32.7611 14.9609 33.2994 14.8277 34.3149C14.7722 34.7422 14.7722 35.1362 14.7334 35.4803C14.6779 35.9464 14.5946 36.3182 14.639 36.579C14.6945 37.1117 15.2439 37.3892 15.2994 37.9941L16.437 37.417L17.508 33.194L19.7832 31.7678L18.4958 30.325L17.8132 30.8022Z" fill="#E6DB9D"/>
<path d="M17.9909 68.4984L12.9133 68.6205L10.2219 68.4152C10.2219 68.4152 10.3884 66.4396 10.4272 65.9735C10.5216 65.6849 10.8379 64.8636 10.9322 64.7138C10.9988 64.4918 11.0821 63.9314 10.8934 63.2432C11.0155 63.049 11.3984 62.9436 11.8257 59.1146C11.9921 57.6884 12.0199 56.6063 12.142 55.9293C12.3195 54.9693 12.4416 54.6141 12.4139 54.2534C12.375 53.6763 12.3306 53.2546 12.3861 52.8106C12.4694 52.2224 13.0465 51.5232 13.0299 51.0404C13.0188 50.6575 12.8245 50.4078 12.6581 50.1747C12.4916 49.9417 12.3584 49.7474 12.3584 49.7474C12.3584 49.7474 13.496 48.965 13.4849 45.813C13.5237 45.8241 13.5515 45.8407 13.5515 45.8407L14.112 47.4334L14.4949 47.8995L15.9654 50.6409L17.8577 52.4777L20.6546 54.3589L22.4081 56.2678L22.5857 61.3565L20.2938 64.3309L17.9909 68.4984Z" fill="#E5CB7A"/>
<path d="M18.8121 64.109C18.8121 64.109 18.851 63.4764 19.3726 63.0657C19.4559 63.2044 19.5113 63.3376 19.4947 63.4375C19.589 63.271 20.2494 62.2056 21.7422 61.9281C23.2349 61.6562 23.5956 60.5685 23.5956 60.5685L26.7643 57.6885L30.3879 54.3533L34.7941 52.8051L36.8528 52.3001C36.8528 52.3001 36.8917 52.4499 36.814 52.7829C37.1969 52.7551 38.0459 52.5609 38.9283 52.2502C39.2834 52.1114 39.6164 52.0559 39.794 52.2391C40.0548 52.4832 40.0936 53.0604 40.1103 53.4044C40.5376 53.3101 41.0315 52.8994 41.4255 52.9383C42.0581 53.0049 42.6185 53.7485 43.2623 53.7485C44.1113 53.7485 44.4942 53.2268 45.088 52.8162C45.4431 52.572 45.9537 52.2668 46.2422 52.0615C46.9303 51.5565 54.211 49.3312 54.211 49.3312L56.7637 49.4977L57.1743 52.2391L56.9523 59.442L45.2656 65.5462L26.8419 68.3708L19.3393 66.4508L18.8121 64.109Z" fill="#D8C173"/>
<path d="M11.021 68.5151C11.021 68.5151 11.6925 66.9946 12.0088 64.7971C12.2696 62.9991 12.0365 62.5885 12.1031 62.0113C12.1974 61.1456 13.1741 59.4587 13.2574 59.1313C13.324 59.8027 13.5182 62.3387 14.2174 62.9048C14.0676 63.1267 13.8178 63.8925 14.7113 64.4808C14.5614 64.7971 14.2562 65.18 14.4505 65.7571C14.6447 66.3342 14.8778 67.1555 14.7668 68.06C14.4505 68.1266 14.1064 68.2654 13.8345 68.5262C13.5626 68.7704 11.021 68.5151 11.021 68.5151Z" fill="#F1D789"/>
<path d="M22.5303 67.4552L26.6201 66.3176L26.7977 66.3731C26.7977 66.3731 26.892 66.4286 26.892 66.6172C27.1528 66.4674 27.3748 66.4951 27.5357 66.3953C27.619 66.5728 27.7022 67.1611 28.0684 67.2332C28.4513 67.3164 28.862 67.0667 29.2782 66.7504C29.6888 66.423 30.155 66.0124 30.5101 65.8459C30.5767 65.9569 30.7432 66.3009 30.8542 66.5839C31.3203 66.2121 32.1305 64.7027 33.2848 64.7305C33.3957 64.4697 33.8064 63.5207 34.8885 62.7938C35.9595 62.0668 36.631 62.0113 37.4689 62.0779C37.7963 61.6506 38.2236 61.2677 38.6787 60.9958C38.8174 61.0513 39.2003 61.2844 39.6775 61.0624C40.1603 60.8404 40.7041 59.9803 41.42 59.8693C42.0526 59.775 42.5298 60.1024 42.5298 60.1024C42.5298 60.1024 44.6164 58.0325 46.0536 57.3444C45.9981 57.1779 45.8872 56.5508 47.5741 55.1635C47.6685 55.2468 47.6019 55.4798 47.6685 55.4909C47.6962 55.4909 48.1069 55.3134 48.6285 54.9138C49.2722 54.431 50.0436 53.926 50.5097 53.7873C51.3865 53.5265 52.3188 54.0592 52.3188 54.0592C52.3188 54.0592 52.4298 53.976 52.5796 53.9371C52.8016 53.8983 52.9625 53.8705 53.0846 53.8262C53.0735 54.1147 53.2344 54.6086 53.0846 55.0359C53.0846 55.0359 53.3176 55.1746 53.6339 55.269C53.5396 55.4743 53.3343 55.9959 52.9902 56.2456C53.2788 56.3844 53.3176 56.5453 53.7283 56.684C53.5618 56.9171 53.2899 57.3166 53.1678 57.5608C53.0457 57.8216 52.6073 58.9037 52.4131 59.3144C52.2078 59.725 51.9303 60.4797 51.7971 60.6296C51.6584 60.7794 51.1812 61.4231 50.8094 61.7394C51.1368 61.6173 52.4852 61.2067 53.0568 61.0513C52.7128 61.5563 49.533 66.2787 49.533 66.2787L43.1292 68.1877L39.9883 68.7204L23.6235 68.7093L22.1807 67.9935L22.5303 67.4552Z" fill="#E0CD81"/>
<path d="M17.952 30.6524C17.952 30.6524 17.4692 30.6524 17.3748 30.719C17.2805 30.7856 17.8576 30.9243 18.0352 30.9909C18.2128 31.0575 18.5957 31.3627 18.6956 31.6069C18.7899 31.8399 22.1639 33.1995 22.1639 33.1995L24.5501 33.0774L25.3714 31.9398L23.8065 30.5691L24.9052 27.3339L23.4513 27.567L19.9553 29.6535L18.2017 30.325L17.952 30.6524Z" fill="#DFC57C"/>
<path d="M23.1905 31.7234C23.1905 31.7234 23.2848 31.901 23.5179 31.901C24.0118 31.901 24.4668 32.023 24.6555 32.2728C24.9718 32.6723 25.8486 33.9486 25.8486 33.9486L27.9462 34.7033L28.085 32.2339L25.7931 30.6413L23.1849 31.6013V31.7234H23.1905Z" fill="#E5CC7C"/>
<path d="M22.7799 32.639C22.7799 32.639 23.1628 32.6668 23.6456 32.4892C24.1283 32.3116 24.9219 31.9287 25.2659 32.0785C25.7487 32.2839 25.6488 32.9276 26.1705 33.5047C26.4868 33.8599 27.0639 33.8488 27.3913 34.2317C27.7187 34.6146 28.8452 34.437 28.8452 34.437L29.2725 36.7399L27.5578 38.9375L26.9973 41.6677H24.6777L22.5579 40.8298L21.5146 38.3048L22.0363 35.7522L22.7799 32.639Z" fill="#D2C281"/>
<path d="M27.2636 32.75C27.2636 32.75 27.3468 32.7778 27.4411 32.7778C27.3745 32.8332 27.2358 32.9553 27.2913 33.2716C27.3468 33.5879 27.5244 33.9875 27.3745 34.2317C27.4411 34.3149 27.541 34.4092 27.6354 34.6867C27.7297 34.9586 27.7574 35.2083 28.3734 35.2472C28.2347 35.3304 28.1292 35.4414 28.1292 35.4414C28.1292 35.4414 28.5565 35.8132 28.773 36.1573C28.9949 36.1462 29.5832 35.963 29.5832 35.963L29.7052 36.0463L29.9661 35.9353C29.9661 35.9353 29.7219 35.841 29.8995 35.2472C30.0659 34.7256 30.2158 34.7533 30.2269 34.7145C30.238 34.6756 30.349 34.1262 30.349 33.9043C30.4322 33.6157 30.4988 32.7389 30.4988 32.7389L30.3212 30.8022L29.3223 30.1973L28.5121 29.4149L27.7463 30.8577L27.2414 31.3627L27.2025 32.6113L27.2636 32.75Z" fill="#E2C270"/>
<path d="M29.6666 31.1296C29.6666 31.1296 29.8442 31.6346 29.9108 32.023C29.9496 31.901 29.9496 31.79 29.9496 31.79C29.9496 31.79 30.0884 32.5558 30.1161 32.8721C30.1716 32.861 30.2271 32.8443 30.2382 32.8998C30.2493 32.9553 30.3769 33.5713 30.3492 33.9154C30.4158 33.7933 30.7321 33.3105 31.2815 32.9831C31.5034 32.8443 31.7643 32.6945 32.0362 32.6834C32.4635 32.6723 32.7742 32.9553 33.2848 32.9553C34.5167 32.9553 35.6321 32.0508 36.4534 31.7733C37.0583 31.568 37.5799 31.4182 37.9461 31.0852C38.1237 30.9354 38.44 30.6024 38.7286 30.1085C39.1115 29.4482 39.511 28.8766 39.9106 28.8045C39.5943 28.86 39.3612 28.8433 39.3612 28.8433C39.3612 28.8433 39.4833 28.7212 39.6886 28.5548C39.8939 28.3883 40.1437 28.183 40.4988 28.183C41.1314 28.183 41.4477 28.2773 41.8029 28.2773C42.158 28.2662 42.3634 28.183 42.3634 28.183C42.3634 28.183 42.7352 28.4438 43.5731 28.4438C44.411 28.4549 44.9715 28.527 45.4099 28.5659C45.8483 28.6047 47.3189 28.4438 47.7406 28.4549C48.179 28.466 48.5342 28.6491 48.5342 28.6491L47.1746 24.698L42.2912 20.4306L39.3834 22.4894L34.9107 26.9621L30.5823 28.5659L29.6777 29.5814V31.1296H29.6666Z" fill="#CCB360"/>
<path d="M39.3777 28.8655C39.3777 28.8655 39.4998 28.7434 39.7052 28.5769C39.9105 28.4105 40.1602 28.2051 40.5153 28.2051C41.148 28.2051 41.4643 28.2995 41.8194 28.2995C42.1746 28.2884 42.3799 28.2051 42.3799 28.2051C42.3799 28.2051 42.7517 28.466 43.5897 28.466C44.4276 28.4771 44.9881 28.5492 45.4265 28.588C45.8649 28.6269 47.3354 28.466 47.7572 28.4771C48.1956 28.4882 48.5507 28.6713 48.5507 28.6713L47.9347 26.89L47.2189 25.5304L45.1767 23.294C45.1767 23.294 42.724 21.8512 42.7073 21.8401C42.6962 21.829 41.8583 21.6071 41.8583 21.6071L39.6386 22.95L37.6242 28.1608L37.5853 29.2595L38.8894 29.8755C39.2168 29.3261 39.5775 28.8877 39.916 28.8322C39.6108 28.8655 39.3777 28.8655 39.3777 28.8655Z" fill="#D5B457"/>
<path d="M39.35 29.2373C39.1557 29.2484 38.9948 29.2096 38.9504 29.0708C38.7839 28.6047 38.6508 28.5381 38.512 28.5381C38.3733 28.5381 38.1846 28.8378 38.0736 28.8655C37.9626 28.8933 37.8295 28.5215 37.8295 28.5215L37.7074 28.466C37.7074 28.466 36.9915 28.9321 36.4865 29.4815C35.9816 30.0309 35.1547 30.9631 34.7829 31.1296C34.4111 31.2961 33.1348 31.3516 32.6964 31.4459C32.258 31.5403 31.7752 31.8566 31.7086 31.9287C31.642 32.0009 31.9028 32.0785 31.9417 32.1507C31.9805 32.2173 31.5144 32.1895 31.4755 32.2617C31.4478 32.3172 31.5865 32.6335 31.6531 32.7944C31.7752 32.7389 31.8973 32.7001 32.036 32.7001C32.4633 32.689 32.7741 32.972 33.2846 32.972C34.5165 32.972 35.632 32.0675 36.4532 31.79C37.0581 31.5847 37.5797 31.4348 37.946 31.1019C38.1236 30.952 38.4399 30.6191 38.7284 30.1252C38.9393 29.7867 39.1446 29.4704 39.35 29.2373Z" fill="#D2B257"/>
<path d="M21.6812 56.7007C21.6812 56.7007 21.5702 56.29 20.5547 55.2301C20.2661 54.9305 20.0885 54.6807 19.8943 54.5032C19.4115 54.0481 19.1285 53.926 18.7844 53.6652C18.0297 53.1047 17.2084 53.1047 16.5758 52.4166C15.9432 51.7285 15.2052 50.4133 14.6946 49.0704C14.1896 47.7275 14.0509 47.3002 14.0509 47.2614C14.0509 47.2225 14.1896 46.9617 14.3672 47.0005C14.5448 47.0394 14.5448 47.3834 14.5892 47.4667C14.6003 47.4944 14.7279 47.672 14.8888 47.8496C15.1497 48.1492 15.5215 48.5099 15.7101 49.0427C15.6713 48.5876 15.5159 48.0826 15.5159 48.0826C15.5159 48.0826 16.4926 48.6986 17.325 49.3423C18.1629 49.986 18.507 50.208 18.7511 50.6187C18.9953 51.0293 19.5724 52.1114 19.8499 52.4277C20.1274 52.744 23.912 53.9371 23.912 53.9371L25.7099 55.2801L26.6034 57.239L25.9042 58.3377L24.5612 58.6263L22.3804 57.6496L21.6812 56.7007Z" fill="#D2B159"/>
<path d="M16.8365 49.9528C16.8365 49.9528 17.2916 50.6797 18.4014 51.3678C19.4003 51.9727 20.9819 52.5221 22.3914 52.8495C23.2016 53.0437 24.0118 53.1935 24.7387 53.2046C26.6976 53.2324 28.0461 52.6719 29.7164 52.4888C30.6209 52.3944 31.7308 52.3223 32.885 52.0504C34.3667 51.6952 35.2435 51.2957 36.4366 50.7352C37.3023 50.3357 38.0958 50.036 38.7395 49.6531C39.6441 49.1204 40.3044 48.5266 41.0702 48.349C40.9759 48.6098 40.876 49.076 40.1213 49.5588C40.5209 49.5477 41.0702 49.5199 41.0702 49.5199C41.0702 49.5199 40.5375 49.8362 39.5997 50.5465C39.0225 50.9849 38.2567 51.7285 37.4743 52.2224C36.9693 52.5387 36.4199 52.7718 36.0592 52.9605C35.1824 53.4432 34.8273 53.6874 34.2502 54.2756C34.4555 54.2645 34.4721 54.2756 34.4721 54.2756C34.4721 54.2756 33.7452 54.37 33.2236 54.6474C33.1126 54.6474 32.9239 54.6086 32.5909 54.7029C32.3301 54.7862 31.9861 54.9748 31.6309 55.0747C31.1259 55.2246 30.9595 55.158 30.9595 55.158L31.0427 55.3244C31.0427 55.3244 30.3823 55.3133 30.1659 55.3355C30.2048 55.3466 30.1937 55.3633 30.1937 55.3633C30.1937 55.3633 30.1659 55.3633 30.0827 55.4021C30.0161 55.441 29.9051 55.5131 29.7386 55.552C29.672 55.5631 29.6165 55.5631 29.5333 55.5797C29.561 55.6463 29.7775 56.0181 29.8773 56.2401C29.7941 56.2956 28.5455 57.2389 28.5455 57.2389C28.5455 57.2389 28.601 57.3222 28.6399 57.4332C28.6787 57.5553 28.6953 57.7328 28.7342 57.8161C28.8285 57.9825 28.884 58.0103 28.884 58.0103C28.884 58.0103 28.7342 58.038 28.4734 58.1046C28.2514 58.1601 27.9795 58.2545 27.5966 58.31C27.4856 58.321 27.3635 58.3377 27.2414 58.3377C27.2969 58.4598 27.5411 58.9259 27.0916 59.4642C26.6366 59.9969 26.5034 60.0802 26.3647 60.4242C26.3258 60.3965 26.2537 60.341 26.1427 60.2855C25.9929 60.2189 25.7875 60.119 25.7154 59.9858C25.7043 60.0413 25.6488 60.2577 25.5489 60.5075C25.4102 60.8793 25.2049 61.2455 25.166 61.523C25.0162 61.3565 24.7387 61.0291 24.3558 61.0957C23.9729 61.1623 23.6677 61.6839 23.6011 61.8337C23.6011 61.7394 23.5345 61.6673 23.5179 61.7782C23.5068 61.9003 23.2959 63.1767 22.1195 64.2088C22.1084 63.948 22.1084 63.3709 22.0806 63.1822C21.9696 63.2932 21.8364 63.4541 21.0373 63.7982C20.2549 64.1422 20.377 64.4863 20.377 64.4863C20.377 64.4863 20.3104 63.9369 20.7321 63.3598C21.1594 62.7827 21.4202 62.5107 21.4202 62.4664C21.4202 62.4553 21.4092 62.3998 21.3648 62.3443C21.3093 62.2888 21.1983 62.2222 21.1983 62.1778C21.2649 62.15 21.9252 61.8337 21.8864 61.1789C21.8475 60.5907 21.5978 60.2855 21.4202 60.0691C21.3925 60.0413 21.6811 59.836 21.6422 59.7694C21.6145 59.7306 21.2593 59.4697 21.2149 59.331C21.226 59.2644 21.2427 59.1534 21.2704 59.0868C21.3093 58.9648 21.337 58.8815 21.3259 58.7983C21.2982 58.6596 21.1483 58.2767 21.1039 58.2378C21.1428 58.2489 21.4202 58.2378 21.4202 58.2378C21.4202 58.2378 21.1983 57.8827 21.1594 57.7162C21.1206 57.5497 21.0374 57.1113 20.993 57.0281C21.0873 57.0392 21.3204 57.0558 21.3204 57.0281C21.3315 56.9448 21.115 56.8061 21.2094 56.7007C21.276 56.7118 21.4036 56.7673 21.5257 56.9226C21.4591 56.7451 21.3481 56.401 21.115 56.2623C21.226 56.2234 21.5978 56.1235 21.9252 56.3178C22.2526 56.512 22.3636 56.7839 22.3636 56.7839C22.3636 56.7839 22.5578 56.9337 22.8575 57.1557C23.2016 57.4276 23.64 57.8161 24.3392 58.088C24.489 58.1712 24.8719 58.1712 25.1494 58.1157C25.3158 58.0769 25.4102 58.0214 25.4934 57.977C25.56 57.9382 25.6155 57.9215 25.6155 57.9215C25.6155 57.9215 25.5045 57.6995 25.4102 57.5774C25.5045 57.5774 25.6155 57.5885 25.6155 57.5885C25.6155 57.5885 25.6821 57.4387 25.3824 57.1502C25.449 57.0836 25.5323 57.0392 25.5323 56.9282C25.4379 56.9171 25.2714 56.7784 25.2326 56.7229C25.2881 56.684 25.3713 56.5564 25.4657 56.5175C25.3824 56.4509 25.1771 56.1735 25.0828 56.1457C25.1771 56.118 25.3436 56.0237 25.3436 56.0237C25.3436 56.0237 24.8774 55.9016 24.7276 55.8017C24.5778 55.6907 24.3558 55.502 24.2226 55.4465C24.0839 55.391 23.8397 55.3633 23.7398 55.2523C23.8342 55.2801 23.984 55.2523 24.095 55.2523C24.1782 55.2523 24.2171 55.2634 24.2448 55.2634C24.2337 55.2246 24.2337 55.1413 24.4502 55.1136C24.6555 55.0747 24.7498 55.0192 24.7498 55.0192C24.7498 55.0192 24.5445 55.0081 24.3114 54.7862C24.0784 54.5642 23.8841 54.3866 23.7509 54.3589C23.6122 54.3311 23.3514 54.4532 23.1905 54.4421C22.9685 54.4144 22.8742 54.3034 22.8742 54.3034C22.8742 54.3034 22.1361 54.37 20.4991 53.3711C19.084 52.5054 18.468 51.7396 18.468 51.7396C18.468 51.7396 18.3016 51.6841 18.0851 51.562C17.5524 51.2846 16.8144 50.7075 16.8365 49.9528Z" fill="#C2A44D"/>
<path d="M37.2523 16.646C37.2523 16.646 37.4465 16.7015 37.5797 16.868C37.8405 17.1676 38.007 17.7337 37.4132 18.3385C37.6463 18.4218 37.7406 18.4495 37.9459 18.4218C37.7406 18.6659 37.2745 19.1876 37.2467 19.6426C37.219 20.0144 37.452 20.1254 37.452 20.1254C37.452 20.1254 37.0969 20.5361 37.0802 21.2242C37.1635 21.1298 37.3522 20.9245 37.6296 20.7025C38.0403 20.3751 38.6063 20.0033 38.9892 19.7703C38.9781 19.9201 39.028 20.0588 39.028 20.0588C39.028 20.0588 39.7439 19.4706 40.3432 19.7314C40.6151 19.8535 40.4931 20.2364 40.4931 20.2364C40.4931 20.2364 40.8649 20.0977 41.1257 20.3585C41.3865 20.6193 41.7583 21.2908 41.947 21.5516C42.0302 21.6737 42.2466 21.9067 42.4686 22.2674C42.7294 22.6947 43.018 23.2829 43.2233 23.8601C43.2344 23.5715 43.3065 23.122 44.1278 23.405C44.9491 23.6936 45.8814 24.2985 46.6639 25.4916C47.4463 26.6846 47.6405 28.0276 48.0345 28.5381C48.4341 29.032 48.8447 29.8533 48.8725 30.1973C48.9002 30.5414 48.7504 31.6512 49.5717 34.6534C49.8048 33.7211 50.1599 31.6512 50.1599 31.6512L50.3541 29.8255L50.5761 24.1764L44.6772 19.2764L40.0658 15.9302L37.0636 16.2187L37.2523 16.646Z" fill="#CAA13E"/>
<path d="M48.2121 25.0532C48.2121 25.0532 48.1289 24.5038 46.7416 23.5715C45.3542 22.6503 44.2721 22.6503 43.2733 21.8679C42.5075 21.2519 41.7084 19.8368 41.1867 19.3707C40.6817 18.9101 40.5985 17.5783 40.5985 17.5783L42.3021 16.1521L44.8382 12.4896L46.9802 10.1312L48.0068 11.5573L49.433 13.2332L50.2265 16.5961L50.5151 21.5183L48.2121 25.0532Z" fill="#B59544"/>
<path d="M49.927 30.952C49.927 30.952 50.0213 29.881 49.6551 28.7434C49.2888 27.6058 48.4897 25.5859 48.1179 24.8312C47.9681 23.9932 48.0791 23.9267 48.24 23.8323C48.4065 23.738 49.0058 23.3939 49.3388 22.1842C49.6662 20.9744 50.6984 20.9356 50.6984 20.9356L51.331 20.4695L52.291 22.8723L53.1289 25.0421L53.3898 26.7013L53.584 28.1163L53.1289 31.1074L50.8815 33.1384L49.927 30.952Z" fill="#C89D3A"/>
<path d="M17.9907 68.4985C17.9907 68.4985 17.4857 67.5662 17.4579 67.1666C17.4468 66.7837 17.5967 66.534 17.5967 66.534C17.5967 66.534 17.4024 66.2455 17.2249 66.1789C17.2637 65.9846 17.3358 65.7516 17.4857 65.5906C17.6355 65.4131 17.9241 65.18 17.9796 65.0967C18.035 65.0135 18.0628 64.9025 18.2237 64.8748C18.3902 64.847 18.5678 64.847 18.5678 64.6306V64.2311C18.5678 64.2311 18.6344 64.1922 18.6899 64.1201C18.7287 64.0646 18.7565 63.998 18.7842 63.9813C18.8397 63.9536 19.1005 63.8703 19.2392 63.8981C19.378 63.9258 19.7442 64.0757 19.9385 64.0646C20.338 64.0535 20.8041 63.7483 21.5422 63.887C22.6521 64.0923 22.9129 64.847 23.5566 65.2743C23.995 65.574 24.45 65.4408 24.5166 65.4408H24.6664C24.6942 65.4408 24.8995 65.2077 25.0105 65.2188C25.2325 65.2299 25.2547 65.4131 25.3934 65.4242C25.7208 65.463 26.3534 65.2577 26.6697 65.3409C26.8196 65.3798 27.0138 65.5351 27.0693 65.7405C27.1359 65.9458 27.0804 66.2066 26.9194 66.3564C26.5754 66.6727 26.248 66.9724 26.1814 67.2332C26.2757 67.2998 26.4422 67.4552 26.4422 67.4552C26.4422 67.4552 26.2924 67.5939 26.0149 67.7271C25.8928 67.7826 25.6986 67.8769 25.4822 67.9047C25.0715 67.9435 24.561 67.999 24.2613 68.4374C23.9617 68.8758 22.9295 68.6317 22.9295 68.6317L17.9907 68.4985Z" fill="#CEB052"/>
<path d="M48.1178 53.2046C48.1178 53.2046 48.9835 52.0504 49.2831 51.4788C49.5828 50.8906 48.3342 43.4268 48.3342 43.4268L50.8425 35.2083L50.7759 32.5336C50.7759 32.5336 50.898 30.0642 51.1866 28.9932C51.5306 29.6091 52.6016 30.3527 52.8347 30.7467C52.9457 29.992 53.3175 28.3994 53.262 26.7013C53.4673 27.0176 53.9612 30.1973 53.9612 30.1973L54.4551 32.3394L55.0988 34.6146L55.8147 37.0174L56.242 38.6766L56.4861 39.0762L56.6914 39.7754L56.8857 40.5301L57.4461 42.3003L57.7736 43.7542L58.0344 46.3901C58.0344 46.3901 58.1287 46.7175 58.1565 47.0061C58.1676 47.2946 58.1176 47.4611 58.1176 47.5111C58.1176 47.5666 58.2119 48.1437 58.1731 48.5821C58.1176 49.0205 58.1176 49.3645 57.7736 49.6808C57.4295 49.9971 57.2131 51.8783 57.2131 51.8783L56.5971 51.4677C56.5971 51.4677 56.7192 50.9072 56.4306 50.3967C56.1421 49.8917 55.5816 49.7807 55.2653 49.864C54.949 49.9305 54.3164 50.0304 54.111 50.208C53.9168 50.3856 53.4396 50.935 53.0012 51.1847C52.4518 51.5121 51.5584 51.5398 51.0811 51.6508C50.5983 51.7618 50.0656 52.0892 49.5051 52.4721C48.9224 52.8495 48.3342 53.1214 48.1178 53.2046Z" fill="#CCA847"/>
<path d="M48.1178 65.3298C48.1178 65.3298 48.6006 65.6461 49.4885 65.8625C50.3764 66.079 52.646 67.383 52.646 67.383L54.555 68.5484L56.9134 68.726L58.9833 68.4374C58.9833 68.4374 59.0499 67.5606 58.9167 64.2921C58.778 61.0125 58.6725 60.5463 58.6725 60.3022C58.6725 60.058 58.5893 55.896 58.495 54.9915C58.4006 54.087 58.4672 53.1658 58.4395 52.6331C58.4117 52.1003 58.1121 49.9306 57.9733 49.3701C57.8235 48.8096 57.5349 48.5321 57.4906 48.5321C57.4517 48.5432 57.2186 49.5865 57.2186 49.8473C57.2186 50.1081 57.1631 50.7408 57.1631 50.9017C57.1243 50.8906 57.1076 50.7907 57.1076 50.7519C57.0522 50.8906 56.9856 51.1348 56.9578 51.1625C56.9301 51.1902 56.9967 50.9294 56.9578 50.8739C56.919 50.8184 56.8468 50.8462 56.8635 50.7075C56.8746 50.5687 56.9023 50.4633 56.9023 50.4633C56.9023 50.4633 56.7358 50.7075 56.6138 51.329C56.4917 51.945 56.4917 51.9616 56.4473 52.0171C56.4084 52.0837 56.1865 52.3057 56.1754 52.3889C56.1643 52.5387 56.3807 52.6886 56.3973 52.7718C56.4084 52.9105 56.2031 53.5542 56.1365 53.8706C56.0699 54.1869 56.0977 54.8028 56.0255 55.1191C55.97 55.4077 55.9145 55.5742 55.7259 55.6963C55.8646 55.724 55.9978 55.7629 55.9978 55.7629C55.9978 55.7629 56.192 56.5841 55.6981 57.2834C55.5206 57.5275 55.4762 57.6385 55.2875 57.8605C54.9157 58.2711 54.6271 58.7373 54.5994 59.0425C54.5716 58.9315 54.5605 58.7706 54.5605 58.7706C54.5605 58.7706 53.9834 59.442 53.7392 59.8249C53.4229 60.3188 52.9845 60.2911 52.8624 60.4132C52.7404 60.5352 52.7126 60.7572 52.7515 60.9348C52.6405 60.9625 52.4351 61.0014 52.2964 61.4287C52.2298 61.6506 52.0633 61.8671 51.8025 62.0169C51.5417 62.1667 51.2254 62.2111 51.0645 62.25C51.2032 62.2888 51.2587 62.2888 51.3253 62.3332C51.242 62.4719 50.8591 62.6884 50.4319 62.9658C50.0046 63.2266 49.7992 63.6095 49.6938 63.8593C49.5828 64.0923 49.4219 64.2422 49.1611 64.2699C49.272 64.3365 49.433 64.4919 49.5162 64.5418C49.3941 64.5696 49.1888 64.5696 48.817 64.8859C48.4286 65.2077 48.2954 65.3021 48.1178 65.3298Z" fill="#C39D3C"/>
<path d="M56.3584 45.136C56.3584 45.136 56.1808 46.096 55.8645 46.7009C55.5482 47.3058 55.2041 48.1437 55.2041 48.1437C55.2041 48.1437 55.2041 47.844 55.2707 47.5832C54.8712 47.8163 53.9 48.3768 53.6226 48.6265C53.3618 48.8596 52.9234 49.2702 52.8124 49.4644C53.0732 48.6986 53.3451 48.0105 53.3895 47.6942C52.99 47.9828 51.1254 49.5199 50.1543 50.5354L47.1299 52.9827C47.1299 52.9827 46.6638 53.2435 46.0589 53.4877C45.5373 53.7096 44.9213 53.8983 44.4663 54.0759C44.5884 53.7485 44.7826 53.4599 45.0545 53.1824C45.3431 52.9105 46.2088 51.9727 46.342 51.5343C46.464 51.0793 46.4918 50.8074 46.3309 50.4245C46.181 50.4633 45.837 50.4799 45.6039 50.5465C45.3708 50.6131 45.1211 50.8629 45.1211 50.8629C45.1211 50.8629 45.2987 49.8473 45.6816 48.8873C45.393 48.8984 44.8991 48.9816 44.8991 48.9816C44.8991 48.9816 45.5873 47.8274 46.7637 47.0228C46.5695 47.0616 46.1311 47.1726 45.7093 47.3502C45.0212 47.6387 44.2665 48.066 43.7061 48.2991C44.0224 47.8607 46.2421 44.6921 47.5628 41.7398C48.878 38.7932 49.3718 38.0385 49.6604 36.4569C49.8102 35.6745 49.7714 34.5202 49.8102 33.4825C49.8491 32.4559 49.9767 31.5347 49.8935 30.9187C50.2375 31.346 51.525 32.5502 51.5694 35.2416C51.6082 37.933 50.3374 41.5678 48.989 43.5267C49.3164 43.621 50.1709 43.732 51.0477 42.2115C51.9245 40.691 51.9134 40.2637 52.2297 39.6311C52.2686 39.9474 52.2575 40.0584 52.2575 40.0584C52.2575 40.0584 53.5338 38.5102 54.1387 36.5624C54.2607 37.4003 54.6215 38.1384 54.0554 39.6755C53.5504 41.0628 52.8901 41.4013 52.8901 41.4013C52.8901 41.4013 53.2175 41.3458 53.7003 41.0573C53.7835 41.2626 53.7669 41.4957 53.9056 41.5789C54.0443 41.6621 54.233 41.8009 54.2607 41.9341C54.4106 41.7121 54.6436 41.4291 54.7158 41.2182C54.6603 41.6566 54.6215 43.5766 54.8268 44.5533C55.2541 44.5145 55.6925 44.4867 55.9921 43.7154C55.7868 44.4701 55.7868 44.9251 55.9255 45.5688C56.153 45.4135 56.3584 45.136 56.3584 45.136Z" fill="#C0993A"/>
<path d="M41.9414 14.5484C41.9414 14.5484 41.5141 14.726 40.7872 14.726C40.1546 14.726 40.3322 14.4818 39.3444 14.4818C37.8239 14.4818 32.5132 15.3586 31.5809 15.3475C30.9761 15.3364 33.6231 15.6083 33.6231 15.6083L40.3876 15.7026L41.7472 15.5917L42.2522 14.565L41.9414 14.5484Z" fill="#A88F33"/>
<path d="M24.4004 27.7723C24.4004 27.7723 23.5347 28.4327 23.1684 28.9377C22.7966 29.4426 22.608 29.7756 22.1918 30.1862C22.3305 30.1973 22.4803 30.1474 22.4803 30.1474C22.4803 30.1474 22.4803 30.2584 22.4137 30.2861C22.5525 30.275 22.6579 30.325 22.73 30.3971C22.608 30.4637 22.275 30.7967 22.5358 31.1907C22.73 31.4903 23.1407 31.5181 23.1407 31.5181C23.1407 31.5181 23.0464 31.79 23.4404 31.7622C24.2894 31.7234 25.2383 31.3516 25.6767 31.4459C26.1151 31.5569 26.3648 31.5957 26.6756 32.134C27.003 32.6668 27.2915 32.75 27.2915 32.75C27.2915 32.75 27.4857 32.2561 27.4414 31.5181C27.7022 30.8854 27.7022 30.2695 27.7022 30.2695L27.4136 28.1441L26.1539 26.5515L24.5225 27.456L24.4004 27.7723Z" fill="#E3C571"/>
<path d="M25.9485 27.456C25.9485 27.456 26.0706 27.7446 26.5811 27.7723C26.5256 27.8944 26.5256 27.911 26.5423 28.0054C26.5534 28.0997 26.57 28.2385 26.57 28.2385C26.57 28.2385 26.6366 28.2107 26.7198 28.1275C26.7476 28.2496 26.6921 28.4438 26.7198 28.5825C26.7476 28.7212 26.8031 28.8267 26.8031 28.8267C26.8031 28.8267 26.8142 28.7989 26.8308 28.7712C26.8419 28.7434 26.9418 29.0708 27.2137 29.3206C27.2137 29.254 27.2415 29.2096 27.2415 29.2096C27.2415 29.2096 27.2415 29.3039 27.3081 29.4038C27.2803 29.3927 27.2526 29.365 27.2526 29.365C27.2526 29.365 27.2803 30.2417 27.4301 30.6968C27.469 30.6413 27.4856 30.6302 27.4967 30.6024C27.4967 30.5747 27.4856 30.8466 27.4579 31.0408C27.419 31.2351 27.4468 31.507 27.4468 31.507C27.4468 31.507 27.5966 31.3849 27.7742 31.3128C27.9407 31.2462 28.2126 31.0408 28.3791 30.5858C28.5455 30.1308 28.601 29.7923 28.601 29.7923C28.601 29.7923 28.6954 29.9698 28.712 30.1197C28.7231 30.2584 28.9839 30.1863 28.9839 30.1863L29.0394 29.5814L29.3668 28.2107L29.6665 27.3617L31.1093 25.1142L33.7175 23.1109L35.9927 23.6325L37.9127 21.0244L34.6054 19.0377L31.4756 19.3651L28.6343 23.2996L26.3591 26.8678L25.9485 27.456Z" fill="#D8B65B"/>
<path d="M42.341 21.7624C42.341 21.7624 42.1468 21.8013 41.5863 22.0898C41.0259 22.3784 40.6374 22.4727 40.421 22.9C40.199 23.3273 40.1879 23.6658 40.1879 23.6658C40.1879 23.6658 40.5708 23.4994 40.7928 23.4439C41.0259 23.3884 41.2867 23.405 41.2589 23.4994C41.2312 23.5826 41.148 23.6769 41.148 23.6769C41.148 23.6769 41.5863 23.6658 41.5752 23.8823C41.5641 24.1042 41.492 24.3373 41.4088 24.4427C41.3255 24.5537 40.9815 24.7147 40.9426 24.8423C40.8483 25.1031 40.9815 25.1142 40.9315 25.3251C40.8927 25.5304 40.7096 25.9299 40.1102 26.6292C39.4943 27.3284 39.2335 27.8222 39.2335 27.8222C39.2335 27.8222 38.9338 27.2618 38.7784 26.779C38.6674 26.8345 38.0792 27.1619 38.0792 27.1619L36.7141 22.4062L36.7418 22.0898C36.7418 22.0898 36.8639 21.94 36.8917 21.6626C36.6863 21.596 36.6586 21.5405 36.3867 21.2797C36.1148 21.0188 35.8928 20.7025 35.4377 20.4861C35.3712 20.364 35.2879 20.1975 34.955 20.131C34.6276 20.0644 34.4222 20.0089 34.4222 20.0089C34.4222 20.0089 34.5998 19.9423 34.683 19.8036C34.4777 19.8313 34.3112 19.8979 33.8618 19.8868C33.4067 19.8757 33.3568 19.859 33.107 19.8979C32.8573 19.9367 32.5577 20.0477 32.4467 19.6648C32.3246 19.5705 32.0638 19.6537 31.8418 19.9811C31.6198 20.3085 31.5422 20.5694 31.1149 20.697C31.1038 20.7802 31.0594 20.9966 30.9206 21.2297C30.7985 21.435 30.6043 21.6404 30.3435 21.9456C29.9329 22.4284 29.9995 23.2219 29.3446 23.8268C28.6843 24.4316 29.4556 22.1509 29.4556 22.1509L30.51 19.626L33.5121 16.6904L38.1735 16.3741L38.6286 18.788L40.9038 19.5705L42.341 21.7624Z" fill="#D3AE4D"/>
<path d="M43.0791 22.2952L41.1202 19.4706L39.7495 18.4162C39.7495 18.4162 38.7729 16.6183 38.7063 16.5628C38.6508 16.5239 37.7296 16.424 37.1414 16.3852L37.2524 16.6571C37.2524 16.6571 37.4466 16.7126 37.5798 16.8791C37.8406 17.1787 38.007 17.7448 37.4133 18.3496C37.6463 18.4329 37.7407 18.4606 37.946 18.4329C37.7407 18.677 37.2745 19.1987 37.2468 19.6537C37.2191 20.0255 37.4521 20.1365 37.4521 20.1365C37.4521 20.1365 37.097 20.5472 37.0803 21.2353C37.1636 21.1409 37.3522 20.9356 37.6297 20.7136C38.0403 20.3862 38.6064 20.0144 38.9893 19.7814C38.9782 19.9312 39.0281 20.0699 39.0281 20.0699C39.0281 20.0699 39.744 19.4817 40.3433 19.7425C40.6152 19.8646 40.4931 20.2475 40.4931 20.2475C40.4931 20.2475 40.8649 20.1088 41.1257 20.3696C41.3866 20.6304 41.7584 21.3019 41.947 21.5627C42.0303 21.6848 42.2467 21.9178 42.4687 22.2785C42.7295 22.7058 43.018 23.294 43.2234 23.8712C43.2345 23.6492 43.2789 23.3384 43.6618 23.3384L43.0791 22.2952Z" fill="#CAA13E"/>
<path d="M13.7123 30.3194C13.7123 30.3194 13.5736 29.9754 13.7123 29.3039C13.851 28.6324 14.0674 28.3161 14.1396 27.3284C14.2062 26.3406 14.8554 25.1086 14.8554 25.1086L16.6368 24.2984L17.8965 24.6425L18.2683 26.3295L16.6756 27.2063C16.6756 27.2063 16.5924 27.5781 16.1429 27.8777C15.6878 28.1774 15.0719 28.4105 14.922 28.7157C14.7722 29.032 14.7278 29.3039 14.7278 29.3039C14.7278 29.3039 14.2728 29.2096 14.0009 29.5092C13.7123 29.8144 13.7234 30.0864 13.7123 30.3194Z" fill="#F4EFC8"/>
<path d="M17.3082 29.8699C17.3082 29.8699 17.1584 29.9643 17.0474 30.1974C16.9364 30.0198 16.6756 28.9654 16.6645 28.0165C16.6534 27.0676 16.5979 26.8345 16.8143 26.5071C17.0363 26.1797 17.8965 25.8356 17.7744 25.2474C17.6523 24.6869 17.1418 24.4538 16.5147 24.6148C16.0763 24.7258 15.7489 25.658 15.2938 26.1242C14.9498 26.4793 14.5391 26.4238 14.4282 26.6181C14.2783 26.8789 14.4171 27.1397 14.3727 27.3062C14.3616 27.3617 14.2228 27.6613 13.9731 28.022C13.4681 28.749 12.6135 29.7756 12.5026 30.6968C12.5414 30.1752 12.5137 30.1641 12.6524 29.5869L12.5692 29.4482L13.1185 27.6502L13.4737 26.1686L14.2672 23.6881L15.6656 21.152L17.0252 19.6315L18.4403 19.7259L18.6068 21.8512L19.4169 25.8412L21.1206 27.9388L18.3903 29.7756L17.3082 29.8699Z" fill="#EBCC73"/>
<path d="M18.1573 30.6246C18.1573 30.6246 17.9243 30.6801 17.841 30.6357C17.7578 30.5969 17.6746 30.5414 17.7023 30.4859C17.73 30.4304 17.8799 30.3361 17.8799 30.2917C17.8799 30.2528 17.8688 30.1418 17.7411 30.1252C17.6135 30.1086 17.5747 30.1918 17.5747 30.1918C17.5747 30.1918 17.4526 30.0975 17.3527 30.0808C17.4359 30.0697 17.5303 30.0697 17.5303 30.0697C17.5303 30.0697 17.2972 29.9587 17.0475 29.931C17.1862 29.8477 17.4581 29.6036 17.6357 29.6036C17.8133 29.6036 17.9243 29.5758 17.8965 29.4815C17.8688 29.3871 17.73 29.2484 17.5802 29.1929C17.6357 29.1263 17.6746 29.0264 17.5414 28.7545C17.4026 28.4826 17.4581 28.2995 17.5025 28.2329C17.5414 28.1497 17.6801 27.9998 17.7467 27.9055C17.8133 27.8112 17.8688 27.6835 17.9798 27.6169C18.0353 27.5781 18.2128 27.5059 18.3904 27.4394C18.5846 27.3728 18.7456 27.2895 18.8566 27.3728C18.9786 27.456 18.9231 27.567 18.9231 27.567C18.9231 27.567 19.306 27.4283 19.6501 27.6058C19.9942 27.7723 20.8321 27.8777 20.8321 27.8777L21.1318 28.4826L19.1451 30.1862L18.3238 30.5969L18.1573 30.6246Z" fill="#E5C66B"/>
<path d="M20.9153 27.8389C20.9153 27.8389 20.2993 28.2495 20.1606 28.3994C20.2438 28.4105 20.3826 28.4659 20.3271 28.5492C20.2605 28.6324 19.8609 28.921 19.639 29.1929C19.4059 29.4648 19.1839 29.8089 19.1062 29.9753C19.023 30.1252 18.3904 30.5636 18.174 30.6191C18.629 30.6191 19.5446 30.0586 19.8887 30.0586C19.8776 30.2251 19.983 30.4137 20.1772 30.4304C20.3715 30.4415 20.9319 30.5525 21.6866 30.0863C22.4414 29.6313 22.1916 29.2928 22.5079 29.0708C23.1128 28.6713 23.357 28.3161 23.6899 28.0941C24.0173 27.8722 24.1949 27.8222 24.1949 27.8222C24.1949 27.8222 24.206 27.6558 24.3059 27.6724C24.4002 27.6835 24.428 27.7667 24.428 27.7667C24.428 27.7667 25.0051 27.3561 25.7432 27.2451C25.7154 27.234 25.7043 27.2063 25.7043 27.2063C25.7043 27.2063 25.7598 27.1785 25.7709 27.1508C25.7709 27.1508 25.8098 27.0953 25.8375 27.123C25.8653 27.1508 25.9041 27.3561 25.9596 27.4393C26.0817 27.3838 26.3148 26.8622 26.3148 26.8622L26.8752 25.2585V23.7935L26.4368 23.8767L23.1461 25.2751L21.1484 27.345L20.9153 27.8389Z" fill="#E6BD62"/>
<path d="M30.3936 20.6526C30.3936 20.6526 30.6821 20.586 30.8985 20.4473C30.832 20.6248 30.832 20.8191 30.5434 21.2408C30.2548 21.6681 30.2437 21.7236 30.0107 22.162C29.7776 22.617 29.7498 23.2718 29.5279 23.5604C29.7055 23.4772 29.8442 23.4661 29.8442 23.4661C29.8442 23.4661 29.6222 23.6603 29.5279 23.8656C29.4335 24.0709 29.2671 24.4982 28.8564 24.7591C28.4458 25.0199 27.9241 25.1863 27.3637 25.8023C26.8032 26.4072 26.2261 27.173 25.9375 27.4504C26.0873 27.1896 26.2927 26.668 26.3481 26.3239C26.4036 25.9799 26.337 25.5692 26.4314 25.1142C26.5257 24.6592 26.5257 24.3318 26.9808 23.5382C27.4358 22.7447 28.2127 19.9867 28.2127 19.9867L29.8886 19.4539L30.3936 20.6526Z" fill="#B6933F"/>
<path d="M29.1837 19.6371C29.1837 19.6371 28.6788 20.364 28.54 21.0077C28.4013 21.6515 28.5289 21.596 28.4457 21.9123C28.3624 22.2286 28.4457 22.5005 28.4457 22.5005C28.4457 22.5005 28.6677 22.1009 29.1449 21.8124C29.6221 21.5238 30.0106 21.3185 30.2436 21.0743C30.4767 20.8135 30.6709 20.3862 31.1759 20.0588C30.9706 20.0311 30.682 19.9367 30.6265 19.9478C30.8319 19.7148 31.4478 19.3596 32.0693 18.9323C32.6853 18.4939 32.6465 18.3163 33.6453 17.878C33.3179 17.9334 33.1625 17.8502 32.8906 17.878C33.0016 17.6449 33.3845 17.5339 33.7674 17.151C34.1503 16.7681 33.5233 16.2021 33.5233 16.2021L30.5988 17.9723L29.1837 19.6371Z" fill="#C49937"/>
<path d="M21.2427 18.3164L21.3093 17.7836L22.1472 16.4407L23.024 14.0823V10.8581L22.9574 8.99357L23.0961 7.77273L23.2016 7.38429L23.3125 7.23445L24.0284 7.60626L25.0162 8.94918L25.1105 11.5407L24.1505 15.6305L21.4092 18.6216L21.2427 18.3164Z" fill="#DFC068"/>
<path d="M23.4236 7.08461C23.4236 7.08461 22.9852 7.09571 22.8908 8.92142C22.7965 10.7471 22.7521 11.7072 22.6855 12.6117C22.6189 13.5162 22.4635 14.0656 22.3858 14.5983C22.3026 15.131 22.2638 15.858 22.014 16.3019C21.9031 16.5073 21.67 17.151 21.1206 17.6338C20.5046 18.1665 19.5835 18.5383 19.4447 18.566C19.2006 18.6215 17.9631 18.7436 17.4581 19.0211C17.2805 19.1154 16.9753 19.2264 16.6368 19.5427C15.9653 20.1476 15.0719 21.2297 14.4282 22.5338C13.4404 24.4816 12.4526 29.9809 12.4526 29.9809L12.6746 29.6091C12.6746 29.6091 12.7024 29.1152 13.1962 28.2495C13.679 27.3838 13.5403 26.4127 14.2118 24.7535C14.4726 24.1209 14.8 23.2996 15.1995 22.6004C15.8321 21.4628 16.5979 20.4861 17.3693 19.9534C18.629 19.0877 20.0163 18.899 20.0163 18.899L21.5091 17.9112C21.5091 17.9112 21.7699 17.4062 22.1139 16.8291C22.5967 16.0189 23.2127 15.1144 23.3459 13.7992C23.5512 11.8514 23.0573 10.5751 23.0851 9.42085C23.1128 8.2666 23.1239 7.41757 23.357 7.21224C23.59 7.00692 23.4236 7.08461 23.4236 7.08461Z" fill="#A88F33"/>
<path d="M23.4237 15.797C23.4237 15.797 24.0841 14.1766 24.3837 12.7393C24.4392 12.4508 24.5502 12.1622 24.578 11.9291C24.7167 10.5696 24.7555 10.0091 24.578 9.26547C24.4392 8.7161 23.9065 8.22221 23.629 7.83931C23.3571 7.43976 23.2295 7.28993 23.285 7.20669C23.3405 7.12346 23.5569 6.98472 23.7678 7.00137C23.9731 7.01247 24.5058 7.05686 24.9498 7.55075C25.377 8.04464 25.7156 9.72051 25.7156 9.72051L26.0707 11.9291L26.9752 14.7149L23.4237 15.797Z" fill="#C99E3D"/>
<path d="M29.611 14.11C29.611 14.11 29.4889 14.1655 29.267 14.11C29.2781 14.221 29.2559 14.4374 29.045 14.5761C28.8119 14.4818 26.6311 14.6705 26.6311 14.6705C26.6311 14.6705 25.6155 14.4929 25.2992 13.15C25.0773 12.2565 25.4657 11.0246 25.3381 10.2144C25.1439 9.02132 24.8719 8.78825 24.8442 8.41645C24.8164 8.04465 24.7887 7.95031 24.7887 7.71724C24.6666 7.68949 24.5945 7.65065 24.4724 7.65065C24.4446 7.53966 24.5001 7.44532 24.3781 7.2511C24.4446 7.27885 24.8997 7.33434 25.4324 7.83932C25.8708 8.24997 25.8708 8.3998 25.9374 8.48304C26.0206 8.56628 26.6921 9.1434 26.9807 9.71498C27.2692 10.2866 27.8297 12.1178 27.9573 12.4175C27.9962 12.5396 28.0794 12.6616 28.2847 12.9391C28.6066 13.3387 29.0783 13.999 29.611 14.11Z" fill="#B58634"/>
<path d="M26.0151 8.51078C26.2205 8.83818 26.6034 9.49855 26.9197 10.1978C27.2471 10.9358 27.4413 11.5407 27.852 12.0346C27.63 11.3908 27.236 10.1256 27.0029 9.67612C26.7421 9.19889 26.2094 8.68835 26.0151 8.51078Z" fill="#A88F33"/>
<path d="M22.2415 17.6338C22.2415 17.6338 21.6811 17.7725 20.6378 18.3219C20.2937 18.4995 19.9663 18.6493 19.65 18.788C18.8287 19.1598 17.9464 19.5039 17.2472 19.6926C17.3027 19.7592 17.3304 19.7869 17.3304 19.7869C17.3304 19.7869 17.3304 20.0588 17.4803 20.2142C17.397 20.2974 16.2872 21.0521 16.6146 23.5771C16.8365 23.4938 17.0974 23.3828 17.1362 23.3828C17.2028 23.3939 17.2194 23.5771 17.3027 23.5771C17.3859 23.5771 17.6578 23.4661 17.9464 23.0943C17.9353 23.2441 17.7688 24.7535 18.6623 25.769C18.8287 25.5748 19.2505 24.9311 19.2505 24.9311L19.2616 24.7258C19.2616 24.7258 19.3004 24.0099 19.5335 23.3551C19.7666 22.6947 20.2216 22.2175 20.2216 22.2175L22.5967 18.8269L22.2415 17.6338Z" fill="#E6C367"/>
<path d="M20.0219 22.6115C20.0219 22.6115 19.8554 22.7336 19.6668 22.7891C19.6279 22.6503 19.5724 22.1731 19.8998 21.707C20.2827 21.1465 21.1207 20.4195 21.3537 19.8424C21.5036 19.4706 21.437 18.5383 22.7688 17.3452C24.1006 16.1521 24.6223 15.7415 24.6223 15.7415L26.7754 14.6594L29.4224 15.7026L28.1072 20.8579L27.0862 23.2718L23.0241 22.506L20.0219 22.6115Z" fill="#DCBA5A"/>
<path d="M21.5702 21.2131L22.0752 20.5805V20.131C22.0752 20.131 22.6356 19.9811 23.2405 19.3652C23.8454 18.7492 24.6833 17.5672 25.4214 17.6393C26.1594 17.7226 26.2316 19.2431 26.2593 19.6704C26.2871 20.0977 26.3814 21.0688 26.5312 21.5904C26.6977 22.1121 24.7333 24.0876 24.7333 24.0876L23.4014 25.1031L21.5702 21.2131Z" fill="#E9CE77"/>
<path d="M23.135 26.4793C23.135 26.4793 23.5457 25.8356 23.246 25.6969C23.4236 25.2973 23.751 24.8756 23.751 24.8756C23.751 24.8756 23.984 24.2985 24.7387 23.5881C25.4934 22.8723 25.9596 22.4062 26.0817 21.9289C26.2037 21.4461 26.2037 20.98 26.2037 20.98C26.2037 20.98 26.3536 21.1021 26.4646 21.1576C26.5866 21.2131 27.1638 21.6903 27.0805 22.6503C26.9973 23.6103 26.6421 24.0099 26.6421 24.0099C26.6421 24.0099 26.2981 24.3539 26.0539 24.5315C25.7931 24.7091 25.6988 24.9144 25.2604 24.9311C25.327 24.8756 25.4102 24.8478 25.4102 24.8478C25.4102 24.8478 24.9552 24.7923 24.711 25.0143C24.4668 25.2363 23.9452 25.9188 23.6844 26.1242C23.4236 26.2906 23.135 26.4793 23.135 26.4793Z" fill="#CDAE50"/>
<path d="M41.5862 15.686C41.5862 15.686 40.7094 15.3308 39.5441 15.2864C38.3787 15.2476 36.6751 15.3142 35.0048 15.3253C33.2068 15.3364 31.5753 14.7093 29.3112 14.5983C28.9394 14.3763 27.996 13.4052 25.0438 15.464C25.2214 15.4529 27.1858 15.009 27.8684 15.8636C28.5565 16.7126 28.3623 18.1554 28.2679 18.4995C28.0904 19.2653 27.5132 20.3807 27.2802 21.1631C27.0471 21.9456 27.1026 22.3562 26.9361 22.9056C26.7696 23.455 26.4034 23.7269 26.6198 24.3595C26.9084 24.1819 27.0582 24.1819 27.541 23.0998C28.0238 22.0177 27.9239 21.2464 28.723 20.3307C29.5054 19.4095 30.8095 18.1499 31.3034 17.8335C31.7973 17.5172 35.7317 15.4751 39.8493 17.4229C40.8426 17.3175 41.5862 15.686 41.5862 15.686Z" fill="#D2A83E"/>
<path d="M26.7032 14.9313C26.7032 14.9313 26.6921 14.8369 26.6754 14.8092C26.6088 14.6705 26.5256 14.5872 26.5256 14.5872C26.5256 14.5872 25.5489 14.4096 25.055 14.4651C24.1894 14.5595 23.4069 15.6305 23.0407 16.1799C22.6689 16.7292 22.2194 17.5783 21.7255 18.0167C21.7366 17.9501 21.6977 17.8946 21.6977 17.8946C21.6977 17.8946 21.7255 17.9334 21.67 17.9889C21.6145 18.0444 21.6145 18.0722 21.6422 18.0999L21.7255 18.1832C21.7532 18.1832 22.519 17.8391 23.5623 16.868C24.6721 15.8525 25.5212 15.3308 25.9651 15.1532C26.3036 14.9979 26.7032 14.9313 26.7032 14.9313Z" fill="#C29637"/>
<path d="M45.6483 10.7582C45.6483 10.7582 45.4707 10.9802 45.2488 11.2244C44.7549 11.746 44.1112 12.3342 43.5618 12.9391C43.0401 13.5162 42.4519 13.9657 41.7916 14.7204C41.1312 15.4751 40.3654 16.313 40.1712 16.5572C39.9936 16.8014 39.8549 17.2009 39.8549 17.4063C39.7605 17.3397 39.6495 17.2675 39.6495 17.2675C39.6495 17.2675 39.705 17.3785 39.816 17.5117C39.9547 17.7059 40.1712 17.9501 40.2822 18.0999C40.4597 18.3441 40.5541 18.6326 40.5707 18.7325C40.6373 18.7436 41.0646 18.8269 41.5973 17.9501C42.1301 17.0733 42.8293 16.1133 42.8293 16.1133L43.9391 14.4651L44.6383 13.0667L45.5151 11.5018L45.6483 10.7582Z" fill="#AC8132"/>
<path d="M46.786 9.63728C46.786 9.63728 46.1145 10.1867 45.8537 10.5141C45.5929 10.8415 44.9769 11.7072 44.9769 11.7072L45.1989 11.6794L46.3254 10.6805L46.7638 9.8981L46.786 9.63728Z" fill="#A88F33"/>
<path d="M46.5806 53.7374C46.5806 53.7374 46.5695 53.2823 46.8248 53.0104C47.0856 52.7385 47.746 52.3389 48.3897 50.8406C49.0334 49.3479 49.1056 49.0038 49.1056 49.0038C49.1056 49.0038 47.9513 49.9916 47.241 50.2247C47.4075 49.8806 47.5018 49.6365 47.5851 49.4589C47.4907 49.3756 47.0912 49.2813 47.0523 49.2369C47.2743 49.0149 47.3964 48.4711 47.8459 48.1104C48.423 47.672 49.4774 46.9173 50.2987 46.2458C51.12 45.5744 52.7292 44.0095 52.9346 43.5544C53.0567 43.732 53.0844 43.843 53.0844 43.843C53.0844 43.843 52.2742 44.8974 51.8525 45.5688C51.4807 46.146 51.5084 46.4734 51.5084 46.4734L52.2742 46.146C52.2742 46.146 52.4962 46.9673 51.4918 48.2158C51.9301 48.0494 52.1077 48.1492 52.3574 48.0105C51.9468 48.2713 51.3808 48.6265 50.848 49.6032C50.3264 50.5798 49.6161 51.7174 48.4175 52.4277C47.2521 53.1769 46.5806 53.7374 46.5806 53.7374Z" fill="#A67A2E"/>
<path d="M43.5729 16.2631C43.5729 16.2631 43.1179 17.212 43.0513 17.9501C43.0402 18.1277 42.9958 18.2664 42.9958 18.4717C42.9847 19.1321 43.0346 19.8701 42.8848 20.2142C42.8293 20.0755 42.8016 19.9811 42.7461 19.9256C42.6628 20.1587 42.513 20.8857 42.3909 21.1576C42.3354 20.98 42.2133 20.364 42.2244 19.6371C42.2355 18.9101 42.2522 18.7714 42.2522 18.6216C42.2244 18.8435 42.0746 19.1432 42.0191 19.3208C41.9359 19.1709 41.8415 18.9767 41.7305 18.8158C41.664 18.9268 41.5807 19.0877 41.5086 19.1709C41.4975 19.1043 41.4697 18.9268 41.4531 18.6771C41.442 18.3885 41.4253 18.0167 41.442 17.939C41.4697 17.7892 41.7028 17.2009 42.1967 16.6627C42.7849 16.0189 43.3898 14.7815 43.5674 14.3986C43.745 14.0157 44.4997 12.423 44.4997 12.423H45.0768L44.2389 14.332C44.2389 14.332 43.7339 15.3752 43.473 15.7581C43.2122 16.141 42.6628 17.2398 42.4187 17.6671C42.5962 17.434 42.7461 17.3119 42.9237 17.09C43.0957 16.9346 43.5729 16.2631 43.5729 16.2631Z" fill="#8C6228"/>
<path d="M46.797 9.56513C46.797 9.56513 46.686 9.96468 46.3586 10.3587C46.0145 10.7693 45.2765 11.3187 44.9158 11.7571C44.5884 12.1844 43.928 13.3497 44.2277 14.7315C44.3387 14.4318 44.544 13.8381 45.0934 13.1666C45.6427 12.4951 46.231 11.7238 46.5195 11.1245C46.8081 10.5196 46.8469 10.0424 46.8469 10.0424L46.9579 9.90364L46.8913 9.58733L46.797 9.56513Z" fill="#CBA94C"/>
<path d="M58.0343 46.3735C58.0343 46.3735 57.8124 45.7686 57.7458 45.2192C57.6792 44.6699 57.8568 44.5589 57.6514 43.9318C57.5294 43.5489 57.3074 43.6044 57.2519 43.5489C57.1964 43.4934 57.1576 42.9163 57.1687 42.6C57.1798 42.2837 57.1576 41.873 57.1021 41.6954C57.0188 41.6289 56.9633 41.5734 56.8413 41.1627C56.7025 40.7521 56.6359 40.5468 56.5693 40.4247C56.5028 40.3026 56.3085 40.1916 56.3085 40.0695C56.3085 39.8253 56.5305 39.6977 56.5305 39.6311C56.5194 39.4924 56.3529 39.6034 56.3085 39.5645C56.253 39.4979 56.4473 39.0984 56.3751 39.0429C56.3474 39.0151 56.1532 39.2482 56.1032 39.1816C56.0477 39.115 55.9811 38.4547 55.8812 38.0163C55.7869 37.589 55.687 37.2782 55.6759 37.1506C55.6648 37.0285 54.9101 34.8754 54.727 34.3538C54.5494 33.8321 54.4107 33.2717 54.3552 33.0108C54.2997 32.75 54.2609 32.2173 54.2331 32.2728C54.2054 32.3283 54.222 32.6002 54.1776 32.5891C54.1388 32.578 54 31.6291 53.9557 31.4792C53.9168 31.3294 53.6837 30.8189 53.6282 30.4526C53.5728 30.0808 53.4507 29.1097 53.3674 28.4493C53.2842 27.789 53.2454 27.5171 53.2454 27.3506C53.2454 27.2673 53.2731 26.7901 53.1788 26.1408C53.0678 25.4416 52.8514 24.5926 52.6571 24.0987C52.2853 23.1664 51.2976 20.7802 51.12 20.1865C51.12 20.0366 51.3142 20.1199 51.3142 20.1199C51.3142 20.1199 51.797 21.3296 52.1522 22.2619C52.4962 23.1942 52.8236 24.0155 52.9068 24.0987C52.9734 24.1819 53.4951 25.0976 53.7281 26.5959C53.9612 28.0942 54.0444 29.4759 54.1832 30.3971C54.2498 30.8355 54.3053 31.3017 54.444 31.7678C54.5938 32.2728 54.8269 32.7944 55.1321 33.5935C55.3929 34.265 55.5871 34.8254 55.6926 35.3082C55.8146 35.9242 55.8146 36.3903 55.8868 36.6956C55.9534 36.9564 56.0533 37.478 56.2863 38.2327C56.5194 38.9874 56.8635 39.9585 57.0965 40.5634C57.5516 41.7731 57.7569 42.7831 57.8235 43.3214C57.8845 43.8763 58.0898 45.7964 58.0343 46.3735Z" fill="#A88F33"/>
<path d="M46.825 9.49855L46.7972 9.56514C46.7972 9.56514 46.8805 9.59289 46.8638 9.70388C46.8638 9.75937 46.8638 9.97579 46.8361 10.1589C46.8083 10.3531 46.7528 10.503 46.7417 10.6251C46.7417 10.8859 46.7806 11.1855 46.4143 11.9291C46.3033 12.1345 46.2368 12.312 46.1813 12.4341C46.0425 12.7338 46.0148 12.7782 45.8927 12.9169C46.0869 12.8059 46.7861 12.3675 47.1413 12.4341C46.8971 12.5729 46.5253 12.8448 46.2922 13.1999C46.3477 13.211 46.5808 13.2554 46.9526 13.1999C47.5686 13.1056 48.2567 12.8836 48.8616 12.928C49.5219 12.9669 49.2611 12.1345 49.2611 12.1345L48.4953 10.4586L47.0525 9.44306L46.825 9.49855Z" fill="#BE9C44"/>
<path d="M50.5873 22.051C50.5873 22.051 49.9436 21.4073 49.6828 19.1987C49.4219 16.979 49.4774 13.7104 49.4774 13.7104L48.9558 12.4341C48.9558 12.4341 48.8448 11.5851 48.5729 11.2688C48.301 10.9524 47.7627 10.4197 47.5186 10.1589C47.2744 9.89809 46.9969 9.54294 46.8304 9.48744C46.9137 9.34871 47.2855 8.56627 48.7116 8.55517C50.1378 8.54407 50.5762 9.33761 50.726 9.62617C50.8759 9.91474 51.5473 11.1633 51.797 13.5384C52.0301 15.9135 52.0412 16.0911 52.0024 16.9124C51.9746 17.3674 51.8248 18.4218 51.564 19.5483C51.3253 20.5027 51.0645 21.5682 50.5873 22.051Z" fill="#A17C34"/>
<path d="M48.5675 23.9433C48.5675 23.9433 48.8672 23.9821 49.1835 23.8046C49.3888 23.7935 50.1324 23.8878 50.704 23.1609C50.7428 23.3273 50.8427 23.7768 50.5819 24.1764C50.7206 24.0376 50.9259 23.9821 50.9537 23.9433C50.9648 24.1486 51.159 24.7812 50.3377 26.3184C50.5597 26.0742 50.8205 26.0853 51.0536 26.0576C51.0647 26.3461 51.22 27.3173 50.8094 27.8389C50.5375 28.194 50.0935 28.0831 50.0935 28.0831C50.0935 28.0831 50.1046 27.961 50.0935 27.85C50.0825 27.7002 50.027 27.5503 50.0658 27.4504C50.0103 27.4227 49.7772 27.3284 49.4887 27.0509C49.0059 26.5959 48.3788 25.819 48.3344 25.2418C48.279 24.5981 48.8561 24.4594 48.8561 24.4594C48.8561 24.4594 48.7895 24.4039 48.734 24.3096C48.7062 24.2152 48.6785 24.0654 48.5675 23.9433Z" fill="#8C6228"/>
<path d="M44.2889 16.9623C44.2889 16.9623 44.2612 16.9235 44.1113 17.1011C44.1391 16.9235 44.1668 16.757 44.1779 16.5961C44.2334 16.474 44.3278 16.3242 44.4498 16.1854C44.3666 16.3519 44.3111 16.5017 44.3111 16.5017C44.3111 16.5017 44.5164 16.1188 44.8161 15.8858C45.0214 15.7193 45.2822 15.6416 45.3932 15.4862C45.5153 15.3197 45.4875 15.292 45.5153 15.2642C45.5153 15.2642 45.7872 15.0867 46.2034 14.565C46.2589 14.4984 46.3421 14.4263 46.3976 14.3597C46.492 14.3209 46.7139 14.221 46.9748 14.0878C47.2467 13.938 47.5519 13.7326 47.7406 13.6494C48.1124 13.4829 48.5064 13.4996 48.6895 13.2388C48.8282 13.1999 48.978 12.7837 48.9503 12.4286C49.1556 12.5118 50.21 13.1666 50.5707 14.5983C50.8315 15.6139 50.3654 17.1787 50.1711 17.9334C49.9769 18.6881 49.9492 19.2486 49.6772 19.5927C49.3332 20.0477 48.2233 20.6914 47.9514 21.0077C47.7184 21.2686 47.0191 21.9289 47.0469 22.4062C47.0746 22.7613 47.513 22.9555 47.6074 23.0221C47.7017 23.0887 47.7017 23.172 47.8793 23.1331C48.0569 23.0943 48.1235 23.011 48.1956 23.011C48.2788 23.0221 48.2788 23.0388 48.3177 23.0388C48.3565 23.0388 48.4009 23.0277 48.4009 23.0277C48.4009 23.0277 48.3732 23.5327 47.1912 23.688C47.1079 23.6991 47.0247 23.7269 46.9193 23.7435C47.058 23.6769 47.1412 23.6769 47.2911 23.4716C47.1246 23.4439 46.6473 23.4161 46.5253 23.3773C46.5641 23.3107 46.6917 23.1331 46.7972 23.0499C46.8915 22.9666 46.7861 22.9389 46.7028 22.9833C46.664 23.011 46.4809 23.1331 46.2922 23.2996C46.1535 23.4217 46.0314 23.5882 45.8094 23.738C45.7428 23.516 45.7539 23.0943 46.0147 22.7891C45.9481 22.8002 45.8205 22.9944 45.6984 22.9555C45.6873 22.8723 45.6707 22.6004 45.7373 22.3507C45.8039 22.101 46.1646 21.6626 46.1646 21.6626L47.907 18.5494L48.2788 16.191L44.2889 16.9623Z" fill="#92723A"/>
<path d="M44.1945 17.0955C44.1945 17.0955 44.1002 17.1621 44.2889 17.2897C44.2611 17.3286 44.1945 17.4673 44.1113 17.5616C44.017 17.6726 43.9171 17.7392 43.8782 17.8336C43.795 18.0278 43.7284 18.161 43.7284 18.2442C43.7284 18.3274 43.7006 18.8602 43.4676 19.2042C43.3843 19.3263 43.29 19.5316 43.2234 19.6704C43.0847 19.9145 42.9626 20.1088 42.9348 20.2198C42.8794 20.414 42.8405 20.9467 42.8405 20.9467C42.8405 20.9467 42.9626 20.7969 43.007 20.7414C42.9404 20.8801 42.8683 21.0299 42.7628 21.1409C42.8294 21.0854 43.0236 20.9467 43.351 20.6581C43.8061 20.2752 44.5164 19.6315 45.3821 19.121C45.1213 19.2153 44.8993 19.2153 44.7217 19.2431C44.8604 19.1043 46.109 17.6393 46.7638 17.5006C46.8304 17.4174 46.8193 17.323 46.8193 17.323L46.2589 17.2675L45.1213 17.5117L44.9548 16.6349L44.1945 17.0955Z" fill="#B18E3E"/>
<path d="M46.0035 22.0898C46.0035 22.0898 45.8537 22.2397 45.715 22.6115C45.6761 22.5726 45.5485 22.4339 45.443 22.2397C45.2377 21.8956 44.9214 21.4572 44.1834 21.7069C44.1723 21.4739 44.1556 21.3518 44.1834 21.1853C44.3054 21.1576 44.6772 20.8579 45.049 20.4195C45.3099 20.1199 45.554 19.7758 45.7205 19.3374C45.8315 19.2542 46.0202 19.1154 46.2699 18.9545C46.625 18.7103 47.0523 18.3774 47.1189 18.0056C46.9524 18.0722 46.5973 18.2387 46.0646 18.2109C46.2699 18.1166 46.5862 18.0167 46.5473 17.606C46.6306 17.5505 46.6972 17.5117 46.6972 17.5117C46.6972 17.5117 46.6306 17.484 46.5029 17.484C46.4918 17.4451 46.4752 17.3896 46.3809 17.4174C46.2865 17.4451 46.2699 17.4451 46.2588 17.484C46.2199 17.495 46.0923 17.484 45.998 17.5505C45.9036 17.6171 45.6428 17.8391 45.5429 17.8779C45.5818 17.8114 45.6373 17.7115 45.6373 17.7115C45.6373 17.7115 45.3654 17.7392 45.1711 17.8225C44.816 17.9445 44.4053 18.1665 43.9891 18.3829C44.028 18.3163 44.0446 18.2719 44.0724 18.2608C44.1001 18.2498 44.1667 18.2331 44.1667 18.222C44.1667 18.2109 44.139 18.111 44.1556 18.0722C44.1667 18.0333 44.3998 17.5783 44.594 17.3175C44.7882 17.0567 44.8271 16.6849 44.8271 16.6849L45.6761 16.2576L48.0623 15.7082L49.6105 15.8025L49.4163 16.8735L48.5007 18.7436L47.7182 20.4473L46.8248 21.4905L46.0035 22.0898Z" fill="#543E26"/>
<path d="M49.8714 17.4562C49.8714 17.4562 48.9391 18.6105 48.6783 18.788C48.8448 18.4329 49.8714 16.3186 50.2432 15.7304C50.1599 15.6638 50.049 15.6638 50.3098 14.6316C50.0878 15.1533 50.0101 15.4252 49.827 15.5639C49.6494 15.7026 49.6217 15.6583 49.4996 15.6583C49.5384 15.5917 49.5273 15.5195 49.5273 15.5195C49.5273 15.5195 48.7449 15.4252 48.2121 15.4252C47.6794 15.4252 46.6195 15.7137 46.0313 15.9468C45.5651 16.141 45.3043 16.141 45.1378 16.2631C44.9714 16.4019 44.877 16.5517 44.7938 16.5905C44.7272 16.6294 44.4109 16.7293 44.3388 16.8347C44.2722 16.9457 44.1612 17.0678 44.1612 17.0955C44.1612 17.1233 44.1334 17.1621 44.2167 17.1344C44.2444 17.1233 44.4497 17.0123 44.6828 16.8735C44.9991 16.696 45.382 16.4906 45.6595 16.3686C46.453 16.0523 46.7027 16.1077 47.0579 16.0412C47.4297 15.9746 47.9624 15.8192 48.3176 15.8192C48.6727 15.8081 49.3442 15.8192 49.4996 15.8469C49.433 15.9024 49.3775 15.969 49.4052 16.2021C49.4052 16.2687 49.3497 16.3408 49.2943 16.5017C49.1278 16.9568 48.8115 17.7115 48.6339 18.0944C48.3897 18.616 48.1123 19.0544 47.9735 19.3263C47.8348 19.5982 47.5351 20.3141 47.2355 20.697C46.9358 21.0799 46.7804 21.313 46.6861 21.3962C46.5918 21.4794 45.9203 21.9733 45.9702 22.1509C46.0923 22.1121 46.8637 21.8235 47.4241 21.1909C47.9846 20.5583 48.0956 20.1754 48.534 19.8313C48.9724 19.4873 49.3164 18.9101 49.5218 18.4329C49.6938 17.9889 49.655 17.8502 49.8714 17.4562Z" fill="#806031"/>
<path d="M29.7776 26.0687C29.7776 26.0687 29.6555 26.5736 29.3781 26.8234C29.1061 27.0675 28.6233 27.2784 28.5679 27.6891C28.5013 28.0997 29.0506 28.305 29.0506 28.305C29.0506 28.305 28.751 28.7989 28.751 29.1707C28.751 29.5536 28.7399 29.6257 28.7787 29.992C28.7121 30.0308 28.6677 30.103 28.6677 30.103C28.6677 30.103 28.6955 30.4581 28.9674 30.6801C29.2393 30.9021 29.4724 31.0353 29.6111 30.9798C29.6389 31.0353 29.6666 31.1185 29.6666 31.1185C29.6666 31.1185 29.8719 30.5969 30.0107 30.1418C30.1494 29.6757 30.2715 29.7423 30.327 29.1152C30.3825 28.4826 30.9874 27.4116 30.9874 27.4116L31.398 26.4904L30.7265 25.9688L29.7776 26.0687Z" fill="#B6903C"/>
<path d="M31.0261 26.9732C31.0261 26.9732 30.8208 27.1786 30.6432 27.4283C30.4656 27.6724 30.3269 27.8944 30.0661 27.9887C29.8053 28.0831 29.6388 28.0831 29.6554 28.3439C29.6721 28.6047 29.9163 28.7157 30.055 28.8489C30.2048 28.9876 30.3269 29.2207 30.2603 29.4815C30.3436 29.4426 30.4934 29.3983 30.6321 29.0986C30.7709 28.7989 31.742 26.9732 31.742 26.9732H31.0261Z" fill="#685026"/>
<path d="M34.8496 22.7613C34.8496 22.7613 34.9329 22.5393 34.8496 22.3784C34.7664 22.2119 34.2614 22.1564 34.0117 21.9678C33.7509 21.7735 33.4346 21.6404 33.1737 21.7236C33.2126 21.6293 33.368 21.4239 33.2403 21.3795C33.1183 21.3407 32.6632 21.546 32.5411 21.6404C32.419 21.7347 32.1416 21.8457 32.0861 21.9123C32.0306 21.9789 31.9363 22.1065 31.8808 22.051C31.8253 22.0122 31.7975 21.9123 31.7032 21.9678C31.6088 22.0233 31.1538 22.3951 31.0706 22.6115C30.9873 22.8279 30.7987 23.3107 30.2326 23.8601C29.6721 24.4094 29.4224 24.7646 29.5889 24.9699C29.7554 25.1752 29.8331 25.0254 29.8608 25.203C29.8719 25.2862 29.8886 25.5026 29.8331 25.7246C29.7665 26.0132 29.6555 26.2851 29.8053 26.3406C30.1882 26.4627 30.56 26.2296 30.6433 26.3017C30.8097 26.4516 30.5489 26.9899 30.9429 27.0953C31.3425 27.2063 31.7365 27.001 31.7365 27.001L33.1904 26.2185L34.5888 25.4805L35.3047 24.0654L34.9218 22.8834L34.8496 22.7613Z" fill="#D4B968"/>
<path d="M33.4788 26.1408C33.4788 26.1408 33.2346 25.769 33.5343 25.4416C33.8339 25.1142 34.2612 24.9755 34.4277 24.7701C34.3722 24.7036 34.3056 24.6869 34.3056 24.6869C34.3056 24.6869 34.4555 24.3872 34.7884 24.2319C34.7052 24.1486 34.5942 24.082 34.4721 24.082C34.2002 24.082 34.0337 24.2485 33.784 24.2485C33.5398 24.2485 33.5121 24.1264 33.5121 24.1264C33.5121 24.1264 33.9227 24.0876 33.8839 23.9045C33.845 23.7102 33.7729 23.7102 33.7729 23.7102C33.7729 23.7102 34.5664 23.3828 34.7052 23.2053C34.8439 23.0277 34.8273 22.8224 34.855 22.7391C34.9493 22.7391 35.4987 22.4506 35.7207 22.5726C35.9427 22.6947 35.7873 23.0277 35.7873 23.0277C35.7873 23.0277 36.4587 22.5227 36.8028 22.0288C37.1024 22.0566 37.2412 21.8235 37.4631 21.8235C37.7351 21.8235 38.1624 22.1953 38.2456 22.9888C38.3011 23.4439 38.3843 23.7047 38.3011 24.5093C38.2622 24.9644 38.2733 25.9355 38.4121 26.4183C38.5064 26.8012 38.7284 26.7623 38.7284 26.7623C38.7284 26.7623 38.6895 26.9288 38.5342 27.062C38.3843 27.2007 38.3677 27.567 38.3843 27.7057C38.4121 27.8444 38.4676 28.0054 38.4676 28.0054C38.4676 28.0054 38.29 28.2107 38.2456 28.3494C38.2067 28.4882 38.0236 28.5825 37.8904 28.5825C37.7517 28.5825 37.8239 28.5714 37.6463 28.5825C37.4687 28.5936 37.4132 28.6213 37.3022 28.5825C37.1912 28.5437 37.108 28.4993 37.1524 28.1441C37.1912 27.789 35.7817 26.9621 35.7817 26.9621L33.4788 26.1408Z" fill="#CCA849"/>
<path d="M30.8318 29.648C30.8318 29.648 31.3368 30.3194 33.4122 30.3194C34.4 30.3194 34.744 30.2251 34.9493 30.1696C35.1713 30.1141 36.0037 29.7867 36.8416 28.7989C37.5963 27.9055 37.4299 27.5392 37.4299 27.5392L36.9915 27.4726L35.5653 27.6669L31.3423 29.4648L30.8318 29.648Z" fill="#585136"/>
<path d="M32.3801 29.8144C32.3801 29.8144 30.5822 30.214 30.5822 29.0764C30.5822 27.9665 31.692 26.8012 31.9695 26.5959C32.258 26.3905 32.9462 26.1575 32.9462 26.1575H34.6054L34.9217 26.9954L34.783 28.8045L32.3801 29.8144Z" fill="#252211"/>
<path d="M34.0393 26.496C34.0393 26.496 33.6952 26.1797 32.9128 26.607C32.1303 27.0343 31.4977 27.9221 31.4589 28.7323C31.42 29.4482 32.0471 29.9809 33.0237 30.0086C33.7507 30.0364 34.1891 29.9532 34.4111 29.8977C34.3556 29.8311 34.067 29.4704 34.067 29.4704L34.0393 26.496Z" fill="#C3B378"/>
<path d="M33.7008 26.6736C33.7008 26.6736 33.6176 26.607 33.3734 26.7401C33.1681 26.8511 32.8684 27.1397 32.6354 27.345C32.4855 27.4671 32.3912 27.5226 32.308 27.6169C31.9639 28.0276 31.6753 28.699 31.8418 29.032C32.0083 29.3594 32.5577 29.7479 33.9561 29.487L33.7008 26.6736Z" fill="#E6D89C"/>
<path d="M33.2457 27.3617C33.2457 27.3617 33.0238 27.7057 33.0238 28.2551C33.0238 28.8156 33.3401 29.709 34.5054 29.7756C35.3989 29.8311 35.9982 28.4882 36.6474 27.9665C37.1413 27.567 37.441 27.5559 37.441 27.5559C37.441 27.5559 36.936 27.0065 35.5875 26.2962C34.2557 25.5803 32.763 25.486 31.9528 26.5848C32.3357 26.557 33.5731 26.2407 33.5731 26.2407L34.178 26.4349L33.2457 27.3617Z" fill="#252211"/>
<path d="M34.9884 28.0886C34.9495 28.0054 34.9218 27.8944 35.0827 27.8666C35.2492 27.8389 35.3158 27.8555 35.3713 27.9776C35.4268 28.0997 35.4822 28.1996 35.399 28.2495C35.3158 28.2939 35.0993 28.2495 34.9884 28.0886ZM34.7275 27.3062C34.7275 27.3062 34.672 27.345 34.6998 27.2673C34.7109 27.173 34.783 27.0065 34.9606 27.0453C35.1382 27.0842 35.0993 27.2784 35.0716 27.3339C35.0438 27.3894 34.894 27.4837 34.783 27.4449C34.672 27.406 34.7275 27.3062 34.7275 27.3062Z" fill="#6F674D"/>
<path d="M19.7056 27.6613C19.7056 27.6613 20.144 27.9887 20.6545 27.9776C21.1595 27.9665 21.8087 27.4449 22.1084 27.1119C22.286 26.9177 22.4358 26.7124 22.6023 26.5515C22.741 26.4127 22.8354 26.3462 22.9019 26.2518C22.9963 26.1408 23.0962 25.9355 23.1461 25.8689C23.024 25.9633 22.8465 26.1297 22.6633 26.2407C22.4858 26.3517 22.1029 26.557 21.9475 26.6125C21.7976 26.668 20.2438 27.4893 20.2438 27.4893L19.7056 27.6613Z" fill="#AC924C"/>
<path d="M20.377 23.5604C20.377 23.5604 20.6211 23.3939 21.0928 23.2885C21.5479 23.1775 22.4635 23.0943 22.4635 23.0943L23.2182 23.4217L23.5179 24.5593L22.9685 25.7413L22.2693 26.1797L21.4757 24.9033L20.377 23.5604Z" fill="#9F8E57"/>
<path d="M19.3894 24.5759L19.1285 24.7701C19.1285 24.7701 19.1951 24.6481 19.2506 24.2763C19.3061 23.9045 19.5947 22.9999 20.0164 22.4783C20.4382 21.9567 20.4271 21.9844 20.4271 21.9844C20.4271 21.9844 20.305 21.9567 20.2051 22.0399C20.2606 21.9178 20.6158 21.4794 20.9709 21.2575C21.3261 21.0355 21.4648 20.9689 21.8366 21.1465C22.2084 21.3241 22.3027 21.4184 22.5747 21.4073C22.8466 21.3962 23.0796 21.1076 23.0796 21.1076C23.0796 21.1076 23.1351 21.2852 22.9298 21.6959C22.7245 22.1065 21.9143 22.9444 21.9143 22.9444L20.2273 24.0987L19.3894 24.5759Z" fill="#EAC970"/>
<path d="M20.6378 23.4217C20.6378 23.4217 21.8587 23.5882 22.2305 23.2441C22.2416 23.2829 22.286 23.2829 22.286 23.3107C22.286 23.3384 22.2582 23.3662 22.2582 23.3662C22.2582 23.3662 22.3248 23.3551 22.3803 23.3551C22.4358 23.3662 22.4746 23.3828 22.5301 23.3828C22.5856 23.3828 22.6522 23.3717 22.6522 23.3717C22.6522 23.3717 22.6411 23.4661 22.569 23.5105C22.6245 23.5105 22.68 23.5216 22.68 23.566C22.68 23.6104 22.6911 23.7435 22.6245 23.7713C22.5412 23.799 22.458 23.7602 22.458 23.7602C22.458 23.7602 22.458 23.91 22.5412 24.0598C22.6522 24.2652 22.8853 24.4982 23.2016 24.4316C23.2016 24.4316 23.3681 24.8312 22.6689 25.7191C22.5745 25.8412 22.4746 26.0076 22.3526 26.1464C22.2582 26.3683 22.2416 26.4738 22.2416 26.4738C22.2416 26.4738 23.4236 26.0187 23.7621 24.981C24.1061 23.9378 24.1727 22.9111 24.1061 21.9511C24.095 21.6792 24.0506 21.485 23.984 21.3462C23.8176 21.0022 23.3514 21.0577 23.1627 21.2519C22.8908 21.5238 22.4358 22.2008 21.8032 22.667C21.1595 23.1331 21.1317 23.2164 20.6378 23.4217Z" fill="#D7BC6B"/>
<path d="M19.1729 24.92C19.1729 24.92 18.9398 25.0587 18.8177 25.5803C18.6956 26.1131 18.9287 26.7623 19.0619 26.9677C19.2006 27.173 19.5003 27.7335 20.1329 27.7612C20.2716 27.7612 20.4326 27.7335 20.5879 27.6669C20.8099 27.5725 21.0263 27.4227 21.2039 27.284C21.4758 27.0787 21.6978 26.9011 21.6701 26.8844C21.6035 26.8567 19.9942 25.5249 19.9942 25.5249L19.3893 24.8478L19.1729 24.92Z" fill="#585136"/>
<path d="M20.6934 27.1286C20.6934 27.1286 21.0208 27.1009 21.215 26.9788C21.4092 26.8567 20.0774 25.536 20.0774 25.536L20.1717 26.9621L20.6934 27.1286Z" fill="#453A25"/>
<path d="M19.2783 24.8201C19.2783 24.8201 19.1118 25.1364 19.1118 25.2196C19.0841 25.4916 19.1673 26.3461 19.2339 26.6181C19.3005 26.9066 19.6612 27.345 20.1273 27.345C20.4159 27.345 20.8154 27.1674 20.8154 27.123C20.8154 27.0676 20.4048 27.0121 20.2938 26.8067C20.2272 26.6957 20.1995 26.4238 20.1828 26.1464C20.1717 25.9688 20.1717 25.7746 20.2383 25.708C20.3881 25.5415 20.4159 25.0643 20.4159 25.0643L20.9486 24.0765H20.2494L19.4115 24.5981L19.2783 24.8201Z" fill="#84754B"/>
<path d="M19.073 25.1253C19.073 25.1253 19.6224 24.3983 20.1163 24.2319C20.6101 24.0654 20.8321 24.1653 20.8321 24.1653L20.5436 24.9033L20.1329 25.3584L20.1607 25.5914C20.1607 25.5914 20.0941 26.2074 20.5047 26.6347C20.9154 27.062 21.2206 27.0454 21.3981 27.0454C21.5757 27.0454 22.0862 26.8955 22.3471 26.2795C22.5801 25.7024 22.7744 24.9644 22.3082 24.2208C21.8532 23.4827 21.0485 23.455 20.8932 23.455C20.7378 23.4605 19.5169 23.516 19.073 25.1253Z" fill="#252211"/>
<path d="M33.1625 27.5947C32.9572 27.5004 33.1514 26.9233 33.3567 26.7457C33.562 26.5681 33.8228 26.3628 34.2779 26.335C34.4444 26.3239 34.6053 26.4294 34.5776 26.5404C34.5387 26.7457 34.2501 27.0343 33.9893 27.2396C33.6286 27.5226 33.3955 27.7002 33.1625 27.5947Z" fill="#F7F7E7"/>
<path d="M22.0639 24.4483C22.2137 24.4372 22.408 24.5593 22.4468 24.7202C22.4857 24.8978 22.3525 25.2529 22.0639 25.2529C21.8308 25.2529 21.7087 24.9644 21.7087 24.8811C21.7087 24.7979 21.7476 24.7147 21.7642 24.6869C21.7753 24.6703 21.8031 24.476 22.0639 24.4483Z" fill="#F8F6DE"/>
<path d="M19.8999 24.5759C19.8999 24.5759 19.517 24.7535 19.3394 25.1253C19.1618 25.4971 19.2007 25.8634 19.2284 26.0021C19.2562 26.1408 19.3949 26.4849 19.4892 26.607C19.5836 26.729 19.7112 26.8123 19.8055 26.8012C19.8999 26.7901 20.0941 26.5404 20.0941 26.3905C20.0941 26.2407 20.1052 25.6081 20.2883 25.264C20.4492 24.92 19.8999 24.5759 19.8999 24.5759Z" fill="#D4C38B"/>
<path d="M19.9553 24.5482C19.8888 24.587 19.7778 24.6425 19.8055 24.7147C19.8333 24.7813 20.0663 24.8257 20.1496 24.9866C20.2439 25.1531 20.2439 25.3306 20.2162 25.4139C20.2439 25.4028 20.3272 25.3584 20.4104 25.2751C20.5325 25.1364 20.6823 24.9477 20.8099 24.9477C20.8932 24.9477 20.9764 24.9866 21.0541 24.9866C21.1762 24.9866 21.2983 24.9477 21.3149 24.8201C21.3427 24.6536 21.0819 24.5038 20.932 24.5315C20.9598 24.4206 20.9986 24.2596 20.8765 24.1486C20.7544 24.0377 20.3715 24.2319 20.2883 24.2874C20.1995 24.3429 19.9553 24.5482 19.9553 24.5482Z" fill="#E2D59D"/>
<path d="M28.773 36.2072L29.5943 35.963L29.8274 36.1295C29.8274 36.1295 29.9939 36.4847 30.2547 36.5291C30.1715 36.7066 29.955 36.8565 29.9661 36.9841C29.9772 37.1117 30.0882 37.2061 30.0882 37.2061C30.0882 37.2061 29.3502 38.4269 30.8041 39.6588C30.46 39.7976 30.0216 39.9862 29.7886 40.0972C29.955 40.1361 30.3102 40.2082 30.46 40.3414C30.6099 40.4801 30.6099 40.519 30.7486 40.6022C30.8873 40.6855 30.9706 40.7964 30.9428 40.8464C30.8485 40.7909 30.5322 40.6244 30.4767 40.7798C30.4212 40.9296 29.106 40.8741 29.106 40.8741L26.8863 41.3014C26.8863 41.3014 26.9695 41.0795 26.7364 40.8741C26.4645 40.63 26.1316 40.8852 25.7764 40.6133C25.3103 40.2582 25.2936 39.8475 25.1438 39.6921C25.2936 39.5978 25.5988 39.4591 26.3258 39.3647C26.2981 39.3092 26.2037 39.1428 26.2592 38.9929C26.3258 38.7987 26.6033 38.6766 26.52 38.4436C26.6421 38.4158 26.6976 38.4158 27.0028 38.0329C27.2914 37.65 27.469 37.5668 27.6909 37.539C27.9129 37.5113 28.0461 37.539 28.4567 37.1561C28.7453 36.8842 28.651 36.6511 28.651 36.6511C28.651 36.6511 28.8396 36.5901 28.773 36.2072Z" fill="#CBAC5A"/>
<path d="M26.348 36.3293C26.3591 36.2738 26.4035 36.2461 26.7032 36.2738C27.0028 36.3015 28.9007 36.0962 29.4168 36.0685C29.9384 36.0296 31.7752 36.0574 32.6687 36.2461C33.5621 36.4347 34.4666 36.6567 34.905 36.7677C35.3434 36.8898 35.4821 36.9342 35.4655 36.9897C35.4544 37.0451 35.3545 37.1006 35.299 37.084C35.2435 37.0729 33.7896 36.629 33.3401 36.5346C32.8906 36.4403 31.3368 36.1906 30.4878 36.2072C29.6942 36.2183 29.3779 36.1961 28.7065 36.2738C28.035 36.357 26.9252 36.468 26.5922 36.4236C26.2648 36.3848 26.3314 36.3848 26.348 36.3293Z" fill="#D6BC6F"/>
<path d="M30.8152 40.6799C30.8152 40.6799 31.9528 41.2959 32.3635 42.0506C32.6631 42.6111 32.1859 42.8885 32.1859 42.8885C32.1859 42.8885 32.8296 42.8885 32.7464 43.2437C32.7075 43.4656 31.6365 44.065 30.9207 44.3813C30.1937 44.6976 30.2215 44.6809 29.8663 44.7364C29.5223 44.7919 28.5789 44.6254 28.3847 44.9029C28.1904 45.1748 28.2737 45.4634 28.3292 45.5078C28.3847 45.5466 28.8341 45.6021 28.8341 45.6021C28.8341 45.6021 28.7398 45.8629 27.8075 45.8907C26.8752 45.9184 26.6422 45.985 26.5867 46.0849C26.5312 46.1792 26.7643 46.1237 27.1916 46.1959C27.6189 46.2625 28.2182 46.3069 28.2182 46.3069C28.2182 46.3069 28.0239 46.4734 27.519 46.6065C26.9418 46.7564 26.0373 46.8951 25.7654 47.0616C25.9041 47.1559 26.1095 47.2946 26.2038 47.3057C25.9707 47.3612 25.6433 47.4833 25.5878 47.5277C25.6711 47.5832 25.782 47.6498 25.782 47.6498C25.782 47.6498 25.3159 48.2103 25.044 48.349C24.7721 48.4877 23.2072 49.2147 22.6689 49.076C21.326 48.7208 21.1595 47.2503 20.8321 47.1393C20.3382 46.9728 20.1051 47.3057 19.6667 47.0727C19.861 46.9339 19.9664 46.8507 20.1717 46.7564C19.9498 46.6454 18.8011 45.9184 18.8011 45.9184C18.8011 45.9184 18.6623 45.6021 18.4015 45.1526C18.1795 44.7697 17.8521 44.2592 17.608 43.8097C17.0752 42.8219 17.0475 42.3669 16.5647 41.8064C16.6479 41.6954 16.9365 41.7121 16.9365 41.7121L20.9819 43.0439L28.1571 43.2492L30.0217 40.5856L30.8152 40.6799Z" fill="#DFC677"/>
<path d="M20.1884 44.742C20.1884 44.742 20.2438 44.8086 20.3382 44.8641C20.4769 44.9584 20.6822 45.0694 20.821 45.2359C20.8765 45.1526 21.0152 45.0028 21.2594 45.2359C21.5035 45.4689 21.8087 45.3025 21.9974 45.358C22.1916 45.4245 22.2027 45.4523 22.2027 45.4523C22.2027 45.4523 22.3137 45.358 22.5579 45.2581C22.7077 45.2026 22.8853 45.1637 23.0795 45.1082C23.2571 45.0694 23.4513 45.0139 23.5845 45.0139C23.7066 45.0971 24.145 45.5633 25.9041 44.8752C27.5633 44.2315 27.9462 44.1593 28.2237 44.2592C28.2514 44.1926 28.2792 44.065 28.7064 44.0816C28.7064 43.904 28.3513 43.2992 28.3513 43.2992L26.3924 42.6277H25.3214L22.1084 43.2159L20.3271 44.2315L20.1884 44.742Z" fill="#C4A859"/>
<path d="M19.1173 43.6155C19.1173 43.6155 19.1562 43.9151 19.6001 44.2314C20.0385 44.5478 20.1772 44.7364 20.1772 44.7364C20.1772 44.7364 20.2605 44.6254 20.3271 44.5145C20.3936 44.3924 20.4491 44.2536 20.5601 44.2148C20.7821 44.1205 21.2871 44.298 21.3981 44.2703C21.4924 44.2425 21.4647 44.0483 21.5645 44.0483C21.7976 44.0372 21.9474 44.1982 22.0307 44.1982C22.1139 44.1982 22.3192 44.1871 22.347 44.1427C22.3747 44.0983 22.3858 43.6377 22.7021 43.4157C23.0462 43.1715 23.4679 43.277 23.5789 43.3325C23.5789 43.4157 23.59 43.621 23.812 43.6321C24.034 43.6432 24.0562 43.6044 24.2504 43.671C24.4446 43.7376 24.6777 43.6599 24.7831 43.9873C24.8775 43.9595 25.0994 43.9318 25.0439 43.6155C25.1549 43.5322 25.2493 43.4767 25.4823 43.1493C25.5378 43.0661 25.6322 42.9718 25.7043 42.8497C25.8985 42.8497 26.1316 42.8108 26.4424 43.0828C26.348 43.1493 26.2925 43.1937 26.2648 43.2603C26.2925 43.2881 26.4035 43.3991 26.4868 43.5211C26.57 43.6321 26.6255 43.7653 26.7309 43.7931C26.964 43.8597 27.3469 43.7653 27.7742 43.7931C28.1848 43.8208 28.5289 43.9706 28.6787 44.065C28.7342 44.0372 28.7342 44.0261 28.873 44.0539C29.0117 44.0816 29.1171 44.0927 28.9673 43.9151C29.0505 43.954 29.1449 44.0372 29.2281 43.954C29.3113 43.8707 29.3779 43.7487 29.611 43.7209C29.8441 43.6932 29.9273 43.732 30.0217 43.4878C30.1437 43.1882 29.722 43.1882 29.722 43.1882C29.722 43.1882 29.9162 43.0106 30.1326 42.7775C30.3935 42.5334 30.6931 42.2171 30.7653 41.8286C30.8873 41.1128 30.1881 41.0184 30.1881 41.0184L26.7975 42.0617L22.6522 41.8564L19.1173 43.6155Z" fill="#927D49"/>
<path d="M16.0708 33.821C16.0708 33.821 15.9598 33.9597 15.8932 34.2871C15.8266 34.6146 15.8544 34.5757 15.7989 34.8088C15.7434 35.0418 15.0608 37.3614 15.3161 38.1439C15.5714 38.9263 16.0153 39.2149 16.2928 39.8475C16.3483 39.9862 16.4037 40.0695 16.4315 40.1916C16.5258 40.6022 16.4426 40.9185 16.5536 41.3292C16.5924 41.4679 16.6923 41.6288 16.8421 41.7953C17.1695 42.1394 17.7078 42.4668 17.9409 42.6998C18.2683 43.0439 18.7344 43.7431 19.3282 43.8097C19.6445 43.8485 20.094 43.7154 20.4658 43.4934C20.7932 43.2881 20.9985 42.9995 21.3426 42.833C21.5868 42.7109 21.8476 42.6665 22.0806 42.6111C22.5634 42.5167 23.0018 42.5001 23.2626 42.5556C23.6622 42.6388 24.6056 42.9274 25.1272 42.9274C25.3325 42.9274 25.8153 42.8996 26.3369 42.7609C27.1305 42.5278 28.0905 42.1283 28.7231 41.9507C29.0949 41.8397 29.3946 41.812 29.6998 41.7454C30.2214 41.6233 30.6598 41.4568 30.9095 41.1405C30.7431 40.9463 30.5377 40.6466 29.4279 40.6577C28.1682 40.6855 26.7143 41.3847 25.9984 41.4956C25.2826 41.6066 24.9718 41.701 24.1727 41.4124C23.3903 41.1238 23.3625 40.9296 23.3625 40.9296C23.3625 40.9296 22.5412 40.3525 22.1972 38.8875C21.8531 37.4169 22.1972 36.3515 23.0906 35.336C23.3237 35.0751 23.2682 34.8421 23.2682 34.8421C23.2682 34.8421 23.8564 34.0485 23.6955 33.3049C23.5179 32.5669 22.3803 32.7167 22.3803 32.7167L16.0708 33.821Z" fill="#6E6342"/>
<path d="M17.0197 36.2904C17.0197 36.2904 16.9365 36.4403 16.9531 36.5901C16.9642 36.7399 17.0086 36.9342 17.4581 37.3726C17.841 37.7555 17.7578 38.1828 17.7578 38.1828C17.7578 38.1828 17.952 38.2216 18.4736 37.9774C18.8843 37.7832 19.023 38.1273 19.023 38.1273C19.023 38.1273 19.1895 38.0329 19.4059 38.0052C19.6279 37.9774 19.75 37.8942 19.75 37.8942C19.75 37.8942 20.2328 38.3881 20.6545 38.6212C21.0374 38.8265 21.2594 38.9652 21.448 38.8265C21.6256 38.7044 21.6256 38.4547 21.6145 38.3437C21.6145 38.3437 21.559 38.205 21.448 38.0551C21.326 37.8776 21.1317 37.6722 21.1206 37.5057C21.0929 37.1228 21.4092 36.6678 21.3426 36.5568C21.276 36.4458 21.0263 36.4181 20.4103 36.6401C19.7722 36.8509 17.0197 36.2904 17.0197 36.2904Z" fill="#39331F"/>
<path d="M18.4736 38.771C18.4736 38.771 18.1573 38.4713 18.2682 37.0174C18.4347 37.0063 18.6678 37.0562 18.6678 37.0562C18.6678 37.0562 18.8398 38.1827 18.4736 38.771Z" fill="#292311"/>
<path d="M16.2207 32.7112C16.2207 32.7112 16.2762 32.6723 16.3428 32.6002C16.2318 32.8055 15.7268 33.6268 16.1375 34.9198C16.5481 36.2072 17.5803 37.1673 18.8511 37.2116C20.1218 37.256 20.7878 36.6345 21.5536 35.7022C21.8532 35.3304 22.1973 34.8643 22.5025 34.548C22.9575 34.0541 23.3127 33.9154 23.3127 33.4381C23.3127 32.4614 22.3138 32.0231 20.8432 31.5847C19.3727 31.1463 18.0464 31.2018 17.3583 31.5014C16.6868 31.8288 16.3983 32.1729 16.2207 32.7112Z" fill="#252211"/>
<path d="M20.9431 39.2094L21.0541 39.1539C21.0541 39.1539 21.0818 38.7155 21.2594 38.7266C21.437 38.7543 21.5202 38.9874 21.5036 39.0706C21.4925 39.1539 21.4481 39.2926 21.2705 39.2759C21.0375 39.2815 20.9431 39.2094 20.9431 39.2094Z" fill="#3F3824"/>
<path d="M20.4492 37.3448C20.4492 37.3448 20.5602 37.306 20.6934 37.4391C20.8044 37.4391 21.2816 37.3837 21.4314 37.478C21.5813 37.5723 21.6257 37.6556 21.6257 37.6556C21.6257 37.6556 21.0652 37.7776 20.76 37.6556C20.4492 37.5501 20.4492 37.3448 20.4492 37.3448Z" fill="#2D2815"/>
<path d="M22.9186 37.428C22.9186 37.4003 22.619 37.195 22.3026 37.1284C22.2472 37.1173 22.2361 37.1561 22.1917 37.1561C22.1639 37.145 22.1528 37.0618 22.1528 37.0618L21.9752 37.1561C21.9752 37.1561 21.9475 37.195 22.0418 37.2671C22.1251 37.3337 22.2638 37.3892 22.3026 37.5002C22.3415 37.6112 22.3415 37.65 22.3581 37.6666C22.3692 37.6777 22.5635 37.6666 22.6578 37.6112C22.7521 37.5501 22.9297 37.4669 22.9186 37.428Z" fill="#82764F"/>
<path d="M20.1163 38.5545C20.1163 38.5545 20.1718 38.1716 20.5436 38.155C20.9265 38.1272 20.9987 38.499 20.9987 38.499L20.7767 38.721C20.7767 38.7154 20.6102 38.4824 20.1163 38.5545Z" fill="#2D2816"/>
<path d="M22.5301 36.9064C22.5301 36.9064 22.3248 37.1284 21.8698 37.195C21.8309 37.1395 21.7477 37.0285 21.8698 36.8509C21.9918 36.6733 22.1306 36.6178 22.2693 36.6733C22.408 36.7011 22.5024 36.7954 22.5301 36.9064Z" fill="#574F35"/>
<path d="M23.3679 37.1783C23.379 37.1228 23.3402 37.1117 23.3679 37.084C23.3956 37.0562 23.5455 37.0007 23.5732 37.0285C23.5843 37.0396 23.5732 37.084 23.5732 37.1395C23.5732 37.195 23.5732 37.2505 23.5455 37.2893C23.5066 37.3448 23.3956 37.3726 23.3402 37.3559C23.2847 37.3448 23.2736 37.2616 23.2736 37.2449C23.3013 37.2338 23.3679 37.2061 23.3679 37.1783ZM24.3168 36.579C24.3168 36.5513 24.4112 36.4958 24.4667 36.4958C24.5499 36.4958 24.5499 36.5624 24.561 36.579C24.5888 36.5901 24.5888 36.5679 24.6165 36.6178C24.6443 36.6733 24.6831 36.7566 24.6554 36.8121C24.6276 36.8676 24.5166 36.9064 24.4889 36.8953C24.45 36.8676 24.3279 36.6178 24.3168 36.579Z" fill="#82764F"/>
<path d="M22.4081 37.306C22.4081 37.306 22.5302 37.3337 22.6966 37.4724C22.6411 37.5113 22.5579 37.5557 22.5579 37.5557C22.5579 37.5557 22.5468 37.4281 22.4081 37.306Z" fill="#6E6342"/>
<path d="M22.1362 36.0851C22.1085 36.0574 22.2194 35.9908 22.286 36.0019C22.3526 36.013 22.3804 36.0574 22.4525 36.0685C22.5246 36.0795 22.5357 36.0407 22.5635 36.013C22.5912 35.9852 22.6856 36.0019 22.7022 36.013C22.7133 36.0241 22.73 36.0518 22.73 36.0518C22.73 36.0518 22.73 35.9852 22.7855 35.9408C22.841 35.902 22.8964 35.902 22.9353 35.9131C22.9464 35.9519 23.0019 36.0906 22.9908 36.1184C22.9797 36.1461 22.8132 36.185 22.7855 36.1572C22.8132 36.2238 22.9353 36.3626 22.9519 36.3903C22.963 36.4181 22.8299 36.4846 22.7744 36.4735C22.6967 36.468 22.2194 36.1905 22.1362 36.0851ZM22.8631 35.1639C22.8631 35.1639 22.8521 35.1251 22.8077 35.0973C22.7688 35.0862 22.6412 35.0973 22.6412 35.1639C22.6412 35.2305 22.7522 35.6023 22.8742 35.7965C23.013 35.9908 23.1073 36.1517 23.2017 36.1961C23.296 36.2349 23.3515 36.1683 23.3681 36.1406C23.3792 36.1128 23.407 35.9075 23.3959 35.4247C23.3848 34.942 23.3681 34.4758 23.3404 34.4481C23.3126 34.4203 23.2017 34.4203 23.1628 34.4758C23.124 34.5313 22.8742 35.0807 22.8631 35.1639Z" fill="#585136"/>
<path d="M22.3692 38.0052C22.3692 38.0052 22.175 37.8831 21.9863 37.9663C21.8087 38.0496 21.8198 38.377 21.8198 38.377C21.8198 38.377 21.9419 38.4325 22.064 38.3492C22.1861 38.266 22.3415 38.1272 22.3692 38.0052Z" fill="#574F35"/>
<path d="M22.7355 38.4436C22.7244 38.3326 22.6245 38.3326 22.6245 38.2771C22.6356 38.2216 22.6911 38.1827 22.7466 38.1827C22.8021 38.1827 22.8576 38.2493 22.9242 38.2937C22.9908 38.3326 23.0907 38.4047 23.1018 38.488C23.1128 38.5712 22.9908 38.8043 22.8576 38.8043C22.7244 38.7987 22.7632 38.5545 22.7355 38.4436ZM23.8065 38.2937C23.8065 38.2937 23.5845 38.3603 23.6012 38.2937C23.6123 38.2271 23.6678 38.2105 23.7399 38.2105C23.7677 38.1827 23.8232 38.1439 23.8786 38.1439C23.9341 38.1439 23.9619 38.1716 23.9619 38.1716C23.9619 38.1716 24.1117 38.1051 24.1561 38.1439C24.195 38.1827 24.1672 38.1827 24.195 38.2271C24.2227 38.266 24.2615 38.3492 24.2615 38.3936C24.2615 38.438 24.0951 38.5323 23.9619 38.5157C23.8065 38.4824 23.8343 38.3215 23.8065 38.2937ZM25.0995 38.044C25.0995 38.044 25.1661 38.0829 25.1106 38.1273C25.0717 38.1661 24.8775 38.2382 24.711 38.2493C24.5446 38.2493 24.3947 38.2771 24.3947 38.2216C24.3947 38.1661 24.5335 38.0551 24.6167 38.0274C24.6444 37.9885 24.6999 37.9608 24.7554 37.9608C24.822 37.9608 25.0828 37.933 25.155 37.9219C25.2216 37.9108 25.2771 37.9497 25.2382 38.0052C25.2216 38.044 25.0995 38.044 25.0995 38.044ZM25.4824 36.3293C25.4824 36.3293 25.3992 36.5069 25.3048 36.5069C25.2105 36.4958 25.2105 36.468 25.2105 36.4403C25.2105 36.4014 25.3048 36.3015 25.2937 36.2738C25.266 36.2738 25.1994 36.2738 25.2105 36.2072C25.2105 36.1517 25.3048 36.0851 25.3881 36.0962C25.4158 36.0685 25.5101 36.013 25.61 36.013C25.7044 36.013 25.7876 36.0407 25.7876 36.0962C25.7876 36.1517 25.6766 36.2738 25.6378 36.3015C25.5934 36.3459 25.5379 36.3737 25.4824 36.3293ZM24.2172 39.6089C24.2172 39.6089 24.1062 39.62 24.1062 39.6755C24.1062 39.7032 24.1339 39.7032 24.1728 39.6866C24.2005 39.6866 24.2394 39.6755 24.2394 39.6755C24.2505 39.6866 24.2504 39.7421 24.3337 39.7421C24.3725 39.7421 24.4558 39.7143 24.5279 39.6755C24.5945 39.6478 24.65 39.62 24.65 39.5645C24.6223 39.4702 24.5668 39.4258 24.4835 39.4258C24.4003 39.4258 24.3614 39.4535 24.3614 39.4535C24.3614 39.4535 24.3337 39.398 24.2394 39.4535C24.145 39.509 24.1561 39.509 24.1839 39.5368C24.2338 39.5812 24.2172 39.6089 24.2172 39.6089ZM23.5901 40.186C23.5901 40.1583 23.7288 40.1028 23.7677 40.1194C23.8065 40.1305 23.9175 40.3414 23.9175 40.3636C23.9175 40.3914 23.7788 40.4579 23.7233 40.4579C23.6678 40.4579 23.5734 40.3636 23.5734 40.347C23.5734 40.3359 23.64 40.3192 23.64 40.3081C23.6567 40.2804 23.5901 40.2138 23.5901 40.186ZM23.1517 39.3758C23.1794 39.3647 23.1794 39.337 23.2183 39.3092C23.2571 39.2815 23.3015 39.2981 23.3015 39.2981C23.3015 39.2981 23.3293 39.2427 23.3959 39.2316C23.4625 39.2205 23.5179 39.2316 23.5068 39.2593C23.5068 39.3425 23.5623 39.398 23.5623 39.4646C23.5623 39.5312 23.5235 39.6145 23.3848 39.6699C23.246 39.7088 23.0574 39.7088 23.0296 39.6977C23.0019 39.6866 22.9741 39.5756 23.0019 39.5201C23.0241 39.4591 23.1073 39.4036 23.1517 39.3758Z" fill="#82764F"/>
<path d="M23.3293 39.4147C23.3293 39.4147 23.235 39.4702 23.235 39.4979C23.2239 39.5257 23.2239 39.5645 23.2239 39.5811C23.2239 39.5978 23.346 39.57 23.3626 39.5534C23.3682 39.5423 23.3293 39.4424 23.3293 39.4147Z" fill="#6E6342"/>
<path d="M22.5023 39.1539C22.5578 39.165 22.6521 39.1539 22.7243 39.1816C22.7798 39.2094 22.8186 39.2648 22.7631 39.3314C22.7076 39.398 22.6521 39.4979 22.5301 39.4813C22.3913 39.4702 22.2582 39.398 22.2582 39.3425C22.2471 39.2759 22.2859 39.1927 22.3247 39.1483C22.3802 39.1039 22.408 39.1317 22.5023 39.1539Z" fill="#585136"/>
<path d="M22.4359 39.2094C22.4359 39.2094 22.2583 39.3481 22.2139 39.4147C22.1584 39.4813 21.8865 39.8253 21.8032 39.8975C21.831 39.842 21.8976 39.7587 21.8976 39.7587C21.8976 39.7587 21.7311 39.8531 21.6645 40.0584C21.5979 40.2637 22.0363 40.3747 22.3249 40.458C22.6134 40.5412 22.7244 40.569 22.7244 40.569C22.7244 40.569 22.5579 40.3248 22.4525 40.064C22.3415 39.8031 22.286 39.7754 22.3582 39.6533C22.4137 39.5312 22.4969 39.448 22.4969 39.3536C22.4636 39.2648 22.4359 39.2094 22.4359 39.2094Z" fill="#574F35"/>
<path d="M16.1096 39.6478C16.1096 39.6478 16.1485 39.6589 16.2317 39.6478C16.3149 39.6367 17.1806 39.3203 18.0852 39.3758C18.4847 39.4036 19.195 39.4591 20.0884 39.7033C21.226 40.0029 22.6411 40.5967 23.5567 40.9352C23.8009 41.0295 24.0395 41.196 24.2171 41.2626C24.9163 41.5345 24.944 41.5345 25.3547 41.6067C25.8375 41.6733 26.3314 41.5123 26.8474 41.4013C27.4801 41.2626 28.5622 41.196 29.5111 41.0573C30.005 40.9907 30.4156 40.852 30.4156 40.852C30.4156 40.852 29.6609 41.6067 27.8519 41.8786C26.9473 42.0173 26.2037 41.9729 25.6433 41.9063C25.0661 41.8508 24.6832 41.7676 24.3947 41.6844C24.0673 41.59 23.3958 41.3403 22.569 41.135C21.9918 40.9851 21.3481 40.8742 20.6101 40.7354C18.7899 40.4025 16.8144 40.0196 16.1096 39.6478Z" fill="#252211"/>
<path d="M15.1663 32.2839C14.9721 32.1063 14.7667 31.9287 14.5781 31.7511C14.3838 31.5736 14.1952 31.396 14.0009 31.2184L13.4238 30.669C13.3295 30.5747 13.2296 30.4915 13.1352 30.3971C13.0409 30.3139 12.9299 30.2195 12.8356 30.1363C12.0698 29.4093 11.2984 28.6824 10.5437 27.9554C11.3262 28.6713 12.092 29.3816 12.8744 30.1086L13.1463 30.3805C13.2407 30.4748 13.3406 30.558 13.4349 30.6524L14.012 31.1851C14.2063 31.3627 14.3949 31.5403 14.5892 31.7345C14.7834 31.9287 14.9721 32.1063 15.1663 32.2839ZM5 32.1729C5 32.1729 7.78574 32.4615 9.14531 32.6557C10.405 32.8333 14.345 33.4381 14.345 33.4381L5 32.1729ZM5 32.1729C5.78245 32.2395 6.5649 32.3227 7.34735 32.406C7.74689 32.4448 8.12979 32.4892 8.51269 32.528L9.10092 32.5946C9.29514 32.6224 9.48382 32.6501 9.67804 32.6779L12.0087 33.0497L13.1741 33.2439C13.557 33.3105 13.9399 33.3826 14.3394 33.4492C13.9565 33.4104 13.557 33.3549 13.1741 33.2994L12.0087 33.1329L9.67804 32.7889C9.48382 32.7611 9.29514 32.7223 9.10092 32.6945L8.51269 32.6279C8.12979 32.5891 7.73025 32.5336 7.34735 32.4892C6.5649 32.3949 5.78245 32.295 5 32.1729ZM14.0675 34.1651C14.0675 34.1651 11.0931 34.9198 10.0887 35.2084C9.10092 35.4803 6.10986 36.3904 6.10986 36.3904" fill="#CFB66C"/>
<path d="M14.0675 34.1651C13.4072 34.3593 12.7524 34.548 12.0809 34.7256L10.0943 35.2583C9.4339 35.4525 8.77908 35.6412 8.11872 35.8354L7.13095 36.1073C6.80354 36.2017 6.47059 36.2849 6.13208 36.3792C6.45949 36.2683 6.79244 36.1573 7.11985 36.0629L8.10762 35.7466C8.76798 35.5413 9.4228 35.3471 10.0832 35.1418C10.7546 34.9753 11.415 34.7977 12.0865 34.6368C12.7246 34.4758 13.3961 34.3149 14.0675 34.1651ZM6.52608 38.2216C6.85349 38.0995 10.627 36.3404 11.5038 35.9297C11.9422 35.7244 13.2185 35.2694 13.2185 35.2694" fill="#CFB66C"/>
<path d="M6.52612 38.2216C6.81469 38.1106 7.0866 37.9774 7.36406 37.8498L8.18536 37.4669L9.83349 36.6733C10.3829 36.4125 10.9156 36.124 11.4816 35.8798C11.7702 35.7577 12.0587 35.6578 12.3473 35.5635L12.7857 35.4248C12.9355 35.3859 13.0743 35.3415 13.2241 35.3027C12.6747 35.5635 12.0976 35.7855 11.5482 36.0407C10.9988 36.3126 10.4384 36.5346 9.87234 36.7788L8.19645 37.5168C7.63598 37.7444 7.0866 37.9885 6.52612 38.2216ZM6.89238 39.7587C6.89238 39.7587 10.3107 37.7555 11.4872 37.1117C12.1031 36.7677 14.0953 35.7799 14.0953 35.7799" fill="#CFB66C"/>
<path d="M6.89221 39.7588C7.46934 39.4036 8.05756 39.0429 8.64578 38.6766L9.52257 38.1439C9.82223 37.9663 10.1108 37.7999 10.416 37.6223C10.7157 37.4447 11.0042 37.2671 11.3094 37.1006C11.4593 37.0063 11.6091 36.9342 11.7645 36.8676L12.2306 36.6345C12.8466 36.3348 13.4625 36.0296 14.1118 35.7688C13.5236 36.1406 12.9187 36.4569 12.3138 36.7843C12.0142 36.9508 11.709 37.1006 11.4093 37.2671C11.1097 37.4336 10.8211 37.6112 10.5159 37.7721C10.2162 37.9497 9.92766 38.1162 9.62245 38.2771L8.71792 38.771C8.10195 39.1039 7.49708 39.4313 6.89221 39.7588ZM14.0674 36.2183C14.0674 36.2183 11.942 37.8498 11.2539 38.3714C10.5658 38.8931 8.54035 40.3581 8.54035 40.3581" fill="#CFB66C"/>
<path d="M14.0675 36.2183C13.6291 36.5901 13.163 36.9453 12.708 37.2893L11.3373 38.3437C10.8711 38.6877 10.4161 39.0429 9.94997 39.3869C9.48383 39.731 9.01769 40.0584 8.5238 40.3747C8.9622 40.0029 9.42834 39.6588 9.89448 39.3203C10.3606 38.9818 10.8434 38.6489 11.2929 38.3048L12.6636 37.2505C13.1353 36.9064 13.5903 36.5513 14.0675 36.2183ZM11.6425 40.1028C11.6425 40.1028 12.1364 39.6921 12.7524 39.115C13.5182 38.3992 14.456 37.4835 14.7556 37.3171" fill="#CFB66C"/>
<path d="M11.6426 40.1028C11.8867 39.8586 12.1476 39.62 12.4084 39.387L12.8079 39.0429C12.93 38.9319 13.0687 38.8098 13.1908 38.6877C13.435 38.4436 13.6736 38.1828 13.9178 37.933C14.0399 37.811 14.1619 37.6889 14.3007 37.5779C14.3673 37.5224 14.4394 37.4669 14.5226 37.4281C14.5892 37.3892 14.6614 37.3171 14.7557 37.306C14.7002 37.3892 14.6336 37.4281 14.5781 37.5002C14.5116 37.5557 14.4561 37.6223 14.4006 37.6778C14.2785 37.7999 14.1397 37.9108 14.0177 38.0218C13.7568 38.2438 13.4849 38.4602 13.2241 38.6933C12.9633 38.9264 12.7191 39.1761 12.4583 39.4092C12.1753 39.6478 11.9145 39.8808 11.6426 40.1028ZM14.961 37.8831C14.961 37.8831 13.152 39.6533 12.7802 39.9419L14.961 37.8831Z" fill="#CFB66C"/>
<path d="M14.9609 37.8831C14.7944 38.0773 14.6168 38.2549 14.4393 38.4158L13.8899 38.9374C13.7123 39.115 13.5458 39.2926 13.3572 39.4702C13.1629 39.6366 12.9854 39.7976 12.78 39.953L13.3128 39.4313C13.4903 39.2537 13.6846 39.1039 13.8732 38.9263L14.406 38.4047C14.5891 38.2216 14.7667 38.044 14.9609 37.8831ZM15.0441 38.8431C15.0441 38.8431 14.8388 39.448 14.4559 40.2027C13.9898 41.135 13.2906 42.3003 12.9854 42.8941" fill="#CFB66C"/>
<path d="M15.0442 38.8431C15.0442 39.0484 14.9887 39.226 14.9221 39.4036C14.8555 39.5812 14.7834 39.7587 14.7001 39.9252C14.6169 40.0917 14.5226 40.2693 14.4282 40.4302C14.3339 40.5967 14.2229 40.7576 14.1397 40.9241L13.5792 41.9119C13.385 42.2393 13.1963 42.5722 12.991 42.8885C13.1297 42.5334 13.3184 42.2004 13.496 41.873C13.6902 41.5456 13.8678 41.2126 14.0453 40.8741C14.1286 40.7077 14.2118 40.5301 14.2784 40.3525C14.3616 40.1749 14.4449 40.0085 14.5115 39.8475C14.5947 39.6699 14.6613 39.5035 14.7445 39.3425C14.8389 39.1705 14.9166 39.004 15.0442 38.8431Z" fill="#CFB66C"/>
<path d="M17.0197 43.3935C17.0197 43.3935 16.4703 44.1205 16.5258 45.0416C16.6756 44.5589 16.8643 43.8208 17.0197 43.3935ZM17.5413 44.1205C17.5413 44.1205 17.3471 46.096 17.1862 47.0671C17.4137 45.9462 17.4581 46.0405 17.5413 44.1205ZM21.1761 47.1836C21.1761 47.1836 20.3548 49.5976 20.3381 50.269C20.5157 49.5809 20.8598 48.1714 21.1761 47.1836Z" fill="#DEC270"/>
<path d="M23.0962 43.2437C23.0962 43.2437 24.428 45.4412 25.4269 47.3169C25.155 46.3735 24.5334 44.6421 23.0962 43.2437Z" fill="#CBAF59"/>
<path d="M26.6754 46.4789C26.6754 46.4789 27.7187 48.2769 28.651 50.4688C28.54 49.5254 28.2403 47.9106 26.6754 46.4789Z" fill="#E3C677"/>
<path d="M37.197 49.7197C37.419 49.5809 37.8574 48.8262 38.2403 48.6376C38.6232 48.4433 38.9117 48.4045 39.2558 48.0216C39.5998 47.6221 39.6942 47.3779 40.4489 47.0616C41.5033 46.6065 40.7763 46.0183 40.7763 46.0183C40.7763 46.0183 40.9539 45.8407 41.1481 45.702C41.42 45.4967 41.7363 45.247 41.7086 44.8086C41.6697 44.0705 41.531 42.9995 40.9261 42.378C41.5144 42.2559 42.6409 42.1727 43.3401 41.9951C44.1503 41.7898 44.5221 41.5012 44.5221 41.5012C44.5221 41.5012 44.0559 40.7077 44.8106 39.9086C45.5653 39.115 46.1813 38.6322 46.6363 37.7388C46.1147 37.6722 45.3212 37.3948 43.2901 38.1661C43.44 38.2327 43.6064 38.3437 43.6064 38.3437C43.6064 38.3437 42.3578 38.6877 41.9028 39.0706C41.1093 39.7421 41.0094 40.2915 40.1492 40.7021C39.2835 41.1128 38.4234 41.0018 37.7075 41.3347C36.9917 41.6621 36.8862 41.9507 36.6254 42.0728C36.6809 42.1394 36.6143 42.2504 36.7198 42.3447C36.6532 42.439 36.2647 43.0717 35.8707 43.0717C35.9096 43.2215 36.2425 43.3325 36.2425 43.3325C36.2425 43.3325 35.9984 43.51 35.3768 43.5544C35.6932 43.8818 35.9928 44.2426 36.8197 44.7642C36.7531 44.9029 36.4756 45.1082 36.5866 45.3691C36.7087 45.6299 37.025 45.985 38.2902 46.2736C37.6465 46.3013 36.8918 46.4512 35.8763 46.3124C34.8608 46.1903 34.6943 46.1182 34.0672 46.2736C34.1338 46.3402 34.3114 46.3402 34.4668 46.5178C34.3003 46.5288 33.257 46.3957 32.9019 46.8618C32.5301 47.3446 32.3691 48.1381 32.3969 48.6709C32.2026 48.7652 32.014 48.9317 32.1083 49.2757C32.2026 49.6198 32.6965 49.7308 33.0128 49.9472C33.3292 50.1803 33.3569 50.2635 33.6566 50.208C33.9729 50.1414 34.439 49.8251 34.7109 49.8251C34.9828 49.8251 35.1771 50.0304 35.1771 50.0304C35.1771 50.0304 35.9151 49.6753 35.9873 49.7419C36.0539 49.8085 35.9984 50.2358 36.0705 50.3024C36.1426 50.3523 36.975 49.8584 37.197 49.7197Z" fill="#ECD592"/>
</g>
<path opacity="0.8" d="M48.8027 23.873C45.5664 15.4914 37.5664 13.9387 37.5664 13.9387H14.7418L14.8298 22.476H19.3761V41.5395H14.7418V50.0613H36.9347C42.2836 50.0613 46.571 44.6709 46.571 44.6709C53.437 34.8977 48.8027 23.873 48.8027 23.873ZM37.0538 38.9275C37.0538 38.9275 35.314 41.4461 33.4189 41.4461H29.6286L29.5405 22.4968H34.4027C34.4027 22.4968 36.6551 22.9694 38.2292 27.4405C38.2292 27.4405 40.316 33.8435 37.0538 38.9275Z" fill="white"/>
<path fill-rule="evenodd" clip-rule="evenodd" d="M32 62.5C48.8447 62.5 62.5 48.8447 62.5 32C62.5 15.1553 48.8447 1.5 32 1.5C15.1553 1.5 1.5 15.1553 1.5 32C1.5 48.8447 15.1553 62.5 32 62.5ZM32 64C49.6731 64 64 49.6731 64 32C64 14.3269 49.6731 0 32 0C14.3269 0 0 14.3269 0 32C0 49.6731 14.3269 64 32 64Z" fill="#A67A2E"/>
</svg>
