<svg width="64" height="64" viewBox="0 0 64 64" fill="none" xmlns="http://www.w3.org/2000/svg">
<rect width="64" height="64" rx="32" fill="black"/>
<path fill-rule="evenodd" clip-rule="evenodd" d="M18 27.4763C18.0314 19.6784 24.3653 13.3647 32.1881 13.3333C39.3315 13.5183 45.2195 18.9729 45.9288 26.0579C46.7069 33.8259 41.0194 40.7512 33.2265 41.5254C33.2265 41.5254 31.422 41.6462 30.9925 41.7118C28.9067 42.031 27.2398 43.6106 26.8148 45.6719C26.8148 45.6719 26.2537 48.403 26.1983 48.6446C26.1953 48.6744 26.1953 48.7057 26.1983 48.7371C26.1953 48.755 26.1909 48.7713 26.1864 48.7877L26.1864 48.7878C25.929 49.7841 24.9085 50.3838 23.909 50.1257H23.8057C23.7952 50.1242 23.7833 50.1212 23.7728 50.1183C22.7718 49.8647 22.1672 48.8504 22.4216 47.8526C22.4216 47.6661 26.8702 27.1407 26.8702 27.1407C27.0946 26.0937 28.1286 25.4269 29.179 25.6507C30.2294 25.8744 30.8983 26.9051 30.6738 27.9521L28.8034 36.3377L28.4952 38.0142C28.4593 38.0605 28.4593 38.1261 28.4952 38.1723L28.4967 38.1738C28.549 38.2245 28.6313 38.2245 28.6822 38.1723C29.0398 38.0813 29.4019 38.0097 29.7671 37.9575C30.7576 37.8367 32.7492 37.7159 32.7492 37.7159C38.0327 37.3952 42.1985 33.1129 42.3586 27.8403C42.5292 22.2081 38.0866 17.5052 32.4365 17.3352C26.7864 17.1652 22.0685 21.5936 21.8979 27.2257C21.8425 28.4518 22.0296 29.6764 22.4501 30.8309C22.7673 31.8451 22.2391 32.9295 21.244 33.3098C20.2146 33.6216 19.1178 33.0786 18.7482 32.0703C18.2529 30.5892 18 29.038 18 27.4763ZM30.2519 47.7705C30.5182 46.4967 31.7691 45.6779 33.0485 45.9434C34.3189 46.2327 35.1388 47.4603 34.9189 48.7401V48.8698C34.9174 48.8743 34.9163 48.8791 34.9151 48.884C34.914 48.8888 34.9129 48.8937 34.9114 48.8982C34.6121 50.1376 33.3597 50.9013 32.1148 50.6015H32.0489C32.0474 50.6 32.0459 50.6 32.0444 50.6C30.7726 50.3241 29.9676 49.0727 30.2444 47.8063C30.2474 47.7944 30.2489 47.7825 30.2519 47.7705Z" fill="white"/>
<path fill-rule="evenodd" clip-rule="evenodd" d="M30.2518 47.7705C30.5182 46.4967 31.7691 45.6779 33.0485 45.9434C34.3188 46.2327 35.1388 47.4603 34.9189 48.7401V48.8698C34.9174 48.8743 34.9162 48.8791 34.9151 48.884C34.914 48.8888 34.9129 48.8937 34.9114 48.8982C34.6121 50.1376 33.3597 50.9013 32.1148 50.6015H32.0489L32.0444 50.6C30.7726 50.3241 29.9675 49.0727 30.2444 47.8063C30.2474 47.7944 30.2489 47.7825 30.2518 47.7705Z" fill="#E6007A"/>
</svg>
