<svg width="64" height="64" viewBox="0 0 64 64" fill="none" xmlns="http://www.w3.org/2000/svg">
<rect width="64" height="64" rx="32" fill="#F1F1F1"/>
<path d="M17.3665 32.0253L32.0928 24.1222L46.6293 31.9679L32.1055 39.8778L17.3665 32.0253Z" fill="#009F42"/>
<path d="M17.3665 32.0253L32.0928 24.1222L46.6293 31.9679L32.1055 39.8778L17.3665 32.0253Z" fill="#01C853"/>
<path d="M32.0927 24.1222L46.6292 31.9679L32.1053 39.8778L32.0927 24.1222Z" fill="#009F42"/>
<path d="M32.0927 33.2373L46.6292 31.9679L32.1053 39.8778L32.0927 33.2373H32.0927Z" fill="#007831"/>
<path d="M32.0927 33.2373L17.3663 32.0253L32.0801 39.8778L32.0927 33.2373H32.0927Z" fill="#009F42"/>
<path d="M17.3649 34.1269C22.5233 36.8785 27.8984 39.7625 32.0599 41.9924L46.6349 34.1291C41.3577 42.0151 36.962 48.5746 32.0599 55.835C27.1517 48.5898 21.7282 40.5926 17.3649 34.1269Z" fill="#009F42"/>
<path d="M17.3649 34.1269C22.5233 36.8785 27.8984 39.7625 32.0599 41.9924L46.6349 34.1291C41.3577 42.0151 36.962 48.5746 32.0599 55.835C27.1517 48.5898 21.7282 40.5926 17.3649 34.1269Z" fill="#01C853"/>
<path d="M32.0601 41.9924L46.635 34.1291C41.3579 42.0151 32.0601 55.835 32.0601 55.835L32.0601 41.9924Z" fill="#009F42"/>
<path d="M32.0601 41.9924L46.635 34.1291C41.3579 42.0151 36.9622 48.5746 32.0601 55.835L32.0601 41.9924Z" fill="#009F42"/>
<path d="M32.0571 21.9244L17.3666 29.7038L31.9933 8.165L46.6293 29.7508L32.0571 21.9244Z" fill="#01C853"/>
<path d="M32.0571 21.9244L31.9933 8.165L46.6294 29.7508L32.0571 21.9244Z" fill="#009F42"/>
</svg>
