<svg width="64" height="64" viewBox="0 0 64 64" fill="none" xmlns="http://www.w3.org/2000/svg">
<rect width="64" height="64" rx="32" fill="#1D1D1D"/>
<path fill-rule="evenodd" clip-rule="evenodd" d="M32.4617 15.1061C32.0799 16.4317 30.2797 18.2373 27.9122 19.7538L27.8195 19.8465C27.7268 20.1302 28.2014 20.8884 28.7687 20.6048C31.4962 18.8046 33.6018 16.7154 33.9837 15.1989C34.2673 13.966 33.5091 13.3987 31.8999 13.3005C31.3926 13.2841 30.8849 13.3152 30.3834 13.3932H30.0015C31.8017 13.3005 32.8436 13.8678 32.4672 15.1007L32.4617 15.1061Z" fill="white"/>
<path fill-rule="evenodd" clip-rule="evenodd" d="M39.3837 16.9117C38.5327 20.1357 32.1776 25.1597 25.1624 28.1927C23.9644 28.7308 22.7259 29.174 21.4585 29.5183C21.3447 29.5472 21.2444 29.6147 21.1748 29.7092C20.8911 30.0911 20.9839 31.0348 21.6494 30.9421C22.8822 30.5784 24.2096 30.1038 25.6316 29.5183C33.0286 26.3926 39.8583 20.9866 40.7092 17.5882C40.8766 17.1355 40.8615 16.6354 40.6671 16.1937C40.4727 15.7519 40.1142 15.403 39.6673 15.2207C39.1927 15.0298 38.6254 14.7461 38.1508 14.5552C38.3912 14.6244 38.615 14.7418 38.8086 14.9003C39.0021 15.0587 39.1614 15.2549 39.2768 15.4769C39.3921 15.6989 39.4611 15.942 39.4794 16.1915C39.4978 16.441 39.4652 16.6916 39.3837 16.9281V16.9117Z" fill="white"/>
<path fill-rule="evenodd" clip-rule="evenodd" d="M48.1062 24.3087C48.1131 23.9521 48.0482 23.5978 47.9153 23.2668L47.7244 22.885L47.0588 21.8431C47.2637 22.1868 47.3624 22.5835 47.3425 22.9832C47.4947 23.4754 47.7536 23.928 48.1007 24.3087H48.1062Z" fill="white"/>
<path fill-rule="evenodd" clip-rule="evenodd" d="M48.8647 27.0526C47.9156 30.4675 42.0405 35.5897 34.9272 39.2882C34.8284 39.32 34.7379 39.3733 34.6622 39.4441C34.5864 39.515 34.5273 39.6017 34.489 39.6981C34.4507 39.7945 34.4341 39.8982 34.4406 40.0017C34.447 40.1052 34.4762 40.206 34.5262 40.2969C34.5762 40.3878 34.6456 40.4666 34.7295 40.5275C34.8135 40.5884 34.9099 40.6301 35.0118 40.6494C35.1137 40.6687 35.2186 40.6653 35.319 40.6393C35.4194 40.6134 35.5129 40.5655 35.5927 40.4992C42.6078 36.8007 48.3901 31.8694 49.2302 28.4546C49.3973 27.9987 49.4295 27.5044 49.323 27.0308C49.2302 26.5562 48.9411 25.8907 48.8484 25.3943C49.0478 25.9216 49.0478 26.5035 48.8484 27.0308L48.8647 27.0526Z" fill="white"/>
<path fill-rule="evenodd" clip-rule="evenodd" d="M42.8911 37.9572C42.7236 38.1072 42.5929 38.2939 42.5093 38.5027C42.4165 38.8845 42.7002 39.4519 43.2675 39.0482C46.7751 36.4898 49.3335 33.7405 49.8135 31.6512C49.8863 31.3718 49.9176 31.0832 49.9063 30.7947V30.2492L49.8244 29.1419C49.8372 29.5242 49.8061 29.9067 49.7317 30.282C49.1862 32.464 46.5078 35.306 42.9075 37.9626L42.8911 37.9572Z" fill="white"/>
<path fill-rule="evenodd" clip-rule="evenodd" d="M23.3624 20.6102C24.2098 20.2562 25.0318 19.8443 25.8226 19.3774C25.8571 19.3482 25.8848 19.3119 25.9038 19.2709C25.9228 19.2299 25.9326 19.1853 25.9326 19.1401C25.9326 19.0949 25.9228 19.0503 25.9038 19.0093C25.8848 18.9683 25.8571 18.932 25.8226 18.9028C25.7606 18.8158 25.6788 18.7447 25.584 18.6954C25.4891 18.6461 25.384 18.62 25.2771 18.6191C24.6334 19.0033 23.9687 19.3512 23.286 19.6611C21.104 20.6102 19.3966 20.703 19.0202 20.1356C18.9558 20.0388 18.914 19.9287 18.8979 19.8135C18.8819 19.6983 18.892 19.5809 18.9275 19.4701C19.0592 19.1274 19.2432 18.8072 19.473 18.521L20.7986 17.1954C22.0698 16.2908 23.4362 15.528 24.8735 14.9206C25.0941 14.7162 25.3514 14.5552 25.6317 14.4461C27.8137 13.7805 29.2375 13.9715 28.9484 14.9916C28.8379 15.4249 28.6072 15.8183 28.2828 16.1262C28.4778 16.2497 28.6967 16.3306 28.9252 16.3635C29.1537 16.3964 29.3865 16.3806 29.6084 16.3171C30.0077 15.922 30.3005 15.4322 30.4594 14.8934C30.8412 13.6605 29.3193 13.2569 27.0445 13.9442C26.8584 13.9948 26.6761 14.0586 26.499 14.1351L25.9535 14.326C25.782 14.416 25.5982 14.4803 25.408 14.517C25.2173 14.5934 25.0346 14.6884 24.8625 14.8006C24.6716 14.8934 24.5789 14.8934 24.388 14.9916C24.197 15.0897 24.1043 15.0843 23.9134 15.1825C23.7642 15.2914 23.6053 15.3863 23.4388 15.4661L23.0569 15.6571C22.9226 15.7016 22.7958 15.7659 22.6805 15.848C22.5342 15.9112 22.4052 16.0084 22.3041 16.1317C22.1606 16.2021 22.0312 16.2982 21.9223 16.4153C21.7314 16.5081 21.7314 16.6062 21.5404 16.699C21.397 16.7695 21.2676 16.8657 21.1586 16.9826C21.0152 17.0533 20.8858 17.1494 20.7767 17.2663C20.5858 17.4572 20.4931 17.4572 20.3021 17.6482C20.1112 17.8391 20.0185 17.8391 19.8276 18.03C19.3535 18.3355 18.9363 18.7213 18.5947 19.1701C18.3508 19.4088 18.1643 19.6998 18.0492 20.0211C18.0492 20.1138 17.9565 20.212 17.9565 20.3047V20.4957C17.933 20.7217 17.9648 20.9501 18.0492 21.1612C18.5947 21.9194 20.7767 21.7067 23.4551 20.6157L23.3624 20.6102Z" fill="white"/>
<path fill-rule="evenodd" clip-rule="evenodd" d="M15.8671 23.736V23.9269C15.8764 23.999 15.9089 24.066 15.9599 24.1178C16.5054 24.7833 17.8582 24.8761 18.8019 24.6633C22.1186 24.2869 22.2168 23.7142 22.2168 23.3378C22.2168 23.3378 22.2168 22.6722 21.8349 22.6722C19.1783 23.5232 17.2854 23.5232 16.7126 22.765C16.5724 22.4362 16.5399 22.0714 16.6199 21.7231C16.7277 21.4319 16.8534 21.1477 16.9963 20.8721C17.089 20.6812 17.28 20.4957 17.4709 20.2066L17.1872 20.4902C17.0559 20.6938 16.8961 20.8775 16.7126 21.0357C16.5751 21.2102 16.4476 21.3923 16.3308 21.5812C16.2381 21.7722 16.0471 22.0558 15.9489 22.2468C15.8508 22.4377 15.8562 22.5304 15.758 22.7213C15.7645 22.7725 15.7595 22.8245 15.7435 22.8736C15.7275 22.9226 15.7007 22.9675 15.6653 23.005C15.7161 23.2303 15.7798 23.4525 15.8562 23.6705L15.8671 23.736Z" fill="white"/>
<path fill-rule="evenodd" clip-rule="evenodd" d="M24.5953 26.3162C30.9449 23.6432 36.7327 19.0883 37.4855 16.1535C37.7691 15.1116 37.3927 14.3533 36.3454 14.0697C36.1274 13.9934 35.9052 13.9297 35.6799 13.8788C35.49 13.8206 35.2942 13.784 35.0962 13.7697C35.2929 13.8167 35.4769 13.9062 35.6354 14.032C35.7938 14.1578 35.9228 14.3167 36.0132 14.4976C36.1037 14.6785 36.1534 14.877 36.159 15.0792C36.1645 15.2814 36.1258 15.4824 36.0453 15.668C35.2871 18.3246 30.0721 22.4977 24.2898 24.9415C19.7403 26.8399 16.2327 27.1235 15.2835 25.8907C15.1549 25.698 15.0711 25.4789 15.038 25.2495C15.005 25.0202 15.0236 24.7864 15.0926 24.5651C15.1853 24.3742 15.1853 24.1833 15.2835 24.0196C15.0926 24.4942 14.8089 25.1597 14.618 25.6561C14.618 25.7489 14.5253 25.8471 14.5253 25.9398C14.5253 26.0325 14.4326 26.2235 14.4326 26.3217C14.3765 26.5199 14.3732 26.7294 14.423 26.9294C14.4727 27.1293 14.5738 27.3128 14.7162 27.4618C15.6818 28.7601 19.5657 28.4982 24.5953 26.3162Z" fill="white"/>
<path fill-rule="evenodd" clip-rule="evenodd" d="M13.6906 33.4077C13.6841 33.4589 13.6891 33.5109 13.7051 33.56C13.7212 33.609 13.7479 33.6539 13.7833 33.6914V33.8823C13.7833 33.9532 13.8761 33.9532 13.8761 34.0732L13.7833 33.9532C13.8761 34.046 13.8761 34.2369 13.9743 34.3296C15.2998 36.1352 20.3239 35.7807 26.7717 33.0259C35.0197 29.5183 42.5149 23.6432 43.5568 19.7702C43.7008 19.3637 43.7259 18.9246 43.6293 18.5043C43.5327 18.0841 43.3183 17.7001 43.0113 17.3972L42.2531 16.7317L41.7076 16.3553C41.9908 16.5361 42.2196 16.7905 42.3694 17.0912C42.5193 17.392 42.5847 17.7278 42.5586 18.0627C42.2749 24.036 19.1402 38.2463 13.9252 32.7586C13.6859 32.4257 13.5529 32.0283 13.5433 31.6185C13.5269 32.1258 13.558 32.6335 13.6361 33.135V33.2277C13.6896 33.2776 13.7227 33.3457 13.7288 33.4186L13.6906 33.4077Z" fill="white"/>
<path fill-rule="evenodd" clip-rule="evenodd" d="M28.2883 36.1352C37.0164 32.4367 44.9752 26.1798 46.1153 22.0995C46.2459 21.7396 46.2883 21.3536 46.239 20.9739C46.1896 20.5943 46.0499 20.232 45.8317 19.9175C45.4778 19.4831 45.097 19.0713 44.6916 18.6846C45.2371 19.2301 45.3571 20.0102 45.1662 20.9594C44.1243 24.9415 36.2527 31.1057 27.7101 34.706C20.9895 37.5808 15.8672 38.0554 14.4489 36.1352C14.2767 35.9552 14.1759 35.7186 14.1653 35.4697C14.2785 36.0273 14.4372 36.5746 14.6399 37.1062V37.3899C14.7326 37.4826 14.7326 37.5808 14.8308 37.6735C16.0636 39.5719 21.3768 39.0973 28.2938 36.157L28.2883 36.1352Z" fill="white"/>
<path fill-rule="evenodd" clip-rule="evenodd" d="M16.1561 40.8975C16.1561 40.8047 16.0633 40.8047 16.0633 40.7065C16.0581 40.744 16.0642 40.7821 16.0807 40.8161C16.0972 40.8501 16.1234 40.8784 16.1561 40.8975Z" fill="white"/>
<path fill-rule="evenodd" clip-rule="evenodd" d="M29.9956 39.4737C35.2106 37.199 40.2347 34.0678 43.6331 31.0348C43.7447 30.908 43.8211 30.754 43.8546 30.5884C43.8881 30.4228 43.8776 30.2513 43.8241 30.0911C43.7941 29.9981 43.7441 29.9129 43.6776 29.8415C43.611 29.77 43.5296 29.7141 43.439 29.6777C43.3484 29.6412 43.2509 29.6252 43.1534 29.6306C43.0559 29.6361 42.9608 29.6629 42.8749 29.7092C38.7888 33.2051 34.1891 36.0514 29.2373 38.1481C22.2222 40.9957 16.8163 41.4703 15.3979 39.4737C15.5642 39.7382 15.6927 40.0247 15.7798 40.3247C15.789 40.3968 15.8216 40.4638 15.8725 40.5156C15.8725 40.6084 15.9653 40.6084 15.9653 40.7065C15.9653 40.6138 15.8725 40.6138 15.8725 40.5156C15.8725 40.6084 15.9653 40.6084 15.9653 40.7065C17.2908 42.8886 22.7895 42.5067 29.9956 39.4737Z" fill="white"/>
<path fill-rule="evenodd" clip-rule="evenodd" d="M24.1209 44.6887C24.5028 44.596 24.4046 44.3068 24.3118 44.1432C24.1981 43.972 24.0429 43.8322 23.8608 43.7369C23.6787 43.6415 23.4755 43.5936 23.2699 43.5977C20.3297 44.0723 18.2458 43.7886 17.3894 42.7413V42.6049C17.5942 42.8069 17.777 43.03 17.9349 43.2704C18.1258 43.4613 18.3168 43.745 18.4804 43.9359C19.2387 44.8851 21.2079 45.1687 24.0773 44.6942L24.1209 44.6887Z" fill="white"/>
<path fill-rule="evenodd" clip-rule="evenodd" d="M32.3686 45.0706C32.507 45.0323 32.6248 44.9409 32.6963 44.8163C32.7678 44.6917 32.7872 44.5439 32.7504 44.405C32.6315 44.2223 32.4478 44.0915 32.2362 44.0389C32.0247 43.9862 31.801 44.0157 31.6103 44.1214C25.9208 46.3961 21.5622 46.7725 19.9475 45.447C20.4124 45.7679 20.8552 46.1196 21.2731 46.4998C22.9096 47.6344 27.0554 47.1653 32.3686 45.0815V45.0706Z" fill="white"/>
<path fill-rule="evenodd" clip-rule="evenodd" d="M23.1716 47.629C23.6955 47.8432 24.2024 48.0966 24.6881 48.3872C26.4883 49.1455 30.2795 48.5781 35.0254 46.587C42.226 43.5541 48.772 38.3172 49.623 35.0442C49.6166 34.993 49.6215 34.941 49.6376 34.892C49.6536 34.8429 49.6803 34.798 49.7158 34.7606C49.8085 34.3787 49.8085 33.8114 49.9067 33.3368V33.0313C48.9575 39.5773 29.5213 50.2856 23.1771 47.6344L23.1716 47.629Z" fill="white"/>
<path fill-rule="evenodd" clip-rule="evenodd" d="M35.8762 47.3453C31.894 49.0527 28.5773 49.62 26.7717 49.1455C27.2463 49.2382 28.0046 49.4291 28.4791 49.5219C33.3887 50.2801 45.9352 44.1159 48.5809 38.5245C48.7718 38.0499 48.9628 37.3899 49.1264 36.888C48.1881 39.9537 42.324 44.596 35.8762 47.3453Z" fill="white"/>
<path fill-rule="evenodd" clip-rule="evenodd" d="M44.5062 43.9305C42.2851 45.6873 39.8281 47.1233 37.2074 48.1963C34.5508 49.3364 32.2978 49.8328 30.7595 49.7128H32.6579C34.4274 49.4998 36.1545 49.0197 37.7801 48.289C40.0784 47.2864 42.244 46.0039 44.228 44.4705C44.5116 44.2796 44.6044 43.9959 44.7026 43.9959C44.7026 43.9032 44.7953 43.9032 44.7953 43.805V43.745C44.6044 43.8377 44.5116 43.8377 44.5116 43.9359L44.5062 43.9305Z" fill="white"/>
<path fill-rule="evenodd" clip-rule="evenodd" d="M13.691 29.8019V30.2765C13.6858 30.314 13.6918 30.3521 13.7084 30.3861C13.7249 30.4201 13.7511 30.4484 13.7837 30.4675V30.5602C13.7837 30.6802 13.8764 30.6802 13.8764 30.7511V30.8439C14.0544 31.0734 14.2819 31.2599 14.5419 31.3894C14.6368 31.3552 14.7168 31.2892 14.7685 31.2027C14.8202 31.1162 14.8404 31.0145 14.8256 30.9148C14.8796 30.5651 14.8478 30.2075 14.7329 29.8729C14.4548 29.7731 14.2197 29.5804 14.0674 29.3274C13.8622 28.9837 13.7634 28.587 13.7837 28.1873C13.8052 28.0274 13.8362 27.8689 13.8764 27.7127V27.9036L13.7837 28.5691L13.5928 29.5183C13.6855 29.5183 13.6855 29.7092 13.6855 29.8019H13.691Z" fill="white"/>
<path fill-rule="evenodd" clip-rule="evenodd" d="M49.4317 42.5121C49.2431 42.3728 49.0077 42.3125 48.7755 42.3441C48.5432 42.3757 48.3324 42.4967 48.1879 42.6812C46.5058 45.1252 44.311 47.1729 41.7564 48.6818C38.7549 50.4077 35.3561 51.3232 31.8938 51.3384H31.8229C28.7031 51.3429 25.6258 50.6153 22.8385 49.214C20.0511 47.8128 17.6315 45.777 15.7742 43.2704H15.6815C15.6815 43.2458 15.6717 43.2222 15.6543 43.2048C15.6369 43.1874 15.6133 43.1777 15.5887 43.1777L15.496 43.0849C15.4586 43.0901 15.4204 43.084 15.3864 43.0675C15.3525 43.051 15.3241 43.0248 15.3051 42.9922H14.7596C14.7221 42.987 14.684 42.9931 14.65 43.0096C14.616 43.0261 14.5877 43.0523 14.5686 43.0849H14.4486V43.1722C14.424 43.1722 14.4004 43.182 14.383 43.1994C14.3657 43.2168 14.3559 43.2403 14.3559 43.2649L14.2631 43.3577C14.2683 43.3951 14.2623 43.4332 14.2458 43.4672C14.2292 43.5012 14.203 43.5295 14.1704 43.5486V47.438C14.1704 47.6898 14.2704 47.9312 14.4484 48.1092C14.6264 48.2872 14.8678 48.3872 15.1196 48.3872C15.2463 48.3952 15.3733 48.3761 15.4921 48.3312C15.6108 48.2864 15.7187 48.2167 15.8085 48.1269C15.8983 48.0372 15.9679 47.9293 16.0128 47.8105C16.0577 47.6917 16.0768 47.5648 16.0688 47.438V46.3961C18.1151 48.5639 20.5847 50.2886 23.3246 51.4634C26.0645 52.6382 29.0163 53.238 31.9974 53.2258H32.0902C35.8595 53.2172 39.5581 52.2021 42.8038 50.2855C45.6358 48.7014 48.044 46.4578 49.8244 43.745C49.9253 43.5288 49.9421 43.2827 49.8716 43.0548C49.801 42.8269 49.648 42.6334 49.4426 42.5121H49.4317Z" fill="#407BA4"/>
<path fill-rule="evenodd" clip-rule="evenodd" d="M30.9449 10.6548V10.4639C30.95 10.4265 30.944 10.3883 30.9275 10.3544C30.911 10.3204 30.8847 10.292 30.8521 10.273C30.855 10.2325 30.8449 10.1922 30.8233 10.1579C30.8017 10.1236 30.7698 10.097 30.7321 10.082L30.6394 9.98931C30.6394 9.89658 30.5466 9.89658 30.4485 9.89658L30.3557 9.80384L27.0609 7.90549C26.957 7.84015 26.8403 7.79789 26.7186 7.78159C26.597 7.7653 26.4733 7.77533 26.3558 7.81103C26.2384 7.84672 26.13 7.90724 26.038 7.98848C25.946 8.06972 25.8726 8.16978 25.8226 8.28189C25.7584 8.38594 25.7172 8.50253 25.7018 8.62382C25.6864 8.74512 25.6971 8.86831 25.7333 8.9851C25.7695 9.1019 25.8302 9.20959 25.9115 9.30094C25.9928 9.3923 26.0927 9.46519 26.2045 9.51472L27.2464 10.0602C24.9851 10.5634 22.8118 11.4018 20.7985 12.5477C17.5816 14.4697 14.9066 17.1785 13.0251 20.4193C11.182 23.5269 10.147 27.0467 10.0145 30.6573C9.88208 34.2679 10.6564 37.8541 12.2669 41.0884C12.356 41.234 12.4811 41.3541 12.6301 41.4373C12.7792 41.5204 12.9472 41.5637 13.1179 41.563C13.2503 41.5768 13.3834 41.544 13.4943 41.4702C13.6079 41.4229 13.7098 41.3512 13.7927 41.2601C13.8756 41.169 13.9374 41.0609 13.9739 40.9432C14.0103 40.8256 14.0204 40.7014 14.0035 40.5794C13.9866 40.4575 13.9431 40.3407 13.8761 40.2374C11.6282 35.6875 11.1906 30.4541 12.6516 25.594C14.1127 20.734 17.3635 16.6094 21.7477 14.0533C24.2892 12.5561 27.1495 11.683 30.0939 11.5058C30.1451 11.5123 30.1971 11.5073 30.2461 11.4913C30.2952 11.4752 30.3401 11.4485 30.3775 11.4131C30.4703 11.3203 30.5685 11.3203 30.6612 11.2221L30.7321 11.1294L30.8521 11.0421V10.9385C30.847 10.9011 30.853 10.8629 30.8695 10.8289C30.886 10.795 30.9123 10.7666 30.9449 10.7476V10.6548Z" fill="#D37D41"/>
<path fill-rule="evenodd" clip-rule="evenodd" d="M54.647 37.9572C54.5257 37.7518 54.3322 37.5988 54.1043 37.5282C53.8764 37.4576 53.6303 37.4745 53.4141 37.5754L52.5522 38.0554C53.4938 35.1641 53.8114 32.106 53.4842 29.0828C53.157 26.0597 52.1923 23.1404 50.6539 20.5175C48.8708 17.5134 46.4072 14.97 43.4615 13.0921C40.5158 11.2142 37.1702 10.0542 33.6942 9.70566C33.5747 9.69515 33.4543 9.70939 33.3406 9.74749C33.2268 9.78559 33.1221 9.84674 33.0331 9.9271C32.944 10.0075 32.8725 10.1053 32.8229 10.2146C32.7734 10.3238 32.7469 10.4421 32.7451 10.5621C32.7346 10.6812 32.7487 10.8011 32.7864 10.9145C32.8242 11.0279 32.8849 11.1323 32.9646 11.2213C33.0444 11.3103 33.1416 11.3819 33.2502 11.4318C33.3589 11.4817 33.4766 11.5088 33.596 11.5113C36.7844 11.8031 39.8575 12.8491 42.5617 14.5631C45.2659 16.2771 47.5236 18.6097 49.1483 21.3685C50.7293 24.1507 51.6304 27.2671 51.7783 30.4637C51.9262 33.6603 51.3166 36.8466 49.9993 39.7628V40.4283C49.9934 40.4658 49.9991 40.5042 50.0157 40.5384C50.0322 40.5725 50.0589 40.6008 50.092 40.6193V40.712L50.1848 40.8047V40.8975C50.2775 40.9902 50.3757 40.9902 50.4684 41.0884H51.1339C51.1585 41.0884 51.1821 41.0786 51.1995 41.0612C51.2169 41.0439 51.2267 41.0203 51.2267 40.9957L54.3579 39.1955C54.5354 39.0507 54.6596 38.851 54.711 38.6277C54.7624 38.4045 54.7379 38.1705 54.6415 37.9627L54.647 37.9572Z" fill="#E9B520"/>
</svg>
