<svg width="64" height="64" viewBox="0 0 64 64" fill="none" xmlns="http://www.w3.org/2000/svg">
<rect width="64" height="64" rx="32" fill="#031928"/>
<path fill-rule="evenodd" clip-rule="evenodd" d="M34.572 13.5423L48.9373 21.0304C50.4484 21.8183 50.4743 23.1766 48.995 24.0625L46.3822 25.6279L45.3884 26.2235L44.394 26.819L38.6025 30.2889L37.6087 30.8845L36.6144 31.4801L34.9318 32.4883C34.1353 32.9656 33.0639 33.2091 32.009 33.2091C31.1051 33.2091 30.2126 33.0307 29.5155 32.6673L27.4731 31.6024L26.445 31.066L25.4169 30.5305L19.6935 27.5467L18.6654 27.0108L17.6372 26.4749L15.1502 25.1782C13.6391 24.3904 13.6137 23.0326 15.093 22.1466L29.1557 13.7208C29.9522 13.2436 31.0236 13 32.0785 13C32.9829 13 33.8749 13.1785 34.572 13.5423ZM48.9373 29.1155L46.4503 27.7959L40.6587 31.3272L39.6644 31.9333L38.6706 32.5394L35.9594 34.1927C34.8781 34.8525 33.4749 35.2153 32.009 35.2153C30.7374 35.2153 29.5557 34.9448 28.5912 34.4336L25.485 32.7853L24.4569 32.2404L23.4288 31.695L17.7053 28.6579L15.093 30.251C13.6137 31.1531 13.6391 32.5349 15.1502 33.3367L18.1371 34.9213L19.1653 35.4667L20.1929 36.0121L29.5155 40.9578C30.2126 41.3276 31.1051 41.5092 32.009 41.5092C33.0639 41.5092 34.1353 41.2619 34.9318 40.7762L43.8946 35.3111L44.889 34.705L45.8828 34.0989L48.995 32.2013C50.4743 31.2996 50.4484 29.9173 48.9373 29.1155ZM31.9613 43.519C30.6931 43.519 29.5145 43.2531 28.5525 42.7501L18.1939 37.3342L15.0899 39.1995C13.6145 40.0858 13.6403 41.4446 15.1474 42.2327L29.4744 49.7239C30.1702 50.0874 31.0598 50.2664 31.9613 50.2664C33.014 50.2664 34.082 50.0228 34.877 49.5454L48.9026 41.1166C50.378 40.2298 50.3522 38.871 48.8451 38.0834L45.8665 36.5254L35.9014 42.5143C34.8229 43.1619 33.4239 43.519 31.9613 43.519Z" fill="url(#paint0_linear)"/>
<defs>
<linearGradient id="paint0_linear" x1="32.0439" y1="13" x2="32.0439" y2="49.5389" gradientUnits="userSpaceOnUse">
<stop stop-color="#B3F9BA"/>
<stop offset="1" stop-color="#F6FB8C"/>
</linearGradient>
</defs>
</svg>
