<svg width="64" height="64" viewBox="0 0 64 64" fill="none" xmlns="http://www.w3.org/2000/svg">
<rect width="64" height="64" rx="32" fill="#3E8445"/>
<path d="M25.0085 17.0377V21.3972C21.4263 22.7138 18.4357 25.2211 16.5338 28.4264V15.4176H23.3602C24.2698 15.4176 25.0085 16.1422 25.0085 17.0377Z" fill="white"/>
<path d="M36.7876 22.5563V26.7334C36.7876 29.0367 34.8841 30.9039 32.5359 30.9039H31.1497C27.7686 30.9039 25.0248 33.5886 25.0181 36.9084V48.5824H18.1832C17.2703 48.5824 16.5332 47.8577 16.5332 46.9639V37.0759C16.5265 36.9034 16.5231 36.7309 16.5231 36.5568C16.5231 28.8195 22.9184 22.5447 30.8082 22.5447C30.9857 22.5447 31.1615 22.5481 31.339 22.5547H36.7876V22.5563Z" fill="white"/>
<path d="M38.9904 46.9623V42.6028C42.5743 41.2845 45.5649 38.7773 47.4651 35.5719V48.5824H40.6387C39.7308 48.5824 38.9904 47.8578 38.9904 46.9623Z" fill="white"/>
<path d="M27.2124 41.4437V37.2666C27.2124 34.9633 29.1159 33.0961 31.4641 33.0961H32.8503C36.2314 33.0961 38.9752 30.4114 38.982 27.0916V15.4177H45.8168C46.7297 15.4177 47.4668 16.1423 47.4668 17.0361V26.9242C47.4753 27.0966 47.4769 27.2691 47.4769 27.4449C47.4769 35.1822 41.0816 41.4569 33.1918 41.4569C33.0143 41.4569 32.8385 41.4536 32.661 41.447H27.2124V41.4437Z" fill="white"/>
</svg>
