<svg width="64" height="64" viewBox="0 0 64 64" fill="none" xmlns="http://www.w3.org/2000/svg">
<rect width="64" height="64" rx="32" fill="#1FC5C9"/>
<path fill-rule="evenodd" clip-rule="evenodd" d="M22.592 44.944L26.92 40.616C28.83 41.7443 31.061 42.2054 33.2618 41.9268C35.4627 41.6481 37.5084 40.6456 39.077 39.077C40.6456 37.5084 41.6481 35.4627 41.9268 33.2618C42.2054 31.061 41.7443 28.83 40.616 26.92L44.944 22.592C47.1875 25.6741 48.2568 29.4559 47.9594 33.2564C47.662 37.0569 46.0174 40.6263 43.3219 43.3219C40.6263 46.0174 37.0569 47.662 33.2564 47.9594C29.4559 48.2568 25.6741 47.1875 22.592 44.944ZM19.056 41.408C16.8125 38.3259 15.7432 34.5441 16.0406 30.7436C16.338 26.9431 17.9826 23.3737 20.6781 20.6781C23.3737 17.9826 26.9431 16.338 30.7436 16.0406C34.5441 15.7432 38.3259 16.8125 41.408 19.056L37.08 23.384C35.17 22.2557 32.939 21.7946 30.7382 22.0733C28.5373 22.3519 26.4916 23.3544 24.923 24.923C23.3544 26.4916 22.3519 28.5373 22.0733 30.7382C21.7946 32.939 22.2557 35.17 23.384 37.08L19.056 41.408ZM48 20C46.9391 20 45.9217 19.5786 45.1716 18.8284C44.4214 18.0783 44 17.0609 44 16C44 14.9391 44.4214 13.9217 45.1716 13.1716C45.9217 12.4214 46.9391 12 48 12C49.0609 12 50.0783 12.4214 50.8284 13.1716C51.5786 13.9217 52 14.9391 52 16C52 17.0609 51.5786 18.0783 50.8284 18.8284C50.0783 19.5786 49.0609 20 48 20ZM16 52C14.9391 52 13.9217 51.5786 13.1716 50.8284C12.4214 50.0783 12 49.0609 12 48C12 46.9391 12.4214 45.9217 13.1716 45.1716C13.9217 44.4214 14.9391 44 16 44C17.0609 44 18.0783 44.4214 18.8284 45.1716C19.5786 45.9217 20 46.9391 20 48C20 49.0609 19.5786 50.0783 18.8284 50.8284C18.0783 51.5786 17.0609 52 16 52Z" fill="white"/>
</svg>
