<svg width="64" height="64" viewBox="0 0 64 64" fill="none" xmlns="http://www.w3.org/2000/svg">
<rect width="64" height="64" rx="32" fill="#02081D"/>
<path d="M54.9674 28.5369L53.6643 26.3541L46.5297 14.3655H46.4971L46.2691 13.942H43.6629L33.5311 31.7621L43.8257 49.4844H46.432L46.4971 49.3867L55 34.8244H49.7549L45.2266 42.8711L38.7762 31.7295L45.0963 20.5878L49.6898 28.5043L54.9674 28.5369Z" fill="#41E6AF"/>
<path d="M15.3201 25.6374L20.0765 17.5255L18.4802 14.9519L17.3725 13.1275L9.22805 27.4944L9 27.8853L10.3031 30.1657H30.7946L41.1218 12.476L39.6884 10L25.3541 10.0326H25.1261L22.8456 10L24.051 12.2805L25.2564 14.5609L34.6388 14.5284L28.1884 25.6374H15.3201Z" fill="#41E6AF"/>
<path d="M25.4519 16.255C25.0935 16.255 24.7026 16.3201 24.3116 16.4504C23.8881 16.5808 23.4646 16.7762 23.0737 17.0043C21.966 17.6884 21.1842 18.6657 21.0538 19.5779C20.9887 20.0014 21.0864 20.3598 21.3145 20.6204C21.347 20.6856 21.4122 20.7181 21.4448 20.7833C21.4774 20.8159 21.5099 20.8159 21.5425 20.8485C21.5751 20.881 21.5751 20.881 21.6077 20.9136C21.6728 20.9462 21.7054 20.9788 21.7706 21.0113C22.4547 21.3371 23.5298 21.272 24.5723 20.7833L24.6048 20.7507C24.7026 20.7181 24.8003 20.653 24.898 20.6204C24.9958 20.5878 25.0609 20.5227 25.1587 20.4575C25.2564 20.3924 25.3541 20.3272 25.4519 20.2621C25.5496 20.1969 25.6147 20.1317 25.7125 20.0666L25.7776 20.034C25.8428 19.9689 25.9079 19.9363 25.9731 19.8711C26.0057 19.8385 26.0057 19.8385 26.0383 19.806C26.1034 19.7734 26.136 19.7082 26.1686 19.6757C26.2011 19.6431 26.2337 19.6105 26.2663 19.5453C26.2989 19.4802 26.364 19.4476 26.3966 19.3825C26.4292 19.3499 26.4292 19.3499 26.4618 19.3173C26.4944 19.2521 26.5595 19.2196 26.5921 19.1544L26.6572 19.0893C26.6898 19.0241 26.7224 18.9915 26.755 18.9264C26.755 18.9264 26.755 18.9264 26.755 18.8938L26.7876 18.8286C26.8527 18.7635 26.8853 18.6657 26.9179 18.6006C26.9504 18.5354 26.983 18.4377 27.0156 18.3725L27.0482 18.34C27.0482 18.3074 27.0808 18.2748 27.0808 18.2748C27.0808 18.2422 27.0808 18.2422 27.1133 18.2096C27.1133 18.1445 27.1459 18.1119 27.1459 18.0468C27.1459 17.9816 27.1785 17.9816 27.1785 17.949C27.1785 17.9164 27.1785 17.8839 27.1785 17.8839C27.1785 17.8187 27.1785 17.7861 27.1785 17.7536V17.6884C27.1785 17.6232 27.1785 17.5907 27.1785 17.5255C27.1785 17.4929 27.1785 17.4929 27.1785 17.4604C27.1785 17.4278 27.1785 17.3952 27.1785 17.3952C27.1785 17.3626 27.1785 17.3626 27.1785 17.33V17.2975C27.1785 17.2323 27.1459 17.1997 27.1133 17.1346C27.0808 17.0694 27.0482 17.0368 27.0156 16.9717C26.7876 16.483 26.1686 16.255 25.4519 16.255Z" fill="#41E6AF"/>
<path d="M27.83 18.6332C27.83 18.6983 27.7974 18.7309 27.7648 18.7961C27.7648 18.8286 27.7648 18.8286 27.7323 18.8612C27.6997 18.9589 27.6671 19.0241 27.6019 19.1218C27.2436 19.806 26.6572 20.4575 25.9405 20.9788C25.8427 21.0439 25.745 21.1091 25.6473 21.1742C25.5495 21.2394 25.4518 21.3046 25.3541 21.3371H25.3215C25.2889 21.3697 25.2563 21.3697 25.2238 21.4023C25.1586 21.4349 25.126 21.4674 25.0609 21.5H25.0283C24.9957 21.5 24.9631 21.5326 24.9306 21.5326C24.8654 21.5652 24.8002 21.5978 24.7351 21.5978L24.6699 21.6303C24.6699 21.6303 24.6699 21.6303 24.6374 21.6303C24.6048 21.6303 24.5722 21.6629 24.5396 21.6629C24.4745 21.6955 24.4093 21.6955 24.3442 21.7281L24.279 21.7606H24.2464C24.1813 21.7932 24.1161 21.7932 24.051 21.8258C24.0184 21.8258 23.9858 21.8584 23.9206 21.8584H23.8881C23.8229 21.8584 23.7578 21.891 23.7252 21.891C23.6926 21.891 23.6274 21.891 23.5949 21.9235H23.5623C23.5297 21.9235 23.4971 21.9235 23.4646 21.9561C23.432 21.9561 23.3994 21.9561 23.3668 21.9561C23.2691 21.9561 23.1388 21.9887 23.041 21.9887H23.0085C22.9107 21.9887 22.813 21.9887 22.7153 21.9887C22.6827 21.9887 22.6501 21.9887 22.6501 21.9887H22.6175C22.5524 21.9887 22.4872 21.9887 22.4221 21.9561C22.3895 21.9561 22.3569 21.9561 22.3243 21.9235C22.2592 21.9235 22.194 21.891 22.1289 21.891C22.0963 21.891 22.0637 21.8584 22.0311 21.8584L23.8229 24.7578L27.6671 24.7252L29.6544 21.2068L27.8626 18.2748C27.8626 18.3074 27.8626 18.34 27.83 18.3725C27.83 18.4051 27.83 18.4051 27.83 18.4377C27.83 18.4703 27.7974 18.5029 27.7974 18.568C27.83 18.6006 27.83 18.6332 27.83 18.6332Z" fill="#41E6AF"/>
<path d="M48.2564 29.221C48.4519 29.5142 48.5822 29.8726 48.6799 30.2961C48.7776 30.7196 48.8428 31.1757 48.8428 31.6318C48.8428 32.9349 48.4193 34.1077 47.7026 34.6941C47.3768 34.9547 47.0184 35.085 46.6601 35.0199C46.5949 35.0199 46.5298 34.9873 46.4646 34.9873C46.432 34.9873 46.3994 34.9547 46.3669 34.9547C46.3343 34.9547 46.3017 34.9221 46.2691 34.9221C46.204 34.8896 46.1388 34.857 46.1062 34.8244C45.4547 34.4009 44.966 33.4561 44.8357 32.3159V32.2833C44.8357 32.1856 44.8031 32.0879 44.8031 31.9576C44.8031 31.8598 44.8031 31.7621 44.8031 31.6644C44.8031 31.534 44.8031 31.4363 44.8031 31.306C44.8031 31.2083 44.8031 31.1105 44.8357 31.0128V30.9476C44.8357 30.8825 44.8683 30.7848 44.8683 30.7196C44.8683 30.687 44.8683 30.6544 44.8683 30.6219C44.8683 30.5567 44.9009 30.4916 44.9009 30.4264C44.9009 30.3612 44.9334 30.3287 44.9334 30.2635C44.966 30.1984 44.966 30.1332 44.9986 30.068C44.9986 30.0355 45.0312 30.0029 45.0312 29.9703C45.0638 29.9052 45.0638 29.84 45.0963 29.7748L45.1289 29.6771C45.1615 29.612 45.1941 29.5794 45.1941 29.5142C45.1941 29.5142 45.1941 29.5142 45.1941 29.4816L45.2266 29.4165C45.2592 29.3188 45.3244 29.2536 45.357 29.1884C45.3895 29.1233 45.4547 29.0581 45.4873 28.993L45.5198 28.9604C45.5524 28.9278 45.5524 28.9278 45.585 28.8952C45.6176 28.8627 45.6176 28.8627 45.6176 28.8301C45.6502 28.7975 45.6827 28.7649 45.7153 28.7323C45.7479 28.6998 45.7805 28.6672 45.7805 28.6672C45.813 28.6346 45.813 28.6346 45.8456 28.602C45.8782 28.5695 45.9108 28.5369 45.9434 28.5043L46.0085 28.4717C46.0411 28.4391 46.1062 28.4066 46.1388 28.374C46.1714 28.374 46.1714 28.374 46.204 28.3414C46.2366 28.3414 46.2691 28.3088 46.2691 28.3088C46.2691 28.3088 46.3017 28.3088 46.3017 28.2763H46.3343C46.3994 28.2763 46.432 28.2437 46.4972 28.2437C46.5623 28.2437 46.6275 28.2437 46.6926 28.2437C47.3768 28.2111 47.8655 28.602 48.2564 29.221Z" fill="#41E6AF"/>
<path d="M44.966 28.4391C44.9334 28.4717 44.9008 28.5369 44.8683 28.5694C44.8683 28.602 44.8357 28.602 44.8357 28.6346C44.7705 28.6998 44.738 28.7975 44.6728 28.8626C44.2493 29.5142 44.0212 30.3612 43.9561 31.2408C43.9561 31.3711 43.9561 31.4689 43.9561 31.5992C43.9561 31.6969 43.9561 31.8272 43.9561 31.925V31.9575C43.9561 31.9901 43.9561 32.0553 43.9561 32.0879C43.9561 32.153 43.9561 32.2182 43.9887 32.2833V32.3159C43.9887 32.3485 43.9887 32.3811 43.9887 32.4136C43.9887 32.4788 44.0212 32.544 44.0212 32.6091V32.6743C44.0212 32.6743 44.0212 32.6743 44.0212 32.7068C44.0212 32.7394 44.0212 32.772 44.0538 32.8046C44.0538 32.8697 44.0864 32.9349 44.0864 33L44.119 33.0652V33.0978C44.119 33.1629 44.1516 33.2281 44.1841 33.2932C44.1841 33.3258 44.2167 33.3584 44.2167 33.391V33.4236C44.2493 33.4887 44.2493 33.5213 44.2819 33.5864C44.2819 33.619 44.3144 33.6516 44.347 33.7168V33.7493C44.347 33.7819 44.3796 33.8145 44.3796 33.8471C44.4122 33.8796 44.4122 33.9122 44.4122 33.9122C44.4448 34.01 44.5099 34.1077 44.5751 34.2054L44.6076 34.238C44.6728 34.3357 44.7054 34.4009 44.7705 34.466C44.7705 34.4986 44.8031 34.4986 44.8031 34.5312L44.8357 34.5638C44.8683 34.6289 44.9334 34.6615 44.966 34.7267C44.9986 34.7592 44.9986 34.7918 45.0312 34.7918C45.0963 34.857 45.1289 34.8896 45.1615 34.9547C45.194 34.9873 45.2266 34.9873 45.2266 35.0199H41.8059L39.8187 31.7295L41.7734 28.2111H45.194C45.1615 28.2437 45.1615 28.2437 45.1289 28.2762L45.0963 28.3088C45.0637 28.3414 45.0312 28.374 44.966 28.4391C44.9986 28.4391 44.966 28.4391 44.966 28.4391Z" fill="#41E6AF"/>
<path d="M25.4519 47.1714C25.0935 47.1714 24.7026 47.1062 24.3116 46.9759C23.8881 46.8456 23.4646 46.6502 23.0737 46.4221C21.966 45.738 21.1842 44.7606 21.0538 43.8485C20.9887 43.4249 21.0864 43.0666 21.3145 42.806C21.347 42.7408 21.4122 42.7082 21.4448 42.6431C21.4774 42.6105 21.5099 42.6105 21.5425 42.5779C21.5751 42.5453 21.5751 42.5453 21.6077 42.5128C21.6728 42.4802 21.7054 42.4476 21.7706 42.415C22.4547 42.0893 23.5298 42.1544 24.5723 42.6431L24.6048 42.6757C24.7026 42.7082 24.8003 42.7734 24.898 42.806C24.9958 42.8385 25.0609 42.9037 25.1587 42.9689C25.2564 43.034 25.3541 43.0992 25.4519 43.1643C25.5496 43.2295 25.6147 43.2946 25.7125 43.3598L25.7776 43.3924C25.8428 43.4575 25.9079 43.4901 25.9731 43.5553C26.0057 43.5878 26.0057 43.5878 26.0383 43.6204C26.1034 43.653 26.136 43.7181 26.1686 43.7507C26.2011 43.7833 26.2337 43.8159 26.2663 43.881C26.2989 43.9462 26.364 43.9788 26.3966 44.0439C26.4292 44.0765 26.4292 44.0765 26.4618 44.1091C26.4944 44.1742 26.5595 44.2068 26.5921 44.272L26.6572 44.3371C26.6898 44.4023 26.7224 44.4349 26.755 44.5V44.5326L26.7876 44.5977C26.8527 44.6629 26.8853 44.7606 26.9179 44.8258C26.9504 44.8909 26.983 44.9887 27.0156 45.0538L27.0482 45.0864C27.0482 45.119 27.0808 45.1516 27.0808 45.1516C27.0808 45.1841 27.0808 45.1841 27.1133 45.2167C27.1133 45.2819 27.1459 45.3145 27.1459 45.3796C27.1459 45.4448 27.1785 45.4448 27.1785 45.4773C27.1785 45.5099 27.1785 45.5425 27.1785 45.5425C27.1785 45.6077 27.1785 45.6402 27.1785 45.6728V45.738C27.1785 45.8031 27.1785 45.8357 27.1785 45.9009C27.1785 45.9334 27.1785 45.9334 27.1785 45.966C27.1785 45.9986 27.1785 46.0312 27.1785 46.0312C27.1785 46.0638 27.1785 46.0638 27.1785 46.0963V46.1289C27.1785 46.1941 27.1459 46.2266 27.1133 46.2918C27.0808 46.357 27.0482 46.3895 27.0156 46.4547C26.7876 46.9434 26.1686 47.204 25.4519 47.1714Z" fill="#41E6AF"/>
<path d="M27.83 44.7933C27.83 44.7281 27.7974 44.6955 27.7648 44.6304C27.7648 44.5978 27.7648 44.5978 27.7323 44.5652C27.6997 44.4675 27.6671 44.4023 27.6019 44.3046C27.2436 43.6205 26.6572 42.9689 25.9405 42.4477C25.8427 42.3825 25.745 42.3174 25.6473 42.2522C25.5495 42.1871 25.4518 42.1219 25.3541 42.0893H25.3215C25.2889 42.0567 25.2563 42.0567 25.2238 42.0242C25.1586 41.9916 25.126 41.959 25.0609 41.9264H25.0283C24.9957 41.9264 24.9631 41.8938 24.9306 41.8938C24.8654 41.8613 24.8002 41.8287 24.7351 41.8287L24.6699 41.7961C24.6699 41.7961 24.6699 41.7961 24.6374 41.7961C24.6048 41.7961 24.5722 41.7635 24.5396 41.7635C24.4745 41.731 24.4093 41.731 24.3442 41.6984L24.279 41.6658H24.2464C24.1813 41.6332 24.1161 41.6332 24.051 41.6007C24.0184 41.6007 23.9858 41.5681 23.9206 41.5681H23.8881C23.8229 41.5681 23.7578 41.5355 23.7252 41.5355C23.6926 41.5355 23.6274 41.5355 23.5949 41.5029H23.5623C23.5297 41.5029 23.4971 41.5029 23.4646 41.4703C23.432 41.4703 23.3994 41.4703 23.3668 41.4703C23.2691 41.4703 23.1388 41.4378 23.041 41.4378H23.0085C22.9107 41.4378 22.813 41.4378 22.7153 41.4378C22.6827 41.4378 22.6501 41.4378 22.6501 41.4378H22.6175C22.5524 41.4378 22.4872 41.4378 22.4221 41.4703C22.3895 41.4703 22.3569 41.4703 22.3243 41.5029C22.2592 41.5029 22.194 41.5355 22.1289 41.5355C22.0963 41.5355 22.0637 41.5681 22.0311 41.5681L23.8229 38.6686L27.6671 38.7012L29.6544 42.2196L27.8626 45.1516C27.8626 45.1191 27.8626 45.0865 27.83 45.0539C27.83 45.0213 27.83 45.0213 27.83 44.9887C27.83 44.9562 27.7974 44.9236 27.7974 44.8584C27.83 44.8259 27.83 44.7933 27.83 44.7933Z" fill="#41E6AF"/>
<path d="M34.6388 48.898L25.2564 48.8655L23.8229 51.5694L22.8456 53.4264L25.3541 53.3938V53.4264L39.6884 53.4589L41.1218 50.983L30.7946 33.2932L10.3031 33.2607L9 35.5411L9.26062 35.9646H9.22805L17.3725 50.2989L20.0765 45.9009L15.3201 37.8216H28.1884L34.6388 48.898Z" fill="#41E6AF"/>
</svg>
