<svg width="64" height="64" viewBox="0 0 64 64" fill="none" xmlns="http://www.w3.org/2000/svg">
<rect width="64" height="64" rx="32" fill="black"/>
<path d="M48.9466 21.5322C48.3691 21.0769 47.6806 20.455 46.4257 20.2995C45.2486 20.144 44.0492 20.9325 43.2385 21.4544C42.4278 21.9764 40.8953 23.5089 40.2623 23.9753C39.6293 24.4417 38.008 24.8749 35.3982 26.4407C32.7885 28.0065 22.5495 34.5808 22.5495 34.5808L25.2147 34.6141L13.3321 40.7331H14.5204L12.8102 42.0324C12.8102 42.0324 14.3205 42.4322 15.5865 41.6327V41.9991C15.5865 41.9991 29.7346 36.4243 32.4664 37.868L30.8007 38.3566C30.945 38.3566 33.6325 38.5343 33.6325 38.5343C33.6977 39.0908 33.8848 39.6261 34.1804 40.1021C34.476 40.5781 34.8728 40.9832 35.3427 41.2884C36.9641 42.3545 36.9974 42.9431 36.9974 42.9431C36.9974 42.9431 36.1534 43.2873 36.1534 43.7204C36.1534 43.7204 37.3972 43.3429 38.5521 43.3762C39.2851 43.404 40.0121 43.5196 40.7176 43.7204C40.7176 43.7204 40.6288 43.254 39.5072 42.9431C38.3855 42.6321 37.275 41.4105 36.7309 40.7442C36.3975 40.3201 36.1803 39.8166 36.1005 39.2831C36.0206 38.7496 36.081 38.2045 36.2755 37.7014C36.6642 36.6908 38.0191 36.1356 40.8176 34.6919C44.1158 32.9817 44.871 31.7157 45.3374 30.7273C45.8038 29.7389 46.4923 27.7733 46.881 26.8516C47.3697 25.6633 47.9693 25.0303 48.4691 24.6527C48.9688 24.2752 51.1899 23.4423 51.1899 23.4423C51.1899 23.4423 49.4908 21.9653 48.9466 21.5322Z" fill="white"/>
</svg>
