<svg width="64" height="64" viewBox="0 0 64 64" fill="none" xmlns="http://www.w3.org/2000/svg">
<rect width="64" height="64" rx="32" fill="white"/>
<path d="M63.9996 31.9998C63.9996 49.673 49.673 64 32 64C14.3268 64 0 49.673 0 31.9998C0 14.3268 14.3268 0 32 0C49.6728 0 63.9996 14.3268 63.9996 31.9998Z" fill="#97C9F1"/>
<path d="M57.2057 32.0002C57.2057 45.9202 45.9208 57.2061 32 57.2061C18.0795 57.2061 6.7937 45.9202 6.7937 32.0002C6.7937 18.0791 18.0795 6.79389 32 6.79389C45.9209 6.79389 57.2057 18.0789 57.2057 32.0002Z" fill="#97C9F1"/>
<path d="M30.1297 40.5483L32.2082 32.7219L37.129 30.9241L38.353 26.3246L38.3112 26.2105L33.4673 27.9801L36.9574 14.8386H27.0595L22.4953 31.9885L18.6845 33.3807L17.4254 38.1225L21.2332 36.7315L18.5432 46.8388H44.8855L46.5742 40.5483H30.1297Z" fill="white"/>
</svg>
