<svg width="64" height="64" viewBox="0 0 64 64" fill="none" xmlns="http://www.w3.org/2000/svg">
<rect width="64" height="64" rx="32" fill="#8347E5"/>
<path d="M42.4548 25.2421C41.6973 24.8014 40.7124 24.8014 39.879 25.2421L33.9698 28.6211L29.9545 30.8247L24.0452 34.2037C23.2876 34.6444 22.3027 34.6444 21.4694 34.2037L16.7723 31.5593C16.0147 31.1185 15.4844 30.3105 15.4844 29.429V24.2137C15.4844 23.3322 15.9389 22.5242 16.7723 22.0835L21.3936 19.5126C22.1512 19.0718 23.1361 19.0718 23.9695 19.5126L28.5908 22.0835C29.3484 22.5242 29.8788 23.3322 29.8788 24.2137V27.5927L33.894 25.3155V21.9366C33.894 21.0551 33.4394 20.2471 32.6061 19.8064L24.0452 14.9583C23.2876 14.5175 22.3027 14.5175 21.4694 14.9583L12.757 19.8064C11.9237 20.2471 11.4691 21.0551 11.4691 21.9366V31.7062C11.4691 32.5876 11.9237 33.3957 12.757 33.8364L21.4694 38.6845C22.227 39.1252 23.2119 39.1252 24.0452 38.6845L29.9545 35.379L33.9698 33.1019L39.879 29.7963C40.6366 29.3556 41.6215 29.3556 42.4548 29.7963L47.0762 32.3673C47.8338 32.808 48.3641 33.616 48.3641 34.4975V39.7129C48.3641 40.5943 47.9095 41.4023 47.0762 41.8431L42.4548 44.4875C41.6973 44.9282 40.7124 44.9282 39.879 44.4875L35.2577 41.9166C34.5001 41.4758 33.9698 40.6678 33.9698 39.7863V36.4073L29.9545 38.6845V42.0634C29.9545 42.9449 30.409 43.753 31.2424 44.1936L39.9548 49.0417C40.7124 49.4825 41.6973 49.4825 42.5306 49.0417L51.243 44.1936C52.0006 43.753 52.5309 42.9449 52.5309 42.0634V32.2938C52.5309 31.4124 52.0763 30.6043 51.243 30.1636L42.4548 25.2421Z" fill="white"/>
</svg>
