<svg width="64" height="64" viewBox="0 0 64 64" fill="none" xmlns="http://www.w3.org/2000/svg">
<rect width="64" height="64" rx="32" fill="#FF0420"/>
<path d="M20.3688 42.115C18.1397 42.115 16.3135 41.5905 14.8899 40.5416C13.485 39.4739 12.7825 37.9567 12.7825 35.9898C12.7825 35.5777 12.8294 35.0719 12.923 34.4725C13.1666 33.1239 13.5131 31.5036 13.9627 29.6117C15.2364 24.4606 18.5238 21.885 23.8248 21.885C25.2672 21.885 26.5596 22.1285 27.7023 22.6154C28.845 23.0837 29.744 23.7956 30.3996 24.7509C31.0552 25.6874 31.3831 26.8114 31.3831 28.1225C31.3831 28.5159 31.3362 29.0123 31.2425 29.6117C30.9616 31.2788 30.6243 32.8991 30.231 34.4725C29.5754 37.0388 28.4421 38.9588 26.8312 40.2325C25.2203 41.4875 23.0662 42.115 20.3688 42.115ZM20.7622 38.069C21.8113 38.069 22.7009 37.7599 23.4315 37.1418C24.1808 36.5237 24.7146 35.5777 25.033 34.304C25.4638 32.5432 25.7917 31.0072 26.0165 29.696C26.0913 29.3026 26.1288 28.9 26.1288 28.4877C26.1288 26.7832 25.239 25.9309 23.4596 25.9309C22.4105 25.9309 21.5115 26.24 20.7622 26.8581C20.0317 27.4764 19.5072 28.4223 19.1888 29.696C18.8516 30.951 18.5144 32.4871 18.1773 34.304C18.1023 34.6785 18.0648 35.0719 18.0648 35.484C18.0648 37.2074 18.964 38.069 20.7622 38.069Z" fill="white"/>
<path d="M32.6732 41.8342C32.4671 41.8342 32.3078 41.7686 32.1955 41.6375C32.1018 41.4876 32.0738 41.3191 32.1112 41.1318L35.9886 22.8684C36.0261 22.6624 36.1291 22.4938 36.2977 22.3626C36.4663 22.2316 36.6442 22.166 36.8315 22.166H44.3055C46.3847 22.166 48.0518 22.5968 49.3067 23.4584C50.5806 24.3202 51.2175 25.5657 51.2175 27.1954C51.2175 27.6636 51.1613 28.1507 51.0488 28.6564C50.5806 30.8106 49.6347 32.4028 48.2111 33.4331C46.8062 34.4633 44.8768 34.9784 42.4229 34.9784H38.6298L37.3374 41.1318C37.2998 41.3378 37.1968 41.5063 37.0283 41.6375C36.8597 41.7686 36.6816 41.8342 36.4945 41.8342H32.6732ZM42.6197 31.101C43.4063 31.101 44.09 30.8855 44.6707 30.4547C45.2701 30.0239 45.6635 29.4057 45.8508 28.6003C45.907 28.2818 45.9351 28.0008 45.9351 27.7574C45.9351 27.2141 45.776 26.802 45.4575 26.5211C45.139 26.2213 44.5958 26.0716 43.8278 26.0716H40.4561L39.3884 31.101H42.6197Z" fill="white"/>
</svg>
