<svg width="64" height="64" viewBox="0 0 64 64" fill="none" xmlns="http://www.w3.org/2000/svg">
<rect width="64" height="64" rx="32" fill="#51B23D"/>
<path d="M49.8851 29.7424C49.7639 29.6818 46.7033 28.0455 44.0972 29.5606C42.0063 30.7727 41.6124 33.1667 41.5214 34.1667L40.5518 34.7121C40.0669 34.2576 39.4305 33.9545 38.7033 33.9545C37.976 33.9545 37.3396 34.2273 36.8548 34.7121L32.4911 32.1667C32.5518 31.9545 32.5821 31.7424 32.5821 31.5303C32.5821 30.3182 31.7639 29.2879 30.673 28.9848V27.4091C31.9457 26.5909 36.0063 23.5909 36.0063 18.8333C36.0063 13.3182 30.5518 9.89394 30.3093 9.74242L29.9154 9.5L29.5215 9.74242C29.279 9.89394 23.8245 13.3182 23.8245 18.8333C23.8245 23.5909 27.8851 26.5606 29.1578 27.4091V28.9848C28.0366 29.2879 27.2487 30.3182 27.2487 31.5303C27.2487 31.7424 27.279 31.9545 27.3396 32.1667L22.9457 34.7121C22.4608 34.2576 21.8245 33.9545 21.0972 33.9545C19.6427 33.9545 18.4305 35.1364 18.4305 36.6212C18.4305 37.8333 19.2487 38.8636 20.3396 39.1667V44.4394C19.2487 44.7727 18.4305 45.7727 18.4305 46.9849C18.4305 48.4394 19.6124 49.6515 21.0972 49.6515C21.8851 49.6515 22.5821 49.3182 23.0669 48.7727L27.3396 51.2273C27.279 51.4394 27.2487 51.6515 27.2487 51.8636C27.2487 53.3182 28.4305 54.5 29.9154 54.5C31.3699 54.5 32.5821 53.3182 32.5821 51.8636C32.5821 51.6515 32.5518 51.4394 32.4911 51.2273L36.7639 48.7727C37.2487 49.3182 37.9457 49.6515 38.7336 49.6515C40.1881 49.6515 41.4002 48.4697 41.4002 46.9849C41.4002 45.7727 40.5821 44.7424 39.4911 44.4394V39.1667C40.5821 38.8333 41.4002 37.8333 41.4002 36.6212C41.4002 36.4091 41.3699 36.197 41.3396 36.0152L42.3093 35.4697C42.8548 35.7424 43.976 36.1667 45.2184 36.1667C45.976 36.1667 46.7942 36.0152 47.5821 35.5606C50.1578 34.0758 50.3093 30.5909 50.3093 30.4697V30.0152L49.8851 29.7424ZM39.4608 37.5303C39.2487 37.6818 39.0063 37.7727 38.7336 37.7727C38.5821 37.7727 38.4608 37.7424 38.3093 37.6818C38.1881 37.6515 38.0972 37.5909 38.0063 37.5C37.7639 37.3182 37.6124 37.0455 37.5518 36.7424C37.5518 36.6818 37.5518 36.6212 37.5518 36.5606C37.5518 36.5 37.5518 36.4697 37.5518 36.4091C37.6124 35.9848 37.8851 35.6212 38.279 35.4697C38.4002 35.4091 38.5518 35.3788 38.7033 35.3788C38.8548 35.3788 39.0366 35.4091 39.1578 35.4697C39.5821 35.6515 39.8851 36.0758 39.8851 36.5606C39.8851 36.6212 39.8851 36.6818 39.8548 36.7424C39.8245 37.1061 39.673 37.3485 39.4608 37.5303ZM39.8851 46.9849C39.8851 47.6515 39.3396 48.1667 38.7033 48.1667C38.4911 48.1667 38.2487 48.1061 38.0972 47.9848C37.7639 47.7727 37.5215 47.4091 37.5215 46.9849V46.9545C37.5215 46.8333 37.5518 46.7121 37.5821 46.5909C37.6427 46.3788 37.7942 46.197 37.976 46.0455C38.1275 45.9242 38.3093 45.8333 38.4911 45.803C38.5518 45.803 38.6124 45.7727 38.7033 45.7727C38.976 45.7727 39.2487 45.8636 39.4305 46.0152C39.7336 46.2576 39.8851 46.5909 39.8851 46.9849ZM37.976 44.4394C37.6124 44.5303 37.279 44.7121 37.0063 44.9545L32.5215 42.3485C32.5518 42.1667 32.5821 42.0152 32.5821 41.8333C32.5821 41.5909 32.5518 41.3182 32.4608 41.1061L36.8851 38.5303C37.1881 38.8333 37.5518 39.0455 37.976 39.1667V44.4394ZM29.9154 53.0455C29.3093 53.0455 28.8245 52.6212 28.7336 52.0455C28.7336 51.9849 28.7336 51.9242 28.7336 51.8636C28.7336 51.3788 29.0366 50.9545 29.4608 50.7727C29.6124 50.7121 29.7639 50.6818 29.9154 50.6818C30.0669 50.6818 30.2184 50.7121 30.3699 50.7727C30.7942 50.9545 31.0972 51.3788 31.0972 51.8636C31.0972 51.9242 31.0972 51.9849 31.0972 52.0455C31.0063 52.5909 30.4911 53.0455 29.9154 53.0455ZM27.3093 42.3485L22.8245 44.9545C22.5518 44.7121 22.2184 44.5303 21.8548 44.4394V39.1667C22.279 39.0455 22.6427 38.8333 22.9457 38.5303L27.3699 41.0758C27.3093 41.3182 27.2487 41.5606 27.2487 41.8333C27.2487 42.0152 27.279 42.197 27.3093 42.3485ZM22.3093 46.9849C22.3093 47.4091 22.0972 47.7727 21.7336 47.9848C21.5518 48.1061 21.3396 48.1667 21.1275 48.1667C20.4608 48.1667 19.9457 47.6212 19.9457 46.9849C19.9457 46.6212 20.1275 46.2576 20.4002 46.0455C20.6124 45.8939 20.8548 45.803 21.1275 45.803C21.1881 45.803 21.279 45.803 21.3396 45.8333C21.5518 45.8636 21.7033 45.9545 21.8548 46.0758C22.0366 46.197 22.1578 46.4091 22.2487 46.6212C22.279 46.7424 22.3093 46.8636 22.3093 46.9849C22.3093 46.9545 22.3093 46.9545 22.3093 46.9849ZM19.9154 36.6212C19.9154 35.9545 20.4608 35.4394 21.0972 35.4394C21.2487 35.4394 21.4002 35.4697 21.5215 35.5303C21.9154 35.6818 22.1881 36.0455 22.2487 36.4697C22.2487 36.5303 22.2487 36.5909 22.2487 36.6515C22.2487 36.7121 22.2487 36.7727 22.2487 36.8333C22.2184 37.1364 22.0366 37.4091 21.7942 37.5909C21.7033 37.6515 21.6124 37.7121 21.4911 37.7727C21.3699 37.8333 21.2184 37.8636 21.0669 37.8636C20.7942 37.8636 20.5215 37.7727 20.3396 37.6212C20.0972 37.3182 19.9154 36.9848 19.9154 36.6212ZM29.1881 30.5909C29.4002 30.4394 29.6427 30.3485 29.9154 30.3485C30.1881 30.3485 30.4608 30.4394 30.6427 30.5909C30.8851 30.7727 31.0366 31.0455 31.0669 31.3485C31.0669 31.4091 31.0669 31.4697 31.0669 31.5303C31.0669 31.8939 30.8851 32.2576 30.6124 32.4697C30.5215 32.5303 30.4305 32.5909 30.3093 32.6515C30.1881 32.7121 30.0366 32.7424 29.8851 32.7424C29.7336 32.7424 29.5821 32.7121 29.4608 32.6515C29.3396 32.6212 29.2487 32.5606 29.1578 32.4697C28.8851 32.2576 28.7033 31.9242 28.7033 31.5303C28.7033 31.4697 28.7033 31.4091 28.7033 31.3485C28.7942 31.0455 28.9457 30.7727 29.1881 30.5909ZM31.0972 41.8636C31.0972 42.2273 30.9154 42.5303 30.6427 42.7424C30.5821 42.7727 30.5215 42.8333 30.4608 42.8636C30.279 42.9545 30.0972 43.0152 29.8851 43.0152C29.673 43.0152 29.4911 42.9545 29.3396 42.8636C29.279 42.8333 29.2184 42.803 29.1578 42.7424C28.8851 42.5303 28.7033 42.197 28.7033 41.8333V41.803C28.7033 41.6818 28.7033 41.5909 28.7336 41.5C28.7942 41.2576 28.9457 41.0455 29.1275 40.8636C29.2487 40.7727 29.4002 40.6818 29.5821 40.6515C29.673 40.6212 29.7639 40.6212 29.8851 40.6212C30.0063 40.6212 30.0972 40.6212 30.1881 40.6515C30.3396 40.6818 30.4911 40.7727 30.6124 40.8636C30.7942 41.0152 30.9457 41.2273 31.0063 41.4697C31.0366 41.5606 31.0366 41.6818 31.0366 41.803C31.0972 41.8333 31.0972 41.8636 31.0972 41.8636ZM36.1275 35.9848C36.0669 36.197 36.0366 36.4091 36.0366 36.6212C36.0366 36.8333 36.0669 37.0758 36.1275 37.2879L31.673 39.8636C31.3699 39.5909 31.0366 39.4091 30.6427 39.2879V34.0758C31.0669 33.9545 31.4305 33.7424 31.7336 33.4394L36.1275 35.9848ZM25.3093 18.8636C25.3093 14.9545 28.7336 12.1364 29.9154 11.2879C31.0972 12.1364 34.5215 14.9545 34.5215 18.8636C34.5215 22.1364 32.0972 24.5 30.6427 25.6212V19.4394C30.6427 19.0455 30.3093 18.7121 29.9154 18.7121C29.4911 18.7121 29.1881 19.0455 29.1881 19.4394V25.6212C27.7033 24.5 25.3093 22.1364 25.3093 18.8636ZM28.0669 33.4394C28.3699 33.7424 28.7639 33.9545 29.1578 34.0758V39.2879C28.7639 39.4091 28.4305 39.5909 28.1275 39.8333L23.6427 37.2576C23.7033 37.0455 23.7336 36.8333 23.7336 36.6212C23.7336 36.4091 23.7033 36.197 23.6427 35.9848L28.0669 33.4394ZM23.7336 47.4394C23.7639 47.2879 23.7639 47.1364 23.7639 46.9849C23.7639 46.7121 23.7336 46.4394 23.6427 46.1667L28.0063 43.6515C28.3093 43.9849 28.7336 44.2273 29.1881 44.3788V49.3182C28.7639 49.4394 28.4002 49.6515 28.0669 49.9545L23.7336 47.4394ZM31.7639 49.9545C31.4608 49.6515 31.0669 49.4394 30.6427 49.3182V44.3788C31.0972 44.2576 31.5215 43.9849 31.8245 43.6515L36.1881 46.1667C36.0972 46.4091 36.0669 46.6818 36.0669 46.9849C36.0669 47.1364 36.0669 47.2879 36.0972 47.4394L31.7639 49.9545ZM46.7942 34.2576C45.8245 34.803 44.7336 34.7121 43.8851 34.5L45.3396 33.6515C45.7033 33.4394 45.8245 33.0152 45.6124 32.6515C45.4002 32.2879 44.976 32.1667 44.6124 32.3788L43.1578 33.2273C43.3699 32.4091 43.8548 31.4091 44.8245 30.8333C46.2184 30.0152 47.9457 30.5303 48.7336 30.8636C48.6124 31.6818 48.2184 33.4394 46.7942 34.2576Z" fill="white"/>
</svg>
