<?xml version="1.0" encoding="UTF-8"?>
<svg xmlns="http://www.w3.org/2000/svg" xmlns:xlink="http://www.w3.org/1999/xlink" width="64px" height="52px" viewBox="0 0 64 52" version="1.1">
<defs>
<linearGradient id="linear0" gradientUnits="userSpaceOnUse" x1="146.029999" y1="1661.920044" x2="1851.01001" y2="-43.060001" gradientTransform="matrix(0.0319982,0,0,0.0321367,0.0017792,0)">
<stop offset="0" style="stop-color:rgb(81.176472%,25.490198%,90.980393%);stop-opacity:1;"/>
<stop offset="1" style="stop-color:rgb(6.27451%,94.901961%,69.01961%);stop-opacity:1;"/>
</linearGradient>
</defs>
<g id="surface1">
<path style=" stroke:none;fill-rule:nonzero;fill:url(#linear0);" d="M 54.789062 12.308594 C 54.410156 12.699219 53.886719 12.917969 53.34375 12.917969 L 2.054688 12.917969 C 0.238281 12.917969 -0.679688 10.699219 0.589844 9.378906 L 9.003906 0.625 C 9.386719 0.226562 9.914062 0 10.464844 0 L 61.945312 0 C 63.769531 0 64.683594 2.242188 63.394531 3.554688 Z M 54.789062 51.402344 C 54.40625 51.785156 53.882812 52 53.34375 52 L 2.054688 52 C 0.238281 52 -0.679688 49.835938 0.589844 48.546875 L 9.003906 40.011719 C 9.390625 39.621094 9.917969 39.402344 10.464844 39.402344 L 61.945312 39.402344 C 63.769531 39.402344 64.683594 41.589844 63.394531 42.871094 Z M 54.789062 20.296875 C 54.40625 19.914062 53.882812 19.699219 53.34375 19.703125 L 2.054688 19.703125 C 0.238281 19.703125 -0.679688 21.867188 0.589844 23.152344 L 9.003906 31.6875 C 9.390625 32.078125 9.914062 32.296875 10.464844 32.296875 L 61.945312 32.296875 C 63.769531 32.296875 64.683594 30.109375 63.394531 28.832031 Z M 54.789062 20.296875 "/>
</g>
</svg>
