<svg width="64" height="64" viewBox="0 0 64 64" fill="none" xmlns="http://www.w3.org/2000/svg">
<rect width="64" height="64" rx="32" fill="#FF060A"/>
<path d="M52.4912 26.0504C50.6162 24.3191 48.0225 21.6754 45.91 19.8005L45.785 19.713C45.5771 19.5459 45.3426 19.415 45.0913 19.3255C39.9976 18.3755 16.2917 13.9443 15.8292 14.0005C15.6996 14.0187 15.5757 14.0657 15.4667 14.138L15.3479 14.2318C15.2017 14.3803 15.0907 14.5597 15.0229 14.7568L14.9917 14.838V15.2818V15.3505C17.6604 22.7817 28.1978 47.1251 30.2727 52.8375C30.3977 53.225 30.6352 53.9625 31.079 54H31.179C31.4165 54 32.429 52.6625 32.429 52.6625C32.429 52.6625 50.5287 30.7128 52.36 28.3753C52.597 28.0874 52.8063 27.7777 52.985 27.4504C53.0306 27.1942 53.0091 26.9307 52.9225 26.6853C52.836 26.44 52.6874 26.2212 52.4912 26.0504ZM37.0727 28.6066L44.7976 22.2004L49.3288 26.3754L37.0727 28.6066ZM34.0727 28.1878L20.7729 17.288L42.2913 21.2567L34.0727 28.1878ZM35.2727 31.0441L48.885 28.8503L33.3227 47.6001L35.2727 31.0441ZM18.9666 18.3755L32.9602 30.2503L30.9352 47.6126L18.9666 18.3755Z" fill="white"/>
</svg>
