<svg width="64" height="64" viewBox="0 0 64 64" fill="none" xmlns="http://www.w3.org/2000/svg">
<rect width="64" height="64" rx="32" fill="#67B2E6"/>
<path d="M12.0202 19.3551C14.7123 17.7962 17.5305 16.5754 20.4949 15.6925C24.5331 14.4919 28.6318 13.9269 32.8414 14.0076C34.7975 14.0479 38.0543 14.3658 38.6038 14.5776C38.624 14.618 38.5836 14.6432 38.5383 14.6432C38.3517 14.729 38.14 14.7895 37.9484 14.8753C34.4799 16.3282 32.0197 19.3803 31.3038 23.0832C31.1979 23.6936 31.1374 24.304 31.1172 24.9145C31.0971 25.8427 31.0114 26.7659 30.7391 27.6689C29.8115 30.9329 27.1446 33.4755 23.8424 34.2373C19.5067 35.221 15.1308 33.077 13.2402 29.0563C13.1343 28.8242 13.0537 28.5921 13.0083 28.3601C12.6907 26.9929 12.4638 25.6258 12.2924 24.2334C12.1059 22.6998 12 21.1611 12 19.6275C12.0202 19.5216 12.0202 19.461 12.0202 19.3551Z" fill="white"/>
<path d="M42.9758 44.5831C43.0161 44.1845 43.0615 43.8263 43.0817 43.448C43.1875 41.3645 42.7439 39.3869 41.7558 37.5556C40.808 35.8101 39.4821 34.4177 37.7831 33.3684C37.6369 33.2625 37.4655 33.1818 37.3193 33.0758C34.9851 31.6027 33.5533 29.5192 33.0491 26.8051C32.1467 21.9217 35.217 17.2099 40.0316 16.0496C41.7356 15.651 43.3942 15.6914 45.0579 16.216C46.4242 16.6398 47.7299 17.2048 49.0306 17.8153C49.933 18.239 50.7951 18.6981 51.6622 19.1824C51.7681 19.248 51.8488 19.2883 51.9798 19.3691C51.9798 19.4548 52 19.5154 52 19.6011C52 20.716 51.9345 21.8511 51.8538 22.966C51.7076 24.6056 51.4555 26.2502 51.1178 27.8494C50.0843 32.6067 48.2592 37.0057 45.6074 41.087C44.8714 42.2221 44.0748 43.3168 43.2329 44.3712C43.1472 44.4368 43.1018 44.5175 42.9758 44.5831Z" fill="white"/>
<path d="M32.003 54C31.6854 53.8739 30.7225 53.2836 29.689 52.5925C27.3951 51.0589 25.2727 49.2881 23.3367 47.3106C21.4059 45.328 19.6817 43.1637 18.2045 40.828C16.8181 38.6587 15.6636 36.3885 14.736 33.9872C14.7158 33.9216 14.6957 33.8813 14.6705 33.7753C14.7763 33.8409 14.8167 33.8611 14.8822 33.9015C15.6183 34.4715 16.3947 34.9558 17.2366 35.309C18.3104 35.7731 19.4246 36.0909 20.5992 36.1918C22.9738 36.4239 25.2021 35.9396 27.3094 34.7591C28.4034 34.1486 29.5831 33.7501 30.8233 33.5786C35.2195 33.0337 39.5955 35.6419 40.9617 40.1873C41.6574 42.523 41.4457 44.7932 40.3719 47.0079C40.2257 47.3005 40.0996 47.578 39.9484 47.8504C39.8627 48.0169 39.7618 48.1884 39.6106 48.3145C37.3873 50.4232 34.9472 52.2747 32.3005 53.8335C32.1946 53.8941 32.0887 53.9596 32.003 54Z" fill="white"/>
</svg>
