<svg width="64" height="64" viewBox="0 0 64 64" fill="none" xmlns="http://www.w3.org/2000/svg">
<rect width="64" height="64" rx="32" fill="black"/>
<path d="M46.8451 19.0803L41.8641 21.6181L17.8112 33.8694C17.7299 33.2491 17.6889 32.6241 17.6887 31.9985C17.692 29.5022 18.3474 27.05 19.5899 24.8849C20.8325 22.7199 22.6192 20.917 24.7729 19.6548C26.9267 18.3927 29.3728 17.7152 31.869 17.6893C34.3652 17.6634 36.8248 18.2902 39.0043 19.5074L41.8553 18.0547L42.2806 17.8377C39.6689 15.942 36.5838 14.8054 33.3665 14.5534C30.1492 14.3015 26.9248 14.944 24.0498 16.4099C21.1747 17.8759 18.761 20.1082 17.0754 22.8601C15.3897 25.6121 14.4977 28.7766 14.4981 32.0037C14.4981 32.4495 14.515 32.8934 14.5488 33.3356C14.5962 33.9619 14.4573 34.5881 14.1496 35.1356C13.842 35.6831 13.3792 36.1274 12.8196 36.4125L11.3162 37.1791V40.7547L15.7425 38.4987L17.1759 37.7671L18.5883 37.0478L43.9451 24.1279L46.7944 22.677L52.6838 19.6754V16.1015L46.8451 19.0803Z" fill="white"/>
<path d="M52.6838 23.2528L20.0287 39.8796L17.1794 41.334L11.3162 44.3216V47.8937L17.1391 44.9272L22.1202 42.3894L46.1976 30.1205C46.279 30.745 46.3199 31.374 46.3201 32.0037C46.3185 34.5029 45.6633 36.9583 44.4195 39.126C43.1757 41.2937 41.3866 43.0984 39.2297 44.3609C37.0729 45.6235 34.6233 46.2999 32.1242 46.3231C29.6251 46.3463 27.1634 45.7154 24.9835 44.4931L24.8085 44.5859L21.7176 46.161C24.3288 48.0568 27.4132 49.1937 30.63 49.4463C33.8469 49.6989 37.0709 49.0572 39.9459 47.5923C42.821 46.1273 45.235 43.8961 46.9214 41.1451C48.6078 38.3941 49.5009 35.2305 49.5019 32.0037C49.5019 31.5539 49.4844 31.1041 49.4512 30.6596C49.4039 30.0336 49.5426 29.4075 49.8499 28.8601C50.1573 28.3127 50.6195 27.8683 51.1786 27.5828L52.6838 26.8162V23.2528Z" fill="white"/>
</svg>
