<svg width="64" height="64" viewBox="0 0 64 64" fill="none" xmlns="http://www.w3.org/2000/svg">
<rect width="64" height="64" rx="32" fill="white"/>
<path d="M63.9984 31.9968C63.9984 49.6676 49.6731 63.9935 31.9992 63.9935C14.3254 63.9935 0 49.6676 0 31.9968C0 14.3261 14.3257 0 31.9992 0C49.6727 0 63.9984 14.3247 63.9984 31.9968Z" fill="white"/>
<path d="M31.9992 0C14.3316 0 -0.0191692 14.3463 0.0033223 31.9958C0.00775245 35.527 0.570893 38.9237 1.62782 42.1009H11.2017V15.1844L31.9992 35.9795L52.7957 15.1844V42.1014H62.3717C63.4301 38.9243 63.9904 35.5276 63.9967 31.9963C64.0268 14.3284 49.6687 0.0042593 31.9992 0.0042593V0Z" fill="#F26822"/>
<path d="M27.2159 40.76L18.1397 31.6844V48.6216H11.2006L4.65271 48.6228C10.2693 57.8364 20.4197 63.9998 31.9987 63.9998C43.5777 63.9998 53.7287 57.8351 59.3462 48.6214H45.8556V31.6844L36.779 40.76L31.9977 45.5408L27.2162 40.76H27.2159Z" fill="#4D4D4D"/>
</svg>
