<svg width="64" height="64" viewBox="0 0 64 64" fill="none" xmlns="http://www.w3.org/2000/svg">
<rect width="64" height="64" rx="32" fill="#2C7DF7"/>
<path d="M36.8454 54.5C33.6146 54.5 31.2615 53.7267 29.7832 52.1802C28.3062 50.6344 27.5671 48.9672 27.5671 47.1807C27.5671 46.5275 27.6956 45.9779 27.9533 45.5312C28.2048 45.0906 28.5699 44.7254 29.0106 44.474C29.4572 44.2162 30.0068 44.0877 30.6601 44.0877C31.3133 44.0877 31.8622 44.2162 32.3095 44.474C32.7562 44.7317 33.1084 45.0846 33.3661 45.5312C33.6239 45.9779 33.7524 46.5275 33.7524 47.1807C33.7524 47.971 33.5635 48.615 33.1858 49.1135C32.8073 49.6119 32.3607 49.9379 31.8452 50.0934C32.2925 50.7111 32.9969 51.1492 33.959 51.407C34.9211 51.6825 35.8833 51.8195 36.8454 51.8195C38.1853 51.8195 39.3966 51.4588 40.4795 50.7374C41.5616 50.0153 42.3611 48.9502 42.8766 47.5414C43.3921 46.1327 43.6499 44.5343 43.6499 42.7471C43.6499 40.8058 43.3659 39.1471 42.7992 37.7731C42.249 36.3814 41.4331 35.3504 40.3503 34.6801C39.3008 34.0197 38.0853 33.6713 36.8454 33.6754C36.0203 33.6754 34.99 34.0191 33.7524 34.7064L31.4845 35.8404V34.7064L41.6908 21.0981H27.5671V35.2212C27.5671 36.3899 27.8248 37.3521 28.3403 38.1083C28.8558 38.8645 29.6461 39.2422 30.7119 39.2422C31.5356 39.2422 32.3266 38.9675 33.0828 38.4172C33.8439 37.8621 34.5059 37.1828 35.0411 36.4077C35.11 36.2522 35.1959 36.1407 35.2989 36.0718C35.3915 35.9901 35.5105 35.9444 35.634 35.9433C35.8229 35.9433 36.0459 36.0378 36.3043 36.2273C36.545 36.5014 36.665 36.8195 36.665 37.1802C36.6355 37.4232 36.5923 37.6643 36.5358 37.9024C35.9521 39.2082 35.1441 40.2044 34.1131 40.8917C33.1094 41.5707 31.9237 41.9301 30.7119 41.9227C27.653 41.9227 25.5391 41.3213 24.3711 40.1192C23.203 38.9156 22.6187 37.2832 22.6187 35.2219V21.0981H15.4016V18.4688H22.6187V12.4901L20.9692 10.8392V9.5H25.7628L27.5663 10.4273V18.4688L46.2267 18.4176L48.0828 20.273L36.6395 31.7163C37.3323 31.4402 38.0616 31.2665 38.8045 31.2008C40.0414 31.2008 41.4331 31.5963 42.9796 32.3866C44.5432 33.1599 45.746 34.2257 46.5874 35.5819C47.4295 36.9225 47.9706 38.2112 48.2113 39.4482C48.4691 40.6858 48.5983 41.785 48.5983 42.7471C48.5983 44.9469 48.1339 46.9911 47.2066 48.882C46.2785 50.7715 44.8698 52.1802 42.9796 53.1083C41.0894 54.0363 39.0445 54.5 36.8454 54.5Z" fill="white"/>
</svg>
