<svg width="64" height="64" viewBox="0 0 64 64" fill="none" xmlns="http://www.w3.org/2000/svg">
<rect width="64" height="64" rx="32" fill="#E3B459"/>
<path d="M32 59.5C47.1878 59.5 59.5 47.1878 59.5 32C59.5 16.8122 47.1878 4.5 32 4.5C16.8122 4.5 4.5 16.8122 4.5 32C4.5 47.1878 16.8122 59.5 32 59.5Z" fill="#E3B459"/>
<path d="M18.7588 42.9588L28.3563 29.6488C30.1025 27.3663 31.4775 25.7163 33.21 23.6538V23.5163H19.8175V15.225H44.7325V21.495L35.575 34.255C33.8975 36.4688 32.33 38.6 30.5975 40.4563V40.5938H45.2413V48.94H18.7588V42.9588Z" fill="white"/>
<path d="M35.6713 9.07874H28.0675V16.5037H35.6713V9.07874Z" fill="white"/>
<path d="M35.6713 47.4962H28.0675V54.9212H35.6713V47.4962Z" fill="white"/>
</svg>
