<svg width="20" height="20" viewBox="0 0 20 20" fill="none"
    xmlns="http://www.w3.org/2000/svg">
    <path d="M8.21625 14.9999C8.10199 14.9996 7.98902 14.9757 7.88437 14.9298C7.77972 14.8839 7.68562 14.817 7.60792 14.7333L3.55792 10.4249C3.40652 10.2636 3.32542 10.0487 3.33245 9.82758C3.33949 9.60644 3.43408 9.39715 3.59542 9.24576C3.75676 9.09436 3.97163 9.01326 4.19277 9.02029C4.4139 9.02733 4.62319 9.12192 4.77458 9.28326L8.20792 12.9416L15.2162 5.27493C15.2874 5.18636 15.3758 5.11327 15.4762 5.06014C15.5766 5.00702 15.6868 4.97498 15.8001 4.96599C15.9133 4.957 16.0272 4.97126 16.1347 5.00788C16.2422 5.04451 16.3411 5.10273 16.4253 5.17896C16.5095 5.2552 16.5772 5.34785 16.6243 5.45121C16.6714 5.55458 16.6969 5.66648 16.6992 5.78004C16.7014 5.89361 16.6805 6.00644 16.6376 6.1116C16.5946 6.21677 16.5307 6.31205 16.4496 6.39159L8.83292 14.7249C8.75595 14.8102 8.66218 14.8787 8.55749 14.926C8.4528 14.9733 8.33946 14.9985 8.22458 14.9999H8.21625Z" fill="#050C72"/>
</svg>
