<svg width="32" height="32" viewBox="0 0 32 32" fill="none"
  xmlns="http://www.w3.org/2000/svg">
  <circle cx="16" cy="16" r="16" fill="#F1F6FF"/>
  <g clip-path="url(#clip0_258:23287)">
    <path d="M16.0104 17.7061L10.7148 15.1977L16.0104 6L21.3061 15.1977L16.0104 17.7061Z" fill="#5D666C"/>
    <path d="M16.0107 6V17.7061L21.3065 15.1977L16.0107 6Z" fill="#414750"/>
    <path d="M16.011 26.0001L10.5312 16.4238L16.011 19.0306L21.4909 16.4238L16.011 26.0001Z" fill="#5D666C"/>
    <path d="M16.0104 12.8384L10.7148 15.1978L16.0104 17.7062L21.3061 15.1978L16.0104 12.8384Z" fill="#4A4F56"/>
    <path d="M21.3065 15.1978L16.0107 12.8384V17.7062L21.3065 15.1978Z" fill="#32393F"/>
    <path d="M21.4906 16.4238L16.0107 19.0306V26.0001L21.4906 16.4238Z" fill="#414750"/>
  </g>
  <defs>
    <clipPath id="clip0_258:23287">
      <rect width="20" height="20" fill="white" transform="translate(6 6)"/>
    </clipPath>
  </defs>
</svg>
