<svg width="20" height="20" viewBox="0 0 20 20" fill="none"
  xmlns="http://www.w3.org/2000/svg">
  <path fill-rule="evenodd" clip-rule="evenodd" d="M12.347 15.521C13.046 14.361 13.738 12.809 13.936 11H15.91C15.566 13.038 14.197 14.732 12.347 15.521ZM4.09 11H6.065C6.263 12.809 6.954 14.361 7.654 15.521C5.804 14.732 4.435 13.038 4.09 11ZM7.654 4.479C6.954 5.639 6.263 7.191 6.065 9H4.09C4.435 6.962 5.804 5.268 7.654 4.479ZM8.077 9C8.346 7.084 9.316 5.48 10.002 4.557C10.689 5.477 11.657 7.076 11.924 9H8.077ZM9.998 15.443C9.312 14.524 8.344 12.924 8.076 11H11.923C11.654 12.916 10.684 14.521 9.998 15.443ZM15.91 9H13.936C13.738 7.191 13.046 5.639 12.347 4.479C14.197 5.268 15.566 6.962 15.91 9ZM10 2C5.589 2 2 5.589 2 10C2 14.411 5.589 18 10 18C14.411 18 18 14.411 18 10C18 5.589 14.411 2 10 2Z" fill="#050C72"/>
</svg>
