<svg width="80" height="46" viewBox="0 0 80 46" fill="none" xmlns="http://www.w3.org/2000/svg">
  <path fill-rule="evenodd" clip-rule="evenodd" d="M10.3654 13.2142V30.8064H13.869V34H1.75208V30.8064H5.83984V20.3278C5.83984 19.8145 5.85456 19.2778 5.88354 18.7171L3.4751 20.6699C3.3192 20.7939 3.16324 20.8816 3.00781 20.9336C2.85143 20.986 2.70121 21.012 2.55481 21.012C2.30193 21.012 2.07575 20.9577 1.87659 20.8482C1.67695 20.7391 1.52812 20.6226 1.43115 20.4991L0 18.6456L6.62842 13.2142H10.3654ZM23.7957 13C24.8471 13 25.7935 13.1495 26.6353 13.4489C27.4771 13.7483 28.1948 14.1642 28.7885 14.6966C29.3821 15.229 29.837 15.8631 30.1536 16.5998C30.4697 17.3364 30.6279 18.1465 30.6279 19.0307C30.6279 19.7911 30.5186 20.4943 30.2999 21.1404C30.0808 21.7871 29.7814 22.4021 29.4016 22.9865C29.0223 23.5709 28.5817 24.1368 28.0807 24.6831C27.5792 25.2299 27.0464 25.7837 26.4817 26.344L22.3212 30.5073C22.8564 30.355 23.3844 30.2339 23.9049 30.1433C24.4259 30.0533 24.9146 30.0083 25.3723 30.0083H29.3436C29.8299 30.0083 30.2144 30.1387 30.4967 30.4001C30.7786 30.6614 30.9198 31.0063 30.9198 31.4338V33.9998H15.9708V32.5743C15.9708 32.2986 16.0293 32.0038 16.1462 31.6905C16.2627 31.3767 16.4675 31.0917 16.7589 30.835L22.8906 24.8047C23.4163 24.2914 23.8735 23.8021 24.2628 23.3361C24.6521 22.8705 24.9735 22.4119 25.2268 21.9602C25.4797 21.509 25.6689 21.0574 25.7958 20.6057C25.9222 20.1545 25.9855 19.6769 25.9855 19.1732C25.9855 18.346 25.7834 17.7115 25.3799 17.27C24.9754 16.8281 24.3599 16.6072 23.5328 16.6072C23.192 16.6072 22.8806 16.6545 22.5983 16.7497C22.3164 16.8444 22.0631 16.973 21.8397 17.1345C21.6158 17.2961 21.4237 17.4864 21.2631 17.7045C21.1024 17.9232 20.9737 18.1608 20.8757 18.4175C20.7203 18.845 20.523 19.1542 20.2849 19.3441C20.0463 19.5344 19.7231 19.6291 19.3138 19.6291C19.2164 19.6291 19.1118 19.6244 19.0001 19.6151C18.8884 19.6054 18.7743 19.5914 18.6569 19.5724L16.2627 19.1588C16.4181 18.1232 16.7175 17.2199 17.1605 16.4503C17.6035 15.6802 18.1535 15.0387 18.8104 14.5253C19.4678 14.0124 20.2192 13.6299 21.0658 13.3778C21.9124 13.1258 22.8227 13 23.7957 13ZM40.73 13C41.7809 13 42.7273 13.1495 43.5696 13.4489C44.4109 13.7483 45.1286 14.1642 45.7228 14.6966C46.316 15.229 46.7713 15.8631 47.0874 16.5998C47.4035 17.3364 47.5619 18.1465 47.5619 19.0307C47.5619 19.7911 47.4525 20.4943 47.2339 21.1404C47.0148 21.7871 46.7152 22.4021 46.3354 22.9865C45.9561 23.5709 45.5155 24.1368 45.0145 24.6831C44.5131 25.2299 43.9802 25.7837 43.4155 26.344L39.2551 30.5073C39.7903 30.355 40.3184 30.2339 40.8389 30.1433C41.3598 30.0533 41.8489 30.0083 42.3062 30.0083H46.2775C46.7637 30.0083 47.1483 30.1387 47.4307 30.4001C47.7125 30.6614 47.8536 31.0063 47.8536 31.4338V33.9998H32.9048V32.5743C32.9048 32.2986 32.9633 32.0038 33.0802 31.6905C33.1967 31.3767 33.4015 31.0917 33.6934 30.835L39.825 24.8047C40.3502 24.2914 40.8075 23.8021 41.1968 23.3361C41.5861 22.8705 41.9074 22.4119 42.1608 21.9602C42.4136 21.509 42.6028 21.0574 42.7297 20.6057C42.8562 20.1545 42.9193 19.6769 42.9193 19.1732C42.9193 18.346 42.7178 17.7115 42.3137 17.27C41.9097 16.8281 41.2942 16.6072 40.4667 16.6072C40.1259 16.6072 39.8151 16.6545 39.5327 16.7497C39.2504 16.8444 38.997 16.973 38.7736 17.1345C38.5497 17.2961 38.3577 17.4864 38.197 17.7045C38.0364 17.9232 37.9075 18.1608 37.8101 18.4175C37.6541 18.845 37.4569 19.1542 37.2188 19.3441C36.9801 19.5344 36.6569 19.6291 36.2477 19.6291C36.1507 19.6291 36.0461 19.6244 35.934 19.6151C35.8223 19.6054 35.7082 19.5914 35.5908 19.5724L33.1965 19.1588C33.3524 18.1232 33.6515 17.2199 34.095 16.4503C34.5375 15.6802 35.0875 15.0387 35.7444 14.5253C36.4018 14.0124 37.1532 13.6299 37.9998 13.3778C38.8468 13.1258 39.7565 13 40.73 13ZM53.1675 13.228C53.5957 13.228 53.9531 13.3232 54.2402 13.513C54.5273 13.7033 54.7152 13.9549 54.8026 14.2687L57.7225 25.1038C57.8195 25.4556 57.917 25.8307 58.0144 26.2299C58.1114 26.6296 58.1841 27.0473 58.233 27.4846C58.3305 27.038 58.4379 26.6175 58.5543 26.2229C58.6712 25.8288 58.783 25.4556 58.8904 25.1038L62.3356 14.2687C62.423 14.0027 62.6102 13.7628 62.8973 13.5488C63.1844 13.3348 63.5324 13.228 63.9417 13.228H65.4014C65.8292 13.228 66.1824 13.3208 66.46 13.506C66.7371 13.6917 66.9291 13.9456 67.036 14.2687L70.4521 25.1038C70.5596 25.4366 70.6713 25.7903 70.7882 26.1663C70.9047 26.5414 71.0074 26.9429 71.0948 27.3708C71.1728 26.9526 71.2531 26.5534 71.3353 26.1732C71.418 25.7931 71.5036 25.4366 71.5906 25.1038L74.5105 14.2687C74.5884 13.993 74.7738 13.7507 75.0652 13.5418C75.3575 13.3329 75.7078 13.228 76.1166 13.228H80L73.4305 33.9999H68.963L64.9631 21.1262C64.8952 20.9266 64.8243 20.7079 64.7516 20.4707C64.6784 20.233 64.6075 19.981 64.5396 19.715C64.4716 19.981 64.4008 20.233 64.3281 20.4707C64.2554 20.7079 64.1841 20.9266 64.1166 21.1262L60.0582 33.9999H55.5907L49.0217 13.228H53.1675Z" fill="#213960"/>
</svg>
