<svg width="80" height="46" viewBox="0 0 80 46" fill="none" xmlns="http://www.w3.org/2000/svg">
  <path fill-rule="evenodd" clip-rule="evenodd" d="M72.7773 30.5281C73.249 30.6667 73.8462 30.8377 74.438 31.0263C74.4703 31.0364 74.4938 31.2034 74.4616 31.2663C74.3574 31.4724 74.3628 31.7509 73.9416 31.6563C73.2738 31.5062 72.5341 31.2967 71.904 31.4474C70.9164 31.684 70.8936 32.7675 71.5748 33.4002C72.6779 34.2525 73.777 35.1069 74.5684 36.2824C74.8505 36.6596 74.4589 37.9073 74.0968 38.2649C72.9164 39.3552 71.0804 39.1233 69.8758 38.2818C69.9759 38.0817 70.0565 37.8668 70.1902 37.6937C70.5469 37.6647 71.0293 38.127 71.3948 38.1365C71.9201 38.1723 72.4569 38.1277 72.9809 38.0574C73.5304 37.9837 74.0229 36.8231 73.648 36.4128C72.6067 35.0231 70.2037 34.2221 70.2823 32.2619C70.4401 30.8992 71.5822 30.6924 72.7773 30.5281ZM43.2802 30.7417C43.3346 30.7336 43.4642 30.8546 43.4649 30.9168C43.5428 32.9689 43.2056 35.1272 43.8774 37.1023C44.3308 38.0892 45.6214 38.1257 46.5787 38.1459C47.2364 38.1682 48.2247 37.3923 48.2569 36.8231C48.3671 34.8764 48.4403 32.927 48.5538 30.9803C48.5592 30.8898 48.8199 30.7586 48.967 30.7498C49.0799 30.7431 49.3022 30.8972 49.3049 30.9851C49.3311 31.8131 49.321 32.6418 49.321 33.4705H49.3157C49.3043 35.2191 49.6576 37.3706 47.9337 38.4636C47.0503 39.0226 46.0957 39.0138 45.1182 38.8644C43.6698 38.7232 42.8435 37.3024 42.7199 35.9755C42.6507 34.2877 42.6843 32.5951 42.7132 30.9053C42.7138 30.8445 43.0793 30.7735 43.2802 30.7417ZM5.39951 30.7123C6.45088 32.8801 7.14889 35.2479 8.23856 37.3838C9.03196 35.454 9.85425 33.533 10.6745 31.614C10.8801 31.1226 11.0675 30.6238 11.2711 30.131C11.2986 30.0634 11.3692 29.9654 11.4216 29.9648C11.6903 29.96 11.9597 29.9823 12.2291 29.9951C11.6278 31.6018 10.8297 33.1268 10.2244 34.7328C9.98594 35.3033 9.73938 35.8697 9.50223 36.4409C9.09982 37.2716 8.93589 38.249 8.28693 38.9304C7.52174 38.4112 7.36522 37.4764 6.99036 36.6862C6.7176 36.038 6.45559 35.3858 6.17679 34.7402C5.45997 33.1775 4.81436 31.5843 4.17615 29.9877C4.32798 29.9715 4.48048 29.9559 4.80295 29.9228C5.29807 29.7809 5.23424 30.4028 5.39951 30.7123ZM56.657 30.8345C57.9012 31.0238 58.4783 32.4615 58.221 33.6302C58.045 34.1649 57.6815 34.6738 57.2885 35.0882C56.913 35.4836 57.2724 35.6628 57.4142 35.8662C57.7931 36.4083 58.1706 36.9741 58.653 37.4134C59.0527 37.7778 59.6177 37.9528 60.0738 38.2637C60.1806 38.3367 60.1551 38.6179 60.1712 38.8052C60.1746 38.8437 60.0893 38.9255 60.0436 38.9268C59.1944 38.9444 58.5032 38.6071 57.9812 37.9413C57.4599 37.2769 56.9943 36.5644 56.4306 35.9399C56.2479 35.7364 55.8374 35.6789 55.5264 35.6661C54.5959 35.6283 54.5952 35.6499 54.5952 36.584C54.5952 37.2647 54.602 37.946 54.5858 38.6267C54.5838 38.7024 54.4407 38.8471 54.3843 38.8369C54.1666 38.7977 53.7763 38.7146 53.7736 38.6375C53.736 37.3621 53.7468 36.0852 53.7468 34.809C53.7468 33.5707 53.738 32.3324 53.7615 31.0948C53.7635 30.9744 53.9665 30.7561 54.0766 30.7561C54.9372 30.7528 55.8025 30.7453 56.657 30.8345ZM23.3413 30.7259C23.5415 30.7928 23.7988 30.8016 23.9305 30.9361C24.4034 31.418 24.8401 31.9378 25.2808 32.4515C26.6016 34.0305 27.966 35.6243 29.3056 37.1607C29.4097 35.1072 29.3069 33.022 29.3533 30.9584C29.3533 30.882 29.5098 30.7333 29.5683 30.7448C29.7819 30.7874 30.1655 30.8813 30.1668 30.9597C30.0876 33.5729 30.4121 36.3611 30.0661 38.8972C29.9277 38.9107 29.7275 38.9074 29.6509 38.8215C29.0758 38.178 28.527 37.5116 27.9653 36.8559C26.6876 35.3695 25.3863 33.8649 24.1038 32.4042C24.0023 34.4631 24.1085 36.5585 24.0433 38.6289C24.042 38.7059 23.6758 38.7925 23.4716 38.8371C23.4266 38.8472 23.2923 38.6992 23.2916 38.6235C23.2802 37.3426 23.2835 36.0617 23.2835 34.7801C23.3292 33.4343 23.1895 32.0554 23.3413 30.7259ZM66.613 30.7555C66.6875 30.7576 66.7715 31.1029 66.8091 31.2963C66.8199 31.351 66.6822 31.495 66.611 31.4963C66.183 31.5761 63.7598 31.3395 63.7592 31.6592C63.7887 34.9463 63.2257 33.9074 66.3228 34.1068C66.3967 34.1088 66.5216 34.3177 66.5196 34.4279C66.5169 34.5529 66.4007 34.78 66.3275 34.7821C65.5334 34.8078 64.7373 34.7942 63.9419 34.8064C63.8781 34.8071 63.7612 34.9193 63.7605 34.9808C63.7491 35.9521 63.7491 36.9234 63.7605 37.8947C63.7202 38.2523 66.3248 37.9961 66.7594 38.08C67.0288 38.1489 66.8159 38.8018 66.7648 38.8255C66.2502 38.7633 62.8085 39.079 62.8865 38.6275L62.8776 36.7132L62.8777 34.799C62.8777 33.5322 62.8724 32.2649 62.8898 30.9989C62.8912 30.909 63.0565 30.744 63.1478 30.7433C64.3033 30.7258 65.4588 30.7211 66.613 30.7555ZM19.1541 30.7474C19.3644 30.8468 19.3718 31.3875 19.1609 31.4889C18.2479 31.5133 17.3335 31.5031 16.4199 31.5119C16.3702 31.5119 16.2788 31.6045 16.2781 31.6545C16.3057 34.9004 15.7521 33.9135 18.7873 34.1129C18.8827 34.1176 18.9902 34.3988 19.0386 34.5678C19.0527 34.6165 18.8827 34.7854 18.7947 34.7875C18.403 34.8666 16.2788 34.6415 16.2781 34.9524C16.2694 35.9474 16.2701 36.943 16.2775 37.938C16.2775 37.9826 16.3614 38.0644 16.4071 38.0651C17.3591 38.0725 18.311 38.0671 19.2623 38.08C19.3194 38.0806 19.4276 38.2165 19.4195 38.276C19.394 38.4706 19.3288 38.8242 19.271 38.8248C18.7537 38.764 15.3497 39.0729 15.4021 38.641C15.3907 37.3641 15.394 36.088 15.394 34.8118C15.394 33.5302 15.39 32.2493 15.4041 30.9684C15.4055 30.8887 15.5512 30.7427 15.6318 30.742C16.8062 30.7271 17.9805 30.7251 19.1541 30.7474ZM39.333 30.7552C39.3955 30.7559 39.4694 31.1108 39.5016 31.3068C39.5111 31.3629 39.3942 31.4981 39.3337 31.4988C38.5719 31.5123 37.8094 31.5028 37.0469 31.5164C36.981 31.5177 36.8608 31.6387 36.8608 31.7043C36.8507 34.0187 36.8574 36.3331 36.8272 38.6475C36.8265 38.7171 36.4584 38.8009 36.2542 38.8374C35.8349 38.9543 36.1238 35.6443 36.0432 35.1738C36.0432 34.0072 36.0452 32.8405 36.0365 31.6739C36.0734 31.3467 33.968 31.5725 33.5938 31.4988C33.5441 31.4981 33.4494 31.3589 33.4574 31.2953C33.4809 31.104 33.5434 30.7559 33.5945 30.7552C35.5078 30.7269 37.4204 30.7255 39.333 30.7552ZM54.5959 33.18C54.5959 33.6985 54.5939 34.2169 54.5986 34.7354C54.5993 34.784 54.6396 34.8706 54.6678 34.8733C55.9261 34.997 56.4951 35.2254 57.2684 33.8999C57.7763 32.3446 57.0675 31.4753 55.4713 31.4733C54.1431 31.3246 54.6953 32.3175 54.5959 33.18ZM80 6V26.082H0V6H80ZM78.5597 7.44922H1.44034V24.6328H78.5597V7.44922ZM72.1332 12.6397C72.537 13.1183 72.6868 14.6783 72.3448 15.2231C72.0694 15.6605 71.7174 16.0525 71.4749 16.5054C71.4204 16.6061 71.6663 16.8887 71.8 17.0685C72.1016 17.4754 72.3838 17.9073 72.7432 18.2581C73.5151 19.1828 74.5967 18.7948 74.4812 19.712C74.4395 20.2372 74.4436 20.6184 73.761 20.3724C73.19 20.1669 72.545 20.0851 72.0533 19.7627C71.1739 19.1355 70.709 17.9188 69.9116 17.209C69.6737 17.0272 69.1914 17.159 68.8212 17.1827C68.7991 17.1834 68.7843 17.4747 68.7836 17.6308C68.7802 18.469 68.787 19.3071 68.7735 20.1446C68.7722 20.2142 68.6472 20.3413 68.5787 20.342C67.2939 20.3608 67.2445 20.3584 67.2426 19.1594L67.2425 19.0097C67.2425 17.9816 67.2425 16.9528 67.2418 15.9247C67.2418 14.5296 67.2391 13.1345 67.2492 11.7394C67.2492 11.6772 67.3567 11.5636 67.4185 11.5602C69.0671 11.4927 71.0079 11.1033 72.1332 12.6397ZM10.1052 10.4627C11.469 10.7344 12.464 10.6668 13.5825 11.2096C13.6685 11.4941 13.3803 12.022 13.3225 12.3397C13.2338 12.8217 12.9181 12.5263 12.7273 12.5033C11.7767 12.1903 10.771 12.137 9.77405 12.1289C9.05925 12.1295 8.49491 12.4837 8.0018 13.0049C6.49964 14.598 6.82547 17.3234 8.72534 18.4258C9.64975 19.0227 10.6427 18.9774 11.6464 18.8159C12.0824 18.8253 12.9967 18.2028 13.2863 18.5435C13.5301 19.097 14.0998 19.8021 13.1888 19.9325C12.1395 20.1394 11.0747 20.4145 10.0206 20.3976C8.01324 20.2894 5.81644 18.4448 5.5719 16.3805C5.22861 14.3763 6.13218 12.1106 7.91986 11.1116C8.62526 10.7337 9.4791 10.6364 10.1052 10.4627ZM24.7797 15.8977C24.9114 21.8851 16.0039 21.8324 16.0153 15.9268C15.9871 9.93733 24.8973 9.92447 24.7797 15.8977ZM29.679 12.6823L29.6791 12.828C29.6791 14.7619 29.6778 16.6951 29.6872 18.6289C29.6878 18.6897 29.8041 18.8033 29.8665 18.804C30.3536 18.8912 33.2578 18.6201 33.2263 18.9959C33.2437 20.301 33.2419 20.3493 32.0347 20.3511L31.89 20.3512C30.7157 20.3512 29.5414 20.3552 28.3671 20.341C27.8968 20.3978 28.2368 16.5071 28.1387 15.9008C28.1387 14.4908 28.136 13.0815 28.1467 11.6715C28.1474 11.6059 28.2643 11.4836 28.3295 11.4829C29.6291 11.4647 29.6773 11.4665 29.679 12.6823ZM37.2742 12.6486L37.2744 12.7962C37.2744 14.7294 37.2717 16.6625 37.2838 18.5957C37.2844 18.6687 37.4221 18.8019 37.4974 18.8032C37.977 18.8918 40.8625 18.6221 40.8215 18.9945C40.8376 20.3009 40.8364 20.3493 39.6293 20.351L39.4846 20.3511C38.315 20.3511 37.146 20.3558 35.9764 20.3403C35.488 20.4397 35.8313 16.4834 35.7339 15.8893C35.7339 14.4942 35.7306 13.099 35.7433 11.7039C35.744 11.6268 35.881 11.4855 35.9563 11.4842C37.223 11.464 37.2717 11.4664 37.2742 12.6486ZM63.8091 11.4863C64.3062 11.6343 63.9522 12.5428 63.975 12.9382C63.9723 12.9666 63.8736 13.0045 63.8192 13.0045C62.9384 13.0085 62.0577 13.0044 61.1769 13.0153C61.1198 13.0159 61.0197 13.1248 61.015 13.1883C61.0493 13.4958 60.7705 14.8288 61.144 14.8268C61.5988 14.8984 63.6008 14.6828 63.7043 14.9755C63.7238 16.2847 63.7305 16.3071 62.4198 16.3023C61.9461 16.3023 61.3476 16.1401 61.0426 16.3693C60.8262 16.5322 61.0157 17.2284 61.007 17.686C60.9996 18.0375 60.9626 18.3883 60.9512 18.7391C60.9505 18.7621 61.0601 18.8087 61.1178 18.8094C62.0698 18.8134 63.0217 18.808 63.973 18.8209C64.3411 18.9371 64.1322 19.7895 64.1631 20.1139C64.1571 20.1977 64.0146 20.3397 63.934 20.341C62.5091 20.3546 61.0836 20.3559 59.6587 20.339C59.5666 20.3377 59.398 20.1667 59.3966 20.072C59.3792 18.6823 59.3846 17.2912 59.3846 15.9008C59.3846 14.5152 59.3798 13.1288 59.396 11.7438C59.3973 11.6533 59.5592 11.4877 59.6479 11.4863C61.0352 11.4701 62.4218 11.4694 63.8091 11.4863ZM43.6187 11.4845C44.04 11.4886 44.4612 11.517 44.8811 11.5508C44.912 11.5528 44.9563 11.661 44.9563 11.7204C44.9604 14.5046 44.9623 17.2888 44.9476 20.073C44.9476 20.1662 44.7743 20.3373 44.6795 20.3386C43.4722 20.3613 43.4239 20.3566 43.422 19.2331L43.4219 15.9025C43.4219 14.4938 43.4192 13.0845 43.43 11.6758C43.4306 11.6083 43.5536 11.4839 43.6187 11.4845ZM52.295 11.5177C53.9242 11.7874 55.4559 12.9601 55.8711 14.6128C56.336 16.2844 56.0887 18.1851 54.7283 19.3788C53.2974 20.6644 51.1678 20.2568 49.3922 20.3386C48.9219 20.34 48.6465 20.1737 48.6888 19.5491C48.7714 18.3352 48.713 17.1124 48.713 15.893C48.713 14.5357 48.7056 13.1784 48.7264 11.8212C48.7284 11.7063 48.9165 11.4974 49.022 11.4947C50.115 11.4683 51.2316 11.3386 52.295 11.5177ZM20.425 12.8891C16.6992 12.7769 16.6791 18.9273 20.4083 18.9259C24.1408 18.9732 24.1166 12.7594 20.425 12.8891ZM50.4335 12.9128C50.0774 12.8797 50.328 15.4644 50.2568 15.8876C50.2568 16.8305 50.2555 17.7728 50.2608 18.7157C50.2608 18.7745 50.3213 18.8854 50.3482 18.8834C51.1913 18.8306 52.0438 18.8272 52.8735 18.6887C54.8714 18.2703 55.0481 15.3962 53.8866 14.0159C53.0434 12.9398 51.6992 12.8229 50.4335 12.9128ZM69.0812 12.9189C68.396 12.9797 68.9468 13.5259 68.7937 13.8172C68.7265 13.9436 68.7823 14.1342 68.7823 14.2964C68.838 15.0298 68.4443 15.872 69.5642 15.7098C70.1628 15.6456 70.8279 15.2319 70.8843 14.6419C71.2088 13.2832 70.3079 12.854 69.0812 12.9189Z" fill="#213960"/>
</svg>
