<svg width="80" height="46" viewBox="0 0 80 46" fill="none" xmlns="http://www.w3.org/2000/svg">
  <path fill-rule="evenodd" clip-rule="evenodd" d="M47.1106 31.2266C45.824 33.409 43.2873 34.8947 40.3675 34.8947C37.4417 34.8947 34.9009 33.4031 33.6166 31.213V24.7194V20.254V13.761C34.9009 11.5709 37.4417 10.0787 40.3675 10.0787C43.2873 10.0787 45.824 11.5644 47.1106 13.7474V17.6331H56V10.5426C52.6138 5.99209 46.8755 3 40.3675 3C33.3612 3 27.2483 6.46722 24 11.6134V33.3872C27.2483 38.5328 33.3612 42 40.3675 42C46.8755 42 52.6138 39.0079 56 34.458V26.9243H47.1106V31.2266Z" fill="#213960"/>
</svg>
