<svg width="80" height="46" viewBox="0 0 80 46" fill="none" xmlns="http://www.w3.org/2000/svg">
  <path d="M18 30.9563V14.9761C18 9.52618 22.5262 5 27.976 5C33.4259 5 37.9521 9.52618 37.9521 14.9761V15.5303H33.7954V14.9761C33.7954 11.7431 31.209 9.15668 27.976 9.15668C24.7431 9.15668 22.1567 11.7431 22.1567 14.9761V30.9563C22.1567 34.1892 24.7431 36.7756 27.976 36.7756C31.209 36.7756 33.7954 34.1892 33.7954 30.9563V25.0445H27.8837V20.8878H37.8597V30.8639C37.8597 36.4062 33.3336 40.84 27.8837 40.84C22.4338 40.84 18 36.4062 18 30.9563Z" fill="#213960"/>
  <path d="M41.9241 5.5542H52.0849C57.4424 5.5542 61.9685 9.98798 61.9685 15.4379C61.9685 18.8556 59.9364 21.5344 57.6271 23.1047C59.9364 24.675 61.9685 27.2614 61.9685 30.7715C61.9685 36.129 57.5347 40.6552 52.0849 40.6552H41.9241V5.5542ZM52.0849 20.8878C55.2255 20.8878 57.7195 18.3014 57.7195 15.3455C57.7195 12.2049 55.1331 9.71088 52.0849 9.71088H46.0808V20.9802L52.0849 20.8878ZM52.0849 36.2214C55.2255 36.2214 57.7195 33.635 57.7195 30.5868C57.7195 27.4461 55.1331 25.0445 52.0849 25.0445H46.0808V36.2214H52.0849Z" fill="#213960"/>
</svg>
