<svg width="80" height="46" viewBox="0 0 80 46" fill="none" xmlns="http://www.w3.org/2000/svg">
  <path d="M3 8.35822H10.3623C10.4183 8.49167 10.4809 8.60806 10.5182 8.73228C10.77 9.56656 11.0108 10.4039 11.2649 11.2377C11.5796 12.2728 11.9039 13.3038 12.2234 14.3367C12.528 15.3245 12.8333 16.3127 13.1394 17.3012C13.4471 18.2961 13.7608 19.2898 14.0682 20.2853C14.3623 21.2365 14.6474 22.1917 14.9453 23.1423C15.1227 23.7078 15.3239 24.2659 15.5021 24.8308C15.6314 25.2409 15.7363 25.6586 15.8611 26.0702C15.9912 26.5005 16.1358 26.9266 16.2676 27.3571C16.4525 27.9609 16.6262 28.568 16.8143 29.1706C16.9849 29.7187 17.1738 30.2617 17.3439 30.8093C17.4773 31.239 17.5915 31.6746 17.7202 32.106C17.7851 32.324 17.8631 32.5383 17.9515 32.8035C18.8037 30.0589 19.6467 27.3568 20.4804 24.6528C21.3167 21.9365 22.1348 19.2143 22.9735 16.4985C23.8087 13.7937 24.622 11.0815 25.4843 8.36102C27.9043 8.36102 30.2905 8.36102 32.677 8.36353C32.7492 8.36353 32.8214 8.4013 32.8827 8.41949C32.9462 8.65842 32.956 38.2082 32.8911 38.5324C32.8141 38.5453 32.7232 38.5736 32.6345 38.5738C31.3873 38.5766 30.1402 38.5766 28.8933 38.5738C28.8297 38.5696 28.7663 38.5612 28.7036 38.5492C28.6878 38.4768 28.6761 38.4035 28.6684 38.3299C28.6622 38.2149 28.6664 38.0996 28.6664 37.9846V13.0456H28.0568C25.4519 21.1279 22.8457 29.2144 20.2382 37.3051C20.0087 37.38 16.0695 37.4007 15.6778 37.3297C13.0583 29.2476 10.4346 21.1528 7.80656 13.0453H7.25596V38.4569C7.13818 38.6124 7.00416 38.5736 6.88498 38.5738C5.5898 38.5764 4.29481 38.5769 3 38.5755V8.35822ZM76.6719 25.0493C76.6176 25.3478 76.5455 25.6441 76.5124 25.9445C76.3919 27.0343 76.1266 28.0862 75.7758 29.1239C75.5453 29.8131 75.2722 30.4874 74.9588 31.143C74.4849 32.1253 73.917 33.0596 73.2634 33.9327C72.6082 34.8162 71.8693 35.6343 71.0574 36.3762C70.7608 36.6456 70.4698 36.9243 70.1545 37.1694C69.7556 37.4788 69.3404 37.7686 68.9193 38.0479C68.4901 38.3324 68.0565 38.6138 67.6044 38.8592C67.1262 39.1186 66.6221 39.3298 66.1327 39.569C65.3827 39.9363 64.5903 40.1879 63.7876 40.4024C63.0773 40.5924 62.365 40.7776 61.6255 40.8336C61.3052 40.8579 60.9893 40.9377 60.6712 40.9922H57.6216C57.3877 40.9553 57.1539 40.9189 56.92 40.8803C56.4007 40.7964 55.8772 40.7348 55.3638 40.6235C54.8323 40.5082 54.3074 40.3496 53.7817 40.2024C53.0238 39.9901 52.2989 39.6817 51.5913 39.3485C50.9182 39.0324 50.2588 38.6813 49.6483 38.2487C49.11 37.8674 48.5485 37.5157 48.0351 37.1036C47.5514 36.7156 47.1043 36.2788 46.6642 35.8396C46.2636 35.4434 45.8836 35.0269 45.5261 34.5913C45.1411 34.1156 44.7877 33.6137 44.4422 33.1084C44.1728 32.7145 43.928 32.3033 43.689 31.8898C43.4977 31.5593 43.3332 31.2135 43.1536 30.8764C43.1107 30.7956 43.0545 30.7217 42.993 30.6268L43.0285 30.5762C42.7277 29.7545 42.3537 28.965 42.1785 28.1044C42.0719 27.5795 41.9122 27.0648 41.8266 26.5377C41.727 25.9252 41.6707 25.3047 41.6181 24.6858C41.5801 24.2382 41.5658 23.7872 41.5622 23.3379C41.558 22.4846 41.6489 21.6377 41.7776 20.7953C41.8467 20.3418 41.9147 19.8852 42.0269 19.4412C42.2404 18.5966 42.4631 17.753 42.8173 16.9512C42.9641 16.6191 43.0996 16.282 43.252 15.9527C43.5103 15.3985 43.8029 14.861 44.1286 14.3434C44.5393 13.686 44.9604 13.0358 45.4715 12.4513C45.9119 11.9477 46.3486 11.438 46.8234 10.9685C47.2654 10.5312 47.7338 10.1211 48.2253 9.7403C48.7737 9.31504 49.347 8.91888 49.932 8.54483C50.341 8.28324 50.7814 8.06753 51.219 7.85323C51.7419 7.59695 52.2631 7.32781 52.8089 7.13001C53.5179 6.87318 54.2447 6.65831 54.9747 6.46806C55.5379 6.32118 56.1173 6.23501 56.6911 6.13233C56.9166 6.09205 57.1474 6.08169 57.3752 6.05288C57.4591 6.04253 57.5397 6.01819 57.6216 6H60.5571C60.7431 6.03413 60.9278 6.08197 61.1166 6.0996C61.8603 6.16982 62.5994 6.27194 63.321 6.46471C63.7731 6.58557 64.2196 6.72741 64.6656 6.86898C65.0117 6.97893 65.3605 7.08469 65.6949 7.22457C66.7368 7.65962 67.7616 8.12908 68.6885 8.78711C68.9923 9.00282 69.3183 9.18775 69.6157 9.41129C70.7348 10.2506 71.7551 11.2018 72.6473 12.2834C73.128 12.8649 73.5731 13.475 73.9799 14.1104C74.4561 14.8502 74.8727 15.6267 75.2258 16.4325C75.5537 17.1879 75.8516 17.9548 76.0589 18.7518C76.2293 19.4073 76.3804 20.0677 76.5116 20.7332C76.5807 21.0865 76.5843 21.4525 76.6218 21.8126C76.6283 21.8763 76.6563 21.9382 76.6744 22.0011L76.6719 25.0493ZM41.8159 23.4428C41.8691 24.1962 41.8968 24.9536 41.9838 25.7023C42.051 26.28 42.1875 26.8493 42.3036 27.4215C42.5252 28.5157 42.9166 29.5534 43.3749 30.5667C43.5363 30.9242 43.7159 31.2737 43.8983 31.6209C44.0942 31.9933 44.2763 32.3763 44.5096 32.7235C44.8557 33.2391 45.2289 33.7385 45.6145 34.2259C45.9642 34.6679 46.3279 35.1021 46.719 35.5075C47.0827 35.8844 47.4862 36.2226 47.879 36.5707C48.1588 36.8174 48.4329 37.0742 48.7382 37.2855C49.2977 37.6721 49.8634 38.0509 50.4515 38.3906C51.0553 38.7392 51.6702 39.0808 52.3129 39.3471C53.2831 39.7542 54.2859 40.0793 55.3104 40.3196C56.1346 40.5099 56.9684 40.6114 57.8052 40.6934C58.3555 40.7446 58.9081 40.7631 59.4606 40.7494C60.0143 40.7382 60.5677 40.6836 61.1197 40.6307C61.4809 40.596 61.8412 40.5429 62.1977 40.4755C62.5894 40.401 62.9777 40.2936 63.3697 40.213C64.087 40.0656 64.7657 39.7981 65.449 39.5483C66.1411 39.2959 66.8073 38.9776 67.4382 38.5971C67.9779 38.2711 68.5293 37.9623 69.0472 37.6036C69.5175 37.2774 69.9567 36.9041 70.3937 36.5334C70.7781 36.2069 71.153 35.867 71.5092 35.51C71.817 35.2006 72.1054 34.8665 72.3832 34.5308C72.7587 34.0731 73.1453 33.6199 73.4743 33.1289C73.8451 32.5735 74.1576 31.979 74.4925 31.4001C74.8581 30.7679 75.1231 30.0888 75.3768 29.4082C75.7109 28.5103 75.9638 27.5843 76.1322 26.6412C76.259 25.9342 76.3658 25.2258 76.384 24.5062C76.3905 24.2502 76.4142 23.9948 76.4196 23.7388C76.426 23.4263 76.4341 23.1127 76.4196 22.8007C76.4008 22.43 76.3636 22.0599 76.3236 21.6903C76.2808 21.2913 76.257 20.8868 76.1708 20.4965C76.0161 19.7971 75.8351 19.1013 75.6393 18.4116C75.3945 17.5561 75.0548 16.7375 74.6586 15.9376C74.3481 15.31 73.9931 14.713 73.6235 14.1207C73.06 13.2151 72.3939 12.3884 71.6589 11.6212C71.19 11.1319 70.6797 10.6795 70.1668 10.2355C69.2735 9.46276 68.2853 8.82292 67.244 8.27121C66.6847 7.97825 66.1106 7.71445 65.5242 7.48085C64.7022 7.14495 63.8537 6.87806 62.9872 6.68293C62.4078 6.55479 61.8275 6.43393 61.2341 6.38749C60.634 6.34077 60.0347 6.28229 59.434 6.24312C59.2645 6.23221 59.0877 6.30356 58.9215 6.28117C58.6277 6.24479 58.3303 6.24677 58.0368 6.28705C57.4392 6.36063 56.8338 6.38105 56.2418 6.48541C55.006 6.7009 53.7968 7.04715 52.6343 7.51834C51.8079 7.85256 51.0091 8.25213 50.2462 8.71325C49.6016 9.10706 48.9793 9.53671 48.3829 10.0002C47.79 10.4582 47.247 10.9674 46.7238 11.4948C46.2538 11.9687 45.8285 12.4908 45.413 13.0145C44.7321 13.8714 44.1719 14.8087 43.6717 15.7812C43.252 16.599 42.9141 17.4537 42.6329 18.3271C42.3335 19.257 42.1248 20.2138 42.0098 21.1839C41.92 21.9334 41.8417 22.6827 41.8159 23.4428Z" fill="#213960"/>
  <path d="M57.8145 22.9814C58.1933 22.6935 58.576 22.4826 59.0206 22.4115C59.71 22.2996 60.3781 22.3472 60.9906 22.7193C61.4032 22.9711 61.6511 23.3628 61.8067 23.8006C62.0711 24.5429 62.1091 25.3114 61.8445 26.0564C61.5367 26.9257 60.9128 27.459 59.987 27.6173C59.4193 27.7175 58.8371 27.6973 58.2778 27.558C57.5504 27.377 57.0487 26.9305 56.7331 26.2548C56.535 25.8309 56.4693 25.3797 56.4019 24.9245C56.3059 24.276 56.3179 23.6238 56.3593 22.9764C56.3963 22.3964 56.4601 21.8072 56.6095 21.2482C56.7493 20.7264 57.0157 20.2329 57.4552 19.8807C57.8134 19.5939 58.2369 19.4174 58.6938 19.3916C59.123 19.3685 59.5533 19.3799 59.9808 19.4258C60.7642 19.5077 61.5913 20.2461 61.7065 21.2541C61.7331 21.4863 61.8386 21.723 61.6875 21.9513C61.302 21.8626 60.5169 21.8987 60.3415 22.0196C60.2805 21.7462 60.2279 21.4754 60.1588 21.2082C60.1146 21.0409 60.0192 20.8915 59.8863 20.7808C59.7534 20.67 59.5891 20.6034 59.4165 20.5902C59.3021 20.5815 59.1854 20.5969 59.0715 20.5846C58.6169 20.5362 58.228 20.8644 58.0674 21.2896C57.8923 21.7535 57.8646 22.2409 57.8251 22.7263C57.8204 22.8015 57.8192 22.8754 57.8145 22.9814ZM59.2097 26.4571C59.736 26.4977 60.1297 26.2612 60.3569 25.7856C60.5751 25.3285 60.5902 24.8447 60.4005 24.3677C60.3129 24.1467 60.2223 23.9307 60.0066 23.7855C59.7044 23.5821 59.391 23.5197 59.0301 23.572C58.5777 23.6372 58.2596 23.8711 58.0903 24.2737C57.9099 24.7032 57.857 25.1508 58.0196 25.6147C58.2042 26.1451 58.5856 26.5038 59.2097 26.4571Z" fill="#213960"/>
</svg>
