<svg width="48" height="48" viewBox="0 0 48 48" fill="none" xmlns="http://www.w3.org/2000/svg">
  <path d="M24.4974 12.3148L32.1401 19.9588C32.4149 20.2338 32.8607 20.2338 33.1355 19.9588L37.1638 15.9296C37.4387 15.6548 37.4387 15.2092 37.1638 14.9344L24.4972 2.26484C24.2224 1.98985 23.7766 1.98985 23.5018 2.26484L10.8398 14.9297C10.565 15.2046 10.565 15.6502 10.8398 15.925L14.8681 19.9542C15.143 20.2292 15.5887 20.2292 15.8636 19.9542L23.5018 12.3148C23.777 12.0398 24.2226 12.0398 24.4974 12.3148Z" fill="white"/>
  <path d="M6.29719 19.4722L2.26868 23.5016C1.99386 23.7764 1.99386 24.222 2.26868 24.4968L6.29685 28.526C6.57167 28.801 7.01746 28.801 7.29228 28.526L11.3208 24.4967C11.5956 24.2218 11.5956 23.7762 11.3208 23.5014L7.29245 19.4724C7.0178 19.1974 6.57218 19.1974 6.29719 19.4722Z" fill="white"/>
  <path d="M24.4974 45.7352L37.1662 33.0634C37.441 32.7884 37.441 32.3426 37.1659 32.0678L33.1353 28.0408C32.8603 27.7662 32.4149 27.7664 32.1401 28.0412L24.4974 35.6851C24.2226 35.96 23.7768 35.96 23.502 35.6851L15.863 28.0449C15.5884 27.7703 15.1433 27.7699 14.8683 28.0443L10.834 32.0682C10.5585 32.343 10.5581 32.7889 10.8333 33.0641L23.502 45.735C23.7769 46.01 24.2226 46.01 24.4974 45.7352Z" fill="white"/>
  <path d="M40.7076 19.4747L36.6791 23.504C36.4043 23.7789 36.4043 24.2245 36.6791 24.4993L40.7075 28.5285C40.9823 28.8035 41.4281 28.8035 41.7029 28.5285L45.7314 24.4991C46.0062 24.2243 46.0062 23.7787 45.7314 23.5039L41.7031 19.4747C41.4281 19.1998 40.9825 19.1998 40.7076 19.4747Z" fill="white"/>
  <path d="M28.6024 23.5024L24.4976 19.3967C24.2228 19.1217 23.777 19.1217 23.5021 19.3967L19.3973 23.5024C19.1225 23.7772 19.1225 24.2228 19.3973 24.4977L23.5021 28.6037C23.777 28.8787 24.2228 28.8787 24.4976 28.6037L28.6024 24.4977C28.8773 24.2227 28.8773 23.7772 28.6024 23.5024Z" fill="white"/>
</svg>
