<svg width="48" height="48" viewBox="0 0 48 48" fill="none" xmlns="http://www.w3.org/2000/svg">
  <g clip-path="url(#clip0)">
    <path d="M39.9757 25.182C38.8606 23.74 37.1778 22.7496 34.9275 22.2112C37.7931 20.7495 39.0525 18.2687 38.7067 14.7683C38.5911 13.4989 38.2403 12.3988 37.6535 11.4664C37.0663 10.5337 36.2739 9.78391 35.2732 9.21669C34.2733 8.64876 33.1859 8.21642 32.0133 7.91836C30.8405 7.6203 29.494 7.40388 27.9747 7.2694V0H23.5327V7.06743C22.7635 7.06743 21.5905 7.08663 20.0137 7.12512V0H15.5711V7.2694C14.9363 7.2887 14.0037 7.2985 12.773 7.2985L6.65762 7.2694V12.0004H9.85938C11.321 12.0004 12.1768 12.6544 12.4267 13.9619V22.2411C12.6193 22.2411 12.773 22.251 12.8885 22.2701H12.4267V33.8661C12.2731 34.8466 11.7154 35.3374 10.7538 35.3374H7.5522L6.65783 40.6164H12.4272C12.7927 40.6164 13.3212 40.6213 14.0138 40.63C14.706 40.6397 15.225 40.6445 15.5713 40.6445V48.0003H20.0146V40.731C20.8221 40.7507 21.9951 40.7601 23.5336 40.7601V48.0003H27.9757V40.6445C29.553 40.5677 30.9519 40.4243 32.1726 40.212C33.3938 39.9997 34.5624 39.6685 35.6775 39.2163C36.7926 38.7646 37.7251 38.2017 38.475 37.5286C39.2253 36.8561 39.845 36 40.3362 34.9613C40.8259 33.9226 41.1388 32.7207 41.273 31.355C41.524 28.6826 41.0911 26.6246 39.9757 25.182ZM20.1001 12.3168C20.2348 12.3168 20.6146 12.312 21.2396 12.3023C21.8649 12.2924 22.3839 12.2829 22.7974 12.2732C23.2109 12.2637 23.7686 12.2877 24.4708 12.3454C25.1727 12.4031 25.764 12.4802 26.2446 12.5762C26.7253 12.6721 27.2546 12.8309 27.831 13.052C28.4084 13.273 28.8697 13.5424 29.2154 13.8596C29.5619 14.1769 29.8551 14.5809 30.095 15.0714C30.3357 15.5617 30.4559 16.1242 30.4559 16.7587C30.4559 17.2972 30.3696 17.7877 30.1967 18.2303C30.0241 18.6725 29.7638 19.0428 29.4181 19.3409C29.0722 19.639 28.7158 19.8989 28.3503 20.1199C27.9853 20.3408 27.5185 20.5189 26.9514 20.6534C26.3844 20.788 25.8892 20.8938 25.4663 20.9706C25.0432 21.0476 24.5145 21.1006 23.8798 21.1293C23.2449 21.158 22.764 21.1776 22.4373 21.1871C22.1102 21.1966 21.6632 21.1966 21.0957 21.1871C20.5281 21.1776 20.1968 21.1726 20.1004 21.1726V12.3167H20.1001V12.3168ZM32.2306 31.9611C32.0474 32.4036 31.8122 32.7885 31.5239 33.1157C31.2351 33.442 30.8551 33.7308 30.3842 33.9804C29.9134 34.2308 29.4562 34.4324 29.0143 34.5862C28.5717 34.7407 28.0378 34.8746 27.4134 34.9904C26.7876 35.1059 26.2399 35.1871 25.7682 35.2355C25.2973 35.2837 24.735 35.322 24.0809 35.3511C23.4273 35.3794 22.9174 35.394 22.5521 35.394C22.1867 35.394 21.7251 35.3888 21.1673 35.3794C20.6093 35.3704 20.2539 35.3655 20.0999 35.3655V25.615C20.2535 25.615 20.7103 25.6056 21.4701 25.586C22.23 25.5666 22.8499 25.5576 23.3307 25.5576C23.8115 25.5576 24.4752 25.586 25.3217 25.6441C26.1673 25.7014 26.8789 25.7875 27.4564 25.9029C28.0331 26.0185 28.6624 26.1961 29.3457 26.4368C30.0282 26.6771 30.5813 26.9703 31.0046 27.3164C31.4277 27.6632 31.7833 28.1048 32.0716 28.6435C32.3607 29.1818 32.5049 29.7973 32.5049 30.4898C32.5048 31.0288 32.4135 31.5185 32.2306 31.9611Z" fill="white"/>
  </g>
  <defs>
    <clipPath id="clip0">
      <rect width="48" height="48" fill="white"/>
    </clipPath>
  </defs>
</svg>
