<svg width="48" height="48" viewBox="0 0 48 48" fill="none" xmlns="http://www.w3.org/2000/svg">
  <path d="M15.7734 26.7422C17.2879 26.7422 18.5156 25.5145 18.5156 24C18.5156 22.4855 17.2879 21.2578 15.7734 21.2578C14.259 21.2578 13.0312 22.4855 13.0312 24C13.0312 25.5145 14.259 26.7422 15.7734 26.7422Z" fill="white"/>
  <path d="M32.2266 26.7422C33.741 26.7422 34.9688 25.5145 34.9688 24C34.9688 22.4855 33.741 21.2578 32.2266 21.2578C30.7121 21.2578 29.4844 22.4855 29.4844 24C29.4844 25.5145 30.7121 26.7422 32.2266 26.7422Z" fill="white"/>
  <path d="M19.8867 19.8867C21.4012 19.8867 22.6289 18.659 22.6289 17.1445C22.6289 15.6301 21.4012 14.4023 19.8867 14.4023C18.3723 14.4023 17.1445 15.6301 17.1445 17.1445C17.1445 18.659 18.3723 19.8867 19.8867 19.8867Z" fill="white"/>
  <path d="M28.1133 19.8867C29.6277 19.8867 30.8555 18.659 30.8555 17.1445C30.8555 15.6301 29.6277 14.4023 28.1133 14.4023C26.5988 14.4023 25.3711 15.6301 25.3711 17.1445C25.3711 18.659 26.5988 19.8867 28.1133 19.8867Z" fill="white"/>
  <path d="M19.8867 33.5977C21.4012 33.5977 22.6289 32.3699 22.6289 30.8555C22.6289 29.341 21.4012 28.1133 19.8867 28.1133C18.3723 28.1133 17.1445 29.341 17.1445 30.8555C17.1445 32.3699 18.3723 33.5977 19.8867 33.5977Z" fill="white"/>
  <path d="M28.1133 33.5977C29.6277 33.5977 30.8555 32.3699 30.8555 30.8555C30.8555 29.341 29.6277 28.1133 28.1133 28.1133C26.5988 28.1133 25.3711 29.341 25.3711 30.8555C25.3711 32.3699 26.5988 33.5977 28.1133 33.5977Z" fill="white"/>
  <path d="M24 13.0312C24.7572 13.0312 25.3711 12.4174 25.3711 11.6602C25.3711 10.9029 24.7572 10.2891 24 10.2891C23.2428 10.2891 22.6289 10.9029 22.6289 11.6602C22.6289 12.4174 23.2428 13.0312 24 13.0312Z" fill="white"/>
  <path d="M15.7734 11.6602C16.5307 11.6602 17.1445 11.0463 17.1445 10.2891C17.1445 9.53183 16.5307 8.91797 15.7734 8.91797C15.0162 8.91797 14.4023 9.53183 14.4023 10.2891C14.4023 11.0463 15.0162 11.6602 15.7734 11.6602Z" fill="white"/>
  <path d="M32.2266 11.6602C32.9838 11.6602 33.5977 11.0463 33.5977 10.2891C33.5977 9.53183 32.9838 8.91797 32.2266 8.91797C31.4693 8.91797 30.8555 9.53183 30.8555 10.2891C30.8555 11.0463 31.4693 11.6602 32.2266 11.6602Z" fill="white"/>
  <path d="M13.0312 6.17578C13.7885 6.17578 14.4023 5.56192 14.4023 4.80469C14.4023 4.04745 13.7885 3.43359 13.0312 3.43359C12.274 3.43359 11.6602 4.04745 11.6602 4.80469C11.6602 5.56192 12.274 6.17578 13.0312 6.17578Z" fill="white"/>
  <path d="M24 4.80469C24.7572 4.80469 25.3711 4.19083 25.3711 3.43359C25.3711 2.67636 24.7572 2.0625 24 2.0625C23.2428 2.0625 22.6289 2.67636 22.6289 3.43359C22.6289 4.19083 23.2428 4.80469 24 4.80469Z" fill="white"/>
  <path d="M34.9688 6.17578C35.726 6.17578 36.3398 5.56192 36.3398 4.80469C36.3398 4.04745 35.726 3.43359 34.9688 3.43359C34.2115 3.43359 33.5977 4.04745 33.5977 4.80469C33.5977 5.56192 34.2115 6.17578 34.9688 6.17578Z" fill="white"/>
  <path d="M24 37.7109C24.7572 37.7109 25.3711 37.0971 25.3711 36.3398C25.3711 35.5826 24.7572 34.9688 24 34.9688C23.2428 34.9688 22.6289 35.5826 22.6289 36.3398C22.6289 37.0971 23.2428 37.7109 24 37.7109Z" fill="white"/>
  <path d="M15.7734 39.082C16.5307 39.082 17.1445 38.4682 17.1445 37.7109C17.1445 36.9537 16.5307 36.3398 15.7734 36.3398C15.0162 36.3398 14.4023 36.9537 14.4023 37.7109C14.4023 38.4682 15.0162 39.082 15.7734 39.082Z" fill="white"/>
  <path d="M32.2266 39.082C32.9838 39.082 33.5977 38.4682 33.5977 37.7109C33.5977 36.9537 32.9838 36.3398 32.2266 36.3398C31.4693 36.3398 30.8555 36.9537 30.8555 37.7109C30.8555 38.4682 31.4693 39.082 32.2266 39.082Z" fill="white"/>
  <path d="M13.0312 44.5664C13.7885 44.5664 14.4023 43.9525 14.4023 43.1953C14.4023 42.4381 13.7885 41.8242 13.0312 41.8242C12.274 41.8242 11.6602 42.4381 11.6602 43.1953C11.6602 43.9525 12.274 44.5664 13.0312 44.5664Z" fill="white"/>
  <path d="M24 45.9375C24.7572 45.9375 25.3711 45.3236 25.3711 44.5664C25.3711 43.8092 24.7572 43.1953 24 43.1953C23.2428 43.1953 22.6289 43.8092 22.6289 44.5664C22.6289 45.3236 23.2428 45.9375 24 45.9375Z" fill="white"/>
  <path d="M34.9688 44.5664C35.726 44.5664 36.3398 43.9525 36.3398 43.1953C36.3398 42.4381 35.726 41.8242 34.9688 41.8242C34.2115 41.8242 33.5977 42.4381 33.5977 43.1953C33.5977 43.9525 34.2115 44.5664 34.9688 44.5664Z" fill="white"/>
  <path d="M39.082 25.3711C39.8393 25.3711 40.4531 24.7572 40.4531 24C40.4531 23.2428 39.8393 22.6289 39.082 22.6289C38.3248 22.6289 37.7109 23.2428 37.7109 24C37.7109 24.7572 38.3248 25.3711 39.082 25.3711Z" fill="white"/>
  <path d="M44.5664 25.3711C45.3236 25.3711 45.9375 24.7572 45.9375 24C45.9375 23.2428 45.3236 22.6289 44.5664 22.6289C43.8092 22.6289 43.1953 23.2428 43.1953 24C43.1953 24.7572 43.8092 25.3711 44.5664 25.3711Z" fill="white"/>
  <path d="M40.4531 15.7734C41.2104 15.7734 41.8242 15.1596 41.8242 14.4023C41.8242 13.6451 41.2104 13.0312 40.4531 13.0312C39.6959 13.0312 39.082 13.6451 39.082 14.4023C39.082 15.1596 39.6959 15.7734 40.4531 15.7734Z" fill="white"/>
  <path d="M40.4531 34.9688C41.2104 34.9688 41.8242 34.3549 41.8242 33.5977C41.8242 32.8404 41.2104 32.2266 40.4531 32.2266C39.6959 32.2266 39.082 32.8404 39.082 33.5977C39.082 34.3549 39.6959 34.9688 40.4531 34.9688Z" fill="white"/>
  <path d="M33.5977 19.8867C34.3549 19.8867 34.9688 19.2729 34.9688 18.5156C34.9688 17.7584 34.3549 17.1445 33.5977 17.1445C32.8404 17.1445 32.2266 17.7584 32.2266 18.5156C32.2266 19.2729 32.8404 19.8867 33.5977 19.8867Z" fill="white"/>
  <path d="M33.5977 30.8555C34.3549 30.8555 34.9688 30.2416 34.9688 29.4844C34.9688 28.7271 34.3549 28.1133 33.5977 28.1133C32.8404 28.1133 32.2266 28.7271 32.2266 29.4844C32.2266 30.2416 32.8404 30.8555 33.5977 30.8555Z" fill="white"/>
  <path d="M8.91797 25.3711C9.6752 25.3711 10.2891 24.7572 10.2891 24C10.2891 23.2428 9.6752 22.6289 8.91797 22.6289C8.16073 22.6289 7.54688 23.2428 7.54688 24C7.54688 24.7572 8.16073 25.3711 8.91797 25.3711Z" fill="white"/>
  <path d="M3.43359 25.3711C4.19083 25.3711 4.80469 24.7572 4.80469 24C4.80469 23.2428 4.19083 22.6289 3.43359 22.6289C2.67636 22.6289 2.0625 23.2428 2.0625 24C2.0625 24.7572 2.67636 25.3711 3.43359 25.3711Z" fill="white"/>
  <path d="M7.54688 15.7734C8.30411 15.7734 8.91797 15.1596 8.91797 14.4023C8.91797 13.6451 8.30411 13.0312 7.54688 13.0312C6.78964 13.0312 6.17578 13.6451 6.17578 14.4023C6.17578 15.1596 6.78964 15.7734 7.54688 15.7734Z" fill="white"/>
  <path d="M7.54688 34.9688C8.30411 34.9688 8.91797 34.3549 8.91797 33.5977C8.91797 32.8404 8.30411 32.2266 7.54688 32.2266C6.78964 32.2266 6.17578 32.8404 6.17578 33.5977C6.17578 34.3549 6.78964 34.9688 7.54688 34.9688Z" fill="white"/>
  <path d="M14.4023 19.8867C15.1596 19.8867 15.7734 19.2729 15.7734 18.5156C15.7734 17.7584 15.1596 17.1445 14.4023 17.1445C13.6451 17.1445 13.0312 17.7584 13.0312 18.5156C13.0312 19.2729 13.6451 19.8867 14.4023 19.8867Z" fill="white"/>
  <path d="M14.4023 30.8555C15.1596 30.8555 15.7734 30.2416 15.7734 29.4844C15.7734 28.7271 15.1596 28.1133 14.4023 28.1133C13.6451 28.1133 13.0312 28.7271 13.0312 29.4844C13.0312 30.2416 13.6451 30.8555 14.4023 30.8555Z" fill="white"/>
</svg>
