<svg width="48" height="48" viewBox="0 0 48 48" fill="none" xmlns="http://www.w3.org/2000/svg">
  <path d="M34.0828 6.3999C29.8971 6.3999 26.4724 9.82384 26.3773 14.0087V22.4734C25.6163 22.4734 24.8552 22.5685 23.9991 22.5685C23.1429 22.5685 22.3818 22.5685 21.6208 22.6636V14.0087C21.6208 9.82384 18.101 6.39991 13.8201 6.59013C9.72956 6.59013 6.49515 10.0141 6.40002 14.0087V34.1719C6.49515 38.3567 9.91981 41.7806 14.2007 41.5904C18.3864 41.4953 21.6208 38.1665 21.6208 34.1719V25.7071C22.3818 25.7071 23.1429 25.612 23.9991 25.612C24.8552 25.612 25.6163 25.612 26.3773 25.5169V34.0768C26.4724 38.2616 29.8971 41.6855 34.1779 41.4953C38.3637 41.4002 41.5981 38.0714 41.5981 34.0768V14.0087C41.6932 9.82384 38.2685 6.3999 34.0828 6.3999ZM14.0104 9.44341C16.5789 9.44341 18.4815 11.4407 18.4815 13.9136V22.7587C16.2935 23.0441 14.1055 23.7098 12.0127 24.6609C11.1565 25.1365 10.3003 25.5169 9.44416 26.1827V14.0087C9.44416 11.5358 11.4419 9.44341 14.0104 9.44341ZM18.4815 34.1719C18.4815 36.7398 16.4838 38.642 14.0104 38.642C11.4419 38.642 9.5393 36.6447 9.5393 34.1719V32.1746C9.5393 30.4626 10.9662 28.6555 13.3445 27.7044C14.9617 26.9436 16.7692 26.468 18.5766 26.1827L18.4815 34.1719ZM34.0828 38.642C31.5143 38.642 29.6117 36.6447 29.6117 34.1719V25.3267C31.7997 25.0414 33.9877 24.3756 36.0805 23.4245C36.9367 22.949 37.7929 22.5685 38.6491 21.9028V34.1719C38.5539 36.7398 36.4611 38.642 34.0828 38.642ZM34.7487 20.5712C33.1315 21.3321 31.324 21.8076 29.5166 22.093V14.0087C29.5166 11.4407 31.5143 9.53852 33.9877 9.53852C36.5562 9.53852 38.4588 11.5358 38.4588 14.0087V16.006C38.5539 17.813 37.127 19.4299 34.7487 20.5712Z" fill="white"/>
</svg>
