<svg width="48" height="48" viewBox="0 0 48 48" fill="none" xmlns="http://www.w3.org/2000/svg">
  <path d="M12.191 46.7812C12.0079 46.7813 11.826 46.7511 11.6527 46.6918C11.2511 46.5564 10.9151 46.2749 10.7116 45.9031C10.5081 45.5314 10.4519 45.0966 10.5542 44.6853L17.3042 17.6854L20.5779 18.5021L16.9363 33.0686C18.3402 32.1061 20.003 31.5919 21.7052 31.5937H24.0035C26.6736 31.5937 29.2837 30.802 31.5037 29.3186C33.7238 27.8352 35.4541 25.7268 36.4759 23.26C37.4977 20.7932 37.765 18.0788 37.2441 15.46C36.7232 12.8413 35.4375 10.4358 33.5495 8.54782C31.6614 6.65981 29.256 5.37406 26.6372 4.85316C24.0185 4.33226 21.3041 4.59961 18.8373 5.62139C16.3705 6.64317 14.2621 8.3735 12.7787 10.5936C11.2953 12.8136 10.5035 15.4237 10.5035 18.0938C10.4964 20.2471 11.0105 22.3703 12.002 24.2818L9.00504 25.8343C7.31674 22.5637 6.74403 18.8309 7.37419 15.2046C8.00434 11.5783 9.80282 8.2575 12.4955 5.74824C15.1882 3.23898 18.6275 1.67889 22.2891 1.30572C25.9508 0.932559 29.634 1.76679 32.7775 3.68127C35.9211 5.59575 38.3525 8.48549 39.7012 11.9101C41.0499 15.3347 41.242 19.1064 40.2482 22.6503C39.2544 26.1942 37.1291 29.316 34.1964 31.5399C31.2636 33.7639 27.6841 34.968 24.0035 34.9687H21.7052C20.7143 34.9685 19.7451 35.2591 18.9178 35.8044C18.0905 36.3498 17.4414 37.1259 17.051 38.0366L13.7418 45.7586C13.6118 46.0621 13.3955 46.3207 13.1198 46.5025C12.8442 46.6843 12.5212 46.7812 12.191 46.7812Z" fill="white"/>
  <path d="M23.1598 46.7812C24.5578 46.7812 25.6911 45.648 25.6911 44.25C25.6911 42.852 24.5578 41.7188 23.1598 41.7188C21.7618 41.7188 20.6286 42.852 20.6286 44.25C20.6286 45.648 21.7618 46.7812 23.1598 46.7812Z" fill="white"/>
</svg>
